<svg xmlns="http://www.w3.org/2000/svg" width="882" height="591" fill="none"><path fill="#FFE570" d="M848.372 423.029a107.151 107.151 0 0 0 11.737-27.655l20.755-3.97.228-22.954.212-22.955-20.69-4.359a107.557 107.557 0 0 0-11.216-27.819l11.867-17.472-16.099-16.382-16.051-16.35-17.711 11.518a106.987 106.987 0 0 0-27.674-11.729l-3.972-20.742-22.969-.211-22.969-.228-4.346 20.725a108.09 108.09 0 0 0-27.853 11.209l-17.385-11.892-16.409 16.073-16.376 16.073 11.525 17.7a107.074 107.074 0 0 0-11.737 27.656l-20.755 3.969-.211 22.954-.228 22.955 20.69 4.36a107.67 107.67 0 0 0 11.216 27.834l-11.9 17.424 16.083 16.382 16.083 16.382 17.711-11.534a107.238 107.238 0 0 0 27.674 11.729l3.842 20.742 22.969.228 22.969.211 4.411-20.595a107.256 107.256 0 0 0 27.788-11.291l17.483 11.86 16.392-16.089 16.393-16.073-11.477-17.684Zm-132.93-16.268a56.266 56.266 0 0 1-11.654-61.454 56.284 56.284 0 0 1 20.976-25.073 56.347 56.347 0 0 1 62.585.575 56.287 56.287 0 0 1 20.511 25.455 56.243 56.243 0 0 1 2.902 32.552 56.274 56.274 0 0 1-15.685 28.677 56.343 56.343 0 0 1-39.973 16.104 56.34 56.34 0 0 1-39.662-16.852v.016Z"/><path fill="url(#a)" d="M302.928 237.703c3.19-6.794 5.415-14 6.609-21.409l15.123-4.539-1.628-17.065-1.628-17.066-15.709-1.626a79.462 79.462 0 0 0-10.451-19.815l7.472-13.893-13.202-10.932-13.202-10.949-12.257 9.908a80.57 80.57 0 0 0-21.423-6.508l-4.428-15.227-17.076 1.627-17.076 1.627-1.66 15.585a80.09 80.09 0 0 0-19.828 10.444l-13.885-7.467-11.005 13.291-10.955 13.193 9.93 12.267a79.763 79.763 0 0 0-6.609 21.392l-15.123 4.539 1.628 17.065 1.628 17.066 15.692 1.626a80.661 80.661 0 0 0 10.467 19.815l-7.488 13.877 13.202 10.932 13.202 10.948 12.274-9.907a80.589 80.589 0 0 0 21.423 6.605l4.541 15.097 17.076-1.627 17.077-1.627 1.627-15.699a80.405 80.405 0 0 0 19.795-10.297l13.886 7.467 10.955-13.194 10.939-13.193-9.913-12.331Zm-99.983-1.969a42.005 42.005 0 0 1 .339-64.965 42.071 42.071 0 0 1 46.519-4.333 42.027 42.027 0 0 1 17.171 17.341 42.005 42.005 0 0 1 4.637 23.953 42.005 42.005 0 0 1-9.461 22.489 42.027 42.027 0 0 1-28.459 15.018 42.04 42.04 0 0 1-30.746-9.503Z"/><path fill="#64A4FF" d="M809.695 582.929h-1.433V480.602a41.307 41.307 0 0 0-12.11-29.169 41.358 41.358 0 0 0-29.189-12.103H661.674a42.81 42.81 0 0 1-30.207-12.521 42.757 42.757 0 0 1-12.541-30.183V205.508a41.312 41.312 0 0 0-12.104-29.164 41.36 41.36 0 0 0-29.178-12.108H309.162v-1.432h268.482a42.793 42.793 0 0 1 30.201 12.522 42.739 42.739 0 0 1 12.53 30.182v191.118a41.306 41.306 0 0 0 12.111 29.17 41.357 41.357 0 0 0 29.188 12.102h105.289a42.8 42.8 0 0 1 30.202 12.522 42.745 42.745 0 0 1 12.53 30.182v102.327Z"/><path fill="#BBD070" d="M377.988 97.975s16.278 64.666-22.79 82.334c-39.069 17.667-31.532-14.642-31.532-14.642s-16.002-4.441 27.544-29.12c20.478-11.664 26.778-38.572 26.778-38.572Z"/><path fill="#97A43C" d="M480.152 103.621s7.993 56.336-65.83 80.738c-73.823 24.403-84.356 55.312-84.356 55.312s-2.23-124.988 150.186-136.05Z"/><path fill="#48753A" d="M329.64 216.652c-21.894-8.346 30.148-53.116 70.128-51.912 39.98 1.204 67.1 16.008 93.895 9.761 0-.016-56.226 83.277-164.023 42.151Z"/><path fill="#DBD8E3" d="M403.187 254.068c1.27-16.994 2.149-32.899 2.637-47.714-4.102-2.18-9.035-4.718-13.023-6.589-12.225-5.824-29.301-13.649-40.175-18.659-6.398-2.929-12.665-5.076-12.665-5.076s-43.659-4.181-47.208-3.953a108.186 108.186 0 0 0-13.723 4.685c-15.48 5.873-45.335 17.895-50.089 21.246-6.967 4.978-31.906 127.152-32.557 135.449-.651 8.297 33.925 19.082 65.928 27.542 0 12.38-.276 29.738-.553 45.551 0 2.717-.098 5.368-.147 7.939h139.996a561.787 561.787 0 0 1-.505-7.939v-.993c-.521-10.737-2.621-29.949-2.083-48.658 0 0-.342-19.733 1.627-28.225.342-37.482 2.54-74.606 2.54-74.606Zm-177.599 71.824c.228-15.91 21.423-45.551 21.423-45.551.324-.141.655-.266.993-.374 0 0 1.09-.146 1.09-.13 0 .016 3.256-3.123 3.256-3.123.765 2.83 7.797 42.785 9.507 66.048-19.828-3.855-36.383-9.273-36.269-16.87Z"/><path fill="#323657" d="M405.873 406.566a1024.694 1024.694 0 0 1-2.588-19.733c-.245-2.164-.505-4.295-.749-6.508a1.96 1.96 0 0 1 0-.325c-1.026-8.931-1.872-17.504-2.491-25.346a80.218 80.218 0 0 1 .781-17.618c2.442-40.117 3.647-82.398 3.647-82.398 1.286-17.31 2.018-33.496 2.507-48.577 0 0-54.826-25.883-59.791-27.363 0 0 10.402 24.402 18.199 78.949 2.995 20.938 8.546 56.207 12.583 92.192 2.182 19.424 6.268 39.206 9.377 56.711.472 2.717.928 5.352 1.351 7.939h18.346c-.521-2.62-.895-5.271-1.172-7.923ZM314.501 342.16c2.165-20.286 4.102-40.524 3.175-51.602-7.57-89.166-28.96-112.755-32.069-116.204-2.393.912-11.525 4.328-14.195 5.385-14.651 5.775-44.457 16.268-48.478 19.229-6.967 4.978-34.445 133.057-35.275 141.338-.554 5.612 35.308 17.309 71.886 27.753-.326 10.021.619 24.158-2.719 38.93a33.773 33.773 0 0 0-1.627 7.744l51-.212c.31-2.635.635-5.271.961-7.939.976-7.955 1.986-16.121 2.995-24.792a2439.855 2439.855 0 0 0 25.704 6.507s14.357-24.272 18.525-34.163c.765-1.643-17.728-6.085-39.883-11.974Zm-65.944-30.681c-.488-18.253-.407-30.91-.407-30.91 1.807 6.247 4.314 24.126 6.511 41.891-7.406-3.84-6.023-7.321-6.104-10.998v.017Z"/><path fill="#EEA987" d="M290.523 173.46s5.551-10.477 4.021-40.248c-.439-8.248 43.35 19.522 43.35 19.522s-.163 2.847-.244 6.686v9.062c0 .797 0 1.968.114 2.912.114.943.114 2.098.211 3.026.323 2.001.869 3.96 1.628 5.84 1.954 4.652-32.687 4.929-49.08-6.8Z"/><path fill="#E8734D" d="m327.215 192.396 8.139 10.834s-4.72 6.329-13.12 1.627l4.981-12.461Z"/><path fill="#E8734D" d="M333.124 203.67s29.562 72.149 23.262 163.804l-9.327 16.984-10.516-14.398s-1.628-121.718-10.077-166.586l6.658.196Z"/><path fill="#EEA987" d="m335.875 182.31-8.644 10.086s-13.853-2.684-17.906-9.907c-4.053-7.223 26.55-.179 26.55-.179Z"/><path fill="#C4C1CC" d="M337.845 173.46s-1.009 7.711-10.63 18.936l10.5 14.104 5.681-29.282-5.551-3.758ZM293.16 164.203s20.039 22.662 34.055 28.193l-6.511 16.122-32.037-35.27 4.493-9.045Z"/><path fill="#323657" d="M499.23 369.214s-26.615-25.785-44.049-30.079c-8.14-1.985-18.705-13.113-28.797-26.208a527.076 527.076 0 0 1-9.767-13.292c-12.388-17.895-22.107-35.009-22.107-35.009s-36.61-42.882-7.227-61.998c0 0 12.599-.276 19.534 3.482 6.935 3.758 22.253 35.448 24.825 41.044 2.572 5.597 30.392 57.557 32.248 58.728 1.855 1.172 4.981 5.45 16.115 11.388 13.625 7.337 35.048 28.795 35.048 28.795l-15.823 23.149Z"/><path fill="#EFAA88" d="M371.509 399.099a17.13 17.13 0 0 1-5.307-.992s-2.784-1.79-4.883-2.945a18.612 18.612 0 0 0-1.628-.813 30.733 30.733 0 0 1-8.937-4.263c-3.5-2.651-14.895-13.323-14.895-13.323l7.358-11.388 3.418-11.225s26.681 2.652 30.181 4.767c.337.205.663.427.976.667 2.833 2.066 4.07 4.88 5.437 6.051.489.472 5.128 5.434 4.884 7.435a6.633 6.633 0 0 1-3.467 5.433s-.944 5.434-3.761 7.858a9.754 9.754 0 0 1-5.046 7.06s-1.302 5.027-4.33 5.678Z"/><path fill="#EEA886" d="M329.169 56.394s48.07-11.583 37.945 49.244c-10.125 60.826-21.667 65.756-50.936 53.685-29.268-12.071-27.25-51.017-28.992-70.05-1.741-19.035 26.599-31.984 41.983-32.879Z"/><path fill="#EEA886" d="M303.904 98.512c-.7-5.336-11.395-7.141-12.046.895-.651 8.037 5.128 22.027 9.116 20.579 3.988-1.448 3.972-14.104 2.93-21.474Z"/><path fill="#16202E" d="M289.986 120.295s.961-19.131 7.944-19.83c6.984-.7 8.139 6.979 8.139 6.979l7.082 1.236s-2.475-16.724 4.46-19.75c6.935-3.025 45.319 8.557 50.838 3.563 5.518-4.994 2.393-38.946-7.798-43.452-10.19-4.506-38.303-14.511-58.602-.342 0 0-16.002-1.627-18.184 11.388-2.181 13.014 1.645 50.692 6.121 60.208Z"/><path fill="#323657" d="m355.751 354.166-19.843 34.163s-52.58-13.551-64.854-17l28.048-33.366s41.348 9.403 56.649 16.203Z"/><path fill="#A77860" d="M337.715 171.426a45.967 45.967 0 0 1-35.813-22.45 53.362 53.362 0 0 0 35.65 15.618v3.92c0 .797.114 1.969.163 2.912Z"/><path fill="#4DA8F2" d="M693.743 473.705a7.842 7.842 0 0 0-7.517-3.034 7.847 7.847 0 0 0-6.19 5.23 8.413 8.413 0 0 0-.407 2.408 7.898 7.898 0 0 0 .472 2.798 8.135 8.135 0 0 0 2.572 3.514 7.806 7.806 0 0 0 4.086 1.626H687.899a8.452 8.452 0 0 0 2.246-.455 7.852 7.852 0 0 0 4.849-5.137 7.844 7.844 0 0 0-1.251-6.95Zm-4.265 10.232a5.787 5.787 0 0 1-1.628.342h-.391a5.77 5.77 0 0 1-1.628-.26 5.403 5.403 0 0 1-1.921-.976 4.528 4.528 0 0 1-.586-.521 5.775 5.775 0 0 1-1.628-4.197 5.155 5.155 0 0 1 .147-1.237 5.913 5.913 0 0 1 5.811-4.571 5.872 5.872 0 0 1 1.921 11.388l-.097.032Z"/><path fill="#EEA886" d="M393.062 326.169c29.871 30.73 69.363 69.448 69.363 69.448l15.432-29.282s-35.064-41.077-58.847-68.489c-7.277 3.644-20.658 12.087-25.948 28.323ZM374.602 367.506a85.878 85.878 0 0 1 10.109 5.564c2.1 1.724 10.614 8.134 12.681 9.598 2.068 1.464-3.109 5.759-18.329-.83-15.221-6.588-4.461-14.332-4.461-14.332Z"/><path fill="#FFE570" d="m375.302 279.512-14.016 130.291h184.55l14.032-130.291H375.302Z"/><path fill="#FFE570" d="M556.368 403.784H370.369l14.179-131.772h185.999l-14.179 131.772Zm-184.403-1.431h183.117l13.869-128.844H385.834l-13.869 128.844Z"/><path fill="#FFE570" d="M346.603 409.803h30.831v-11.729h-30.831v11.729Z"/><mask id="b" width="502" height="9" x="50" y="409" maskUnits="userSpaceOnUse" style="mask-type:luminance"><path fill="#fff" d="M551.631 409.527H50.057v7.939H551.63v-7.939Z"/></mask><g mask="url(#b)"><path fill="#96CBFF" d="M57.773 409.527h-7.716v7.939h7.716v-7.939Z"/><path fill="#95CAFF" d="M65.489 409.527h-7.716v7.939h7.716v-7.939Z"/><path fill="#94C9FF" d="M73.204 409.527H65.49v7.939h7.715v-7.939Z"/><path fill="#93C9FF" d="M80.921 409.527h-7.716v7.939h7.716v-7.939Z"/><path fill="#92C8FF" d="M88.637 409.527H80.92v7.939h7.716v-7.939Z"/><path fill="#91C7FF" d="M96.353 409.527h-7.716v7.939h7.716v-7.939Z"/><path fill="#90C6FF" d="M104.069 409.527h-7.716v7.939h7.716v-7.939Z"/><path fill="#8FC6FF" d="M111.785 409.527h-7.716v7.939h7.716v-7.939Z"/><path fill="#8EC5FF" d="M119.501 409.527h-7.716v7.939h7.716v-7.939Z"/><path fill="#8DC4FF" d="M127.217 409.527h-7.716v7.939h7.716v-7.939Z"/><path fill="#8CC3FF" d="M134.933 409.527h-7.716v7.939h7.716v-7.939Z"/><path fill="#8BC2FF" d="M142.649 409.527h-7.716v7.939h7.716v-7.939Z"/><path fill="#8AC2FF" d="M150.365 409.527h-7.716v7.939h7.716v-7.939Z"/><path fill="#89C1FF" d="M158.081 409.527h-7.716v7.939h7.716v-7.939Z"/><path fill="#88C0FF" d="M165.797 409.527h-7.716v7.939h7.716v-7.939Z"/><path fill="#87BFFF" d="M173.513 409.527h-7.716v7.939h7.716v-7.939Z"/><path fill="#86BFFF" d="M181.229 409.527h-7.716v7.939h7.716v-7.939Z"/><path fill="#85BEFF" d="M188.945 409.527h-7.716v7.939h7.716v-7.939Z"/><path fill="#84BDFF" d="M196.661 409.527h-7.716v7.939h7.716v-7.939Z"/><path fill="#83BCFF" d="M204.377 409.527h-7.716v7.939h7.716v-7.939Z"/><path fill="#82BBFF" d="M212.11 409.527h-7.716v7.939h7.716v-7.939Z"/><path fill="#81BBFF" d="M219.826 409.527h-7.716v7.939h7.716v-7.939Z"/><path fill="#80BAFF" d="M227.542 409.527h-7.716v7.939h7.716v-7.939Z"/><path fill="#7FB9FF" d="M235.258 409.527h-7.716v7.939h7.716v-7.939Z"/><path fill="#7EB8FF" d="M242.974 409.527h-7.716v7.939h7.716v-7.939Z"/><path fill="#7DB7FF" d="M250.69 409.527h-7.716v7.939h7.716v-7.939Z"/><path fill="#7CB7FF" d="M258.406 409.527h-7.716v7.939h7.716v-7.939Z"/><path fill="#7BB6FF" d="M266.122 409.527h-7.716v7.939h7.716v-7.939Z"/><path fill="#7AB5FF" d="M273.838 409.527h-7.716v7.939h7.716v-7.939Z"/><path fill="#79B4FF" d="M281.554 409.527h-7.716v7.939h7.716v-7.939Z"/><path fill="#78B4FF" d="M289.27 409.527h-7.716v7.939h7.716v-7.939Z"/><path fill="#77B3FF" d="M296.986 409.527h-7.716v7.939h7.716v-7.939Z"/><path fill="#76B2FF" d="M304.702 409.527h-7.716v7.939h7.716v-7.939Z"/><path fill="#74B1FF" d="M312.418 409.527h-7.716v7.939h7.716v-7.939Z"/><path fill="#73B0FF" d="M320.134 409.527h-7.716v7.939h7.716v-7.939Z"/><path fill="#72B0FF" d="M327.85 409.527h-7.716v7.939h7.716v-7.939Z"/><path fill="#71AFFF" d="M335.566 409.527h-7.716v7.939h7.716v-7.939Z"/><path fill="#70AEFF" d="M343.282 409.527h-7.716v7.939h7.716v-7.939Z"/><path fill="#6FADFF" d="M350.998 409.527h-7.716v7.939h7.716v-7.939Z"/><path fill="#6EADFF" d="M358.714 409.527h-7.716v7.939h7.716v-7.939Z"/><path fill="#6DACFF" d="M366.43 409.527h-7.716v7.939h7.716v-7.939Z"/><path fill="#6CABFF" d="M374.146 409.527h-7.716v7.939h7.716v-7.939Z"/><path fill="#6BAAFF" d="M381.862 409.527h-7.716v7.939h7.716v-7.939Z"/><path fill="#6AA9FF" d="M389.578 409.527h-7.716v7.939h7.716v-7.939Z"/><path fill="#69A9FF" d="M397.294 409.527h-7.716v7.939h7.716v-7.939Z"/><path fill="#68A8FF" d="M405.01 409.527h-7.716v7.939h7.716v-7.939Z"/><path fill="#67A7FF" d="M412.726 409.527h-7.716v7.939h7.716v-7.939Z"/><path fill="#66A6FF" d="M420.442 409.527h-7.716v7.939h7.716v-7.939Z"/><path fill="#65A6FF" d="M428.158 409.527h-7.716v7.939h7.716v-7.939Z"/><path fill="#64A5FF" d="M435.874 409.527h-7.716v7.939h7.716v-7.939Z"/><path fill="#63A4FF" d="M443.591 409.527h-7.716v7.939h7.716v-7.939Z"/><path fill="#62A3FF" d="M451.322 409.527h-7.716v7.939h7.716v-7.939Z"/><path fill="#61A2FF" d="M459.039 409.527h-7.716v7.939h7.716v-7.939Z"/><path fill="#60A2FF" d="M466.755 409.527h-7.716v7.939h7.716v-7.939Z"/><path fill="#5FA1FF" d="M474.471 409.527h-7.716v7.939h7.716v-7.939Z"/><path fill="#5EA0FF" d="M482.187 409.527h-7.716v7.939h7.716v-7.939Z"/><path fill="#5D9FFF" d="M489.903 409.527h-7.716v7.939h7.716v-7.939Z"/><path fill="#5C9EFF" d="M497.619 409.527h-7.716v7.939h7.716v-7.939Z"/><path fill="#5B9EFF" d="M505.335 409.527h-7.716v7.939h7.716v-7.939Z"/><path fill="#5A9DFF" d="M513.051 409.527h-7.716v7.939h7.716v-7.939Z"/><path fill="#599CFF" d="M520.767 409.527h-7.716v7.939h7.716v-7.939Z"/><path fill="#589BFF" d="M528.483 409.527h-7.716v7.939h7.716v-7.939Z"/><path fill="#579BFF" d="M536.199 409.527h-7.716v7.939h7.716v-7.939Z"/><path fill="#569AFF" d="M543.915 409.527h-7.716v7.939h7.716v-7.939Z"/><path fill="#59F" d="M551.631 409.527h-7.716v7.939h7.716v-7.939Z"/></g><path fill="#FFE570" d="M858.139 578.911H423.567v7.939h434.572v-7.939Z"/><path fill="#FFD104" d="M450.33 342.567c-1.498 7.256 1.888 14.072 7.553 15.227 5.665 1.155 11.395-3.79 12.941-11.046 1.547-7.256-1.904-14.072-7.569-15.227-5.665-1.155-11.444 3.791-12.925 11.046Z"/><path fill="#6069A8" d="M802.304 290.916s4.265 7.223 6.056 8.394c2.442 1.627.911 3.254-.244 3.254-1.156 0-7.081.423-8.384-1.058-1.302-1.48-1.953-5.905-3.158-7.06-1.204-1.155-2.458-5.775.586-6.898 2.654-1.025 5.144 3.368 5.144 3.368Z"/><path fill="#202338" d="M800.465 287.743s4.884 8.46 5.714 9.761c.83 1.302-1.628 1.253-3.077.651-1.449-.602-5.274-6.637-5.828-7.744a4.166 4.166 0 0 1-.114-2.83l3.305.162Z"/><path fill="#6069A8" d="m795.532 292.299 1.123 8.654.603.033-.196-6.231-1.53-2.456ZM760.094 290.916s4.248 7.223 6.055 8.394c2.442 1.627.912 3.254-.244 3.254-1.156 0-7.081.423-8.383-1.058-1.303-1.48-1.954-5.905-3.158-7.06-1.205-1.155-2.507-5.889.586-6.898 2.718-.911 5.144 3.368 5.144 3.368Z"/><path fill="#202338" d="M758.499 287.76s4.623 8.443 5.469 9.679c.847 1.237-1.627 1.253-3.093.651-1.465-.602-5.274-6.637-5.811-7.744a4.046 4.046 0 0 1-.114-2.83l3.549.244Z"/><path fill="#6069A8" d="m753.306 292.299 1.139 8.654.586.033-.179-6.231-1.546-2.456Z"/><path fill="#202338" d="m741.211 225.29 38.515 17.537a7.42 7.42 0 0 1 4.786 6.166c1.497 14.901 12.648 38.523 12.648 38.523 3.582 1.757 3.256.227 3.256.227-2.246-7.223-4.998-37.026-5.974-49.015-.212-2.538-.342-4.263-.358-4.881-.017-.618-.44-.862-1.156-1.448-5.291-4.278-27.039-13.144-27.039-13.144-16.278-.375-24.678 6.035-24.678 6.035Z"/><path fill="#202338" d="M733.95 232.822c1.189 10.396 16.051 9.208 16.051 9.208h18.02a111.896 111.896 0 0 0-6.511 19.408c-1.937 9.419-6.511 26.029-6.511 26.029s.293.569 3.548.26c0 0 14.146-28.176 19.535-35.253a48.313 48.313 0 0 0 5.078-14.739c.18-1.627 0-2.928-.553-3.449a41.753 41.753 0 0 0-3.972-2.716c-5.649-3.563-15.448-9.046-20.902-10.266-7.325-1.626-18.883-4.717-18.883-4.717a19.838 19.838 0 0 0-4.9 16.235Z"/><path fill="#464240" d="M746.208 152.669a16.757 16.757 0 0 1-1.383-10.574c1.318-5.45 6.365-10.867 13.771-8.378 7.407 2.489 13.398 8.248 8.954 14.885-4.445 6.637 4.02 9.663 1.872 12.819-2.149 3.156-1.335 6.508-.424 7.207.912.7 3.858 3.351 3.533 6.507-.326 3.156-14.374-9.045-14.374-9.045s-7.651-15.422-11.949-13.421Z"/><path fill="#EB4747" d="M768.787 218.051s-1.123 5.417-29.888-1.416c0 0 9.637-3.204 29.888 1.416Z"/><path fill="#5F8CC9" d="M738.557 218.148c-.439.846-.879 1.627-1.334 2.554l31.564.911c-1.628-5.563-1.124-13.095-.847-18.822.358-6.995 4.233-11.859 3.809-18.92 2.084.342 2.442.407 4.526.716-3.175-9.077-4.281-13.568-14.179-17.065a18.6 18.6 0 0 0-8.823-1.074c-11.395.944-14.927 1.09-20.56 11.388 8.823 1.399 7.375 4.571 10.044 13.323 1.303 4.279 2.654 9.046 1.97 13.552-.684 4.506-6.17 9.387-6.17 13.437Z"/><path fill="#EEA886" d="M756.871 169.718c-4.705-.878-3.696-3.481-3.696-3.481s.212-1.481.294-3.335v-1.497a17.763 17.763 0 0 0-.131-2.294c-.374-3.156 8.53-1.269 8.53-1.269s-.521 6.361.7 8.265c1.221 1.903-1.009 4.506-5.697 3.611Z"/><path fill="#EEA886" d="M747.918 166.22s9.458 10.916 13.023 13.454c0 0 4.02-3.628 1.546-13.226-.114.016-4.639-2.277-14.569-.228ZM748.162 139.931s-4.884 9.468 0 18.432c4.883 8.964 14.455-3.904 15.074-5.417.618-1.513 3.906-10.054-2.638-12.641-6.544-2.586-11.036-2.944-12.436-.374Z"/><path fill="#464240" d="M749.806 143.282s-3.386 4.442-3.793 7.728a17.646 17.646 0 0 1 2.474-12.169c3.809-5.954 13.479-.276 14.781 2.099 1.302 2.375 5.095 4.473-1.286 14.722 0 0-11.476-7.971-12.176-12.38Z"/><path fill="#A77860" d="M757.652 159.306a9.183 9.183 0 0 1-4.184 3.596v-1.497a7.85 7.85 0 0 0 4.184-2.099Z"/><path fill="#EEA886" d="M707.986 209.64s-2.344 1.025-3.451.553a10.215 10.215 0 0 0-3.369-.553c-.717 0-2.979-.813-2.947 0 .033.813 3.679 1.513 4.428 1.773.749.261-2.23 1.92-2.507 2.636-.277.716 3.077 5.498 4.965 4.132 1.888-1.367 2.914-4.067 3.256-4.23.487-.285.96-.594 1.416-.927l-1.791-3.384Z"/><path fill="#EEA886" d="M700.514 213.642s-5.486 4.555-5.567 5.157c-.081.602.212.911.733.504l5.437-4.229s-5.486 6.507-5.682 6.962c-.195.456.424.863.733.667.309-.195 6.153-6.279 6.153-6.279s-5.127 6.052-5.144 6.507a.585.585 0 0 0 .993.407c.423-.423 5.502-5.775 5.502-5.775s-3.418 4.652-3.255 5.059c.162.407.569.781 1.4-.455.83-1.237 3.158-3.905 3.158-3.905l-4.461-4.62Z"/><path fill="#2348FF" d="M766.133 242.03h-16.132s-14.862 1.188-16.05-9.208a19.851 19.851 0 0 1 4.883-16.187s7.846 2.083 14.651 3.742a52.602 52.602 0 0 1 12.404-1.074s29.057 9.599 28.195 14.642c.048 0-12.177-6.491-27.951 8.085Z"/><path fill="#5E5853" d="m755.634 224.021 30.766-.455-15.529 7.873-15.237-7.418Z"/><path fill="#5F8CC9" d="M765.189 220.149a26.277 26.277 0 0 1-15.399.261l-.407-3.254 17.467.976-1.661 2.017Z"/><path fill="#91887F" d="m770.871 231.439-15.237-5.889v-1.529l16.441 5.922-1.204 1.496Z"/><path fill="#EDDAD3" d="M765.091 221.548a1.513 1.513 0 0 0 2.1 1.513l1.791-.764a1.286 1.286 0 0 0 .765-1.367c-.749-4.653-2.344-22.775 0-25.866a11.376 11.376 0 0 0 1.709-3.026c1.531 3.969 3.451 9.078 4.216 11.827l14.537 19.31 4.884 1.237a162.794 162.794 0 0 0-10.972-22.402c-.944-2.537-3.679-10.281-6.088-17.163-1.53-4.343-2.93-8.345-3.679-10.493a4.879 4.879 0 0 0-2.116-2.602c-2.263-1.351-6.007-3.466-9.409-5.125l-.326-.163c6.512 9.761 3.94 37.417 2.67 55.068l-.082.016ZM741.081 167.278c-2.084.325-7.212 5.32-9.946 10.346-3.11 5.743-6.284 12.283-8.661 14.43-4.362 3.953-16.587 17.895-17.173 17.586a36.776 36.776 0 0 0 3.809 4.376c.228.098 20.087-17.098 22.008-19.717 1.921-2.619 6.642-12.917 8.14-12.689a76.77 76.77 0 0 1 3.548 9.615c.018.094.045.187.082.276a30.892 30.892 0 0 1 .423 12.852 43.339 43.339 0 0 1-4.77 12.282 2.099 2.099 0 0 0 0 1.497c.092.268.285.49.537.618l5.828 2.164 1.384.504a2.993 2.993 0 0 0 3.988-2.407c1.302-9.973 2.947-20.157 4.249-23.996a36.298 36.298 0 0 0-2.247-29.494c-3.76.394-7.498.98-11.199 1.757Z"/><path fill="#6E6760" d="m770.87 231.439 9.149-24.955 29.496.472-8.725 23.003-29.92 1.48Z"/><path fill="#807066" d="M789.46 217.514c-.911 1.806-.634 3.758.603 4.376 1.237.618 2.962-.342 3.858-2.131.895-1.79.635-3.758-.603-4.376-1.237-.618-2.962.341-3.858 2.131Z"/><path fill="#464240" d="M758.352 149.35a5.285 5.285 0 0 1 .147 5.483c-1.742 2.538.439 5.027.814 7.695.374 2.668-7.277 9.76 1.253 13.405 8.53 3.644 11.232-2.343 9.051-5.613a18.386 18.386 0 0 1-3.89-10.558c-.196-4.685-1.726-11.908-7.375-10.412Z"/><path fill="#FF8159" d="M716.695 137.165h17.792v15.585l-2.718-2.716h-15.074v-12.869Z"/><path fill="#BBD070" d="M616.843 334.856s-38.759 36.864-19.909 65.577c18.851 28.713 27.674 3.563 27.674 3.563s12.746 3.839-6.17-31.544c-8.904-16.691-1.595-37.596-1.595-37.596Z"/><path fill="#97A43C" d="M545.168 294.885s-29.61 34.781 9.979 82.968c39.589 48.186 33.452 73.613 33.452 73.613s55.119-83.748-43.431-156.581Z"/><path fill="#48753A" d="M597.536 436.906c18.411 3.725 3.517-49.813-24.124-66.13-27.641-16.317-52.336-17.895-67.817-33.642 0 0 1.205 81.487 91.941 99.772Z"/><path fill="#EEA886" d="m477.124 460.397.977-2.407a5.596 5.596 0 0 1 1.937-1.351 6.3 6.3 0 0 1 2.718-.65.893.893 0 0 1 .586.553c.139.288.195.609.163.927a1.117 1.117 0 0 1 .407 1.009.975.975 0 0 1 .212 1.073.834.834 0 0 1 .228.895 6.472 6.472 0 0 0-1.058.797 15.401 15.401 0 0 1-3.842 1.887s-1.954.033-2.328-2.733Z"/><path fill="#CF8C6C" d="M480.119 459.291a5.87 5.87 0 0 1-.13 1.448c-.163.325 2.295 1.025 2.295 1.025s-.781-2.473-2.165-2.473Z"/><path fill="#3B3F66" d="m434.344 569.947 1.075-3.335 4.541.732-.683 3.01-4.933-.407Z"/><path fill="#555C94" d="m471.492 569.557.26 1.838 4.965-.83-.26-2.733-4.965 1.725Z"/><path fill="#354C70" d="M460.748 518.198s-.733 3.986-1.628 8.394l-.44 2.343c-.83 4.246-1.628 8.345-1.986 9.191-.7 1.92-15.888 29.739-15.888 29.739s-6.218-.472-6.511-1.269c0 0 12.73-30.21 12.665-31.3-.065-1.09 1.546-32.065 1.546-32.065s11.916 13.177 12.242 14.967Z"/><path fill="#354C70" d="M467.732 501.458s5.941 30.422 6.511 32.748c.57 2.326 2.751 33.48 2.751 33.48s-1.335 2.765-6.267 1.724c0 0-6.723-33.48-7.293-34.602-2.197-4.36-13.023-25.444-14.048-28.453a18.108 18.108 0 0 1-.733-6.507s7.928-4.523 19.079 1.61Z"/><path fill="#DEB135" d="M465.192 462.057s2.605 6.507 3.256 6.312c.651-.196 8.139-8.997 8.139-8.997s3.435 4.279 2.963 4.767c-.472.488-9.474 15.39-10.695 15.129-1.221-.26-6.658-9.256-6.658-9.256s-.293-6.784 2.995-7.955Z"/><path fill="#F2C344" d="M454.041 449.66a106.418 106.418 0 0 1 8.628 7.207c1.872 2.05 7.016 10.542 6.641 13.096a184.483 184.483 0 0 0-2.132 24.825c0 5.824 1.807 7.321.651 7.402-1.156.082-18.33 6.263-20.853 7.012 0 0 1.628-20.498 2.491-22.873.863-2.375-2.686-27.152 4.574-36.669Z"/><path fill="#D9D0C4" d="m497.586 439.867 1.514 7.63 1.514 7.646a41.646 41.646 0 0 0-18.525-.765l-.667-3.367-.668-3.384a41.965 41.965 0 0 0 16.832-7.76Z"/><path fill="#84BDFF" d="M471.752 571.395s3.744-.732 3.874-.846c.131-.114.928-1.627 1.514-1.334.586.293.586 2.05 1.156 2.359.57.309 5.03 3.253 5.584 3.872.553.618 3.923.227 4.313 1.187.391.96.424 3.254-4.623 2.668-5.046-.585-10.825.293-11.899-.293-1.075-.585-.277-6.165.081-7.613ZM434.295 569.915s3.81-.114 3.956-.212c.147-.098 1.172-1.415 1.709-1.074.537.342.244 2.131.749 2.522.505.39 4.444 4.083 4.884 4.718.439.634 3.841.846 4.069 1.854.228 1.009-.097 3.254-4.997 1.904-4.9-1.351-10.712-1.448-11.688-2.213-.977-.764.732-6.165 1.318-7.499Z"/><path fill="#EEA987" d="M463.906 502.873s.456 1.839 1.172 2.245c.716.407-3.402 4.36-3.402 4.36a36.637 36.637 0 0 1-1.628-4.034 25.28 25.28 0 0 1 3.858-2.571Z"/><path fill="#FFD255" d="M451.046 457.664s-4.884 23.068-5.258 25.427c-.374 2.359 14.228 23.573 14.228 23.573l4.883-2.88s-11.818-21.408-11.818-22.385c0-.976 5.649-19.521 5.649-19.521a4.383 4.383 0 1 0-7.716-4.165l.032-.049Z"/><path fill="#3C5780" d="M466.739 504.451a78.9 78.9 0 0 1 1.481 10.249c-.098 2.408-9.051-3.774-8.595-6.165l7.114-4.084Z"/><path fill="#EEA886" d="M454.041 449.66s12.323 13.438 11.558 11.941c-2.702-5.303-4.59-6.198-4.558-7.19.033-.993.326-2.977.374-3.71.098-1.415.212-2.554.212-2.554s-6.121-8.589-5.844-5.661a17.863 17.863 0 0 1-1.742 7.174Z"/><path fill="#EEA886" d="M465.778 433.831a30.465 30.465 0 0 1 1.709 4.881 20.875 20.875 0 0 0 0 2.717c.393 1.343.714 2.706.961 4.083-.131.781-1.775.374-2.003 1.627-.228 1.252-1.416 3.676-2.002 3.725-1.53.13-7.374-2.245-7.732-3.465-.358-1.22-2.491-8.02-3.158-9.322-.668-1.301 10.288-8.394 11.281-6.344l.944 2.098Z"/><path fill="#16202E" d="M450.899 436.776c-.781-3.368 3.093-3.774 3.093-3.774s2.524-2.945 8.563-2.587c6.039.358 5.176 8.216 5.176 8.216a22.795 22.795 0 0 0-6.006-.163 28.82 28.82 0 0 0 0 4.197l-2.279-.195s.244-2.994-.847-3.14c-1.09-.146-1.449 6.328-3.5 7.744a2.21 2.21 0 0 0-.26-.895 26.629 26.629 0 0 1-1.628-3.254 37.453 37.453 0 0 1-2.312-6.149Z"/><path fill="#EEA886" d="M460.064 440.062a1.756 1.756 0 0 0-2.086-1.22c-.29.068-.558.207-.779.407-1.449 1.09 0 4.88 1.465 4.88s2.002-2.082 1.4-4.067Z"/><path fill="#C48A6F" d="M456.337 446.374c.118.533.334 1.041.635 1.497a12.799 12.799 0 0 0 4.509 2.359l-.261 2.391s-5.176-2.001-4.883-6.247Z"/><mask id="c" width="7" height="10" x="478" y="453" maskUnits="userSpaceOnUse" style="mask-type:luminance"><path fill="#fff" d="m483.456 462.724.879-.407-3.939-8.346-2.214 1.025 3.337 7.093a1.367 1.367 0 0 0 1.937.635Z"/></mask><g mask="url(#c)"><path fill="#96CBFF" d="M478.28 453.971h-.098v9.143h.098v-9.143Z"/><path fill="#95CAFF" d="M478.377 453.971h-.097v9.143h.097v-9.143Z"/><path fill="#94C9FF" d="M478.475 453.971h-.097v9.143h.097v-9.143Z"/><path fill="#93C9FF" d="M478.573 453.971h-.098v9.143h.098v-9.143Z"/><path fill="#92C8FF" d="M478.67 453.971h-.097v9.143h.097v-9.143Z"/><path fill="#91C7FF" d="M478.752 453.971h-.098v9.143h.098v-9.143Z"/><path fill="#90C6FF" d="M478.85 453.971h-.098v9.143h.098v-9.143Z"/><path fill="#8FC6FF" d="M478.947 453.971h-.097v9.143h.097v-9.143Z"/><path fill="#8EC5FF" d="M479.045 453.971h-.098v9.143h.098v-9.143Z"/><path fill="#8DC4FF" d="M479.143 453.971h-.098v9.143h.098v-9.143Z"/><path fill="#8CC3FF" d="M479.224 453.971h-.098v9.143h.098v-9.143Z"/><path fill="#8BC2FF" d="M479.322 453.971h-.098v9.143h.098v-9.143Z"/><path fill="#8AC2FF" d="M479.419 453.971h-.097v9.143h.097v-9.143Z"/><path fill="#89C1FF" d="M479.517 453.971h-.098v9.143h.098v-9.143Z"/><path fill="#88C0FF" d="M479.615 453.971h-.098v9.143h.098v-9.143Z"/><path fill="#87BFFF" d="M479.696 453.971h-.098v9.143h.098v-9.143Z"/><path fill="#86BFFF" d="M479.794 453.971h-.098v9.143h.098v-9.143Z"/><path fill="#85BEFF" d="M479.891 453.971h-.098v9.143h.098v-9.143Z"/><path fill="#84BDFF" d="M479.989 453.971h-.097v9.143h.097v-9.143Z"/><path fill="#83BCFF" d="M480.087 453.971h-.098v9.143h.098v-9.143Z"/><path fill="#82BBFF" d="M480.184 453.971h-.098v9.143h.098v-9.143Z"/><path fill="#81BBFF" d="M480.266 453.971h-.098v9.143h.098v-9.143Z"/><path fill="#80BAFF" d="M480.364 453.971h-.098v9.143h.098v-9.143Z"/><path fill="#7FB9FF" d="M480.461 453.971h-.097v9.143h.097v-9.143Z"/><path fill="#7EB8FF" d="M480.559 453.971h-.098v9.143h.098v-9.143Z"/><path fill="#7DB7FF" d="M480.657 453.971h-.098v9.143h.098v-9.143Z"/><path fill="#7CB7FF" d="M480.738 453.971h-.098v9.143h.098v-9.143Z"/><path fill="#7BB6FF" d="M480.836 453.971h-.098v9.143h.098v-9.143Z"/><path fill="#7AB5FF" d="M480.933 453.971h-.098v9.143h.098v-9.143Z"/><path fill="#79B4FF" d="M481.031 453.971h-.098v9.143h.098v-9.143Z"/><path fill="#78B4FF" d="M481.129 453.971h-.098v9.143h.098v-9.143Z"/><path fill="#77B3FF" d="M481.21 453.971h-.098v9.143h.098v-9.143Z"/><path fill="#76B2FF" d="M481.308 453.971h-.098v9.143h.098v-9.143Z"/><path fill="#74B1FF" d="M481.405 453.971h-.098v9.143h.098v-9.143Z"/><path fill="#73B0FF" d="M481.503 453.971h-.098v9.143h.098v-9.143Z"/><path fill="#72B0FF" d="M481.601 453.971h-.098v9.143h.098v-9.143Z"/><path fill="#71AFFF" d="M481.682 453.971h-.098v9.143h.098v-9.143Z"/><path fill="#70AEFF" d="M481.78 453.971h-.098v9.143h.098v-9.143Z"/><path fill="#6FADFF" d="M481.877 453.971h-.097v9.143h.097v-9.143Z"/><path fill="#6EADFF" d="M481.975 453.971h-.098v9.143h.098v-9.143Z"/><path fill="#6DACFF" d="M482.073 453.971h-.098v9.143h.098v-9.143Z"/><path fill="#6CABFF" d="M482.154 453.971h-.098v9.143h.098v-9.143Z"/><path fill="#6BAAFF" d="M482.251 453.971h-.097v9.143h.097v-9.143Z"/><path fill="#6AA9FF" d="M482.349 453.971h-.097v9.143h.097v-9.143Z"/><path fill="#69A9FF" d="M482.447 453.971h-.098v9.143h.098v-9.143Z"/><path fill="#68A8FF" d="M482.544 453.971h-.097v9.143h.097v-9.143Z"/><path fill="#67A7FF" d="M482.626 453.971h-.098v9.143h.098v-9.143Z"/><path fill="#66A6FF" d="M482.724 453.971h-.098v9.143h.098v-9.143Z"/><path fill="#65A6FF" d="M482.822 453.971h-.098v9.143h.098v-9.143Z"/><path fill="#64A5FF" d="M482.919 453.971h-.098v9.143h.098v-9.143Z"/><path fill="#63A4FF" d="M483.017 453.971h-.098v9.143h.098v-9.143Z"/><path fill="#62A3FF" d="M483.115 453.971h-.098v9.143h.098v-9.143Z"/><path fill="#61A2FF" d="M483.196 453.971h-.098v9.143h.098v-9.143Z"/><path fill="#60A2FF" d="M483.293 453.971h-.097v9.143h.097v-9.143Z"/><path fill="#5FA1FF" d="M483.391 453.971h-.097v9.143h.097v-9.143Z"/><path fill="#5EA0FF" d="M483.489 453.971h-.098v9.143h.098v-9.143Z"/><path fill="#5D9FFF" d="M483.586 453.971h-.097v9.143h.097v-9.143Z"/><path fill="#5C9EFF" d="M483.668 453.971h-.098v9.143h.098v-9.143Z"/><path fill="#5B9EFF" d="M483.765 453.971h-.097v9.143h.097v-9.143Z"/><path fill="#5A9DFF" d="M483.863 453.971h-.097v9.143h.097v-9.143Z"/><path fill="#599CFF" d="M483.961 453.971h-.098v9.143h.098v-9.143Z"/><path fill="#589BFF" d="M484.059 453.971h-.098v9.143h.098v-9.143Z"/><path fill="#579BFF" d="M484.14 453.971h-.098v9.143h.098v-9.143Z"/><path fill="#569AFF" d="M484.238 453.971h-.098v9.143h.098v-9.143Z"/><path fill="#59F" d="M484.335 453.971h-.097v9.143h.097v-9.143Z"/></g><path fill="#DB9C7C" d="M482.496 456.037s-2.475 1.351-2.295 1.774a.724.724 0 0 0 .488.488l-.765 1.008s-.13.96.96.814c0 0-.211.878.814.618 0 0 .114.651.619.602a9.236 9.236 0 0 0 2.035-.96s.244-.358-.228-.895a.975.975 0 0 0-.212-1.073 1.09 1.09 0 0 0-.407-1.009s.228-1.204-.749-1.48l-.26.113Z"/><mask id="d" width="11" height="9" x="473" y="447" maskUnits="userSpaceOnUse" style="mask-type:luminance"><path fill="#fff" d="m475.285 455.777 8.676-1.61-1.416-7.126-8.611 1.969 1.351 6.767Z"/></mask><g mask="url(#d)"><path fill="#96CBFF" d="M474.08 447.041h-.146v8.736h.146v-8.736Z"/><path fill="#95CAFF" d="M474.227 447.041h-.147v8.736h.147v-8.736Z"/><path fill="#94C9FF" d="M474.406 447.041h-.163v8.736h.163v-8.736Z"/><path fill="#93C9FF" d="M474.536 447.041h-.146v8.736h.146v-8.736Z"/><path fill="#92C8FF" d="M474.699 447.041h-.147v8.736h.147v-8.736Z"/><path fill="#91C7FF" d="M474.845 447.041h-.146v8.736h.146v-8.736Z"/><path fill="#90C6FF" d="M475.008 447.041h-.146v8.736h.146v-8.736Z"/><path fill="#8FC6FF" d="M475.155 447.041h-.147v8.736h.147v-8.736Z"/><path fill="#8EC5FF" d="M475.318 447.041h-.147v8.736h.147v-8.736Z"/><path fill="#8DC4FF" d="M475.464 447.041h-.146v8.736h.146v-8.736Z"/><path fill="#8CC3FF" d="M475.643 447.041h-.163v8.736h.163v-8.736Z"/><path fill="#8BC2FF" d="M475.773 447.041h-.147v8.736h.147v-8.736Z"/><path fill="#8AC2FF" d="M475.936 447.041h-.146v8.736h.146v-8.736Z"/><path fill="#89C1FF" d="M476.083 447.041h-.147v8.736h.147v-8.736Z"/><path fill="#88C0FF" d="M476.245 447.041h-.146v8.736h.146v-8.736Z"/><path fill="#87BFFF" d="M476.392 447.041h-.147v8.736h.147v-8.736Z"/><path fill="#86BFFF" d="M476.554 447.041h-.146v8.736h.146v-8.736Z"/><path fill="#85BEFF" d="M476.701 447.041h-.147v8.736h.147v-8.736Z"/><path fill="#84BDFF" d="M476.88 447.041h-.162v8.736h.162v-8.736Z"/><path fill="#83BCFF" d="M477.011 447.041h-.147v8.736h.147v-8.736Z"/><path fill="#82BBFF" d="M477.173 447.041h-.147v8.736h.147v-8.736Z"/><path fill="#81BBFF" d="M477.319 447.041h-.146v8.736h.146v-8.736Z"/><path fill="#80BAFF" d="M477.482 447.041h-.146v8.736h.146v-8.736Z"/><path fill="#7FB9FF" d="M477.629 447.041h-.147v8.736h.147v-8.736Z"/><path fill="#7EB8FF" d="M477.792 447.041h-.146v8.736h.146v-8.736Z"/><path fill="#7DB7FF" d="M477.938 447.041h-.146v8.736h.146v-8.736Z"/><path fill="#7CB7FF" d="M478.101 447.041h-.147v8.736h.147v-8.736Z"/><path fill="#7BB6FF" d="M478.247 447.041h-.146v8.736h.146v-8.736Z"/><path fill="#7AB5FF" d="M478.41 447.041h-.146v8.736h.146v-8.736Z"/><path fill="#79B4FF" d="M478.573 447.041h-.163v8.736h.163v-8.736Z"/><path fill="#78B4FF" d="M478.72 447.041h-.147v8.736h.147v-8.736Z"/><path fill="#77B3FF" d="M478.866 447.041h-.146v8.736h.146v-8.736Z"/><path fill="#76B2FF" d="M479.013 447.041h-.147v8.736h.147v-8.736Z"/><path fill="#74B1FF" d="M479.175 447.041h-.146v8.736h.146v-8.736Z"/><path fill="#73B0FF" d="M479.322 447.041h-.147v8.736h.147v-8.736Z"/><path fill="#72B0FF" d="M479.485 447.041h-.147v8.736h.147v-8.736Z"/><path fill="#71AFFF" d="M479.631 447.041h-.146v8.736h.146v-8.736Z"/><path fill="#70AEFF" d="M479.81 447.041h-.163v8.736h.163v-8.736Z"/><path fill="#6FADFF" d="M479.94 447.041h-.146v8.736h.146v-8.736Z"/><path fill="#6EADFF" d="M480.103 447.041h-.146v8.736h.146v-8.736Z"/><path fill="#6DACFF" d="M480.25 447.041h-.147v8.736h.147v-8.736Z"/><path fill="#6CABFF" d="M480.413 447.041h-.147v8.736h.147v-8.736Z"/><path fill="#6BAAFF" d="M480.559 447.041h-.146v8.736h.146v-8.736Z"/><path fill="#6AA9FF" d="M480.722 447.041h-.147v8.736h.147v-8.736Z"/><path fill="#69A9FF" d="M480.868 447.041h-.146v8.736h.146v-8.736Z"/><path fill="#68A8FF" d="M481.031 447.041h-.146v8.736h.146v-8.736Z"/><path fill="#67A7FF" d="M481.194 447.041h-.163v8.736h.163v-8.736Z"/><path fill="#66A6FF" d="M481.341 447.041h-.147v8.736h.147v-8.736Z"/><path fill="#65A6FF" d="M481.487 447.041h-.146v8.736h.146v-8.736Z"/><path fill="#64A5FF" d="M481.65 447.041h-.147v8.736h.147v-8.736Z"/><path fill="#63A4FF" d="M481.796 447.041h-.146v8.736h.146v-8.736Z"/><path fill="#62A3FF" d="M481.959 447.041h-.147v8.736h.147v-8.736Z"/><path fill="#61A2FF" d="M482.105 447.041h-.146v8.736h.146v-8.736Z"/><path fill="#60A2FF" d="M482.268 447.041h-.146v8.736h.146v-8.736Z"/><path fill="#5FA1FF" d="M482.431 447.041h-.163v8.736h.163v-8.736Z"/><path fill="#5EA0FF" d="M482.578 447.041h-.147v8.736h.147v-8.736Z"/><path fill="#5D9FFF" d="M482.724 447.041h-.146v8.736h.146v-8.736Z"/><path fill="#5C9EFF" d="M482.887 447.041h-.147v8.736h.147v-8.736Z"/><path fill="#5B9EFF" d="M483.033 447.041h-.146v8.736h.146v-8.736Z"/><path fill="#5A9DFF" d="M483.196 447.041h-.146v8.736h.146v-8.736Z"/><path fill="#599CFF" d="M483.343 447.041h-.147v8.736h.147v-8.736Z"/><path fill="#589BFF" d="M483.489 447.041h-.146v8.736h.146v-8.736Z"/><path fill="#579BFF" d="M483.652 447.041h-.147v8.736h.147v-8.736Z"/><path fill="#569AFF" d="M483.815 447.041h-.163v8.736h.163v-8.736Z"/><path fill="#59F" d="M483.961 447.041h-.146v8.736h.146v-8.736Z"/></g><path fill="#EEA886" d="M478.182 457.941a9.304 9.304 0 0 1 2.995.374c.245.098.456.228.456.504 0 .277-.374.586-1.221.651a6.873 6.873 0 0 0-1.872.537s-.879-.195-.358-2.066Z"/><path fill="#293B57" d="m459.169 526.592-.44 2.343-4.883-13.014c.586 1.268 5.323 10.671 5.323 10.671Z"/><path fill="#FFE570" d="M187.659 227.389h-77.844c-5.754 0-10.418 4.661-10.418 10.411v122.89c0 5.75 4.664 10.411 10.418 10.411h77.844c5.754 0 10.418-4.661 10.418-10.411V237.8c0-5.75-4.664-10.411-10.418-10.411Z"/><path fill="#FF8159" d="M187.594 320.198h-5.112v38.881h5.112v-38.881ZM177.485 324.558h-5.111v34.521h5.111v-34.521ZM166.513 330.22h-5.111v28.859h5.111V330.22ZM155.249 337.378h-5.112v21.718h5.112v-21.718ZM119.631 332.757l-1.107-.39 9.637-27.021 20.902-5.532 7.52-29.673 16.132-7.109 3.614-23.068 1.156.179-3.711 23.703-16.198 7.141-7.537 29.787-20.983 5.548-9.425 26.435Z"/><path fill="#FFE570" d="M151.928 298.236a3.139 3.139 0 0 1-2.738 5.119 3.138 3.138 0 0 1-1.674-5.558 3.131 3.131 0 0 1 1.079-.578 3.128 3.128 0 0 1 3.333 1.017Z"/><path fill="#FF8159" d="M151.927 303.117a3.74 3.74 0 0 1-2 .828 3.735 3.735 0 0 1-3.653-1.954 3.724 3.724 0 0 1 4.376-5.317 3.727 3.727 0 0 1 2.622 3.931 3.72 3.72 0 0 1-1.345 2.512Zm-3.971-4.881a2.536 2.536 0 0 0 1.359 4.486 2.543 2.543 0 0 0 2.489-1.323 2.539 2.539 0 0 0-.267-2.805 2.555 2.555 0 0 0-1.741-.888 2.542 2.542 0 0 0-1.857.612l.017-.082Z"/><path fill="#FFE570" d="M159.595 268.759a3.143 3.143 0 0 1 .344 3.474 3.146 3.146 0 0 1-3.082 1.644 3.138 3.138 0 1 1 .623-6.248 3.14 3.14 0 0 1 2.115 1.13Z"/><path fill="#FF8159" d="M159.514 273.623a3.719 3.719 0 0 1-4.101.375 3.706 3.706 0 0 1 .698-6.812 3.712 3.712 0 0 1 3.94 1.198 3.725 3.725 0 0 1-.537 5.239Zm-3.956-4.881a2.543 2.543 0 0 0-.818 2.697 2.533 2.533 0 0 0 2.177 1.789 2.543 2.543 0 0 0 2.781-2.766 2.533 2.533 0 0 0-.559-1.362 2.556 2.556 0 0 0-3.581-.325v-.033Z"/><path fill="#FFE570" d="M175.483 261.438a3.143 3.143 0 0 1 .344 3.474 3.14 3.14 0 1 1-.344-3.474Z"/><path fill="#FF8159" d="M175.401 266.302a3.716 3.716 0 0 1-5.614-1.153 3.708 3.708 0 0 1 4.363-5.281 3.707 3.707 0 0 1 1.788 1.196 3.724 3.724 0 0 1-.537 5.238Zm-3.972-4.88a2.548 2.548 0 0 0-.826 2.714 2.553 2.553 0 0 0 3.648 1.515 2.558 2.558 0 0 0 .776-3.872 2.576 2.576 0 0 0-3.565-.325l-.033-.032Z"/><path fill="#FFE570" d="M131.156 304.109a3.139 3.139 0 0 1-2.738 5.119 3.148 3.148 0 0 1-2.697-2.22 3.14 3.14 0 0 1 3.32-4.029 3.144 3.144 0 0 1 2.115 1.13Z"/><path fill="#FF8159" d="M131.075 308.973a3.71 3.71 0 1 1 .537-5.238 3.741 3.741 0 0 1-.537 5.238Zm-3.972-4.88a2.552 2.552 0 0 0 1.367 4.517 2.553 2.553 0 0 0 2.505-1.335 2.55 2.55 0 0 0-.274-2.824 2.574 2.574 0 0 0-3.598-.326v-.032ZM139.052 268.173h-26.925a2.246 2.246 0 0 0-2.247 2.245v2.017a2.246 2.246 0 0 0 2.247 2.245h26.925a2.246 2.246 0 0 0 2.246-2.245v-2.017a2.246 2.246 0 0 0-2.246-2.245ZM139.052 256.801h-26.925a2.247 2.247 0 0 0-2.247 2.245v2.018a2.246 2.246 0 0 0 2.247 2.245h26.925a2.246 2.246 0 0 0 2.246-2.245v-2.018a2.246 2.246 0 0 0-2.246-2.245Z"/><path fill="#16202E" d="M87.335 279.918s-.912 8.964.748 11.226c0 0-4.395-.96-5.404-2.473-1.01-1.513 4.656-8.753 4.656-8.753Z"/><path fill="#EEA886" d="m114.764 308.583 1.839-1.236a4.871 4.871 0 0 1 2.019 0 5.31 5.31 0 0 1 2.214.829.77.77 0 0 1 .162.667c-.05.269-.168.521-.342.732a.939.939 0 0 1-.195.911.846.846 0 0 1-.358.863s.114.52-.26.732a7.809 7.809 0 0 0-1.124 0 13.222 13.222 0 0 1-3.614-.488s-1.806-.342-.341-3.01Z"/><path fill="#CF8C6C" d="M117.482 309.315c-.2.366-.446.705-.732 1.009-.26.162 1.221 1.757 1.221 1.757s.521-2.148-.489-2.766Z"/><path fill="#EEA886" d="M113.82 308.729a6.847 6.847 0 0 0 1.627-.39c.619-.293-.114 3.123-.114 3.123a6.376 6.376 0 0 0-2.49-1.073c-.977-.033.977-1.66.977-1.66Z"/><path fill="#162D40" d="M72.277 399.457a56.95 56.95 0 0 0 4.216 5.547s2.198 1.139 2.263 2.05c.13 1.708.212 2.717-2.654 2.798-2.865.081-4.688 0-5.209-1.757a13.01 13.01 0 0 0-1.432-3.107l-.228 4.539h-.635s-.293-4.539-.342-5.19c-.049-.65-.456-3.14.912-4.246a3.767 3.767 0 0 1 3.109-.634Z"/><path fill="#162D40" d="M76.916 405.248a7.169 7.169 0 0 1-3.402 0c-1.856-.472-3.63-4.88-4.167-5.254l-.489-1.79h3.614c.043.852.254 1.686.619 2.457a42.312 42.312 0 0 0 3.825 4.587ZM92.626 397.749c.365.801.818 1.559 1.35 2.261.652.846 2.686 4.327 3.566 4.571.879.244 3.646.732 3.89 2.278.244 1.545.375 2.635-2.344 2.749-2.718.114-4.493.277-5.795-1.627a14.033 14.033 0 0 0-3.37-3.253v4.961h-1.042a43.261 43.261 0 0 0-.781-5.531 6.258 6.258 0 0 1 1.498-6.393c2.523-2.082 3.028-.016 3.028-.016Z"/><path fill="#162D40" d="M97.541 404.581s-2.425.618-3.353 0c-.928-.618-4.103-5.954-5.16-6.279 0 0 1.025-2.05 3.597-.553 0 0 4.232 5.954 4.916 6.832Z"/><path fill="#1D3B54" d="M70.893 323.371a25.378 25.378 0 0 0-4.362 9.761c-.928 5.287.553 23.019.504 25.638-.049 2.619-2.295 10.737-1.807 15.65.489 4.913 3.028 25.46 3.028 25.46l5.942-.114s-1.188-22.157-.895-24.223c.293-2.066 1.285-10.851 1.4-11.697.113-.846 6.771-23.345 6.771-27.152 0-3.806-2.311-19.538-10.58-13.323Z"/><path fill="#1D3B54" d="M88.116 325.111s5.632 21.491 6.3 24.403c.667 2.912 2.002 6.865 1.953 7.402-.049.536-.716 9.76-.716 9.76l-1.628 31.219h-5.909s-1.905-19.863-2.214-23.882c-.31-4.018 2.198-10.2 1.628-11.892-.57-1.692-9.767-21.327-9.767-21.327s-7.016-21.913 10.353-15.683Z"/><path fill="#EDDAD3" d="M86.374 292.966a6.84 6.84 0 0 1 3.956 2.033 26.674 26.674 0 0 1 3.744 5.694c.44.976 6.69 9.972 7.016 10.184.325.211 3.06-.521 5.242-.7a47.854 47.854 0 0 0 8.92-2.115l.782 4.035s-13.137 4.23-16.165 3.481c-3.712-.911-12.242-11.843-12.242-11.843s-6.364-7.451-1.253-10.769Z"/><path fill="#EDDAD3" d="M82.435 291.371a31.848 31.848 0 0 0 3.94 1.627c1.009.195 4.883 5.304 5.632 7.158.749 1.855 0 4.653-1.416 7.939-1.417 3.286 0 4.376-.733 7.662a90.07 90.07 0 0 0-.52 14.04c.113 1.822-18.77 5.254-22.53 1.936 0 0 2.54-8.411 5.567-11.567.651-.683.586-5.222.146-6.361-.44-1.139-5.486-9.598-5.486-9.598s-.358-8.59 1.824-10.282c1.904-1.48 7.097-2.001 8.041-2.326a15.941 15.941 0 0 1 5.535-.228Z"/><path fill="#D1C0BA" d="m83.379 297.879 1.807-2.083-1.628-5.45a35.513 35.513 0 0 0-.18 7.533Z"/><path fill="#EEA886" d="M72.26 292.966a5.066 5.066 0 0 0-5.778 2.993c-2.116 4.051-1.628 6.231-2.068 8.053-.44 1.822-2.441 14.006-2.555 14.543-.114.537-1.986 6.719-1.742 8.622.244 1.904 1.986 16.269 1.905 16.805-.082.537 3.353-.471 3.353-.471s-.13-14.642 0-15.927c.13-1.285.244-7.597 1.156-9.24.911-1.643 3.158-11.664 3.646-12.689.488-1.025 5.242-11.388 2.084-12.689ZM83.834 288.02a67.107 67.107 0 0 0-.455 7.093s-3.044 3.026-6.512-3.547a9.054 9.054 0 0 0 .358-6.409c-1.058-3.693 6.61 2.863 6.61 2.863Z"/><path fill="#EEA886" d="M83.379 295.113v2.766l-3.256-2.88 3.256.114Z"/><path fill="#D1C0BA" d="m83.379 297.878-1.449-1.789-4.883-4.864-1.824.813 8.156 5.84Z"/><path fill="#FAE6DE" d="m85.153 295.812 2.23.602-3.776-6.068 1.546 5.466ZM81.93 296.089l-2.051 3.27-4.737-7.435 2.035-1.041 4.753 5.206Z"/><path fill="#D1C0BA" d="M92.316 309.266a24.563 24.563 0 0 0 0-7.792s-.423 2.375-1.465 6.084l1.465 1.708ZM69.656 308.632l2.133-7.044a55.75 55.75 0 0 1-.912 9.175s-.732-1.302-1.22-2.131Z"/><path fill="#54281A" d="m144.798 275.201-31.743 39.971 1.107.862 30.636-40.833Z"/><path fill="#DB9C7C" d="M120.592 308.127s-2.377-.227-2.458.147a.618.618 0 0 0 .114.569l-1.026.358s-.537.618.293 1.025c0 0-.57.521.277.83 0 0-.228.504.146.716.621.174 1.26.272 1.905.292 0 0 .342-.13.26-.732a.81.81 0 0 0 .358-.862.892.892 0 0 0 .196-.911s.749-.732.179-1.399l-.244-.033Z"/><path fill="#EEA886" d="M116.685 307.347a8.652 8.652 0 0 1 1.937 1.626c.114.196.195.391 0 .57-.195.179-.553.244-1.172-.114a6.379 6.379 0 0 0-1.628-.521s-.407-.471.863-1.561ZM81.377 269.816s5.372-.146 6.365 6.214c.992 6.361-1.303 11.925-2.198 12.82-.895.894-6.267.227-7.537-3.075-1.27-3.302-3.11-5.71-2.833-8.541.277-2.83-.407-7.532 6.203-7.418Z"/><path fill="#16202E" d="M87.97 278.422s1.432-7.923-5.698-9.338c-7.13-1.415-9.637 3.449-10.304 6.361-.668 2.912.114 11.062.114 11.062a37.28 37.28 0 0 0 7.602 5.255s-2.377-8.704-1.482-14.935c3.192.511 6.445.511 9.637 0 0 0 .114 1.269.13 1.595Z"/><path fill="#A77860" d="M83.704 289.208a9.126 9.126 0 0 1-4.395-1.627 10.434 10.434 0 0 0 4.281 3.058c.067-.474.106-.952.114-1.431Z"/><path fill="#366E9C" d="m73.059 331.741-20.806 3.361 2.487 15.38 20.806-3.36-2.487-15.381Z"/><path fill="#EEA886" d="M61.305 348.668a2.794 2.794 0 0 1-.358-.83v-.944a1.32 1.32 0 0 0 0-.292 5.044 5.044 0 0 1-.244-1.627 35.81 35.81 0 0 1 1.042-3.84h1.84l1.725-.178a35.395 35.395 0 0 1 2.132 4.668v.196c-.071.449-.186.89-.342 1.317 0 .098-.276 1.204-.57 1.351a1.11 1.11 0 0 1-1.074 0 2.689 2.689 0 0 1-1.449.211 1.626 1.626 0 0 1-1.448 0s-.896.244-1.254-.032Z"/><path fill="#EDDAD3" d="M72.26 292.966a5.066 5.066 0 0 0-5.779 2.993 18.604 18.604 0 0 0-2.457 7.743c-.261 1.871-2.833 13.015-2.947 13.487-.114.472-.977 7.467-1.026 9.988 0 1.92.407 14.495.326 14.983-.081.488 5.812-.846 5.812-.846s-.652-11.599-.521-12.819c.114-3.033.435-6.055.96-9.045.7-2.099 3.467-12.624 3.94-13.665.472-1.041 4.85-11.518 1.692-12.819Z"/><path fill="#5C544D" d="m262.329 401.995.374-3.563a27.59 27.59 0 0 0-5.616.39s.44 2.994.489 3.433c.049.439 4.753-.26 4.753-.26Z"/><path fill="#3C4145" d="M253.783 409.445c5.974 0 8.855.358 9.506-.618.651-.976-.928-7.158-.928-7.158a12.474 12.474 0 0 1-4.883.212 12.814 12.814 0 0 1-2.93 2.586c-1.449.781-3.712 1.09-4.558 1.904-.847.813-2.182 3.123 3.793 3.074Z"/><path fill="#5C544D" d="m228.665 401.995.391-3.563a27.595 27.595 0 0 0-5.617.39s.424 2.994.489 3.433c.065.439 4.737-.26 4.737-.26Z"/><path fill="#3C4145" d="M220.135 409.445c5.974-.162 8.856.358 9.49-.618.635-.976-.927-7.158-.927-7.158-1.593.426-3.26.498-4.884.212a12.814 12.814 0 0 1-2.93 2.586c-1.449.781-6.74 1.432-7.586 2.245-.846.814-1.579 2.945 6.837 2.733Z"/><path fill="#DBD8E3" d="M255.427 321.614a44.522 44.522 0 0 1 2.165 13.828c-.326 6.393 1.302 13.388 1.953 20.075.749 7.434 3.761 25.069 3.875 29.054.113 3.986-.473 16.692-.473 16.692l-6.055.146s-5.079-30.812-6.398-33.968c-1.318-3.156-7.846-25.557-8.139-28.079-.293-2.521 13.072-17.748 13.072-17.748Z"/><path fill="#DBD8E3" d="M229.967 322.948s-3.256 17.521-3.76 21.441c-.505 3.921-.733 18.936-.944 21.376-.212 2.441-1.465 32.016-2.638 35.644h7.733s5.941-21.49 5.941-31.658c0-10.167 4.591-22.108 7.554-28.811 2.962-6.702 9.767-6.865 11.574-19.326 0 0-22.986-2.619-25.46 1.334Z"/><path fill="#EEA886" d="M245.709 263.048s-6.105-2.277-8.921 2.359c-2.816 4.637-2.539 13.942.537 15.081 3.077 1.139 7.684.537 9.263-2.359a23.284 23.284 0 0 0 2.93-9.907 6.103 6.103 0 0 0-3.809-5.174Z"/><path fill="#EEA886" d="M238.35 280.195a5.137 5.137 0 0 1-.163 2.391c-.406.781 7.668.814 7.668.814a51.954 51.954 0 0 1 1.904-7.906c1.237-3.612-9.409 4.701-9.409 4.701Z"/><path fill="#FCCCA2" d="M247.759 275.461s-.553.911-2.832.569c-2.279-.341-5.063-3.383-6.007-3.725-.944-.342-.96-.895-.96-.895l-.603.879h-1.009s.928-2.717-.456-3.823c-1.383-1.107 1.433-8.753 8.742-6.215 0 0 5.225 1.041 5.551 4.214a14.632 14.632 0 0 1-2.426 8.996Z"/><path fill="#E2D2CA" d="M237.699 282.489s0-1.497.716-1.627c2.77-.405 5.57-.563 8.368-.472v1.741s-1.612.976-9.084.358Z"/><path fill="#EEA886" d="M238.107 270.288c.13-.537 1.497-2.066 2.018-.423.521 1.643-.798 3.839-1.53 3.644-.733-.195-.814-1.871-.488-3.221Z"/><path fill="#63A4FF" d="M237.699 282.489s-3.744 1.35-8.139 3.253a9.098 9.098 0 0 0-5.535 7.386c-.293 2.928-3.418 18.481-4.004 19.799-.586 1.317-7.505 22.45-7.749 22.889-.244.439 5.649 2.896 6.04 2.7.39-.195 6.706-19.294 7.341-20.709 0 0 3.63-11.388 3.728-13.145 0 0 .114 4.881.309 6.231.196 1.35-3.255 27.867-3.141 28.599.113.732 15.578 1.627 21.78.977a75.335 75.335 0 0 0 11.184-2.115s-4.884-20.905-4.721-23.231c.325-5.06 2.018-14.642 2.018-14.642l5.047 9.501-6.512 16.626 1.482 5.059s12.013-18.155 12.404-19.798a8.934 8.934 0 0 0-1.221-5.141c-.635-1.366-4.884-11.745-5.779-13.209-.895-1.464-2.621-7.321-6.609-8.948a62.54 62.54 0 0 0-8.921-2.489l-9.002.407Z"/><path fill="#F25F54" d="m234.524 325.62-28.305-7.252-5.061 19.73 28.304 7.252 5.062-19.73Z"/><path fill="#C98462" d="M209.847 340.078s-.814 1.318-1.107 1.627c-.293.309.733.602 1.156.228.423-.375-.049-1.855-.049-1.855Z"/><path fill="#DE9D7D" d="M215.74 344.552c.235-.246.433-.526.586-.83 0 0 .13-.586.26-1.008 0-.131.081-.245.114-.31a6.16 6.16 0 0 0 .651-1.724c.114-.813.472-4.425.472-4.425l-2.197-.553-1.758-.374a34.828 34.828 0 0 0-4.005 4.539v.211a8.311 8.311 0 0 0 0 1.513c0 .114 0 1.383.309 1.627a1.236 1.236 0 0 0 1.172.276c.433.333.954.531 1.498.57a1.846 1.846 0 0 0 1.628.293s.781.504 1.27.195Z"/><path fill="#63A4FF" d="M224.302 321.663s-5.03 15.194-5.958 16.805a16.618 16.618 0 0 1-6.039-2.701l5.518-16.382 6.479 2.278Z"/><path fill="#252E3B" d="M677.464 345.414s18.639-54.645-16.946-71.58c-35.585-16.935-65.814 7.484-71.495 20.742-5.681 13.259-4.2 37.417.667 54.157 4.868 16.74 4.168 42.297-6.413 50.935-10.582 8.639-23.686 22.776-23.035 51.684.407 17.895 70.649-45.892 70.649-45.892l46.573-60.046Z"/><path fill="#E81B65" d="M627.456 410.373s-29.301 6.507-40.843 13.258c-11.541 6.752-37.44 37.97-37.44 51.375 0 13.405 112.745 25.948 112.745 25.948l21.357 77.957s56.975-13.893 63.78-25.427c6.804-11.535-21.651-94.128-26.518-110.835-4.965-17.066-25.378-28.958-49.129-32.276a163.432 163.432 0 0 0-43.952 0Z"/><path fill="#EEA886" d="M669.423 410.112s-.652 35.514-28.846 36.571c-28.194 1.058-22.318-34.065-22.318-34.065s20.609-8.362 51.164-2.506Z"/><path fill="#252E3B" d="M681.354 302.905s9.979 57.134-18.427 98.406c-29.415 42.753 18.427-98.406 18.427-98.406Z"/><path fill="#EEA886" d="M663.383 384.994s-1.97 16.984 1.302 27.559c3.272 10.574-43.105 10.85-43.073 2.163 0-9.874 4.738-18.122.293-35.041-4.444-16.919 41.478 5.319 41.478 5.319Z"/><path fill="#A77860" d="M627.407 387.158s14.651 15.243 33.355 1.627c0 0-1.547 9.761-15.009 10.997-13.462 1.237-18.346-12.624-18.346-12.624Z"/><path fill="#EEA886" d="M645.737 283.091s37.018 10.948 31.727 62.274S648 394.056 645.737 394.43c-2.263.374-30.929 2.261-40.029-60.013-9.099-62.275 40.029-51.326 40.029-51.326Z"/><path fill="#252E3B" d="M636.182 305.98s20.12 31.967 41.282 39.385c0 0 11.558-53.685-36.171-64.877-47.728-11.193-40.256 54.173-36.708 71.58a141.847 141.847 0 0 1 31.597-46.088Z"/><path fill="#88C0FF" d="M609.208 301.165s10.597-20.482 28.471-21.409c17.874-.927 28.504 14.641 28.504 14.641a30.395 30.395 0 0 0-11.63-12.989 30.42 30.42 0 0 0-16.858-4.467c-21.504-.048-28.487 24.224-28.487 24.224Z"/><path fill="#5FA0FF" d="m681.99 462.301 12.55 116.61H529.346l-12.551-116.61H681.99Z"/><path fill="#5FA0FF" d="M690.552 574.892H523.925l-12.714-118.041h166.644l12.697 118.041Zm-165.341-1.431h163.746l-12.404-115.162h-163.73l12.388 115.162Z"/><path fill="#5FA0FF" d="M678.913 578.895h30.831v-11.73h-30.831v11.73Z"/><path fill="#64A4FF" d="M583.081 228.788a25.442 25.442 0 0 1-14.133-4.276 25.408 25.408 0 0 1-10.823-26.089 25.407 25.407 0 0 1 6.96-13.014 25.431 25.431 0 0 1 27.718-5.506 25.424 25.424 0 0 1 11.41 9.366 25.403 25.403 0 0 1 4.279 14.124 25.42 25.42 0 0 1-7.452 17.947 25.453 25.453 0 0 1-17.959 7.448Zm0-49.358a23.992 23.992 0 0 0-13.326 4.031 23.953 23.953 0 0 0-3.651 36.871 23.992 23.992 0 0 0 26.133 5.202 23.957 23.957 0 0 0 14.806-22.141 23.99 23.99 0 0 0-7.044-16.898 24.018 24.018 0 0 0-16.918-7.016v-.049Z"/><path fill="#C2BEBC" d="M134.9 486.947v-2.115c4.314 0 8.66-.163 12.909-.358l.098 2.148c-4.298.211-8.66.325-13.007.325Zm-13.023-.13a359.143 359.143 0 0 1-13.022-.586l.13-2.164c4.33.277 8.676.472 12.925.602l-.033 2.148Zm38.955-1.09-.179-2.148c4.265-.374 8.579-.829 12.827-1.382l.277 2.147c-4.249.586-8.595.976-12.892 1.415l-.033-.032Zm-64.903-.537a244.174 244.174 0 0 1-12.909-1.627l.342-2.131c4.086.667 8.4 1.22 12.78 1.627l-.213 2.131Zm90.688-2.749-.358-2.115c4.167-.7 8.432-1.497 12.697-2.375l.44 2.114a290.485 290.485 0 0 1-12.746 2.408l-.033-.032Zm-116.375-1.497a141.614 141.614 0 0 1-12.535-3.628l.717-2.05a135.324 135.324 0 0 0 12.322 3.579l-.504 2.099Zm141.916-3.677-.504-2.098c3.955-.96 8.139-2.001 12.534-3.254l.553 2.082a389.086 389.086 0 0 1-12.583 3.27Zm-166.464-4.88a93.778 93.778 0 0 1-11.395-6.41l1.205-1.805a93.672 93.672 0 0 0 11.134 6.279l-.944 1.936Zm191.501-1.708-.619-2.115 5.372-1.529 7.114-2.001.569 2.082-7.065 1.936-5.371 1.627Zm112.631-1.806c-3.988-1.871-7.977-3.546-11.867-4.88l.732-2.034c3.956 1.415 8.009 3.107 12.063 5.011l-.928 1.903Zm-87.676-5.076-.521-2.082c4.639-1.188 8.79-2.164 12.664-2.961l.424 2.115a207.461 207.461 0 0 0-12.567 2.88v.048Zm63.486-3.481a102.197 102.197 0 0 0-12.632-2.082l.211-2.148c4.344.438 8.655 1.15 12.909 2.131l-.488 2.099Zm-38.238-1.627-.277-2.131c4.32-.567 8.667-.904 13.023-1.009v2.164c-4.257.099-8.506.42-12.73.96l-.016.016Zm-263.501-.748a73.06 73.06 0 0 1-8.774-9.761l1.742-1.285a70.759 70.759 0 0 0 8.513 9.468l-1.481 1.578ZM8.286 436.987a75.75 75.75 0 0 1-4.721-12.249l2.067-.602a74.949 74.949 0 0 0 4.672 11.875l-2.018.976ZM.879 411.918A103.117 103.117 0 0 1 0 398.904h2.165c.01 4.276.298 8.547.863 12.786l-2.149.228Zm1.937-25.834-2.149-.227c.424-4.23 1.091-8.574 1.938-12.917l2.116.423a131.091 131.091 0 0 0-1.905 12.721ZM7.7 360.869l-2.084-.602a114.371 114.371 0 0 1 4.249-12.396l2.067.797c-1.61 3.966-3 8.017-4.167 12.136l-.065.065ZM694.198 98.773s-3.646-3.254-10.108-8.02l1.302-1.741c6.511 4.88 10.206 8.134 10.239 8.134l-1.433 1.627Zm-20.673-15.471a296.18 296.18 0 0 0-10.923-6.914l1.123-1.855a292.09 292.09 0 0 1 11.004 6.98l-1.204 1.789Zm-22.139-13.308a263.823 263.823 0 0 0-11.509-5.856l.928-1.952a268.389 268.389 0 0 1 11.606 5.905l-1.025 1.903Zm-23.295-11.143c-4.004-1.627-8.041-3.254-12.046-4.653l.733-2.034a227.496 227.496 0 0 1 12.144 4.702l-.831 1.985Zm-164.169-2.636v-2.164c4.271-.1 8.53-.497 12.746-1.187l.342 2.131a94.154 94.154 0 0 1-13.088 1.22Zm-13.023-.683a93.717 93.717 0 0 1-12.843-2.522l.553-2.082a94.97 94.97 0 0 0 12.551 2.473l-.261 2.13Zm38.874-3.481-.619-2.067c1.4-.406 2.8-.862 4.216-1.334a222.65 222.65 0 0 1 8.139-2.521l.586 2.082c-2.686.765-5.404 1.627-8.139 2.49a75.286 75.286 0 0 1-4.232 1.35h.049Zm114.047-1.855a195.537 195.537 0 0 0-12.469-3.254l.488-2.098c4.167.96 8.416 2.082 12.6 3.253l-.619 2.099Zm-178.169-1.269c-3.809-1.48-7.716-3.254-11.932-5.238l.944-1.952c4.168 2.017 8.026 3.709 11.77 5.173l-.782 2.017Zm88.995-3.725-.423-2.115c4.232-.846 8.562-1.627 12.876-2.083l.261 2.148c-4.281.52-8.579 1.204-12.763 2.05h.049Zm64.056-.797c-4.248-.7-8.562-1.27-12.778-1.627l.211-2.148c4.265.407 8.612.993 12.925 1.627l-.358 2.148Zm-379.729-2.05-1.172-1.822a375.607 375.607 0 0 1 11.02-6.882l1.107 1.855a358.87 358.87 0 0 0-10.955 6.849Zm341.165-.293-.097-2.148c4.297-.211 8.676-.244 13.023-.13v2.148a179.592 179.592 0 0 0-12.926.13Zm-138.025-4.36c-3.663-1.985-7.293-4.034-11.395-6.296l1.058-1.887a760.943 760.943 0 0 0 11.297 6.296l-.96 1.887Zm-181.001-8.67-1.042-1.888a304.122 304.122 0 0 1 11.525-6.035l.96 1.935c-3.744 1.888-7.585 3.872-11.443 5.987Zm158.374-3.938c-4.233-2.326-7.961-4.295-11.395-6.019l.96-1.936c3.484 1.74 7.26 3.726 11.509 6.052l-1.074 1.903Zm-135.243-7.5-.862-1.984a247.35 247.35 0 0 1 12.095-4.88l.732 2.017a268.28 268.28 0 0 0-11.965 4.848Zm112.111-3.936c-4.135-1.741-8.14-3.254-12.03-4.523l.667-2.098a156.032 156.032 0 0 1 12.209 4.587l-.846 2.034Zm-87.904-4.88-.586-2.067a159.42 159.42 0 0 1 12.664-3.123l.424 2.115a174.853 174.853 0 0 0-12.502 3.09v-.016Zm63.486-3.027a117.272 117.272 0 0 0-12.665-1.968l.244-2.147a121.28 121.28 0 0 1 12.877 2.098l-.456 2.017Zm-38.287-1.968-.228-2.147c4.379-.456 8.758-.7 13.023-.716v2.163c-4.275.01-8.545.243-12.795.7Z"/><path fill="#D6D6D6" d="m425 492.527-54.289-15.78 16.279-4.913L425 492.527Z"/><path fill="#E8E8E8" d="m425 492.527-20.299-20.384-12.486 2.538L425 492.527Z"/><path fill="#C2C2C2" d="m383.197 480.375.44 6.279L425 492.527l-41.803-12.152Z"/><path fill="#D6D6D6" d="m151.684 78.242 47.875-26.745-16.458-1.09-31.417 27.835Z"/><path fill="#E8E8E8" d="m151.684 78.242 14.732-23.67 12.355-.325-27.087 23.995Z"/><path fill="#C2C2C2" d="m188.538 57.647.961 6.035-37.815 14.56 36.854-20.595Z"/><path fill="#FF8159" d="M667.29 48.514c1.155-2 4.042-2 5.197 0l27.687 47.956c1.154 2-.289 4.5-2.598 4.5h-55.375c-2.309 0-3.752-2.5-2.598-4.5l27.687-47.956Z"/><path fill="#2348FF" d="M809.028 111.566a1 1 0 0 0 1.732 0l15.183-26.288a1 1 0 0 0-.866-1.5h-30.365a1 1 0 0 0-.866 1.5l15.182 26.288Z"/><ellipse cx="89.385" cy="95.877" fill="#E81B65" rx="10.615" ry="10.611"/><path fill="#E81B65" d="M317.34 586.502c1.155 2 4.041 1.999 5.196 0l43.709-75.68c1.155-2-.288-4.501-2.598-4.501h-87.419c-2.31 0-3.753 2.501-2.598 4.501l43.71 75.68Z"/><defs><linearGradient id="a" x1="134.042" x2="319.838" y1="205.784" y2="187.005" gradientUnits="userSpaceOnUse"><stop stop-color="#96CBFF"/><stop offset="1" stop-color="#59F"/></linearGradient></defs></svg>