<svg xmlns="http://www.w3.org/2000/svg" width="1232" height="670" fill="none"><circle cx="656" cy="656" r="430.473" fill="#0722A7"/><circle cx="656" cy="656" r="475.779" stroke="#FFE570" stroke-width="2" opacity=".15"/><circle cx="656" cy="656" r="524.658" stroke="#FFE570" stroke-width="2" opacity=".15"/><circle cx="656" cy="656" r="585.541" stroke="#FFE570" stroke-width="2" opacity=".15"/><circle cx="656" cy="656" r="655" stroke="#FFE570" stroke-width="2" opacity=".15"/><g clip-path="url(#a)"><path fill="#78C2FF" d="M369.82 285.159h-39.996v35.099l6.124-6.103h33.872v-28.996Z"/><path fill="#0E2D3D" d="M310.248 296.584s9.778 4.794 7.349 17.803c-2.428 13.009-3.484 14.783-.781 19.852 2.703 5.068 5.913 26.799 3.463 30.918-2.45 4.118-30.134-18.078-33.978-36.705-3.843-18.627 2.429-26.884 4.646-29.967 2.217-3.084 10.622-6.294 19.301-1.901Z"/><path fill="#285173" d="M312.951 343.573a13.597 13.597 0 0 1 7.771 5.132c1.943 2.872 2.112 9.229 2.387 10.433.274 1.204 3.991 14.783 3.991 14.783l-10.369 6.948-3.78-37.296Z"/><path fill="#1D3B54" d="M351.279 575.437s6.758 9.102 5.829 10.559c-.93 1.457-8.046 1.647-12.375 0-4.329-1.647-4.435-12.333-6.335-16.895-.824-1.922.929-7.582 3.4-8.004a10.552 10.552 0 0 1 5.152.802s-2.618 6.421 4.329 13.538Z"/><path fill="#EEA886" d="M346.95 561.794a43.366 43.366 0 0 1 1.943 7.581c.422 3.084 4.815 9.609 4.603 10.412-.211.803-5.765 1.584-8.045-.549-2.281-2.133-3.717-8.321-4.224-12.017a29.506 29.506 0 0 0-1.056-5.153s4.604-2.555 6.779-.274Z"/><path fill="#1D3B54" d="M292.362 575.584s6.525 8.955 5.596 10.412c-.929 1.457-8.046 1.647-12.396 0-4.35-1.648-4.435-12.334-6.335-16.895-.803-1.922.95-7.582 3.421-8.004a11.19 11.19 0 0 1 5.364.887s-2.598 6.546 4.35 13.6Z"/><path fill="#EEA886" d="M287.948 561.942c.296 2.432.74 4.844 1.331 7.222.823 2.999 5.258 9.82 5.068 10.56-.19.739-5.786 1.584-8.046-.549-2.259-2.133-4.033-8.279-4.223-12.017a19.52 19.52 0 0 1 .528-6.167 5.072 5.072 0 0 1 5.342.951Z"/><path fill="#EEA886" d="M320.575 413.582s5.807 27.011 7.137 33.79c1.331 6.779 5.069 39.767 5.47 45.363.401 5.597 6.06 26.737 5.786 28.722-.275 1.985 8.447 42.238 8.447 42.238a5.242 5.242 0 0 1-6.082.211c-1.605-1.12-19.006-37.634-19.006-47.644 0-13.833-10.22-31.89-11.53-34.994-12.269-28.743-9.861-37.528-11.445-39.387-1.584-1.858-1.753 1.141-2.682 5.28s-2.935 39.893-4.224 44.35c-1.288 4.456-.253 19.872-.929 27.623-.675 7.751-3.59 42.723-3.59 42.723a3.191 3.191 0 0 1-5.448.106c-.697-.76-5.512-39.007-5.638-48.193-.127-9.187-.275-21.9-.528-25.892-2.471-38.14-8.447-43.589 1.013-70.6 17.908-50.453 43.249-3.696 43.249-3.696Z"/><path fill="#1D3B54" d="M281.55 406.022s-16.556 23.23-9.44 72.437c0 0 39.257 5.343 60.29-6.188 0 0-8.7-50.79-11.847-58.689-3.146-7.898-39.003-7.56-39.003-7.56ZM338.165 568.256v9.546h1.225v-7.371l-1.225-2.175ZM278.995 568.256v9.546h1.246v-7.371l-1.246-2.175Z"/><path fill="#EDDAD3" d="M303.681 340.194a63.58 63.58 0 0 0 8.214 3.316c2.112.422 10.327 11.087 11.784 14.994 1.457 3.907 0 9.736-2.978 16.579-2.977 6.842-.169 9.165-1.52 16.008a160.107 160.107 0 0 0-2.281 25.194c.254 3.823-34.252 4.541-42.234-2.407 0 0 7.918-11.848 8.932-13.558 1.014-1.711.169-10.919-.76-13.284s-7.138-22.534-7.138-22.534-5.068-15.48-.485-19.007c3.97-3.083 14.782-4.224 16.767-4.878a33.388 33.388 0 0 1 11.699-.423Z"/><path fill="#D6C5BE" d="m305.792 353.795 3.717-4.224-3.21-11.425a74.521 74.521 0 0 0-.507 15.649Z"/><path fill="#EEA886" d="M306.658 333.162s-.169 1.541-.359 3.653c0 .929-.19 1.985-.274 3.062a71.541 71.541 0 0 0-.338 8.11s-6.335 6.336-13.536-7.413a18.842 18.842 0 0 0 .76-13.389c-2.281-7.73 13.747 5.977 13.747 5.977Z"/><path fill="#EEA886" d="M305.708 347.987v5.807l-7.307-5.448 7.307-.359Z"/><path fill="#D6C5BE" d="m305.708 353.795-3.041-3.759-10.2-10.159-3.294 3.168 16.535 10.75Z"/><path fill="#285173" d="M291.01 340.849s8.447 12.988 8.975 18.711c.528 5.723-3.146 48.468-6.018 62.216-2.872 13.748-23.631-1.542-23.631-1.542s13.938-22.597 8.595-40.675c-5.343-18.077-7.306-25.342-7.306-25.342s1.837-10.074 8.447-11.489a139.635 139.635 0 0 1 10.938-1.879ZM324.291 360.236s1.542 5.449-4.456 17.529c0 0 0 15.459.254 20.274.253 4.815 3.59 22.196 3.59 22.196l-8.215 4.371a1.666 1.666 0 0 1-2.375-.734 1.668 1.668 0 0 1-.138-.913c1.668-13.896 7.159-66.588-4.688-80.758l4.752 1.415a38.368 38.368 0 0 1 11.276 16.62Z"/><path fill="#FAE6DE" d="m309.404 349.444 4.667 1.289-7.877-12.714 3.21 11.425ZM302.667 350.036l-4.265 5.596-8.743-14.593 2.809-1.162 10.199 10.159Z"/><path fill="#EB4747" d="m310.062 371.685-1.209.956 11.326 14.332 1.21-.956-11.327-14.332Z"/><path fill="#EEA886" d="M308.137 385.346a3.352 3.352 0 0 0 1.879-.549c1.225-.929 1.668-3.21 3.843-3.041 2.175.169 3.168 6.969 2.64 8.236-.528 1.267-3.569 1.943-8.003 1.056-4.435-.887-.359-5.702-.359-5.702Z"/><path fill="#EEA886" d="M313.036 381.841a62.115 62.115 0 0 1 6.715-1.838c3.147-.697 6.927-.908 7.286-.359s-3.062 1.12-6.167 2.007c-3.104.887-2.111 1.098-2.111 1.098s-.19 0 3.062-.401c3.252-.402 7.095-.317 7.454.38.169.359 0 .57-1.204.908.761 0 .866.148.887.464.148 1.563-4.941 2.809-6.968 3.316 1.562-.38 2.745-.486 2.111.57-.633 1.056-7.919 2.661-10.558 3.422-2.64.76-.507-9.567-.507-9.567Z"/><path fill="#285173" d="M281.212 342.982c-2.112-.697-8.447 1.542-9.503 7.983-1.056 6.441-1.499 13.621-2.492 17.106-.992 3.485-3.547 18.838-1.436 20.147a24.284 24.284 0 0 0 11.805 2.429c5.849 0 28.466 1.014 28.466 1.014l1.415-8.025s-8.595-.444-13.03-1.12c-3.97-.612-9.46-2.302-15.943-2.999a108.08 108.08 0 0 1 2.365-12.227c1.035-2.704 7.982-21.204-1.647-24.308Z"/><path fill="#EEA886" d="m322.602 384.248 1.056 2.577-2.281-1.627 1.225-.95Z"/><path fill="#E8734D" d="m310.122 397.722 22.806-4.52 16.894-36.176-24.327 2.555-15.373 38.141Z"/><path fill="#EEA886" d="M335.758 387.078a18.792 18.792 0 0 0 2.365-2.788c1.119-1.626 4.752-7.835 4.414-8.215a12.214 12.214 0 0 0-6.716.359c-.971.887.972 1.225.972 1.225s-2.957.317-2.746 1.14c.212.824 1.985.613 1.985.613s-2.365.443-2.006 1.183c.359.739 1.5.718 1.5.718s-2.112.274-1.859 1.077c.254.802 3.611 1.541 3.168 2.217a14.08 14.08 0 0 0-1.077 2.471Z"/><path fill="#EEA987" d="M308.812 298.02s14.212 4.477 6.504 28.996c-7.707 24.519-27.114-2.851-25.087-17.782 2.027-14.931 18.583-11.214 18.583-11.214Z"/><path fill="#0E2D3D" d="M316.774 312.339a32.122 32.122 0 0 1-18.879 7.792s-4.541 5.322-4.878 7.413c0 0-10.559-17.972 2.407-28.743 12.966-10.77 26.101 9.103 21.35 13.538Z"/><path fill="#EEA987" d="M298.042 320.617c0-1.795-1.203-5.85-3.843-4.71-2.64 1.141.169 9.398 1.922 8.891 0 0 2.133.043 1.921-4.181Z"/><path fill="#A77860" d="M306.299 336.815c0 .929-.19 1.985-.274 3.062-8.215-4.054-9.461-9.904-9.503-10.073 5.849 7.56 9.777 7.011 9.777 7.011Z"/><path fill="#869135" d="M543.046 377.215a33.316 33.316 0 0 0 8.446 25.089c10.242 10.898 33.366 7.012 33.366 7.012s-3.822-12.883-12.206-18.183c-8.384-5.301-24.876-7.139-29.606-13.918Z"/><path fill="#48753A" d="M554.977 350.289a41.998 41.998 0 0 0-1.183 33.304c7.265 17.402 36.238 23.041 36.238 23.041s1.182-16.895-6.336-26.842c-7.517-9.947-26.143-19.408-28.719-29.503Z"/><path fill="#BBD070" d="M934.265 145.69s14.36 21.795 2.238 33.389c-12.121 11.594-13.536-1.352-13.536-1.352s-6.504.423 6.335-14.339c6.146-6.949 4.963-17.698 4.963-17.698Z"/><path fill="#97A43C" d="M972.741 134.56s10.241 19.81-13.875 38.352c-24.115 18.542-24.01 31.34-24.01 31.34s-16.978-45.891 37.885-69.692Z"/><path fill="#48753A" d="M931.773 195.826c-9.186-.274 4.223-23.547 19.174-28.278 14.952-4.731 26.862-2.767 35.9-8.448.042-.084-9.946 37.972-55.074 36.726Z"/><path fill="#78C2FF" d="M567.457 121.636h-1.922v230.786h1.922V121.636Z"/><path fill="#78C2FF" d="M583.443 287.672H424.134v1.922h159.309v-1.922Z"/><path fill="#4DA8F2" d="M962.963 470.033H650.195c-14.508 0-26.333-12.334-26.333-27.455v-220.29c0-15.163 11.825-27.455 26.333-27.455h312.768c14.529 0 26.334 12.334 26.334 27.455v220.227c0 15.184-11.805 27.518-26.334 27.518Zm-312.768-272.94c-13.241 0-24.011 11.299-24.011 25.195v220.227c0 13.896 10.77 25.195 24.011 25.195h312.768c13.241 0 24.032-11.299 24.032-25.195V222.288c0-13.896-10.791-25.195-24.032-25.195H650.195Z"/><path fill="#C2BEBC" d="M856.532 371.999h-2.344v-2.323h10.411v2.323c-2.64-.021-5.364 0-8.067 0Zm-12.797-.19a419.663 419.663 0 0 1-10.432-.443l.127-2.302c3.4.19 6.905.338 10.368.443l-.063 2.302Zm31.359-.211v-2.323c3.485-.148 6.99-.359 10.39-.592l.169 2.302c-3.527.254-7.053.444-10.559.613Zm-52.223-.929c-6.546-.528-10.39-1.035-10.432-1.035l.296-2.302s3.843.507 10.326 1.035l-.19 2.302Zm73.108-.571-.232-2.301c3.463-.36 6.948-.761 10.326-1.204l.296 2.302c-3.4.443-6.905.844-10.39 1.119v.084Zm20.737-2.724-.359-2.281c3.443-.57 6.885-1.204 10.2-1.879l.465 2.281c-3.358.675-6.716 1.309-10.306 1.879Zm20.505-4.224-.528-2.259a256.51 256.51 0 0 0 10.01-2.64l.655 2.112c-3.295 1.203-6.694 2.027-10.158 2.872l.021-.085Zm20.125-5.828-.739-2.112a193.893 193.893 0 0 0 9.714-3.612l.866 2.112a120.681 120.681 0 0 1-9.841 3.633v-.021Zm19.47-7.814-.971-2.112c3.146-1.5 6.335-3.063 9.228-4.71l1.098 2.112a138.167 138.167 0 0 1-9.355 4.794v-.084Zm18.372-10.18-1.245-1.943a128.916 128.916 0 0 0 8.447-5.955l1.39 1.837c-2.72 2.175-5.614 4.224-8.592 6.146v-.085Zm16.622-12.819-1.56-1.71c2.53-2.324 4.98-4.773 7.26-7.286l1.71 1.541c-2.32 2.661-4.81 5.153-7.41 7.54v-.085Zm14.08-15.564-1.88-1.394c2.12-2.746 3.97-5.618 5.73-8.448l1.98 1.183c-1.79 2.999-3.72 5.934-5.83 8.743v-.084Zm10.77-18.015-2.11-.992c1.44-3.063 2.77-6.336 3.93-9.483l2.11.782c-1.1 3.379-2.45 6.652-3.93 9.778v-.085Zm7.12-19.725-2.24-.591a101.1 101.1 0 0 0 2.11-10.053l2.28.402a101.71 101.71 0 0 1-2.15 10.327v-.085Zm3.59-20.633-2.3-.232c.34-3.337.53-6.821.63-10.306h2.3c-.08 3.696-.29 7.223-.63 10.623v-.085Zm-1.73-20.886a177.13 177.13 0 0 0-.66-10.327l2.33-.212c.31 3.527.52 7.054.65 10.56l-2.32-.021Zm-1.84-20.612c-.46-3.337-1.03-6.779-1.69-10.222l2.28-.422c.66 3.463 1.23 6.948 1.69 10.327l-2.28.317Zm-3.78-20.38-.89-3.78c-.5-2.112-1.07-4.224-1.66-6.336l2.11-.654c.61 2.111 1.18 4.223 1.69 6.335.31 1.246.61 2.534.9 3.78l-2.15.655Zm-5.85-19.746c-1.24-3.231-2.62-6.336-4.12-9.419l2.11-1.014c1.53 3.084 2.94 6.336 4.23 9.588l-2.22.845Zm-711.315-14.234-2.111-.972c1.457-3.188 2.977-6.335 4.498-9.44l2.111 1.035c-1.562 3.041-3.041 6.251-4.498 9.377Zm702.235-4.224c-1.79-2.914-3.76-5.744-5.81-8.447l1.84-1.415c2.11 2.766 4.12 5.681 5.96 8.637l-1.99 1.225Zm-693.027-14.297-2.112-1.12a311.7 311.7 0 0 1 5.131-9.102l1.985 1.183c-1.71 2.914-3.336 5.955-5.004 9.039Zm680.587-1.816a105.622 105.622 0 0 0-7.37-7.139l1.52-1.752c2.64 2.323 5.18 4.772 7.54 7.307l-1.69 1.584Zm-15.392-13.58a133.964 133.964 0 0 0-8.574-5.702l1.204-1.985c3.02 1.858 5.955 3.801 8.721 5.829l-1.351 1.858Zm-654.637-2.471-1.964-1.267c1.922-2.935 3.886-5.871 5.871-8.659l1.879 1.331c-1.985 2.745-3.927 5.66-5.807 8.595h.021Zm637.088-8.257a159.031 159.031 0 0 0-9.355-4.414l.909-2.112a172.726 172.726 0 0 1 9.502 4.456l-1.056 2.07Zm-19.005-8.215a222.127 222.127 0 0 0-9.82-3.316l.676-2.112c3.4 1.035 6.737 2.112 9.925 3.337l-.781 2.091Zm-606.067-.423-1.837-1.436c2.111-2.766 4.413-5.47 6.652-8.067l1.752 1.5a162.621 162.621 0 0 0-6.63 8.003h.063Zm586.364-5.744a338.206 338.206 0 0 0-10.094-2.45l.507-2.26c3.484.782 6.906 1.627 10.179 2.471l-.592 2.239Zm-20.251-4.54a393.319 393.319 0 0 0-10.242-1.796l.38-2.28c3.506.57 6.969 1.161 10.284 1.794l-.422 2.281Zm-20.526-3.337c-3.316-.465-6.8-.909-10.305-1.31l.253-2.302c3.548.402 7.032.845 10.369 1.31l-.317 2.302Zm-532.03-2.007-1.668-1.605a161.879 161.879 0 0 1 7.476-7.328l1.583 1.69c-2.576 2.238-5.047 4.751-7.454 7.243h.063Zm511.377-.443a888.083 888.083 0 0 0-10.368-.972l.19-2.302c3.568.317 7.074.634 10.41.972l-.232 2.302Zm-20.758-1.795a830.223 830.223 0 0 0-10.39-.74l.169-2.301c3.59.232 7.096.464 10.411.718l-.19 2.323Zm-20.78-1.394c-3.442-.19-6.905-.401-10.368-.57l.127-2.323 10.368.59-.127 2.303Zm-20.779-1.12-9.904-.506h-.507l.127-2.323h.486l9.925.485-.127 2.345Zm-20.843-1.055-10.432-.55.127-2.322 10.432.549-.127 2.323Zm-20.843-1.14a863.185 863.185 0 0 1-10.432-.655l.169-2.302 10.39.654-.127 2.302Zm-20.842-1.373c-3.569-.275-7.075-.55-10.39-.845l.19-2.302c3.315.274 6.821.57 10.39.823l-.19 2.323Zm-20.801-1.817c-3.527-.359-7.032-.739-10.369-1.119l.275-2.302c3.315.38 6.8.76 10.326 1.12l-.232 2.301Zm-20.737-2.428a497.796 497.796 0 0 1-10.327-1.542l.359-2.28c3.316.527 6.779 1.034 10.285 1.52l-.317 2.302Zm-329.81-1.458-1.457-1.795c2.703-2.112 5.49-4.371 8.299-6.335l1.351 1.88c-2.83 1.942-5.533 4.054-8.257 6.25h.064Zm309.178-1.88c-3.484-.654-6.947-1.35-10.242-2.111l.486-2.26c3.294.718 6.715 1.415 10.179 2.112l-.423 2.26Zm-20.42-4.498c-1.521-.38-3.041-.78-4.519-1.203l-5.554-1.52.612-2.24 5.554 1.542 4.477 1.183-.57 2.239Zm-20.104-5.49-10.052-2.725.592-2.238 10.051 2.745-.591 2.218Zm-251.951-.233-1.224-1.964a155.429 155.429 0 0 1 9.059-5.28l1.098 2.112a132.394 132.394 0 0 0-8.933 5.132Zm231.763-5.216-10.073-2.598.57-2.238 10.094 2.597-.591 2.239Zm-213.581-4.625-.971-2.112a151.88 151.88 0 0 1 9.651-4.097l.823 2.112c-3.21 1.267-6.398 2.724-9.503 4.14v-.043Zm193.414-.507a840.019 840.019 0 0 0-10.136-2.407l.528-2.26c3.294.76 6.694 1.584 10.157 2.428l-.549 2.24Zm-20.273-4.71a366.538 366.538 0 0 0-10.178-2.111l.464-2.281c3.316.676 6.758 1.415 10.2 2.112l-.486 2.28ZM437.522 44.51l-.696-2.112c3.294-1.035 6.673-2.112 10.073-2.872l.57 2.238c-3.358.697-6.695 1.648-9.947 2.682v.064Zm133.504-1.943a586.174 586.174 0 0 0-10.242-1.795l.38-2.281c3.358.549 6.8 1.161 10.284 1.816l-.422 2.26Zm-113.463-3.168-.444-2.28a224.697 224.697 0 0 1 10.348-1.754l.317 2.302c-3.443.423-6.885 1.014-10.221 1.669v.063Zm92.916-.211a329.994 329.994 0 0 0-10.305-1.352l.274-2.302c3.379.401 6.863.845 10.348 1.352l-.317 2.302Zm-20.632-2.45c-3.505-.317-6.99-.591-10.368-.781l.148-2.323c3.399.21 6.905.485 10.431.802l-.211 2.302Zm-51.758-.401-.233-2.302c3.421-.317 6.927-.57 10.559-.76v2.323c-3.484.21-6.947.464-10.326.739Zm31.063-.95h-10.368v-2.303h10.453l-.085 2.302Z"/><path fill="#73C0FF" d="M1025.15 144.402a67.004 67.004 0 0 0-7.18-17.297l7.31-11.002-10.14-10.137-10.13-10.137-11.004 7.307a67.08 67.08 0 0 0-17.295-7.18l-2.598-12.925h-28.677l-2.598 12.924a66.914 66.914 0 0 0-17.316 7.181l-10.981-7.307-10.157 10.137-10.136 10.137 7.306 11.002a67.85 67.85 0 0 0-7.18 17.297l-12.924 2.597v28.722l12.924 2.619a67.858 67.858 0 0 0 7.18 17.296l-7.306 11.003 10.136 10.137 10.157 10.137 10.981-7.307a67.59 67.59 0 0 0 17.316 7.18l2.598 12.925h28.677l2.598-12.925a67.852 67.852 0 0 0 17.295-7.18l11.004 7.307 10.13-10.137 10.14-10.137-7.31-11.003a66.998 66.998 0 0 0 7.18-17.296l12.93-2.619v-28.722l-12.93-2.597Zm-65.46 67.179a50.235 50.235 0 0 1-46.414-31.015 50.243 50.243 0 0 1 36.613-68.503 50.227 50.227 0 0 1 51.571 21.363 50.25 50.25 0 0 1 8.47 27.913 50.265 50.265 0 0 1-14.671 35.524 50.236 50.236 0 0 1-35.484 14.76l-.085-.042Z"/><path fill="#DAE8F5" d="M933.42 167.548H605.996c-14.555 0-26.354 11.8-26.354 26.356v220.227c0 14.556 11.799 26.356 26.354 26.356H933.42c14.555 0 26.355-11.8 26.355-26.356V193.904c0-14.556-11.8-26.356-26.355-26.356Z"/><path fill="#78C2FF" d="M755.929 236.48a77.971 77.971 0 0 0-99.674-47.159 77.972 77.972 0 0 0-44.22 40.074 77.983 77.983 0 0 0-2.935 59.607 75.1 75.1 0 0 0 1.922 4.858 76.832 76.832 0 0 0 12.079 19.408 77.99 77.99 0 0 0 98.416 16.971 77.995 77.995 0 0 0 34.412-93.759Zm-53.722 81.307a58.344 58.344 0 0 1-73.299-31.678 69.029 69.029 0 0 1-1.435-3.632 58.466 58.466 0 0 1-1.661-33.897 58.45 58.45 0 0 1 48.126-43.614 58.45 58.45 0 0 1 58.71 27.773 58.46 58.46 0 0 1-3.186 64.873 58.45 58.45 0 0 1-27.255 20.217v-.042Z"/><path fill="#1A598C" d="m626.776 245.413-18.626-5.808a78.133 78.133 0 0 1 72.095-54.719l.591 19.514a58.514 58.514 0 0 0-54.06 41.013Z"/><path fill="#2273B5" d="m628.887 286.066-17.886 7.793a75.301 75.301 0 0 1-1.922-4.857 77.448 77.448 0 0 1-1.013-49.502l18.71 5.913a58.167 58.167 0 0 0 .76 37.127c.38 1.119.866 2.344 1.351 3.526Z"/><path fill="#4DA8F2" d="M623.101 313.267a76.797 76.797 0 0 1-12.079-19.408l17.887-7.793a57.938 57.938 0 0 0 9.059 14.572l-14.867 12.629Z"/><path fill="#6EB2EB" d="M627.958 425.408a39.517 39.517 0 0 0 30.206 1.484 39.508 39.508 0 0 0 22.408-20.311 39.534 39.534 0 0 0 1.484-30.208 39.529 39.529 0 0 0-20.31-22.409 48.001 48.001 0 0 0-2.429-1.056 39.51 39.51 0 0 0-51.566 50.722 39.51 39.51 0 0 0 20.207 21.778Zm-9.883-48.383a29.565 29.565 0 0 1 37.631-14.91c.613.254 1.225.507 1.816.803a29.562 29.562 0 0 1 16.829 28.185 29.569 29.569 0 0 1-19.572 26.355 29.574 29.574 0 0 1-17.13.843 29.569 29.569 0 0 1-19.574-41.276Z"/><path fill="#1A598C" d="m671.122 375.948 8.764-4.604a39.512 39.512 0 0 1 .718 35.248 39.913 39.913 0 0 1-6.948 10.2l-7.201-6.779a29.712 29.712 0 0 0 4.667-34.065Z"/><path fill="#2273B5" d="m655.706 362.116 3.611-9.208c.824.338 1.626.676 2.429 1.056a39.348 39.348 0 0 1 18.119 17.38l-8.743 4.604a29.566 29.566 0 0 0-13.578-13.03 28.047 28.047 0 0 0-1.838-.802Z"/><path fill="#4DA8F2" d="M648.041 350.289c3.866.318 7.666 1.2 11.277 2.619l-3.612 9.208a29.292 29.292 0 0 0-8.446-1.964l.781-9.863ZM959.774 193.904v220.248a26.356 26.356 0 0 1-26.354 26.357H788.45v-272.94h144.97a26.321 26.321 0 0 1 24.348 16.252 26.333 26.333 0 0 1 2.006 10.083Z"/><path fill="#E3F2FF" d="M934.328 195.868H813.917a3.442 3.442 0 0 0-3.442 3.443v6.99a3.442 3.442 0 0 0 3.442 3.442h120.411a3.442 3.442 0 0 0 3.442-3.442v-6.99a3.442 3.442 0 0 0-3.442-3.443Z"/><path fill="#73C0FF" d="M934.328 225.625H813.917a3.442 3.442 0 0 0-3.442 3.442v6.99a3.443 3.443 0 0 0 3.442 3.443h120.411a3.443 3.443 0 0 0 3.442-3.443v-6.99a3.442 3.442 0 0 0-3.442-3.442ZM926.219 259.731H822.026c-6.379 0-11.551 5.172-11.551 11.552v133.725c0 6.38 5.172 11.552 11.551 11.552h104.193c6.38 0 11.551-5.172 11.551-11.552V271.283c0-6.38-5.171-11.552-11.551-11.552Z"/><path fill="#E0F1FF" d="M833.176 253.079h-16.767c-7.849 0-14.212 6.363-14.212 14.213v87.812c0 7.85 6.363 14.213 14.212 14.213h16.767c7.849 0 14.212-6.363 14.212-14.213v-87.812c0-7.85-6.363-14.213-14.212-14.213Z" opacity=".58"/><path fill="#78C2FF" d="M798.333 154.94h-290.49v1.922h290.49v-1.922Z"/><path fill="#4DA8F2" d="M536.943 138.995a15.582 15.582 0 0 1-15.308-18.621 15.589 15.589 0 0 1 21.26-11.36 15.585 15.585 0 0 1 9.611 14.417 15.603 15.603 0 0 1-15.563 15.564Zm0-28.827a13.263 13.263 0 1 0 13.24 13.263 13.261 13.261 0 0 0-13.24-13.178v-.085Z"/><path fill="#EEA886" d="M495.194 316.435s14.55 2.598 14.676 14.91c.127 12.313-11.129 30.158-18.456 28.849-7.328-1.31-15.648-7.835-15.374-15.312.275-7.476 2.365-17.338 5.744-22.744 3.379-5.407 9.355-5.977 13.41-5.703Z"/><path fill="#E8734D" d="M476.547 339.159s0 2.514 5.026 4.52 14.191-.803 16.514-.338c2.323.465 2.977-.655 2.977-.655l.169 2.45 1.943 1.331s1.373-6.547 5.491-7.096c4.117-.549 7.538-19.366-10.179-22.914 0 0-13.135-3.569-16.514 3.083-3.379 6.652-6.06 14.931-5.427 19.619Z"/><path fill="#87C9FF" d="M584.921 405.346h-113.97c-9.388 0-16.999 7.611-16.999 17v113.979c0 9.389 7.611 17 16.999 17h113.97c9.389 0 17-7.611 17-17V422.346c0-9.389-7.611-17-17-17Z" opacity=".82"/><path fill="#E3F2FF" d="M575.651 167.548H457.309c-8.187 0-14.824 6.637-14.824 14.825v82.744c0 8.188 6.637 14.825 14.824 14.825h118.342c8.187 0 14.824-6.637 14.824-14.825v-82.744c0-8.188-6.637-14.825-14.824-14.825ZM587.16 427.098h-50.513a3.484 3.484 0 0 0-3.484 3.485v8.954a3.484 3.484 0 0 0 3.484 3.485h50.513a3.484 3.484 0 0 0 3.484-3.485v-8.954a3.484 3.484 0 0 0-3.484-3.485ZM582.64 451.11h-41.474a8.004 8.004 0 0 0-8.003 8.004v68.362a8.004 8.004 0 0 0 8.003 8.004h41.474a8.004 8.004 0 0 0 8.004-8.004v-68.362a8.004 8.004 0 0 0-8.004-8.004ZM487.211 471.976a26.398 26.398 0 0 0 34.907-24.709v-1.774a26.744 26.744 0 0 0-1.541-7.603 26.467 26.467 0 0 0-19.274-16.846 26.451 26.451 0 0 0-24.517 7.356 26.458 26.458 0 0 0-6.817 24.675 26.467 26.467 0 0 0 17.264 18.901h-.022Zm-11.34-25.343a19.834 19.834 0 0 1 16.51-19.278 19.826 19.826 0 0 1 21.945 12.752 19.586 19.586 0 0 1 1.162 5.681v1.331a19.83 19.83 0 0 1-5.981 13.955 19.814 19.814 0 0 1-14.102 5.622 20.12 20.12 0 0 1-6.103-1.056 19.787 19.787 0 0 1-13.431-18.965v-.042Z"/><path fill="#1A598C" d="m511.37 459.072 5.237 4.055a26.463 26.463 0 0 1-29.396 8.848l2.112-6.335a20.12 20.12 0 0 0 6.103 1.056 19.812 19.812 0 0 0 15.944-7.624Z"/><path fill="#2273B5" d="m515.488 445.852 6.609-.359v1.774a26.418 26.418 0 0 1-5.533 15.86l-5.237-4.055a19.911 19.911 0 0 0 4.224-11.89c-.042-.443-.042-.887-.063-1.33Z"/><path fill="#2273B5" d="M515.487 445.851a19.545 19.545 0 0 0-1.161-5.681l6.23-2.259c.88 2.445 1.4 5.007 1.541 7.602l-6.61.338Z"/><path fill="#4DA8F2" d="M479.778 425.81a26.464 26.464 0 0 1 23.432-4.233 26.466 26.466 0 0 1 17.346 16.313l-6.23 2.281a19.824 19.824 0 0 0-7.177-9.469 19.82 19.82 0 0 0-11.301-3.667 19.595 19.595 0 0 0-12.269 4.076l-3.801-5.301Z"/><path fill="#D6D6D6" d="m300.851 217.642 31.866-49.819-16.176 7.349-15.69 42.47Z"/><path fill="#E8E8E8" d="m300.851 217.642 1.943-30.031 11.572-6.589-13.515 36.62Z"/><path fill="#C2C2C2" d="m325.389 179.29 3.992 5.238-28.53 33.114 24.538-38.352Z"/><path fill="#EEA886" d="M522.308 412.949a4.48 4.48 0 0 0 2.26-1.035c1.415-1.457 1.563-4.541 4.435-4.752 2.872-.211 5.553 8.448 5.089 10.327-.465 1.88-4.224 3.231-10.327 2.957-6.102-.275-1.457-7.497-1.457-7.497Z"/><path fill="#EEA886" d="M528.031 407.373s3.907-2.006 8.447-3.738c4.012-1.52 8.975-2.597 9.524-1.922 1.204 1.542-3.484 2.619-7.37 4.393a29.755 29.755 0 0 0-2.978 1.352s-.253 0 3.949-1.12c4.541-1.119 9.271-1.816 9.862-.971.296.401.824 1.858-1.077 1.795.993-.19.845-.359.929 0 .507 2.112-5.934 4.688-8.447 5.744 1.985-.802 3.506-1.182 2.978.317-.528 1.499-9.883 5.069-13.114 6.568-3.231 1.499-2.703-12.418-2.703-12.418Z"/><path fill="#D4D8E8" d="M459.167 352.718a107.204 107.204 0 0 0-15.5 0c-6.335.654-15.289 5.892-20.652 7.412-5.364 1.521-18.309 10.222-17.95 11.405a96.336 96.336 0 0 0 14.634 26.842c7.94 9.841 39.468-45.659 39.468-45.659Z"/><path fill="#A9ADBA" d="M439.55 358.42s-9.799 7.244-13.199 13.896a53.619 53.619 0 0 0-4.582 14.572l17.781-28.468Z"/><path fill="#1C4154" d="M446.983 574.444a23.246 23.246 0 0 0 4.413 3.759c1.605.781 20.949 4.118 22.258 5.681 1.309 1.563 1.309 7.793-3.674 7.793h-24.412c-2.809 0-14.613 2.45-15.838 0-1.225-2.45-1.098-13.875 1.077-16.621 2.175-2.745 16.176-.612 16.176-.612Z"/><path fill="#2A617D" d="m446.392 570.959.591 3.485s-5.174 2.365-16.176.613v-3.591l15.585-.507Z"/><path fill="#1C4154" d="M329.022 564.813a19.213 19.213 0 0 0-3.252 5.829c-.676 2.112-3.928 11.806-2.535 14.171 1.394 2.365 12.417 2.703 17.929 1.837 5.512-.866 17.485.951 18.71-1.415 1.225-2.365 1.922-5.807-1.668-7.138-3.59-1.33-11.805-4.836-13.283-8.447-1.478-3.612-15.901-4.837-15.901-4.837Z"/><path fill="#2A617D" d="m346.443 565.616-1.52 3.928s-15.796-1.182-15.923-4.73l4.984-7.244 12.459 8.046Z"/><path fill="#EEA886" d="M476.061 346.002s-8.805 7.476-11.297 6.864c-2.492-.613 8.616 15.818 8.616 15.818s10.558-10.433 13.008-10.75c2.449-.317-10.327-11.932-10.327-11.932Z"/><path fill="#D4D8E8" d="M476.653 375.526c-2.978 1.795-3.485 2.386-3.147 10.961.338 8.574 3.907 15.48 4.224 17.845.316 2.365 5.004 25.786 6.335 27.095 1.33 1.31 16.894-1.752 20.146-2.724 4.751-1.478 24.855-8.278 24.855-8.278l-4.435-9.229s-25.341 5.659-26.164 3.674c-.824-1.985-2.809-18.627-3.506-22.238-.697-3.611.507-9.292-3.801-17.866-3.906-7.688-14.507.76-14.507.76Z"/><path fill="#326EA0" d="M446.919 440.002s5.385 5.723 6.885 7.581a298.559 298.559 0 0 1 26.058 40.126c1.753 4.076-8.658 32.946-12.944 43.019-2.239 5.301-17.084 41.731-16.62 42.533.465.803-15.69 1.373-22.912-2.365 0 0 10.39-30.812 12.565-36.831 3.315-9.123 14.782-34.381 15.141-36.831.359-2.45-18.541-22.661-24.834-26.504-6.293-3.844-21.688-17.487-23.44-19.24-1.753-1.752-11.678-6.335-10.728-15.268a30.948 30.948 0 0 1 7.518-15.861l43.311 19.641Z"/><path fill="#326EA0" d="M418.665 461.944s-.993 2.577-2.366 6.209c-2.956 7.793-7.75 20.359-8.447 22.344-1.161 2.935-7.01 15.522-9.798 17.972-2.787 2.45-48.971 57.718-49.077 58.182-.105.465-17.252-8.447-18.308-11.763 0 0 24.96-32.544 28.804-37.317 3.843-4.773 11.889-11.911 14.571-23.231 2.682-11.319 21.919-54.908 21.983-56.45 0 0 3.083-13.411 7.581-17.486 4.498-4.076 20.822.696 23.377 9.207 2.555 8.511-8.32 32.333-8.32 32.333Z"/><path fill="#D4D8E8" d="m463.961 352.781 3.717-1.457a27.846 27.846 0 0 1 14.782 9.672l-.465 2.26s-14.296-3.105-18.034-10.475Z"/><path fill="#A9ADBA" d="M478.3 407.542a16.863 16.863 0 0 1-1.753 2.112l-.971.802-.359-14.107s1.774 5.428 2.112 6.23c.337.803.971 4.963.971 4.963Z"/><path fill="#215B8A" d="M418.665 461.944s-.993 2.577-2.365 6.209c-3.126-3.611-10.285-17.254-10.285-17.254.465.338 1.964 1.753 2.302 2.112l10.348 8.933Z"/><path fill="#EEA886" d="M498.762 342.222c.338-1.056-.464-5.153-3.062-2.809-2.597 2.344-2.597 7.518-1.14 7.962 1.457.443 3.4-2.429 4.202-5.153Z"/><path fill="#E8734D" d="M489.027 319.329s-12.67-8.976-12.67 21.626l12.67-21.626Z"/><path fill="#D4D8E8" d="M478.3 407.542a16.935 16.935 0 0 1-1.753 2.112l-.971.802a147.636 147.636 0 0 1-15.247 10.391c-4.076 2.217-11.805 20.886-11.805 20.886s-36.533-2.471-44.916-21.351a164.82 164.82 0 0 1 11.361-21.119c5.427-7.877 17.316-36.218 23.609-40.252 6.293-4.034 11.72-6.631 24.137-6.336a26.038 26.038 0 0 1 19.301 10.201s9.461 10.158 10.39 15.522c.803 4.646-9.46 22.66-14.106 29.144Z"/><path fill="#4DA8F2" d="m590.475 182.394-.253 8.216H442.231l.254-8.216a14.786 14.786 0 0 1 14.782-14.783h118.257a14.79 14.79 0 0 1 13.81 9.087 14.795 14.795 0 0 1 1.141 5.696Z"/><path fill="#78C2FF" d="M488.901 270.481h-29.776a6.976 6.976 0 0 1-4.927-2.041 6.957 6.957 0 0 1-2.042-4.928v-59.365a6.973 6.973 0 0 1 6.969-6.969h29.776a6.988 6.988 0 0 1 6.989 6.969v59.365a6.988 6.988 0 0 1-6.989 6.969Zm-29.776-70.98a4.666 4.666 0 0 0-4.646 4.646v59.365a4.668 4.668 0 0 0 4.646 4.667h29.776a4.67 4.67 0 0 0 4.667-4.667v-59.365a4.67 4.67 0 0 0-4.667-4.646h-29.776ZM577.044 198.318h-70.933a2.323 2.323 0 0 0-2.323 2.323v1.52a2.324 2.324 0 0 0 2.323 2.324h70.933a2.324 2.324 0 0 0 2.323-2.324v-1.52a2.323 2.323 0 0 0-2.323-2.323ZM577.044 210.863h-70.933a2.323 2.323 0 0 0-2.323 2.323v1.52a2.323 2.323 0 0 0 2.323 2.323h70.933a2.323 2.323 0 0 0 2.323-2.323v-1.52a2.323 2.323 0 0 0-2.323-2.323Z"/><path fill="#6EB2EB" d="M749.277 359.011h-46.838a3.59 3.59 0 0 0-3.59 3.59v7.223a3.59 3.59 0 0 0 3.59 3.59h46.838a3.59 3.59 0 0 0 3.59-3.59v-7.223a3.59 3.59 0 0 0-3.59-3.59Z"/><path fill="#4DA8F2" d="M749.277 382.495h-46.838a3.59 3.59 0 0 0-3.59 3.59v7.223a3.59 3.59 0 0 0 3.59 3.59h46.838a3.59 3.59 0 0 0 3.59-3.59v-7.223a3.59 3.59 0 0 0-3.59-3.59Z"/><path fill="#2273B5" d="M749.277 405.958h-46.838a3.59 3.59 0 0 0-3.59 3.59v7.223a3.59 3.59 0 0 0 3.59 3.59h46.838a3.59 3.59 0 0 0 3.59-3.59v-7.223a3.59 3.59 0 0 0-3.59-3.59Z"/><path fill="#E3F2FF" d="M466.284 180.071a6.335 6.335 0 1 1-12.668-.21 6.335 6.335 0 0 1 12.668.21Z"/><path fill="#2273B5" d="M949.871 402.389s26.143 8.447 32.182 6.948c3.189-.781 8.173-5.322 12.819-10.2l2.259-2.429c5.109-5.618 9.289-10.982 9.289-10.982s12.67-14.783 2.49-21.456c-3 .434-5.77 1.861-7.87 4.054a52.159 52.159 0 0 0-7.457 11.362c-.886 1.922-13.303 19.873-13.958 20.274-.655.402-6.082-1.035-10.432-1.394a94.808 94.808 0 0 1-17.739-4.223l-1.583 8.046Z"/><path fill="#16202E" d="M985.77 563.462s-3.315 5.934-5.3 7.159c-2.471 1.5-7.244 6.336-8.912 6.526-1.668.19-7.666 1.288-6.504 4.688.95 2.767 15.247 2.366 16.894.972 1.647-1.394 6.441-6.336 8.447-6.336 2.006 0 1.224 7.223 1.224 7.223h2.112s.739-6.906.824-8.089c.274-3.527-2.239-6.103-2.344-8.109-.106-2.007-.233-3.485-.233-3.485l-6.208-.549Z"/><path fill="#EEA886" d="M972.107 576.978c2.771.936 5.795.77 8.447-.464 3.632-2.112 10.559-5.259 13.071-5.28 0 0-1.351-4.097-1.372-4.562-.021-.464-.19-2.618-.19-2.618l-6.082-.993a52.32 52.32 0 0 1-5.702 7.18 98.261 98.261 0 0 0-8.172 6.737ZM1043.36 569.059a25.448 25.448 0 0 1-1.25 5.237c-.63 1.119-2.41 6.843-3.19 7.92-.78 1.077-2.57 9.081 0 10.052 2.58.972 8.6 2.577 10.56-.633a13.196 13.196 0 0 0 1.96-8.891c-.31-2.45-2.76-13.749-2.72-14.783.04-1.035-5.36 1.098-5.36 1.098Z"/><path fill="#16202E" d="M1039.94 579.998s-.28 6.23 4.43 6.23 6.78-5.681 6.78-5.681 1.6 2.788 0 8.722c-1.61 5.935-8.28 4.71-9.78 4.499-1.5-.212-8.59-2.007-1.43-13.77Z"/><path fill="#1A598C" d="M1035.59 427.034a76.463 76.463 0 0 1 8.23 12.883c2.11 5.132 5.72 16.388 5.24 25.089-.49 8.701-3.34 25.047-2.49 28.743.84 3.696 1.66 11.341 2.55 13.959.89 2.619 4.48 10.264 4.84 18.141.36 7.878-2.56 42.407-2.3 45.638.25 3.231-10.44 1.246-10.44 1.246s-.27-31.129-1.45-36.493c-1.19-5.364-2.64-23.632-3.7-24.942-1.05-1.309-4.1-15.163-4.22-17.423-.13-2.259-12.95-40.02-13.66-46.461-.72-6.441-16.71-20.38-16.71-20.38a55.776 55.776 0 0 1 34.11 0Z"/><path fill="#1A598C" d="M995.948 565.152c2.26-.338 8.342-35.247 7.622-41.456-.72-6.209-1.43-19.43.59-24.794 1.33-3.527 9.65-21.478 15.25-34.086l2.11-4.962a54.634 54.634 0 0 0 2.98-7.603c.13-2.387 7.9-43.505-22.83-25.216a37.19 37.19 0 0 1-.67 4.456c-.36 1.183-8.578 31.678-9.423 43.294a233.835 233.835 0 0 1-3.273 24.054 51.547 51.547 0 0 0 1.077 12.988c.718 2.112-4.667 50.685-5.026 51.825-.359 1.141 9.334 1.859 11.593 1.5Z"/><path fill="#EDDAD3" d="M1013.79 362.095a61.083 61.083 0 0 1-7.83 3.146c-2.11.401-9.864 10.56-11.236 14.298-1.373 3.738 0 9.292 2.829 15.839 2.827 6.547.148 8.722 1.436 15.248a148.792 148.792 0 0 1 2.111 24.033c-.23 3.632 32.67 4.329 40.12-2.281 0 0-7.53-11.32-8.44-12.925-.91-1.605-.17-10.432.72-12.671.88-2.239 7.2-20.929 7.2-20.929s4.45-15.332 0-18.711c-3.81-2.957-14.15-4.013-16.01-4.646a31.66 31.66 0 0 0-10.9-.401Z"/><path fill="#D6C5BE" d="m1011.93 375.062-3.54-4.224 3.08-10.898c.69 5.01.84 10.079.46 15.122Z"/><path fill="#EEA886" d="M1011.11 355.378s1.14 10.687.91 14.15c0 0 6.04 6.061 12.9-7.054a18.165 18.165 0 0 1-.7-12.798c2.1-7.37-13.11 5.702-13.11 5.702Z"/><path fill="#EEA886" d="M1011.93 369.528v5.533l6.95-5.195-6.95-.338Z"/><path fill="#D6C5BE" d="m1011.93 375.061 2.9-3.569 9.71-9.693 3.15 3.02-15.76 10.242Z"/><path fill="#2273B5" d="M1023.11 439.896c2.72 13.115 22.53-1.478 22.53-1.478s-12.84-21.583-7.73-38.816l.13-.423c.31-1.077.65-2.112.97-3.104 0-.19.12-.359.17-.528 1.11-3.4 2.11-6.209 2.76-8.448 2.28-7.096 2.96-9.44 2.96-9.44s-.97-11.045-6.44-12.249a709.196 709.196 0 0 0-11.26-2.365s-9.48 12.122-9.86 17.571c-.38 5.448 3.02 46.165 5.77 59.28ZM993.921 382.052a35.013 35.013 0 0 0 4.54 17.38s-.105 13.221-.274 17.825c-.169 4.604-1.246 22.005-1.246 22.005l5.659 3.316a1.612 1.612 0 0 0 1.69-.038c.25-.162.45-.391.57-.66.13-.269.18-.569.15-.865-1.61-13.241-6.823-63.504 4.47-76.999l-5.04 1.732s-10.519 11.045-10.519 16.304Z"/><path fill="#FAE6DE" d="m1008.41 370.922-4.46 1.225 7.52-12.122-3.06 10.897ZM1014.83 371.492l4.05 5.322 8.32-13.854-2.66-1.161-9.71 9.693Z"/><path fill="#EEA886" d="M1015.33 320.955c-3.74-.378-7.49.718-10.44 3.056a14.466 14.466 0 0 0-5.373 9.468c.126 1.849.401 3.685.823 5.49.63 2.429-1.857 9.398-1.308 9.757.91.402 1.858.713 2.828.93 0 0 2.11 7.835 4.84 7.898a22.467 22.467 0 0 0 10.55-3.152 22.431 22.431 0 0 0 7.8-7.788c5.17-9.355 7.35-24.012-9.72-25.659Z"/><path fill="#344052" d="M999.412 333.478a38.428 38.428 0 0 0 13.538 6.336c6.82 1.267 10.56 13.157 10.56 13.157s11.44-17.212 3.5-28.236c-7.94-11.024-28.464-4.498-27.598 8.743Z"/><path fill="#EEA886" d="M1015.82 339.624c.01-.43.15-.845.41-1.192a2.11 2.11 0 0 1 3.33-.096c2.11 1.921-1.14 8.109-2.9 7.412-1.75-.697-.95-4.751-.84-6.124Z"/><path fill="#A77860" d="M1011.11 356.92c.15.845.32 1.816.44 2.83a29.535 29.535 0 0 0 8.73-7.413 33.643 33.643 0 0 1-9.17 4.583Z"/><path fill="#E0F1FF" d="m889.222 429.02 84.891.422a8.448 8.448 0 0 0 8.447-8.447l.275-56.641a8.448 8.448 0 0 0-8.447-8.447l-84.892-.423a8.445 8.445 0 0 0-8.447 8.448l-.274 56.641a8.448 8.448 0 0 0 8.447 8.447Z" opacity=".86"/><path fill="#A1D4FF" d="m927.021 423.339 43.27.211a5.516 5.516 0 0 0 3.903-1.599 5.516 5.516 0 0 0 1.63-3.892l.253-48.13a5.533 5.533 0 0 0-5.491-5.554l-43.29-.211a5.504 5.504 0 0 0-5.105 3.383 5.51 5.51 0 0 0-.428 2.108l-.232 48.13a5.506 5.506 0 0 0 3.378 5.124 5.514 5.514 0 0 0 2.112.43ZM916.72 423.446l-25.002-.122a1.54 1.54 0 0 1-1.534-1.549l.029-5.934a1.532 1.532 0 0 1 .457-1.088 1.533 1.533 0 0 1 1.092-.446l25.002.122a1.56 1.56 0 0 1 1.555 1.57l-.029 5.935a1.561 1.561 0 0 1-1.57 1.512ZM891.038 411.555l26.439.126a.846.846 0 0 0 .844-.844v-.972a.845.845 0 0 0-.844-.845l-26.418-.147a.845.845 0 0 0-.845.844v.993a.826.826 0 0 0 .824.845Z"/><path fill="#EEA886" d="M985.981 405.663a3.149 3.149 0 0 1-1.774-.127c-1.309-.613-2.111-2.661-4.223-2.112-2.112.549-1.584 7.096-.824 8.194.76 1.098 3.696 1.098 7.645-.612 3.949-1.711-.824-5.343-.824-5.343Z"/><path fill="#EEA886" d="M980.744 403.361a61.336 61.336 0 0 0-6.61-.381c-3.062 0-6.609.507-6.842 1.099-.232.591 3.084.443 6.124.654 3.041.212 2.239.592 2.239.592a11.66 11.66 0 0 0-2.935.232c-3.316.401-6.652 1.119-6.842 1.837-.106.338 0 .528 1.288.592-.718 0-.761.316-.739.591.169 1.499 5.173 1.668 7.137 1.732-1.52 0-2.639 0-1.9.95.739.95 7.876.908 10.432 1.119 2.555.212-1.352-9.017-1.352-9.017Z"/><path fill="#344052" d="M1022.2 337.237c-2.11 4.773-.83 9.926 2.83 11.531 3.65 1.605 8.32-.95 10.41-5.702s.82-9.926-2.83-11.531c-3.66-1.605-8.32.951-10.41 5.702Z"/><path fill="#2273B5" d="M1039.58 365.79c-3.25.668-6.14 2.51-8.11 5.174a60.77 60.77 0 0 0-5.94 12.186c-.52 2.112-10.68 21.013-11.25 21.52-.57.507-6.17 0-10.56.528a96.56 96.56 0 0 1-18.203-.972v8.194s27.243 3.591 32.903 1.056c6.92-3.125 23.71-26.546 23.71-26.546s8.64-16.494-2.55-21.14Z"/><path fill="#1A598C" d="m1028.57 404.036 10.56-8.447c1.12-3.4 2.12-6.209 2.77-8.448.04-.105-10.71 14.002-13.33 16.895ZM994.893 399.137l2.259-2.429a58.91 58.91 0 0 1-3.062-10.876 47.227 47.227 0 0 0 .803 13.305Z"/><path fill="#73C0FF" d="M914.33 371.133a12.368 12.368 0 0 0-4.685-6.086 12.365 12.365 0 0 0-7.373-2.15 12.842 12.842 0 0 0-3.822.718 12.352 12.352 0 0 0-7.666 7.983 12.51 12.51 0 0 0 .148 7.898l.317.761a11.606 11.606 0 0 0 1.922 3.104 12.411 12.411 0 0 0 7.337 4.134 12.412 12.412 0 0 0 13.712-7.94 12.419 12.419 0 0 0 .068-8.422h.042Zm-8.552 12.946a9.354 9.354 0 0 1-10.242-2.745 9.186 9.186 0 0 1-1.436-2.302c0-.19-.169-.402-.233-.592a9.27 9.27 0 0 1 5.639-11.89 8.986 8.986 0 0 1 2.851-.549 9.313 9.313 0 0 1 3.421 18.078Z"/><path fill="#73C0FF" d="m893.741 372.527-2.957-.929a12.353 12.353 0 0 1 7.666-7.983 12.842 12.842 0 0 1 3.822-.718v3.104a9.013 9.013 0 0 0-2.851.549 9.28 9.28 0 0 0-5.68 5.977Z"/><path fill="#73C0FF" d="m894.1 379.031-2.851 1.225-.317-.76a12.51 12.51 0 0 1-.148-7.898l2.957.929a9.313 9.313 0 0 0 .126 5.913c.064.19.148.401.233.591ZM893.17 383.361a11.628 11.628 0 0 1-1.921-3.104l2.851-1.225c.362.834.846 1.61 1.436 2.302l-2.366 2.027ZM900.35 392.928a5.105 5.105 0 0 0-4.962-3.379 4.468 4.468 0 0 0-1.563.295 5.01 5.01 0 0 0-3.146 3.274 4.915 4.915 0 0 0 0 3.252l.126.317c.195.46.458.887.782 1.267a5.11 5.11 0 0 0 8.7-5.026h.063Zm-3.526 5.322a3.865 3.865 0 0 1-4.224-1.12 4.48 4.48 0 0 1-.591-.95v-.253a3.824 3.824 0 0 1 0-2.429 3.889 3.889 0 0 1 3.548-2.682 3.82 3.82 0 0 1 3.906 3.115 3.826 3.826 0 0 1-2.512 4.319h-.127Z"/><path fill="#73C0FF" d="m891.882 393.498-1.203-.38a5.01 5.01 0 0 1 3.146-3.273 4.443 4.443 0 0 1 1.563-.296v1.267a3.89 3.89 0 0 0-3.548 2.682h.042Z"/><path fill="#73C0FF" d="m892.03 396.18-1.161.507-.127-.317a4.915 4.915 0 0 1 0-3.252l1.204.38a3.82 3.82 0 0 0 0 2.428s.063.169.084.254Z"/><path fill="#73C0FF" d="M891.65 397.954a4.866 4.866 0 0 1-.781-1.267l1.161-.507c.156.341.355.66.591.95l-.971.824Z"/><path fill="#78C2FF" d="M514.558 236.163h-9.017v33.157h9.017v-33.157ZM527.397 232.826h-9.017v36.493h9.017v-36.493ZM540.385 239.774h-9.017v29.567h9.017v-29.567ZM553.393 226.068h-9.017v43.252h9.017v-43.252ZM567.035 230.376h-9.017v38.944h9.017v-38.944Z"/></g><defs><clipPath id="a"><path fill="#fff" d="M267 33h787v561H267z"/></clipPath></defs></svg>