<svg xmlns="http://www.w3.org/2000/svg" width="64" height="107" fill="none"><path fill="#FFE570" d="M50.713 50.761c11.545-11.554 11.545-30.287 0-41.84-11.545-11.555-30.264-11.555-41.809 0-11.545 11.553-11.545 30.286 0 41.84 11.545 11.554 30.264 11.554 41.809 0Z"/><path stroke="#FF8159" stroke-linecap="round" stroke-width="8" d="m6 99.885.07-.076c2.902-3.122 7.855-3.087 10.71.076v0c2.843 3.149 7.785 3.149 10.627 0v0c2.843-3.148 7.784-3.148 10.627 0v0c2.843 3.149 7.784 3.149 10.627 0v0c2.855-3.163 7.809-3.198 10.71-.076l.07.076"/></svg>