<svg xmlns="http://www.w3.org/2000/svg" width="60" height="61" fill="none"><g fill="#fff" clip-path="url(#a)"><path d="m57.687 33.99-8.884-3.33-5.55-7.583a1.758 1.758 0 0 0-1.418-.72H18.399c-.56 0-1.088.268-1.419.72l-5.545 7.576-9.11 3.333a1.758 1.758 0 0 0-1.153 1.65v12.892c0 .97.787 1.758 1.758 1.758h7.032c.97 0 1.757-.787 1.757-1.758a4.106 4.106 0 0 1 4.102-4.102 4.106 4.106 0 0 1 4.101 4.102c0 .97.787 1.758 1.758 1.758h1.875v7.032h-4.102a1.758 1.758 0 0 0 0 3.515h21.094a1.758 1.758 0 0 0 0-3.515h-4.102v-7.032h1.874c.971 0 1.758-.787 1.758-1.758a4.106 4.106 0 0 1 4.102-4.102 4.106 4.106 0 0 1 4.101 4.102c0 .97.787 1.758 1.758 1.758h7.032c.97 0 1.758-.787 1.758-1.758V35.637c0-.733-.455-1.389-1.14-1.646ZM44.23 30.364H31.758v-4.49h9.185l3.287 4.49Zm-24.94-4.49h8.952v4.49H16.004l3.286-4.49Zm13.64 31.445h-5.86v-7.032h5.86v7.032ZM55.311 46.77h-3.72c-.796-3.355-3.818-5.86-7.413-5.86-3.596 0-6.617 2.505-7.413 5.86H23.233c-.795-3.355-3.817-5.86-7.412-5.86-3.595 0-6.617 2.505-7.413 5.86h-3.72v-9.905l8.162-2.986h34.526l7.936 2.976v9.915ZM58.242.833H1.758a1.758 1.758 0 0 0 0 3.516H5.86v5.86a5.28 5.28 0 0 0 5.273 5.273c.813 0 1.584-.186 2.273-.516l3.36 3.36c.343.344.793.515 1.243.515a1.758 1.758 0 0 0 1.243-3l-3.36-3.36c.33-.689.515-1.46.515-2.273V4.35H42.42v5.86c0 .812.185 1.583.515 2.271l-3.36 3.36a1.758 1.758 0 1 0 2.486 2.486l3.36-3.36c.689.33 1.46.516 2.273.516a5.28 5.28 0 0 0 5.273-5.274V4.35h5.274a1.758 1.758 0 0 0 0-3.516Zm-45.35 9.375a1.76 1.76 0 0 1-1.759 1.758 1.76 1.76 0 0 1-1.757-1.758V4.35h3.515v5.86Zm36.56 0a1.76 1.76 0 0 1-1.757 1.758 1.76 1.76 0 0 1-1.758-1.758V4.35h3.515v5.86Z"/></g><defs><clipPath id="a"><path fill="#fff" d="M0 .833h60v60H0z"/></clipPath></defs></svg>