<svg xmlns="http://www.w3.org/2000/svg" width="60" height="61" fill="none"><g fill="#625FEF" clip-path="url(#a)"><path d="M59.222 44.35C56.848 37.985 47.516 26.9 43 21.826h.213a1.758 1.758 0 1 0 0-3.514h-.292c2.768-3.107 6.92-7.784 8.087-9.183 2.41-2.89 1.586-5.477.148-6.814-2.12-1.971-6.22-2.153-10.015.541-2.79-2.667-8.304-2.662-11.089 0-3.794-2.694-7.894-2.512-10.015-.54-1.437 1.336-2.261 3.922.149 6.813 1.166 1.4 5.319 6.076 8.086 9.183h-.291a1.758 1.758 0 1 0 0 3.514h.213a183.639 183.639 0 0 0-7.173 8.533 1.757 1.757 0 0 0-1.687-1.27H1.758c-.971 0-1.758.786-1.758 1.757v28.23c0 .97.787 1.757 1.758 1.757h45.894c8.417 0 14.59-8.39 11.57-16.483ZM22.431 4.89c.84-.782 3.782-1.065 6.772 1.821.948.915 2.533.498 2.906-.766.195-.66 1.515-1.572 3.488-1.572s3.293.913 3.487 1.572a1.759 1.759 0 0 0 2.907.766c2.99-2.886 5.931-2.603 6.772-1.821.59.548-.032 1.481-.455 1.989-1.484 1.78-8.23 9.34-10.097 11.433h-5.228C31.115 16.22 24.37 8.659 22.886 6.879c-.423-.508-1.045-1.441-.455-1.99Zm-9.844 45.283H3.515V46.66h10.699a8.778 8.778 0 0 0-1.627 3.513Zm4.99-7.028H3.514V39.63h14.061v3.514Zm0-10.542v3.514H3.514v-3.514h14.061ZM3.514 53.688h9.037a8.778 8.778 0 0 0 1.616 3.63H3.515v-3.63Zm12.391-1.67c0-2.922 2.378-5.3 5.304-5.3 2.923 0 5.3 2.378 5.3 5.3 0 2.923-2.377 5.3-5.3 5.3a5.306 5.306 0 0 1-5.304-5.3Zm31.746 5.3H28.25a8.768 8.768 0 0 0 1.777-5.3c0-4.869-3.983-8.874-8.935-8.812V36.05c4.708-6.37 9.48-11.605 11.809-14.223h5.394l3.02 3.394c.121.136 12.114 13.654 14.615 20.358 2.117 5.676-2.164 11.74-8.277 11.74Z"/><path d="M34.718 34.36h4.394a1.758 1.758 0 1 0 0-3.515h-1.757a1.758 1.758 0 0 0-3.515 0v.089a4.4 4.4 0 0 0-3.516 4.304 4.398 4.398 0 0 0 4.394 4.394h1.758a.88.88 0 0 1 .879.878.88.88 0 0 1-.88.878h-4.393a1.758 1.758 0 1 0 0 3.515h1.757a1.757 1.757 0 0 0 3.516 0v-.089a4.4 4.4 0 0 0 3.515-4.304 4.398 4.398 0 0 0-4.394-4.393h-1.758a.88.88 0 0 1-.879-.879.88.88 0 0 1 .88-.878Z"/></g><defs><clipPath id="a"><path fill="#fff" d="M0 .833h60v60H0z"/></clipPath></defs></svg>