<svg xmlns="http://www.w3.org/2000/svg" width="60" height="61" fill="none"><g fill="#625FEF" clip-path="url(#a)"><path d="M29.941 32.206a5.283 5.283 0 0 0 5.28-5.274 5.283 5.283 0 0 0-5.28-5.273 5.283 5.283 0 0 0-5.28 5.273 5.283 5.283 0 0 0 5.28 5.274Zm0-7.031c.973 0 1.765.788 1.765 1.757 0 .97-.792 1.758-1.765 1.758a1.763 1.763 0 0 1-1.765-1.758c0-.969.792-1.757 1.765-1.757Z"/><path d="M1.758 34.584h1.824V58.41c0 .97.787 1.758 1.757 1.758h49.322c.97 0 1.757-.787 1.757-1.758V34.584h1.824c.971 0 1.758-.787 1.758-1.757v-5.86c0-.733-.455-1.389-1.141-1.646L31.758 15.167v-4.453h8.481c.971 0 1.758-.787 1.758-1.758V1.925c0-.971-.787-1.758-1.758-1.758H30c-.97 0-1.758.787-1.758 1.758v13.242L1.142 25.32a1.758 1.758 0 0 0-1.142 1.646v5.86c0 .97.787 1.757 1.758 1.757Zm15.857 22.067h-3.53V43.373c0-.969.788-1.757 1.757-1.757h.015c.97 0 1.758.788 1.758 1.757v13.278Zm10.561 0V40.995c0-.97.789-1.758 1.758-1.758h.015c.969 0 1.757.788 1.757 1.758V56.65h-3.53Zm17.74 0h-3.53V43.373c0-.969.788-1.757 1.757-1.757h.015c.969 0 1.758.788 1.758 1.757v13.278ZM31.758 3.682h6.724v3.516h-6.724V3.682ZM3.516 28.186 30 18.262l26.484 9.924v2.883H39.321a1.758 1.758 0 0 0 0 3.515h13.582v22.067H49.43V43.373a5.28 5.28 0 0 0-5.273-5.273h-.015a5.28 5.28 0 0 0-5.273 5.273v13.278h-3.648V40.995a5.28 5.28 0 0 0-5.273-5.274h-.015a5.28 5.28 0 0 0-5.274 5.274V56.65h-3.53V43.373a5.28 5.28 0 0 0-5.273-5.273h-.015a5.28 5.28 0 0 0-5.273 5.273v13.278H7.097V34.584h13.464a1.758 1.758 0 0 0 0-3.515H3.516v-2.883Z"/></g><defs><clipPath id="a"><path fill="#fff" d="M0 .167h60v60H0z"/></clipPath></defs></svg>