<svg xmlns="http://www.w3.org/2000/svg" width="826" height="691" fill="none"><path fill="#E0E0E0" d="M383.293 355.955h-1.908v200.618h1.908V355.955ZM519.064 355.955h-1.908v200.618h1.908V355.955ZM654.841 355.955h-1.911v200.618h1.911V355.955Z"/><path fill="#D9D9D9" d="M279.092 331.231H246.57v5.231h32.522v-5.231ZM292.699 340.898H246.57v5.231h46.129v-5.231ZM419.057 331.231h-38.18v5.231h38.18v-5.231ZM405.29 340.898h-24.413v5.231h24.413v-5.231ZM542.724 331.231h-23.658v5.231h23.658v-5.231ZM546.644 340.898h-27.578v5.231h27.578v-5.231ZM689.302 331.231h-34.464v5.231h34.464v-5.231ZM682.415 340.898h-27.577v5.231h27.577v-5.231Z"/><path fill="#B8B8B8" d="M403.941 568.458H382.34v6.972h21.601v-6.972ZM540.668 568.458h-21.602v6.972h21.602v-6.972ZM676.439 568.458h-21.601v6.972h21.601v-6.972Z"/><path fill="url(#a)" d="M742.601 496.964c-42.348 0-79.161-18.332-117.537-37.442-47.378-23.594-96.37-47.99-161.644-41.308-41.685 4.263-67.84 21.262-90.926 36.26-20.897 13.578-40.656 25.522-67.419 26.541-43.252 1.648-58.253-16.825-58.505-17.966v-11.826c.056.204 9.495 20.937 58.46 20.692 24.11-.121 41.906-11.685 62.513-25.073 23.945-15.547 51.087-33.192 94.956-37.684 67.889-6.948 118.082 18.046 166.622 42.217 50.787 25.291 99.255 49.009 160.537 28.431v9.747c-17.469 5.853-31.442 7.411-47.057 7.411Z" opacity=".43"/><path fill="url(#b)" d="M488.413 494.694c-31.258 0-56.051-21.051-80.323-41.661-18.403-15.623-37.497-31.599-59.536-39.48-67.279-24.047-101.677 19.866-101.984 20.253v-13.36c.345-.456 6.5-8.437 24.262-16.059 16.167-6.938 43.293-12.472 80.71.56 23.706 8.257 43.392 24.973 62.448 41.135 38.607 32.781 71.963 61.112 129.881 16.753 43.876-33.596 85.219-65.61 125.931-77.309 39.801-11.439 81.296-3.064 120.138 35.832l-.286 12.131c-82.507-82.986-152.759-30.404-240.249 36.585-23.171 17.748-43.141 24.616-60.992 24.62Z" opacity=".22"/><path fill="url(#c)" d="m511.388 308.027-1.38-1.62 22.871-19.511h13.89l31.518-26.887 19.71 16.816h14.536l7.345 6.267 22.827-19.472h11.585l48.034-40.98 1.38 1.621-48.63 41.487h-11.586l-23.61 20.139-8.128-6.934h-14.536l-18.927-16.148-30.734 26.22h-13.891l-22.274 19.002Z"/><path fill="url(#d)" d="M514.693 281.075h-7.904v-2.129h7.021l11.872-11.885 8.629 8.645 20.615-20.648 6.341 6.351 20.905-20.931 12.524 12.542h14.28l22.043-22.071h19.007l14.056-14.072h17.199l17.072-17.095 1.5 1.506-17.689 17.718h-17.202l-14.053 14.072h-19.01l-22.043 22.07h-16.04l-11.644-11.66-20.905 20.934-6.341-6.351-20.615 20.644-8.629-8.645-10.989 11.005Z"/><path fill="#FFE570" d="M725.78 285.915c0-.045-.028-.093-.038-.138-20.328-70.994-71.074-131.674-141.16-162.9a255.109 255.109 0 0 0-135.092-20.291h-.127a253.74 253.74 0 0 0-61.827 15.82l-.117.049c-72.495 28.548-130.969 89.999-152.76 171.102-36.572 136.127 43.931 276.106 179.809 312.726 69.776 18.798 140.57 6.695 197.901-27.948l10.696 14.888 50.438-36.375-12.176-16.929a254.089 254.089 0 0 0 65.433-113.746c12.465-46.387 11.354-93.236-.98-136.258ZM539.212 519.041c-90.087 32.332-189.297-14.59-221.58-104.804-31.686-88.534 12.852-185.879 99.679-220.018a183.868 183.868 0 0 1 4.978-1.872 172.442 172.442 0 0 1 129.119 4.909c41.609 18.612 75.873 53.553 92.465 99.895a184.38 184.38 0 0 1 3.533 10.987c24.883 87.152-21.75 179.877-108.194 210.903Z"/><path fill="#007FE6" d="m775.967 271.449-50.224 14.328-78.339 22.361a173.995 173.995 0 0 0-3.533-10.987c-16.589-46.356-50.852-81.283-92.465-99.895l33.177-74.379 3.488-7.829 17.827-39.974c84.484 37.632 145.614 110.805 170.069 196.375Z"/><path fill="#0064B5" d="m588.071 115.052-3.488 7.825-33.174 74.379a172.702 172.702 0 0 0-91.933-13.82l-10.005-80.847-1.035-8.478a263.846 263.846 0 0 1 139.635 20.941Z"/><path fill="#004E8C" d="M459.477 183.461a173.781 173.781 0 0 0-37.186 8.9 171.422 171.422 0 0 0-4.979 1.872l-29.781-75.813-9.019-22.945a277.77 277.77 0 0 1 67.899-17.392h.052l1.977 16.024 1.035 8.479 10.002 80.875Z"/><path fill="url(#e)" d="M784.771 691H684.333l-69.804-97.068 66.143-47.69L784.771 691Z"/><path fill="#6A75BA" d="M426.395 60.487s-3.619-6.651-5.679-9.046c-2.06-2.394-8.898-4.19-7.97-7.255.928-3.065 10.095-1.727 12.621 1.264 2.525 2.992 10.226 4.057 10.492 5.318.266 1.26-2.677 8.181-4.327 9.31-1.649 1.13-5.137.409-5.137.409Z"/><path fill="#545D94" d="M411.011 66.122s-5.896-4.682-8.732-6.06c-2.836-1.379-9.83-.308-10.188-3.483-.359-3.175 8.577-5.6 12.075-3.86 3.499 1.742 10.996-.345 11.731.712.735 1.058.786 8.573-.28 10.265-1.066 1.693-4.606 2.426-4.606 2.426Z"/><path fill="#EEA886" d="M424.106 78.308s2.573-17.62 2.456-20.682c-.034-.874 5.296-.55 5.048 1.13-.542 3.655 1.918 17.824 1.49 20.415-.428 2.592-9.215.77-8.994-.863Z"/><path fill="#EEA886" d="M416.039 83.373s-4.83-17.113-5.945-19.96c-.5-1.264 4.413-3.227 5.079-.967 1.035 3.544 8.829 15.596 9.464 18.145.635 2.55-8.15 4.368-8.598 2.782Z"/><path fill="#D9D3C8" d="M419.388 95.265s-5.175-17.49-5.976-19.348l8.167-5.055s3.795 11.174 4.316 13.965c.521 2.792-6.507 10.438-6.507 10.438Z"/><path fill="#222538" d="M563.979 49.061s-7.887 1.997-11.641 7.97c-3.754 5.974-6.997 12.857-14.049 15.977-7.052 3.12-7.097 11.163-6.555 12.403.541 1.24 22.212 25.626 26.938 26.569 4.727.943 13.58.287 12.631-5.977-.948-6.264-10.219-19.746-5.013-26.548 5.207-6.803 6.518-13.064 6.518-13.064l-8.829-17.33Z"/><path fill="#EEA886" d="M562.602 78.221a2.865 2.865 0 0 0-.618-.114 4.51 4.51 0 0 0-1.842.221 4.27 4.27 0 0 0-.721.346c-1.877 1.105-6.31 4.108-6.9 4.18-.69.083-.107-10.278-.107-10.278s2.36-4.184 2.656-6.938c.297-2.754 7.532 12.583 7.532 12.583Z"/><path fill="#D9D3C8" d="M507.116 89.05s-8.667-6.088-18.828-4.192c-10.16 1.897-11.254 6.651-14.742 6.869-3.488.218-15.143-.785-24.703 2.01-9.561 2.796-17.634 3.11-18.728 2.295-1.094-.816 5.976-16.76 5.976-18.954l-11.855-3.11s-3.385 14.166-4.713 17.358c-1.421 3.414-4.14 9.84-.266 15.427 3.875 5.586 14.743 3.071 21.316 4.194 6.572 1.123 36.002.404 41.139.128 5.579-.297 22.426-1.095 22.426-1.095l2.978-20.93Z"/><path fill="#EEA886" d="M578.293 57.508s.552 8.576-1.349 11.146a12.103 12.103 0 0 1-1.622 1.89 3.784 3.784 0 0 0-1.083 1.572c-.586 1.648-.949 3.97-1.415 4.464-.465.494-1.99-.833-2.525-.836-.535-.004-5.748 4.492-6.997 3.58-1.249-.913-8.857-8.638-8.215-13.952.642-5.314 2.974-13.215 11.541-13.167 8.567.048 11.009 3.172 11.665 5.303Z"/><path fill="#FFC955" d="M552.406 98.426c-.166.346-3.312 5.386-6.766 8.292-1.432 1.216-2.915 2.073-4.257 2.073h-1.201c-3.957.107-7 .715-12.348.981-5.551.277-19.024-.497-19.424-.497-.401 0-4.282.691-4.282.691-1.38-1.697 2.291-20.848 2.988-20.948.697-.1 5.175 1.596 9.463.898 4.289-.698 5.976-1.098 12.352-8.578 6.376-7.48 12.766-9.377 15.44-8.78 2.673.598 8.035 0 8.035 0s.231 25.367 0 25.868Z"/><path fill="#222538" d="M574.694 63.648s1.598 4.146 2.443 4.713c0 0 3.081-3.262 1.101-11.315-1.981-8.054-9.44-8.807-14.26-7.992-6 1.02-12.037 21.342-11.73 23.321.307 1.98 7.034-10.503 12.92-9.497 5.886 1.005 5.938 1.333 9.526.77Z"/><path fill="#A77860" d="M561.984 78.107a4.632 4.632 0 0 0-1.839.256 3.811 3.811 0 0 0-.724.325c-1.38-2.15-2.653-7.256-2.698-7.425.921 1.983 5.261 6.844 5.261 6.844Z"/><path fill="#C29941" d="M545.64 106.735c-1.432 1.216-2.916 2.073-4.258 2.073h-1.2l1.963-15.869 3.495 13.796Z"/><path fill="#EEA886" d="m576.648 134.078-3.823 3.483c-3.298-1.773-11.565-7.729-13.155-9.087-1.67-1.42-12.79-10.738-14.318-12.859-1.529-2.122-3.492-24.068-3.295-25.073.196-1.006 9.66-1.5 10.743.822 0 0 .497 12.514.753 14.608a10.874 10.874 0 0 0 2.473 5.752c1.988 2.44 6.211 8.102 10.31 12.68.966 1.092 9.039 8.586 10.312 9.674Z"/><path fill="#FFC955" d="M553.569 91.64s.597-16.663-4.83-16.46c-6.842.263-7.87 8.638-6.938 17.76 0 0 10.24.1 11.768-1.3Z"/><path fill="#EEA886" d="M574.795 132.444c.306.46.741.82 1.249 1.036 1.273.432 3.157-.397 4.085 1.272.928 1.669-3.557 5.846-4.761 6.101-1.204.256-3.137-1.627-4.648-5.331-1.511-3.703 4.075-3.078 4.075-3.078Z"/><path fill="#EEA886" d="M579.752 134.248a58.113 58.113 0 0 1 4.602 3.987c2.032 1.965 4.095 4.543 3.574 5.03-.71.667-2.097-1.548-4.24-3.369-1.97-1.675-1.859-1.036-1.859-1.036s-.021-.187 1.776 2.042c1.936 2.394 3.934 5.234 3.337 5.645-.373.256-.39.325-1.235-.435.393.535.3.715.093.888-1.08.905-4.468-2.191-5.814-3.424 1.035.954 1.68 1.755.638 1.88-1.197.141-5.792-4.447-7.59-5.94-1.991-1.62 6.718-5.268 6.718-5.268Z"/><path fill="#E0E0E0" d="M511.011 89.83s-1.828 13.129-.928 19.566c0 0 .953.708 2.847.134 0 0 .476-14.317 1.535-19.4 0-.017-.583-.459-3.454-.3Z"/><path fill="#E0E0E0" d="M512.856 0h-1.415v99.729h1.415V0Z"/><path fill="#fff" d="M732.539 518.485h27.418v-1.925h-27.418v1.925ZM732.539 528.276h27.418v-8.091h-27.418v8.091ZM719.66 532.208h16.174v-1.209H719.66v1.209ZM719.66 536.012h16.174v-3.275H719.66v3.275ZM764.457 528.857h1.207v-22.672h-1.207v22.672Z"/><path fill="url(#f)" d="M20.4 369.644h26.363l-8.07-16.761H12.334l8.067 16.761Z"/><path fill="url(#g)" d="M8.07 369.644h6.28l-8.07-16.761H0l8.07 16.761Z"/><path fill="url(#h)" d="M716.538 68.278h29.23V56.987h-29.23v11.29Z"/><path fill="url(#i)" d="M716.538 53.846h29.23v-2.125h-29.23v2.125Z"/><path fill="url(#j)" d="M279.799 295.136H89.305c-4.438 0-8.036 3.603-8.036 8.047v2.035c0 4.444 3.598 8.047 8.036 8.047h190.494c4.438 0 8.035-3.603 8.035-8.047v-2.035c0-4.444-3.597-8.047-8.035-8.047Z" style="mix-blend-mode:hard-light"/><path fill="#616587" d="M397.419 562.104h104.892l-33.06 101.664 3.091 1.009 34.447-105.927h-111.73l-34.116 104.918 3.092 1.009 33.384-102.673Z"/><path fill="#616587" d="M433.116 663.768 400.06 562.104h104.889l33.387 102.673 3.091-1.009-34.118-104.918H395.582l34.443 105.927 3.091-1.009Z"/><path fill="#616587" d="M516.041 590.864H387.66v3.254h128.381v-3.254ZM528.033 626.212H374.436v3.254h153.597v-3.254Z"/><path fill="#EEA886" d="M449.978 330.077s2.616-4.581-1.532-16.864c-4.009-11.875-17.892-10.8-22.305-3.189-4.413 7.611-2.919 12.334 3.574 20.927 6.494 8.593 17.569 3.054 20.263-.874ZM417.733 541.364s-.69 5.041-.773 5.801c-.083.76-7.642-.449-7.642-.449l-.611-6.002s8.084-.062 9.026.65Z"/><path fill="#152B3D" d="M417.042 546.522s2.394 3.041 4.709 4.364c2.315 1.323 5.955 1.848 7.321 3.22.991.992 3.602 5.252-6.017 5.165-9.619-.086-14.252.601-15.284-1.036-1.032-1.638 1.494-12.058 1.494-12.058s2.353.67 7.777.345Z"/><path fill="#EEA886" d="M470.055 541.364s-.69 5.041-.773 5.801c-.083.76-7.642-.449-7.642-.449l-.615-6.002s8.084-.062 9.03.65Z"/><path fill="#152B3D" d="M469.348 546.522s2.394 3.041 4.709 4.364c2.315 1.323 10.837 2.418 12.207 3.783.987.992 2.629 4.975-10.899 4.602-9.616-.266-14.256.601-15.284-1.036-1.029-1.638 1.49-12.058 1.49-12.058a39.9 39.9 0 0 0 7.777.345Z"/><path fill="#FFC05C" d="M420.279 415.782s-3.875 12.058-3.364 22.457c.511 10.4-2.005 21.767-3.033 32.612-1.145 12.092-5.83 40.745-6.003 47.219-.172 6.475.745 27.129.745 27.129l9.385.225s7.88-50.077 9.922-55.187c2.043-5.11 12.162-41.536 12.504-45.627.341-4.091-20.156-28.828-20.156-28.828Z"/><path fill="#FFC05C" d="M459.184 414.527s5.696 31.876 6.379 38.237c.683 6.361 1.132 30.774 1.473 34.747.342 3.973 2.267 52.008 4.082 57.913h-10.461s-10.744-34.917-10.744-51.438c0-16.522-7.114-35.932-11.707-46.819-4.592-10.887-15.104-11.16-17.94-31.385.013 0 35.098-7.67 38.918-1.255Z"/><path fill="#EEA886" d="M446.182 333.321s-1.18 3.438 0 5.894c1.18 2.457-15.077.982-15.077.982s.734-5.076-1.381-9.246c-2.114-4.17 16.458 2.37 16.458 2.37Z"/><path fill="#FFC05C" d="M419.523 418.401s5.848 6.015 40.185-.94l-.525-2.944-39.032 1.472-.628 2.412Z"/><path fill="#EEA886" d="M448.646 340.01s6.003.615 7.721.943c1.718.328 13.266-2.073 15.633-2.315 2.367-.242 12.472-7.179 12.8-7.995.328-.815 6.148-15.575 6.476-18.767.328-3.193 5.669-1.544 5.21.656-.859 4.112-1.96 14.097-2.56 16.992-.652 3.11-2.398 10.203-3.378 11.056-.98.853-10.078 7.801-18.976 10.745a75.763 75.763 0 0 0-15.612 7.283h-43.886s-17.071-24.437-17.437-28.12c-.366-3.683 11.924-28.155 14.373-31.223 2.45-3.068 5.997 1.002 5.997 1.002s-7.342 21.583-8.326 24.652c-.983 3.068 8.546 16.549 11.158 16.584 2.612.034 9.316-.816 12.31-.94 2.995-.125 6.131-1.431 6.131-1.431l12.366.878Z"/><path fill="#254380" d="M467.56 356.335s-5.372 3.576-5.865 9.712c-.493 6.136-2.453 15.834-3.433 19.147-.98 3.314.859 27.368 1.104 29.088.245 1.721-33.963 5.801-39.218 1.728 0 0-1.47-22.458-2.07-28.843-.6-6.384-3.554-21.846-4.533-23.932-.98-2.087-12.87-18.785-13.359-20.986 0 0 6.148-9.819 10.56-9.94 0 0 7.008 8.223 9.292 8.589 2.284.366 16.291-2.201 16.291-2.222 0-.02 1.529 2.073 9.661-.369 0 0 9.678 1.091 11.251 1.292 1.908.245 15.157-1.665 15.157-1.665s5.316 8.983 4.385 13.529l-9.223 4.872Z"/><path fill="#EEA886" d="M490.965 313.793s1.2-5.686-.245-7.321c-.821-.929-2.798-3.389-2.978-3.752-.179-.363-2.304-1.582-2.304-2.17 0-.587 2.07-1.313 3.884.346 1.815 1.658 2.933 2.035 3.658 1.852.724-.183 1.759-6.195 1.849-7.684.09-1.489.666-5.428 1.597-5.155.932.273.887 1.99.887 1.99s1.083-2.985 1.804-2.398c.722.588.632 2.035.632 2.035s1.356-1.672 1.725-.452a4.267 4.267 0 0 1 0 2.308s1.397-.771 1.49 1.129c.094 1.901-.407 7.46-1.4 9.45-.994 1.99-4.713 7.19-5.155 9.221-.442 2.032-5.444.601-5.444.601ZM413.8 303.805s4.081-6.875 5.472-7.487c1.39-.611 3.35-.96 5.065-2.19 1.714-1.23 3.985-2.25 3.86-2.657-.124-.408-2.146-.246-4.309.691-2.163.936-3.105.487-3.319 0-.214-.487 1.152-3.96 1.808-4.779.655-.818 5.31-5.507 4.533-6.201-.776-.695-3.795 1.879-4.288 2.418 0 0 2.415-5.072 1.47-5.317-.946-.245-2.695 1.555-2.695 1.555s.204-4.336-4.454 2.698c0 0 .98-2.332-.449-1.555-1.428.778-2.822 5.155-3.27 7.366-.449 2.212-2.488 9.246-4.227 10.942-1.739 1.697 4.803 4.516 4.803 4.516Z"/><path fill="#353A3D" d="M429.715 330.951s2.153.19 6.728-1.382c4.575-1.572 4.916-9.595 5.907-8.637 2.018 1.934 3.926.597 4.688-.546 0 0-2.232-2.947-1.197-4.364a10.925 10.925 0 0 1 2.719-2.453s-3.219-15.548-17.865-8.458c-17.158 8.275-.98 25.84-.98 25.84Z"/><path fill="#254380" d="m446.182 339.215-.514-2.245s-9.347-.19-14.45.549l-.534 2.684s6.531 2.965 15.498-.988Z"/><path fill="#EEA886" d="M443.877 318.948c-.848-1.413-3.988-2.363-4.357 1.638-.286 3.109 5.61 6.492 5.665 3.6.055-2.892-.742-4.298-1.308-5.238Z"/><path fill="#E55353" d="M491.19 312.501s3.374.083 5.009 1.565a3.353 3.353 0 0 1-.276 1.68s-2.922-1.382-5.175-1.621c.01 0 .048-1.23.442-1.624Z"/><path fill="#353A3D" d="M495.165 313.344a1.45 1.45 0 1 1-2.67 1.128 1.45 1.45 0 0 1 2.67-1.128Z"/><path fill="#EEA987" d="M761.604 392.118s-2.992.401-2.971-.87c.021-1.272.228-2.923.228-2.923l2.743 3.793Z"/><path fill="#EEA987" d="m778.431 378.361-9.83 7.601c1.253-.239 3.35-.54 3.399.117.069.936-3.737 2.073-4.941 2.916-1.104.781-2.263 2.173-2.574 2.239l-2.146 1.841-3.478-4.733s5.738-6.499 7.122-7.888c2.246-2.252 11.337-3.576 11.834-3.247.9.573.614 1.154.614 1.154Z"/><path fill="#2F4563" d="m766.298 393.41-7.935-6.723-27.184 27.505c-4.257 2.93 8.298 13.029 11.845 15.23 9.112 5.659 19.859 18.754 31.01 10.769 12.075-8.658-5.52-14.818-11.386-14.666-5.085.131-16.16-9.882-16.16-9.882l19.81-22.233Z"/><path fill="#202338" d="M751.954 640.246s-4.516 4.747-9.102 5.742c-4.585.995-7.79 2.263-7.825 4.989-.034 2.726 13.194 4.523 18.442 1.773 7.828-4.098 8.625-2.865 9.494-4.913.87-2.049-1.035-7.529-.986-8.182.069-.805-10.023.591-10.023.591Z"/><path fill="#2F6B8C" d="M752.462 637.973s-.597 2.225-.508 2.273c.09.048 10.33 1.195 10.006-.591-.252-1.447-.611-3.02-.611-3.02l-8.887 1.338Z"/><path fill="#202338" d="M802.978 641.483s-3.322 4.626-7.766 5.694c-4.382 1.036-7.221 3.054-7.435 5.701-.214 2.646 10.329 6.118 17.74 1.464 4.869-3.057 6.683-2.881 7.667-4.837.983-1.955-.514-7.386-.418-8.019.111-.763-9.788-.003-9.788-.003Z"/><path fill="#2F6B8C" d="M803.106 639.196s-.221 2.235-.138 2.287c.083.052 9.847 1.779 9.788 0a13.56 13.56 0 0 0-.618-3.141l-9.032.854Z"/><path fill="#877D78" d="M762.794 504.357s-4.744 34.506-6.683 46.17c-2.263 13.64-3.033 24.907-3.664 31.965-.794 8.88-1.849 54.316-2.415 56.914-.566 2.599 13.801 1.244 13.801 1.244s7.528-59.232 9.895-68.689c2.201-8.803 8.625-46.832 10.63-44.431 2.004 2.401 8.166 45.485 9.66 52.43 1.494 6.944 5.51 61.606 5.51 61.606s13.556 2.176 16.288 0c0 0-2.139-48.743-3.105-61.762-.345-4.961 3.133-59.395-5.244-81.348-4.42-11.598-44.673 5.901-44.673 5.901Z"/><path fill="#FFC05C" d="M776.709 421.603s-12.552 2.602-14.039 3.922c-1.618 1.406-4.485 15.174-4.64 19.002-.156 3.828 1.514 19.853 3.129 25.819 1.615 5.967 1.639 31.786.618 40.04 0 0 24.178 4.955 49.026 1.728 0 0-3.388-25.104-2.394-33.279 1.276-10.472 4.34-34.598 4.34-34.598s.021-13.582-1.901-15.755c-4.123-4.657-19.969-6.872-19.969-6.872l-14.17-.007Z"/><path fill="#2F4563" d="M795.56 446.79c.586 12.438 4.537 15.451 8.428 14.484a8.587 8.587 0 0 0 3.475-1.911c1.656-1.444 2.953-3.438 3.415-5.328 1.705-6.91 1.726-26.019-7.007-28.476 0 0-9.46-3.068-8.311 21.231Z"/><path fill="#F5E1D9" d="M758.019 452.436s7.004-1.165 7.432 9.007c.427 10.171 4.83 29.067 11.986 36.595l-28.181 1.071c-7.163-7.532-10.696-25.567-11.217-35.728-.493-9.346-7.432-9.007-7.432-9.007l27.412-1.938Z"/><path fill="#2F4563" d="M774.458 429.142c.165.113.338.214.518.301.773.37 1.606.598 2.46.673.372.04.747.055 1.121.045.228 0 .456-.017.69-.041 6.642-.65 13.239-8.261 13.239-8.261-13.342-2.025-19.059.463-19.059.463s-2.136 4.681 1.031 6.82Z"/><path fill="#EEA886" d="M777.312 383.101s-15.784-3.172-11.73 16.528c4.054 19.701 7.87 21.166 17.251 16.847 9.381-4.319 8.225-16.978 8.553-23.207.327-6.23-9.061-10.071-14.074-10.168Z"/><path fill="#EEA886" d="M774.734 424.326s3.106 2.056 14.888-3.141a41.401 41.401 0 0 1 .645-14.694c1.749-7.4-14.473 9.125-14.473 9.125.186.131.224.888.114 1.942-.028.286-.066.59-.118.908-.083.543-.196 1.13-.345 1.728-.038.162-.079.324-.12.487-.659 2.522-.591 1.441-.591 3.645Z"/><path fill="#353A3D" d="M790.857 403.44s-.79-5.307-3.07-5.448c-2.281-.142-2.929 3.109-2.929 3.109l-1.788.187s.739-5.625-1.556-6.523c-2.294-.898-14.68 2.163-16.54.601-1.859-1.562-.942-11.93 2.319-13.526 3.26-1.597 11.958-5.943 18.734-1.583 0 0 5.175-.718 6.055 3.455.88 4.174.114 16.57-1.225 19.728Z"/><path fill="#EEA886" d="M784.941 396.133c.383-1.852 4.141-2.218 4.196.615.055 2.833-2.346 7.601-3.709 6.983-1.363-.619-1.015-5.024-.487-7.598Z"/><path fill="#4B6F9E" d="M789.619 418.95s-6.159 3.721-12.252 4.557l3.243 5.182 10.268-7.082-1.259-2.657ZM775.328 420.681s.648 2.132 2.039 2.826l-3.047 4.253.114-5.638.894-1.441Z"/><path fill="#fff" d="m777.368 423.507-2.415 3.365s1.525 1.935 4.813.47l-2.398-3.835Z"/><path fill="#fff" d="M774.977 429.456c.773.37 1.606.599 2.459.674.373.039.747.054 1.122.045l-.366-3.137h-2.225c-.433.76-.766 1.573-.99 2.418Z"/><path fill="#A77860" d="M775.377 420.474c6.983.369 11.458-6.886 11.589-7.101-4.385 4.799-11.178 5.086-11.178 5.086-.066.55-.266 1.42-.411 2.015Z"/><path fill="#EDDAD3" d="M758.018 452.436s-8.387.781-6.614 12.503l-24.896 1.348s-3.451-7.985 4.098-11.913l27.412-1.938Z"/><path fill="#C9BAB3" d="m728.916 462.077 19.441-1.047-.054-1.014-19.441 1.047.054 1.014ZM730.565 457.597l19.441-1.048-.055-1.014-19.441 1.047.055 1.015ZM760.42 465.498l-19.441 1.047.054 1.015 19.441-1.048-.054-1.014ZM762.838 472.332l-19.442 1.048.055 1.014 19.441-1.047-.054-1.015ZM765.295 479.129l-19.441 1.048.054 1.014 19.441-1.048-.054-1.014ZM767.709 485.967l-19.441 1.048.054 1.014 19.441-1.048-.054-1.014ZM770.17 492.764l-19.441 1.047.054 1.015 19.441-1.048-.054-1.014Z"/><path fill="#EEA886" d="M779.596 474.344s-1.08.511-2.015.256c-1.618-.443-2.998-2.692-5.113-1.538-2.115 1.154-.345 8.911.735 10.047 1.08 1.137 4.368.474 8.488-2.484 4.119-2.957-2.095-6.281-2.095-6.281Z"/><path fill="#EEA886" d="M773.234 472.779c-2.522.207-5.03.553-7.514 1.036-3.45.691-7.656 2.028-7.494 2.902.249 1.327 3.561-.165 7.038-.618 3.199-.415 2.636.211 2.636.211s.149-.187-3.25.953c-3.653 1.223-7.524 2.692-7.407 3.41.148.892.241.989 1.642.764-.776.304-.804.563-.69.902.493 1.758 6.141.805 8.384.428-1.725.301-2.95.691-1.956 1.589 1.142 1.006 9.067-.691 11.965-1.036 3.143-.359-3.354-10.541-3.354-10.541Z"/><path fill="#2F4563" d="M801.088 425.805c-2.564.843-3.933 4.47-2.374 12.002 1.725 8.33 3.657 12.379 4.768 14.342 1.111 1.962 7.125 12.006 6.024 13.599-1.1 1.593-15.619 5.372-16.605 5.652-1.97.56-15.143 3.193-15.143 3.193l3.226 11.297s40.108-6.851 42.061-8.806c1.953-1.956 2.97-4.606.811-11.433-2.195-6.941-6.138-23.193-6.839-24.461-.7-1.268-4.378-19.189-15.929-15.385Z"/><path fill="#1E2C40" d="M799.068 439.452s.904 12.759 4.92 21.822a8.587 8.587 0 0 0 3.475-1.911s-4.641-8.389-5.058-9.328c-.418-.94-2.878-8.365-3.337-10.583Z"/><path fill="url(#k)" d="M274.47 325.001H93.54c-6.45 0-11.679 5.237-11.679 11.696v122.455c0 6.459 5.23 11.695 11.68 11.695H274.47c6.45 0 11.679-5.236 11.679-11.695V336.697c0-6.459-5.229-11.696-11.679-11.696Z" style="mix-blend-mode:hard-light"/><path fill="url(#l)" d="M233.291 352.341h-6.387v35.552h6.387v-35.552Z"/><path fill="url(#m)" d="M244.503 342.86h-6.386v45.029h6.386V342.86Z"/><path fill="url(#n)" d="M256.271 347.818h-6.386v40.071h6.386v-40.071Z"/><path fill="url(#o)" d="M268.361 359.334h-6.386v28.559h6.386v-28.559Z"/><path fill="#007BDE" d="M233.291 365.346h-6.387v22.547h6.387v-22.547ZM244.503 359.334h-6.386v28.559h6.386v-28.559ZM256.271 362.478h-6.386v25.415h6.386v-25.415ZM268.361 370.117h-6.386v17.776h6.386v-17.776Z"/><path fill="#fff" d="M264.089 400.065h-32.914a2.52 2.52 0 0 0-2.519 2.522v5.089a2.52 2.52 0 0 0 2.519 2.522h32.914a2.52 2.52 0 0 0 2.519-2.522v-5.089a2.52 2.52 0 0 0-2.519-2.522ZM264.089 419.04h-32.914a2.52 2.52 0 0 0-2.519 2.522v5.089a2.52 2.52 0 0 0 2.519 2.522h32.914a2.52 2.52 0 0 0 2.519-2.522v-5.089a2.52 2.52 0 0 0-2.519-2.522ZM264.089 438.015h-32.914a2.52 2.52 0 0 0-2.519 2.522v5.089a2.52 2.52 0 0 0 2.519 2.522h32.914a2.52 2.52 0 0 0 2.519-2.522v-5.089a2.52 2.52 0 0 0-2.519-2.522ZM210.309 377.459a56.472 56.472 0 0 0-11.308-18.899 56.39 56.39 0 0 0-17.669-13.127 56.329 56.329 0 0 0-43.104-2.127 56.367 56.367 0 0 0-18.872 11.324 56.465 56.465 0 0 0-13.109 17.694 56.533 56.533 0 0 0-2.124 43.164c.425 1.195.891 2.37 1.38 3.521a56.434 56.434 0 0 0 30.175 29.706 56.318 56.318 0 0 0 42.313.324 56.425 56.425 0 0 0 30.626-29.241 56.538 56.538 0 0 0 1.692-42.339Zm-38.859 58.876a42.172 42.172 0 0 1-31.025-.999 42.26 42.26 0 0 1-21.959-21.969 39.955 39.955 0 0 1-1.035-2.64 42.387 42.387 0 0 1-1.2-24.549 42.344 42.344 0 0 1 12.622-21.078 42.224 42.224 0 0 1 46.467-6.893 42.3 42.3 0 0 1 18.182 16.509 42.383 42.383 0 0 1-2.315 46.983 42.276 42.276 0 0 1-19.716 14.636h-.021Z"/><path fill="#1A598C" d="m116.858 383.851-13.456-4.212a56.555 56.555 0 0 1 19.754-28.149 56.422 56.422 0 0 1 32.389-11.476l.421 14.127a42.307 42.307 0 0 0-24.284 8.607 42.402 42.402 0 0 0-14.81 21.106l-.014-.003Z"/><path fill="#2273B5" d="m118.464 413.367-12.941 5.642a52.67 52.67 0 0 1-1.38-3.521 56.266 56.266 0 0 1-.735-35.846l13.455 4.212a42.213 42.213 0 0 0 .552 26.873c.315.898.665 1.778 1.049 2.64Z"/><path fill="#3788CC" d="M114.249 433.064a56.228 56.228 0 0 1-8.739-14.055l12.941-5.642a42.119 42.119 0 0 0 6.556 10.541l-10.758 9.156Z"/><path fill="#202338" d="M267.836 636.031s-2.07 3.859-3.415 5.393c-1.346 1.534-6.521 4.271-6.556 8.821-.031 4.937 8.715 3.565 12.135 3.386 3.419-.18 3.677-2.816 5.12-5.611 1.442-2.795 2.891-2.322 3.16-4.575.269-2.252-1.38-7.414-1.38-7.414h-9.064Z"/><path fill="#81807E" d="M276.776 634.542s.4 2.104.321 2.156c-.079.052-9.692 1.769-9.64.021.045-1.382.887-3.006.887-3.006l8.432.829Z"/><path fill="#EEA886" d="M364.838 453.092s10.088-2.125 10.84-1.686c.752.439.804 1.009-.134 1.247-.939.239-9.706 2.346-9.706 2.346s12.231-.445 12.932-.231c.41.124.565 1.22.072 1.382-.493.162-12.631 1.34-12.631 1.34s11.42-.393 11.944-.027a.847.847 0 0 1-.048 1.282.856.856 0 0 1-.441.183c-.849.09-11.462 1.081-11.462 1.081s8.301.256 8.553.85c.159.346.345 1.299-1.801 1.161-2.146-.138-7.245.097-7.245.097l-.873-9.025Z"/><path fill="#202338" d="M319.955 635.302s4.217 4.709 8.495 5.697c4.278.988 7.273 2.246 7.304 4.951.031 2.705-12.314 4.492-17.21 1.759-7.307-4.067-8.049-2.84-8.86-4.875-.81-2.035.973-7.47.922-8.12-.083-.798 9.349.588 9.349.588Z"/><path fill="#81807E" d="M319.464 633.046s.555 2.208.472 2.256c-.082.048-9.639 1.185-9.349-.587.234-1.434.565-2.996.565-2.996l8.312 1.327Z"/><path fill="#292C47" d="M310.773 500.892s3.478 33.811 5.285 45.385c2.112 13.533 2.83 24.714 3.42 31.72.741 8.811.883 52.147 1.404 54.721.521 2.574-11.517.711-11.517.711s-5.92-56.624-8.128-65.99c-2.071-8.738-9.689-46.352-11.565-43.965-1.877 2.387-4.203 43.878-5.593 50.788-1.391 6.91-5.617 60.833-5.617 60.833s-9.578 1.91-12.127-.249c0 0-1.16-46.487-.273-59.405.345-4.924-5.762-59.029 2.07-80.809 4.12-11.533 42.641 6.26 42.641 6.26Z"/><path fill="#CAC7D1" d="M251.185 505.694s5.866 1.783 8.319 1.331c2.453-.453 1.214-30.615 1.311-36.893.072-5.089 2.857-18.532 2.857-18.532a.096.096 0 0 0 0 .024v.024c.276 1.005 4.029 14.953 4.161 21.656.134 6.955-.908 33.562-.908 33.562l10.351 1.009 29.74.729 6.21-.733s-.741-11.377-1.035-16.781c-.169-3.434-.838-9.584-.666-15.575 0 0-.107-6.312.518-9.031.065-12.003.793-23.888.793-23.888a387.19 387.19 0 0 0 .842-15.278 133.496 133.496 0 0 0-4.14-2.108c-3.902-1.859-9.339-4.367-12.828-5.97-2.046-.94-4.047-1.627-4.047-1.627s-13.945-1.337-15.077-1.268c-.345.024-2.101.632-4.388 1.506-4.948 1.876-14.491 5.704-15.999 6.796-2.229 1.596-6.935 39.532-7.149 42.189-.376 4.799 1.135 38.858 1.135 38.858Z"/><path fill="#1D2033" d="M312.33 503.131s-20.411 1.727-38.297 0v5.873s26.846 3.884 39.184-1.119l-.887-4.754Z"/><path fill="#323657" d="M294.924 418.48s3.319 7.812 5.81 25.27c.956 6.706 2.732 17.994 4.019 29.516 1.035 9.08 3.337 18.401 4.075 25.353.763 7.203 3.064 28.421 3.064 28.421l5.586-3.528c.793-.736 1.911-1.696 1.587-2.733-1.532-4.965-4.486-21.373-6.211-35.676v-.031c-.082-.691-.165-1.382-.241-2.049v-.111c-.345-2.857-.6-5.6-.794-8.109a25.395 25.395 0 0 1 .249-5.645c.776-12.839 1.162-26.372 1.162-26.372.411-5.528.646-10.711.801-15.548a30.192 30.192 0 0 0-4.299-2.418s-12.476-5.663-14.808-6.34Z"/><path fill="#CAC7D1" d="M293.874 422.547s.373 5.348-4.14 5.472c-4.513.125-8.101-4.218-8.101-4.218l7.497 1.934 4.561-3.873.183.685Z"/><path fill="#EEA886" d="M353.512 457.407s3.291-.915 3.729-2.885c.373-1.675 2.005-3.627 2.505-4.228.67-.805 1.884-4.022 2.819-3.207.935.816-1.763 5.39-2.149 6.454-.387 1.064 4.164-.805 5.22-.477 1.055.329 3.177 8.203-.069 9.118-3.247.916-7.18-.311-7.725-.031-.767.3-1.55.555-2.346.764l-1.984-5.508Z"/><path fill="#EEA987" d="M287.778 381.608s10.35 1.748 8.601 17.987c-1.749 16.238-10.899 14.805-11.51 14.78-.61-.024-9.194.197-9.66-19.655.01 0-.107-14.67 12.569-13.112Z"/><path fill="#EEA987" d="M292.315 409.67s0 6.689.273 8.136c.297 1.555-8.315 6.053-13.873.812 0 0 1.125-7.304.776-9.881-.348-2.578 12.824.933 12.824.933ZM296.417 395.812s1.149-1.203 1.553.031c.403 1.233-1.456 6.454-1.694 6.958 0 0-.214.473-.483.207s.624-7.196.624-7.196ZM275.341 394.561s-1.1-1.251-1.552-.035c-.452 1.217 1.201 6.682 1.408 7.021 0 0 .345.56.638.308.293-.253-.494-7.294-.494-7.294Z"/><path fill="#353A3D" d="M297.249 393.625c-.345 2.221-.69 3.873-.69 3.873l-1.505 1.972s.087-4.36-.141-5.044c-.09-.259-.19-.718-.297-1.216-.172-.822-.345-1.748-.472-2.073-.194-.494-8.874-3.033-16.61.532 0 0 .066.67.063 1.42 0 .871-.097 1.845-.497 1.99-.742.273-.432 5.103-.432 5.103l-1.204-1.382s-.345-2.522-.69-5.421a.067.067 0 0 0 0-.02l-.231-2.073c-.172-2.916.114-8.213 3.906-11.322 2.56-1.099 6.645-2.032 13.455.058 0 0 1.698.484 2.136.906 4.233 4.685 3.209 12.697 3.209 12.697Z"/><path fill="#C78D71" d="M280.201 412.206s1.653 2.297 5.493 2.211c3.84-.087 5.52-2.094 5.52-2.094s-1.818 3.801-5.52 3.77c-3.702-.032-5.493-3.887-5.493-3.887Z"/><path fill="#A09EA6" d="m292.991 422.892-3.864 2.861s3.243-6.889 3.312-9.65l.552 6.789Z"/><path fill="#EAE6F2" d="m292.439 416.093 2.629 2.446 2.764 8.257-4.841-3.914-.552-6.789Z"/><path fill="#323657" d="M357.861 465.043s-22.802 6.015-28.377 4.64c-2.578-.636-5.973-4.198-9.198-8.385a111.43 111.43 0 0 1-3.106-4.26c-3.957-5.722-7.059-11.205-7.059-11.205s-11.696-13.727-2.311-19.849c0 0 3.957-.397 6.21 1.265 2.07 1.534 7.132 11.197 7.935 12.991.804 1.793 9.713 18.425 10.306 18.798.594.373 8.218-.991 12.245-1.327a64.246 64.246 0 0 0 12.02-2.218l1.335 9.55Z"/><path fill="#EEA987" d="M291.942 418.556a45.871 45.871 0 0 1-2.815 7.186s-4.058-3.555-5.334-4.837c-1.277-1.281 8.149-2.349 8.149-2.349Z"/><path fill="#A09EA6" d="m284.883 421.766 4.244 3.976s-5.017-.345-5.955-1.167l1.711-2.809Z"/><path fill="#EAE6F2" d="M279.243 414.438s3.392 5.528 5.627 7.328l-3.764 6.26-6.038-10.98 4.175-2.608Z"/><path fill="#323657" d="M261.24 470.419c-.432 5.825 2.028 38.057-.428 38.509-2.457.453-11.479-1.534-11.479-1.534s-1.132-34.76-.769-38.402c.265-2.653 4.485-42.431 6.707-44.03 1.283-.923 10.813-4.305 15.488-6.15.852-.346 3.56-1.476 4.323-1.766.993 1.106 9.633 21.421 10.454 37.235.248 4.837-.88 14.998-1.725 23.311-.918 8.869-1.932 15.792-2.674 23.207-1.463 14.614-2.488 26.258-2.488 26.258l-14.525-6.475c-2.35-1.178-5.603-6.012-4.72-8.489 3.357-9.418 7.591-25.505 7.591-33.769 0 0-1.619-20.236-2.906-24.682-.01 0-2.297 9.369-2.849 16.777Z"/><path fill="#3A4066" d="M297.801 503.494h-9.619v7.162h9.619v-7.162Z"/><path fill="#EDDAD3" d="M266.615 541.316h-31.652l7.428-21.107h31.652l-7.428 21.107Z"/><path fill="#F2DFD8" d="M266.615 541.316h-31.652l7.428-21.107h31.652l-7.428 21.107Z"/><path fill="#D6C5BE" d="M242.391 562.422h31.652l-7.428-21.106h-31.652l7.428 21.106Z"/><path fill="#F2DFD8" d="M266.615 583.529h-31.652l7.428-21.107h31.652l-7.428 21.107Z"/><path fill="#D6C5BE" d="M242.391 604.639h31.652l-7.428-21.11h-31.652l7.428 21.11Z"/><path fill="#C9BAB3" d="M262.299 523.733h-18.051v.781h18.051v-.781ZM261.225 526.566h-18.051v.781h18.051v-.781ZM256.607 529.399h-14.605v.781h14.605v-.781ZM262.299 565.801h-18.051v.781h18.051v-.781ZM252.199 568.634h-9.025v.781h9.025v-.781Z"/><path fill="#EEA886" d="M259.008 509.329s.169.539.466 1.444c.514 1.562 2.17 3.341 1.149 5.473-1.021 2.132-8.677.788-9.843-.204-1.167-.991-.69-4.253 1.99-8.437 2.681-4.184 6.238 1.724 6.238 1.724Z"/><path fill="#EEA886" d="M260.86 515.486a68.115 68.115 0 0 1-.639 7.411c-.493 3.42-1.587 7.601-2.446 7.48-1.307-.173-.02-3.493.238-6.91.242-3.154-.345-2.571-.345-2.571s.176-.158-.762 3.227c-1.008 3.642-2.243 7.508-2.95 7.429-.876-.1-.976-.187-.828-1.569-.259.778-.507.816-.845.74-1.743-.394-1.101-5.971-.849-8.185-.204 1.699-.538 2.926-1.449 1.993-1.035-1.064.221-8.907.4-11.747.221-3.14 10.475 2.702 10.475 2.702Z"/><path fill="#323657" d="m261.624 486.713-.149 25.615s-5.106-.228-12.141-2.83l-.486-36.122 12.776 13.337Z"/><path fill="url(#p)" d="m220.724 474.945-17.765 40.078-.476 1.075a4.761 4.761 0 0 1-1.973-.204l.39-.885 17.595-39.68-25.634-27.602-3.847-.84.4-1.848 4.426.967 26.884 28.939Z"/><path fill="url(#q)" d="M193.372 522.759h16.44a6.817 6.817 0 0 0-.183-1.002c-.493-1.956-2.294-6.091-8.694-6.091s-7.435 4.146-7.567 6.091c-.026.333-.025.668.004 1.002Z"/><path fill="url(#r)" d="m176.627 438.847 1.111 3.151 6.731 19.099a11.787 11.787 0 0 0 6.591-6.053 11.814 11.814 0 0 0 .446-8.945 11.79 11.79 0 0 0-5.954-6.682 11.768 11.768 0 0 0-8.925-.57Z"/><path fill="#FFA855" d="M203.374 515.016v.878c-.29.095-.588.16-.891.193a4.746 4.746 0 0 1-1.973-.204l-.117-.041v-.847h2.577l.404.021Z"/><path fill="#FFA555" d="M193.372 522.759h16.44a6.817 6.817 0 0 0-.183-1.002h-16.261c-.026.333-.025.669.004 1.002Z"/><path fill="#FFA855" d="m176.627 438.847 1.111 3.151c3.93 3.11 10.005 8.462 12.983 13.924a11.812 11.812 0 0 0-1.095-13.465 11.767 11.767 0 0 0-12.999-3.61Z"/><path fill="#EEA886" d="M121.159 472.644s2.864-3.628 3.316-4.167c.452-.539 2.232-1.036 4.312-1.44 2.081-.405 5.01.096 5.244.386a1.953 1.953 0 0 1 .691 1.469 4.33 4.33 0 0 1-.346 1.952 2.539 2.539 0 0 1 .045 2.28 2.257 2.257 0 0 1-.303 2.281s.524 1.116-.169 1.896c0 0-1.784.515-2.415.916-.632.401-4.379 1.192-8.07 1.344.031.01-3.444-1.147-2.305-6.917Z"/><path fill="#858585" d="m38.517 584.589-16.322 68.14H18.6l13.842-68.288 6.075.148ZM56.32 584.589l-16.319 68.14h-3.595l13.839-68.288 6.076.148ZM85.115 584.589l16.32 68.14h3.595l-13.839-68.288-6.076.148Z"/><path fill="#E2D2CA" d="M100.562 585.253H30.241s-4.9-.114-8.177-14.646c-3.692-16.342-11.144-70.938-11.144-70.938s1.977-5.079 32.89-4.429l55.358 71.922s1.888 11.34 1.394 18.091Z"/><path fill="#EEA886" d="M102.725 517.117s3.584-1.558 6.269-.93c2.684.629 8.97 2.979 12.075 3.373 3.105.393 6.069 2.197 6.014 3.233-.055 1.037-24.003 1.88-24.117-.476-.114-2.357-.241-5.2-.241-5.2ZM121.159 472.644s-4.678 3.082-4.782 4.025c-.169 1.562.797 6.413.915 6.343.117-.069 7.052-3.496 7.052-3.496l-3.185-6.872Z"/><path fill="#292C47" d="M121.063 641.127s6.024 3.586 8.753 4.92 13.345 1.728 14.39 2.743c1.046 1.016.652 4.181-1.107 4.492-1.76.311-14.667 1.454-18.976.439-4.309-1.016-12.359.656-14.146.044-1.787-.611-.607-10.237.086-12.393.694-2.156 11-.245 11-.245Z"/><path fill="#1C1E30" d="m120.97 637.054.093 4.073s-8.073 1.489-10.985.252l.204-4.474 10.688.149Z"/><path fill="#323657" d="M135.17 641.127s6.024 3.586 8.753 4.92c2.73 1.334 13.346 1.728 14.391 2.743 1.045 1.016.656 4.181-1.104 4.492-1.76.311-14.667 1.454-18.976.439-4.309-1.016-12.358.656-14.146.044-1.787-.611-.607-10.237.087-12.393.693-2.156 10.995-.245 10.995-.245Z"/><path fill="#1C1E30" d="m135.078 637.054.093 4.073s-8.07 1.489-10.985.252l.203-4.474 10.689.149Z"/><path fill="#24263D" d="m87.665 542.242-9.167-1.604 6.11-15.412 3.057 17.016Z"/><path fill="#282B45" d="M60.198 545.399s46.07 9.795 53.257 12.856c7.187 3.062 11.503 4.319 12.041 5.846.538 1.527 11.775 74.694 11.775 74.694h-15.277s-11.862-55.252-13.3-58.673c-1.439-3.42-58.415-3.6-62.548-7.739-4.134-4.139-7.729-15.478-3.233-25.647 4.495-10.168 17.285-1.337 17.285-1.337Z"/><path fill="#282B45" d="M83.532 540.255s52.829 14.884 57.152 21.687c4.405 6.931-17.613 76.853-17.613 76.853h-15.098s14.559-65.514 12.765-68.392c-1.794-2.878-81.424-.09-66.588-23.666 14.836-23.577 29.382-6.482 29.382-6.482Z"/><path fill="#323657" d="M78.04 466.732c1.986-1.036 8.625 1.234 10.577 4.288 4.551 7.1 13.156 15.869 13.156 15.869l19.186-16.149 3.844 9.626-22.771 19.22a4.935 4.935 0 0 1-6.625-.231c-5.986-5.819-18.285-18.046-19.245-21.104-1.259-4.049-1.922-9.539 1.877-11.519Z"/><path fill="#EEA987" d="M71.542 425.608s9.167 1.53 9.257 17.098c.09 15.569-5.807 17.037-14.74 14.757-5.374-1.382-10.422-8.983-8.445-22.406 1.977-13.423 13.928-9.449 13.928-9.449Z"/><path fill="#EDDAD3" d="M72.746 462.773s12.634 4.595 14.522 7.473c1.887 2.878.665 28.794-.414 38.064-1.08 9.27-4.044 29.246-3.323 31.945l-29.389 6.481s-9.432-34.377-9.705-39.867c-.272-5.49-7.186-31.046-3.864-33.116 3.322-2.07 17.796-10.171 17.796-10.171l14.377-.809Z"/><path fill="#1F2136" d="m54.144 546.733-1.439-5.307 30.893-6.025-.07 4.854-29.384 6.478Z"/><path fill="#4F558A" d="m69.51 537.871 7.325-1.531v5.805l-7.325 1.71v-5.984Z"/><path fill="#323657" d="M66.23 522.762c-.08 1.517-.18 3.054-.259 4.613l-.02.02c-1.035 17.078-2.598 34.948-2.598 34.948-2.146 1.793-29.365-4.537-29.365-4.537s3.35-4.553 6.58-17.178.69-24.71-2.66-45.219-.57-20.385-.57-20.385l21.046-11.439c1.38 5.245 6.953 24.275 8.28 35.182.45 3.977.156 13.502-.434 23.995ZM72.951 462.811s6.124 15.841 8.722 32c2.65 16.474 2.519 46.297 5.393 47.03 2.874.732 1.987.242 1.987.242s-.538-18.022-.8-23.995c-.587-13.333 1.897-43.388.748-46.425-1.149-3.037-9.398-7.657-16.05-8.852Z"/><path fill="#EEA987" d="M72.45 460.324a7.717 7.717 0 0 0 .296 2.446s-1.615 6.308-14.377.808c0 0 2.519-9.408 0-17.296l14.377 8.935s-.176 1.42-.255 3.075c-.042.67-.062 1.382-.042 2.032Z"/><path fill="#D6C5BF" d="M58.89 461.077s5.017 2.418 10.078 2.898l-2.467 5.255-8.132-5.648.521-2.505ZM68.969 463.975s3.53-1.171 3.502-2.898l.48 1.727-1.44 5.528-2.542-4.357Z"/><path fill="#16202E" d="M79.706 434.615s2.563-5.511.69-9.553c-1.874-4.043-6.71-2.363-8.926-1.887-2.215.477-6.41-4.439-13.838 1.562-7.429 6.001-5.214 12.3-1.919 19.797 3.295 7.497 3.695 8.078 3.695 8.078s.024-7.601.922-8.962c1.035-1.586 4.91-2.419 4.91-2.419s-2.937-4.018-.06-5.528c2.878-1.51 8.843 1.289 14.526-1.088Z"/><path fill="#EEA987" d="M61.482 439.676c-.39-1.15-2.326-2.456-3.295-.3-.97 2.156 1.556 5.939 2.936 5.939s1.256-2.999.359-5.639Z"/><path fill="#007FE6" d="m68.968 463.975 1.842 3.172s-.852.981-3.591.553l1.749-3.725Z"/><path fill="#007FE6" d="M70.417 467.427s7.543 22.222 7.59 38.005c.05 15.782-1.183 25.197-1.183 25.197l-1.66 3.11-2.414-2.84s1.725-45.817-4.996-63.127c-.007-.003 2.384-1.143 2.663-.345Z"/><path fill="#323657" d="M39.674 473.753c5.52-2.256 11.237 5.397 14.29 13.046 3.054 7.649 8.898 21.57 8.898 21.57l40.809 6.619.576 7.771H56.635S38.494 490.22 37.238 486.17c-1.256-4.049-1.529-10.8 2.436-12.417Z"/><path fill="#E2D2CA" d="M224.34 522.759H89.783v4.64H224.34v-4.64Z"/><path fill="#6E6760" d="M171.871 441.521h-3.24v71.93h3.24v-71.93Z"/><path fill="#918880" d="M176.575 522.759h24.248v-1.472h-24.248c-1.262 0-2.173-.301-2.705-.895a2.4 2.4 0 0 1-.538-1.689V487.238h-1.47v31.357a3.846 3.846 0 0 0 .891 2.764c.824.926 2.108 1.4 3.822 1.4Z"/><path fill="#6E6760" d="M169.127 522.759h-27.291v-.211a2.363 2.363 0 0 1 2.36-2.349h24.931v2.577-.017Z"/><path fill="#706865" d="M210.347 653.506h3.823V527.402h-3.823v126.104ZM99.95 653.506h3.823V527.402h-3.822v126.104Z"/><path fill="#1F2136" d="M66.23 522.762c-.08 1.517-.18 3.054-.259 4.613l-.02.02s-5.303.691-9.747-1.319c-4.444-2.011-7.563-17.417-7.78-18.226.455.888 7.59 14.912 9.336 14.912h8.47Z"/><path fill="#A77860" d="M72.49 458.292c-.04.67-.062 1.382-.04 2.032-10.14.158-10.3-5.639-10.3-5.639 1.577 4.198 10.34 3.607 10.34 3.607Z"/><path fill="#EB4747" d="m138.286 460.899-11.089 10.719.906.939 11.088-10.719-.905-.939Z"/><path fill="#EEA886" d="m138.242 460.997 2.084-1.105-1.176 2.045-.908-.94Z"/><path fill="#D69779" d="M133.484 467.513s-5.258 1.137-5.234 2.073c.024.937.555 1.255.555 1.255l-2.018 1.544s-.849 1.824 1.163 2.218c0 0-.945 1.624 1.035 1.748 0 0-.204 1.358.69 1.593.894.235 4.268-.646 4.268-.646s.804-.529.324-1.893a2.229 2.229 0 0 0 .286-2.274 2.455 2.455 0 0 0-.037-2.294s1.035-2.246-.508-3.417c.025.014-.3.041-.524.093Z"/><path fill="#EEA886" d="M124.638 468.432s3.45 1.109 5.068 2.64c.366.345.656.76.487 1.278-.169.519-1.056.94-2.581.546-1.525-.394-3.688-.128-3.688-.128s-1.439-.915.714-4.336Z"/><path fill="#12131F" d="M129.068 585.92s-3.229-20.181-3.398-21c-.169-.819-3.451-3.759-19.166-8.91 0 0 17.461 3.396 22.04 6.385 3.526 2.297.524 23.525.524 23.525Z"/><path fill="#9E633A" d="M194.803 522.759c1.725-.719 4.509-8.873 5.865-13.095.472-1.496.769-2.498.769-2.498H185.67c1.38 9.743 4.671 15.593 4.671 15.593h4.462Z"/><path fill="#97A43C" d="M196.069 502.309c0-.567 2.533-2.941 3.796-4.492 1.262-1.551-.487-4.491-.487-4.491-5.644 2.339-4.671 8.983-4.671 8.983s1.362.566 1.362 0ZM192.858 502.561h.69s.487-11.478-3.698-13.036c-4.185-1.558-4.185-4.678-4.185-4.678s-1.266 4.288.779 6.53c2.046 2.242 4.379 4.872 3.989 7.017-.39 2.146 2.425 4.167 2.425 4.167Z"/><path fill="#82522F" d="M200.654 509.664c.473-1.496.769-2.498.769-2.498h-15.767c1.38 9.743 4.672 15.593 4.672 15.593h1.035c-.197-9.125 5.803-12.11 9.291-13.095Z"/><path fill="#C67B47" d="M201.418 502.309h-15.881l-.904 4.857h17.433l-.648-4.857Z"/><defs><linearGradient id="j" x1="184.554" x2="184.554" y1="336.455" y2="520.382" gradientUnits="userSpaceOnUse"><stop stop-color="#626E7A"/><stop offset="1" stop-color="#F5F5F5"/></linearGradient><linearGradient id="a" x1="246.57" x2="789.658" y1="452.467" y2="452.467" gradientUnits="userSpaceOnUse"><stop stop-color="#FFC05C"/><stop offset="1" stop-color="#FF3857"/></linearGradient><linearGradient id="c" x1="510.008" x2="703.704" y1="265.334" y2="265.334" gradientUnits="userSpaceOnUse"><stop stop-color="#8FD6FF"/><stop offset="1" stop-color="#BFEBFE"/></linearGradient><linearGradient id="d" x1="506.789" x2="699.853" y1="240.43" y2="240.43" gradientUnits="userSpaceOnUse"><stop stop-color="#8FD6FF"/><stop offset="1" stop-color="#BFEBFE"/></linearGradient><linearGradient id="e" x1="627.854" x2="792.794" y1="538.51" y2="776.668" gradientUnits="userSpaceOnUse"><stop stop-color="#57C1FF"/><stop offset="1" stop-color="#BFEBFE"/></linearGradient><linearGradient id="f" x1="27.853" x2="30.763" y1="279.275" y2="419.617" gradientUnits="userSpaceOnUse"><stop stop-color="#40D5E6"/><stop offset="1" stop-color="#57F"/></linearGradient><linearGradient id="g" x1="5.489" x2="8.399" y1="279.738" y2="420.079" gradientUnits="userSpaceOnUse"><stop stop-color="#40D5E6"/><stop offset="1" stop-color="#57F"/></linearGradient><linearGradient id="h" x1="747.244" x2="713.531" y1="2.353" y2="128.292" gradientUnits="userSpaceOnUse"><stop stop-color="#40D5E6"/><stop offset="1" stop-color="#57F"/></linearGradient><linearGradient id="i" x1="742.317" x2="716.203" y1="10.965" y2="108.504" gradientUnits="userSpaceOnUse"><stop stop-color="#40D5E6"/><stop offset="1" stop-color="#57F"/></linearGradient><linearGradient id="b" x1="246.57" x2="789.944" y1="437.749" y2="437.749" gradientUnits="userSpaceOnUse"><stop stop-color="#40D5E6"/><stop offset="1" stop-color="#57F"/></linearGradient><linearGradient id="k" x1="184.007" x2="184.007" y1="403.147" y2="796.92" gradientUnits="userSpaceOnUse"><stop stop-color="#44607D"/><stop offset="1" stop-color="#F5F5F5"/></linearGradient><linearGradient id="l" x1="226.904" x2="233.291" y1="370.117" y2="370.117" gradientUnits="userSpaceOnUse"><stop stop-color="#D5E4FF"/><stop offset="1" stop-color="#EDFFFE"/></linearGradient><linearGradient id="m" x1="238.117" x2="244.503" y1="365.377" y2="365.377" gradientUnits="userSpaceOnUse"><stop stop-color="#D5E4FF"/><stop offset="1" stop-color="#EDFFFE"/></linearGradient><linearGradient id="n" x1="249.885" x2="256.271" y1="367.857" y2="367.857" gradientUnits="userSpaceOnUse"><stop stop-color="#D5E4FF"/><stop offset="1" stop-color="#EDFFFE"/></linearGradient><linearGradient id="o" x1="261.975" x2="268.361" y1="373.613" y2="373.613" gradientUnits="userSpaceOnUse"><stop stop-color="#D5E4FF"/><stop offset="1" stop-color="#EDFFFE"/></linearGradient><linearGradient id="p" x1="204.867" x2="204.867" y1="504.264" y2="473.283" gradientUnits="userSpaceOnUse"><stop stop-color="#FF9F55"/><stop offset="1" stop-color="#FFD255"/></linearGradient><linearGradient id="q" x1="209.812" x2="193.351" y1="519.21" y2="519.21" gradientUnits="userSpaceOnUse"><stop stop-color="#FF9F55"/><stop offset="1" stop-color="#FFD255"/></linearGradient><linearGradient id="r" x1="192.332" x2="176.627" y1="449.634" y2="449.634" gradientUnits="userSpaceOnUse"><stop stop-color="#FF9F55"/><stop offset="1" stop-color="#FFD255"/></linearGradient></defs></svg>