<svg xmlns="http://www.w3.org/2000/svg" width="60" height="61" fill="none"><path fill="#fff" d="M58.931 1.235a3.622 3.622 0 0 0-4.258-.65l-13.222 6.92a1.756 1.756 0 0 0-.428.314l-4.68 4.681a1.758 1.758 0 0 0-2.018.336l-2.888 2.889-4.684-.464.044-.044a1.758 1.758 0 1 0-2.486-2.486l-2.082 2.081-4.99-.494.02-.02a1.758 1.758 0 0 0-2.486-2.486l-2.058 2.058-5.081-.504a1.759 1.759 0 0 0-1.39.48L.543 19.301a1.758 1.758 0 0 0 .46 2.858l17.395 8.285-.766.767-14.488 4.2a1.758 1.758 0 0 0-.136 3.331l13.336 5.08 5.08 13.337a1.758 1.758 0 0 0 3.331-.136l4.2-14.488.767-.766 8.286 17.395a1.758 1.758 0 0 0 2.857.46l5.458-5.703c.354-.371.53-.878.479-1.39l-.504-5.081 2.058-2.058a1.758 1.758 0 1 0-2.486-2.486l-.02.02-.494-4.99 2.081-2.082a1.758 1.758 0 0 0-2.486-2.486l-.044.044-.464-4.684 2.889-2.888a1.758 1.758 0 0 0 .336-2.017l4.681-4.681a1.76 1.76 0 0 0 .315-.428l6.919-13.222a3.621 3.621 0 0 0-.65-4.258ZM4.815 20.081l3.278-3.137 21.66 2.147-8.717 8.716-16.221-7.726Zm35.272 35.272-7.727-16.221 8.717-8.717 2.147 21.66-3.137 3.278Zm9.586-38.506-5.668 5.668-15.009 15.009-2.846 2.846c-.21.21-.363.468-.445.753l-2.864 9.879-3.492-9.166a1.758 1.758 0 0 0-1.017-1.017l-9.166-3.492 9.879-2.864a1.76 1.76 0 0 0 .753-.445l2.831-2.831.011-.011.004-.004 15.01-15.01 5.667-5.667 5.644-2.954 3.662 3.662-2.954 5.644Zm6.795-12.984-2.133 4.076-2.106-2.106L56.304 3.7c.049-.026.078-.041.141.021.063.063.047.093.022.142Z"/></svg>