<svg xmlns="http://www.w3.org/2000/svg" width="60" height="61" fill="none"><path fill="#625FEF" d="M58.242 19.25h-3.515a1.758 1.758 0 0 0 0 3.516h3.515a1.758 1.758 0 0 0 0-3.516ZM54.434 12.57l3.044-1.758a1.758 1.758 0 0 0-1.757-3.045l-3.045 1.758a1.758 1.758 0 0 0 1.758 3.044ZM57.478 31.204l-3.044-1.757a1.758 1.758 0 0 0-1.758 3.044l3.045 1.758a1.758 1.758 0 0 0 1.758-3.045ZM5.273 22.766a1.758 1.758 0 0 0 0-3.516H1.758a1.758 1.758 0 0 0 0 3.516h3.515ZM7.324 9.525 4.28 7.767a1.758 1.758 0 0 0-1.758 3.045l3.044 1.757a1.758 1.758 0 0 0 1.758-3.044ZM5.566 29.447l-3.044 1.758a1.758 1.758 0 0 0 1.758 3.044l3.044-1.758a1.758 1.758 0 0 0-1.758-3.044ZM30 .5C18.692.5 9.492 9.7 9.492 21.008a20.5 20.5 0 0 0 6.914 15.339 10.816 10.816 0 0 1 3.633 8.098v4.922c0 1.633.96 3.046 2.344 3.705v2.155a5.28 5.28 0 0 0 5.273 5.273h4.688a5.28 5.28 0 0 0 5.273-5.273v-2.155a4.106 4.106 0 0 0 2.344-3.705v-4.922c0-3.102 1.324-6.054 3.633-8.098a20.5 20.5 0 0 0 6.914-15.34C50.508 9.7 41.308.5 30 .5Zm4.102 54.727a1.76 1.76 0 0 1-1.758 1.757h-4.688a1.76 1.76 0 0 1-1.758-1.757v-1.758h8.204v1.758Zm2.343-5.86a.587.587 0 0 1-.586.586H24.141a.587.587 0 0 1-.586-.586v-3.164h12.89v3.164Zm-8.203-17.226h-.586a5.28 5.28 0 0 1-5.273-5.274v-.586h.586a5.28 5.28 0 0 1 5.273 5.274v.586Zm2.172-12.494-.414.414-.414-.414a5.28 5.28 0 0 1 0-7.458l.414-.414.414.414a5.28 5.28 0 0 1 0 7.458Zm1.344 11.908a5.28 5.28 0 0 1 5.273-5.274h.586v.586a5.28 5.28 0 0 1-5.273 5.274h-.586v-.586Zm9.506 2.16a14.318 14.318 0 0 0-4.71 8.972h-4.796v-7.03h.586c4.846 0 8.789-3.943 8.789-8.79v-2.344c0-.97-.787-1.757-1.758-1.757h-2.344a8.743 8.743 0 0 0-5.273 1.762v-1.252l1.142-1.143c3.427-3.427 3.427-9.003 0-12.43l-1.657-1.657a1.758 1.758 0 0 0-2.486 0L27.1 9.704c-3.427 3.426-3.427 9.002 0 12.43l1.142 1.142v1.252a8.742 8.742 0 0 0-5.273-1.762h-2.344c-.97 0-1.758.787-1.758 1.757v2.344c0 4.846 3.943 8.79 8.79 8.79h.585v7.03h-4.796a14.319 14.319 0 0 0-4.71-8.972 16.983 16.983 0 0 1-5.728-12.707c0-9.37 7.623-16.992 16.992-16.992 9.37 0 16.992 7.622 16.992 16.992 0 4.852-2.088 9.484-5.728 12.707Z"/></svg>