<svg xmlns="http://www.w3.org/2000/svg" width="60" height="60" fill="none"><g fill="#fff" clip-path="url(#a)"><path d="M58.242 23.67h-6.287l-3.26-4.203c.072.001.143.004.215.004a11.38 11.38 0 0 0 7.43-2.75 1.758 1.758 0 0 0 .098-2.576l-3.26-3.26 3.27-7.63a1.757 1.757 0 0 0-2.302-2.31L46.49 4.197 42.809.515a1.756 1.756 0 0 0-2.577.098 11.382 11.382 0 0 0-2.742 7.845c.08 2.26.823 4.413 2.12 6.225v8.988h-9.493c-.97 0-1.758.787-1.758 1.758v9.726H17.695V21.26a5.282 5.282 0 0 0 3.516-4.97 5.28 5.28 0 0 0-5.273-5.274 5.28 5.28 0 0 0-5.274 5.273 5.282 5.282 0 0 0 3.516 4.971v13.896H1.758c-.971 0-1.758.787-1.758 1.758v21.328C0 59.212.787 60 1.758 60h56.484c.971 0 1.758-.787 1.758-1.758V25.43c0-.971-.787-1.758-1.758-1.758Zm-42.304-9.14c.969 0 1.757.789 1.757 1.758a1.76 1.76 0 0 1-1.758 1.758 1.76 1.76 0 0 1-1.757-1.758c0-.97.788-1.758 1.758-1.758Zm35.556-8.639-.993 2.317-1.33-1.33 2.323-.987Zm-9.661-1.38 10.61 10.61c-2.972 1.478-6.689.958-9.129-1.482-2.44-2.44-2.96-6.156-1.481-9.128Zm1.292 13.508.029.038 4.353 5.614h-4.382v-5.652ZM3.515 38.671H28.36v17.812H3.516V38.671Zm37.032 17.812v-8.437h7.266v8.437h-7.266Zm15.937 0h-5.156V46.288c0-.97-.787-1.758-1.758-1.758H38.79c-.972 0-1.759.787-1.759 1.758v10.195h-5.156V27.187h24.61v29.296Z"/><path d="M35.39 32.46c0 .97.788 1.758 1.758 1.758h14.063a1.758 1.758 0 1 0 0-3.516H37.148c-.97 0-1.757.787-1.757 1.758ZM51.211 37.733H37.148a1.758 1.758 0 1 0 0 3.516h14.063a1.758 1.758 0 1 0 0-3.516ZM12.305 42.187H8.789a1.758 1.758 0 1 0 0 3.515h3.516a1.758 1.758 0 1 0 0-3.515ZM22.852 42.187h-3.516a1.758 1.758 0 1 0 0 3.515h3.516a1.758 1.758 0 1 0 0-3.515ZM12.305 49.218H8.789a1.758 1.758 0 1 0 0 3.515h3.516a1.758 1.758 0 1 0 0-3.515ZM22.852 49.218h-3.516a1.758 1.758 0 1 0 0 3.515h3.516a1.758 1.758 0 1 0 0-3.515ZM6.438 22.625a1.758 1.758 0 0 0 1.582-2.52 8.84 8.84 0 0 1-.872-3.817c0-1.088.2-2.153.591-3.168a1.758 1.758 0 0 0-3.279-1.267 12.256 12.256 0 0 0-.827 4.435c0 1.838.422 3.686 1.22 5.342.303.628.93.995 1.585.995ZM24.617 22.45a1.756 1.756 0 0 0 2.347-.82 12.382 12.382 0 0 0 1.22-5.342c0-1.523-.279-3.014-.827-4.435a1.758 1.758 0 0 0-3.28 1.267 8.76 8.76 0 0 1 .591 3.168 8.836 8.836 0 0 1-.871 3.816 1.758 1.758 0 0 0 .82 2.346Z"/></g><defs><clipPath id="a"><path fill="#fff" d="M0 0h60v60H0z"/></clipPath></defs></svg>