<svg xmlns="http://www.w3.org/2000/svg" width="881" height="584" fill="none"><path fill="#FFE570" d="M398.291 11C180.783 11 4.471 187.493 4.471 405.138a392.608 392.608 0 0 0 42.326 177.918h702.987a392.606 392.606 0 0 0 42.326-177.903C792.11 187.463 615.783 11 398.291 11Z"/><path fill="#2348FF" d="M154.344 63.6c11.545-11.554 11.545-30.287 0-41.841-11.545-11.554-30.264-11.554-41.809 0-11.545 11.554-11.545 30.287 0 41.84 11.545 11.555 30.264 11.555 41.809 0Z"/><path fill="url(#a)" d="M692.25 88.146a6.19 6.19 0 0 0 6.188-6.192 6.19 6.19 0 0 0-6.188-6.193 6.19 6.19 0 0 0-6.188 6.193 6.19 6.19 0 0 0 6.188 6.192Z"/><path fill="#fff" d="M599.972 114.899a6.19 6.19 0 0 0 6.188-6.193 6.19 6.19 0 0 0-6.188-6.193 6.191 6.191 0 0 0-6.188 6.193 6.191 6.191 0 0 0 6.188 6.193Z"/><path fill="#FFE570" d="M838.875 497.998c9.569 0 17.327-7.763 17.327-17.34 0-9.576-7.758-17.339-17.327-17.339-9.569 0-17.326 7.763-17.326 17.339 0 9.577 7.757 17.34 17.326 17.34Z"/><path fill="#2348FF" d="M55.522 544.274a23.127 23.127 0 0 1-3.886 12.847 23.095 23.095 0 0 1-23.713 9.839 23.086 23.086 0 0 1-11.83-6.327 23.133 23.133 0 0 1-5.004-25.197 23.106 23.106 0 0 1 8.514-10.372 23.082 23.082 0 0 1 12.837-3.889 23.07 23.07 0 0 1 16.321 6.765 23.108 23.108 0 0 1 6.76 16.334Z"/><path fill="#fff" d="M135.583 380.738c11.698-4.849 17.253-18.27 12.408-29.977-4.846-11.708-18.257-17.267-29.955-12.418-11.698 4.849-17.253 18.271-12.408 29.978 4.846 11.707 18.257 17.267 29.955 12.417Z"/><path stroke="#fff" stroke-linecap="round" stroke-miterlimit="10" d="M49.334 267.597h150.074M730.168 427.122h150.059"/><path fill="#fff" d="M68.207 483.956h-5.74v-5.728a1.55 1.55 0 0 0-1.507-1.892 1.544 1.544 0 0 0-1.508 1.203 1.551 1.551 0 0 0 0 .689v5.728h-5.74a1.548 1.548 0 0 0 0 3.097h5.74v5.743a1.551 1.551 0 0 0 .837 1.739 1.544 1.544 0 0 0 1.88-.429 1.549 1.549 0 0 0 .299-1.31v-5.743h5.74a1.548 1.548 0 0 0 0-3.097Z"/><path fill="url(#b)" d="M736.046 114.914h-8.74v-8.731a2.323 2.323 0 0 0-2.321-2.323 2.32 2.32 0 0 0-2.32 2.323v8.731h-8.725a2.323 2.323 0 0 0 0 4.645h8.725v8.747a2.322 2.322 0 0 0 2.32 2.322 2.323 2.323 0 0 0 2.321-2.322v-8.747h8.74a2.32 2.32 0 0 0 1.641-3.964 2.317 2.317 0 0 0-1.641-.681Z"/><path fill="url(#c)" d="M799.349 542.756h-5.724v-5.728a1.546 1.546 0 1 0-3.094 0v5.728h-5.739a1.545 1.545 0 0 0-1.547 1.548 1.549 1.549 0 0 0 1.547 1.549h5.739v5.743a1.55 1.55 0 0 0 1.547 1.549 1.544 1.544 0 0 0 1.547-1.549v-5.743h5.724a1.549 1.549 0 0 0 0-3.097Z"/><path fill="#fff" d="M580.279 148.015v-15.482a2.754 2.754 0 0 0-2.753-2.74h-3.914a2.54 2.54 0 0 1-2.475-1.936 55.01 55.01 0 0 0-6.9-16.798 2.553 2.553 0 0 1 .325-3.173l2.815-2.818a2.756 2.756 0 0 0 0-3.886l-10.983-10.977a2.733 2.733 0 0 0-1.942-.814 2.728 2.728 0 0 0-1.941.814l-2.8 2.802a2.568 2.568 0 0 1-3.187.341 54.869 54.869 0 0 0-16.77-6.936 2.52 2.52 0 0 1-1.933-2.461v-3.98a2.759 2.759 0 0 0-2.754-2.755h-15.47a2.752 2.752 0 0 0-2.754 2.756v3.979a2.522 2.522 0 0 1-1.934 2.461 55.477 55.477 0 0 0-16.784 6.92 2.554 2.554 0 0 1-3.172-.325l-2.8-2.802a2.712 2.712 0 0 0-1.941-.814 2.72 2.72 0 0 0-1.942.814l-10.984 10.977a2.76 2.76 0 0 0 0 3.886l2.677 2.833a2.541 2.541 0 0 1 .325 3.174 55.23 55.23 0 0 0-6.915 16.798 2.53 2.53 0 0 1-.894 1.395 2.513 2.513 0 0 1-1.566.54h-3.992a2.754 2.754 0 0 0-2.753 2.74v15.482a2.756 2.756 0 0 0 2.753 2.756h3.992a2.52 2.52 0 0 1 2.475 1.935 54.641 54.641 0 0 0 6.915 16.798 2.555 2.555 0 0 1-.34 3.096l-2.816 2.803a2.771 2.771 0 0 0 0 3.901l10.984 10.977a2.754 2.754 0 0 0 3.883 0l2.815-2.818a2.537 2.537 0 0 1 3.172-.325 54.8 54.8 0 0 0 16.769 6.905 2.523 2.523 0 0 1 1.934 2.477v3.994a2.756 2.756 0 0 0 2.754 2.756h15.47a2.753 2.753 0 0 0 2.753-2.756v-4.01a2.53 2.53 0 0 1 1.934-2.461 54.817 54.817 0 0 0 16.77-6.905 2.534 2.534 0 0 1 3.094.325l2.815 2.818a2.754 2.754 0 0 0 3.883 0l10.984-10.977a2.772 2.772 0 0 0 0-3.901l-2.816-2.803a2.568 2.568 0 0 1-.34-3.189 54.41 54.41 0 0 0 6.915-16.782 2.526 2.526 0 0 1 2.475-1.935h3.991c.368.018.736-.037 1.083-.163a2.751 2.751 0 0 0 1.81-2.531Zm-63.055 28.641a36.35 36.35 0 0 1-20.209-6.125 36.395 36.395 0 0 1-13.403-16.33 36.428 36.428 0 0 1-2.078-21.028 36.395 36.395 0 0 1 9.946-18.641 36.353 36.353 0 0 1 55.96 5.492 36.417 36.417 0 0 1 6.138 20.219 36.407 36.407 0 0 1-10.637 25.746 36.338 36.338 0 0 1-25.717 10.667ZM468.57 95.794V86.97a1.55 1.55 0 0 0-1.547-1.549h-2.274a1.453 1.453 0 0 1-1.408-1.099 31.144 31.144 0 0 0-3.929-9.552 1.546 1.546 0 0 1 .186-1.811l1.547-1.549a1.554 1.554 0 0 0 .344-1.707 1.554 1.554 0 0 0-.344-.507l-6.188-6.192a1.557 1.557 0 0 0-1.107-.466 1.546 1.546 0 0 0-1.106.466l-1.547 1.548a1.451 1.451 0 0 1-1.81.186 31.462 31.462 0 0 0-9.545-3.933 1.439 1.439 0 0 1-1.098-1.393v-2.276a1.549 1.549 0 0 0-1.547-1.548h-8.818a1.547 1.547 0 0 0-1.547 1.548v2.26a1.443 1.443 0 0 1-1.098 1.41 31.472 31.472 0 0 0-9.545 3.932 1.454 1.454 0 0 1-1.918-.186l-1.547-1.548a1.546 1.546 0 0 0-2.197 0l-6.188 6.192a1.541 1.541 0 0 0-.466 1.107 1.541 1.541 0 0 0 .466 1.107l1.547 1.548c.234.234.382.541.419.87.036.33-.041.662-.218.942a30.723 30.723 0 0 0-3.929 9.552 1.46 1.46 0 0 1-1.408 1.1h-2.274a1.545 1.545 0 0 0-1.547 1.548v8.824a1.549 1.549 0 0 0 1.547 1.548h2.274a1.44 1.44 0 0 1 1.408 1.1 31.164 31.164 0 0 0 3.929 9.536 1.547 1.547 0 0 1-.186 1.812l-1.547 1.548a1.544 1.544 0 0 0-.465 1.107 1.555 1.555 0 0 0 .465 1.107l6.188 6.193a1.555 1.555 0 0 0 1.099.458c.204 0 .406-.041.595-.119.188-.079.359-.194.503-.339l1.547-1.548a1.455 1.455 0 0 1 1.795-.186 31.616 31.616 0 0 0 9.544 3.932 1.406 1.406 0 0 1 1.099 1.394v2.275a1.549 1.549 0 0 0 1.547 1.549h8.818a1.549 1.549 0 0 0 1.547-1.549v-2.229a1.407 1.407 0 0 1 1.098-1.393 31.624 31.624 0 0 0 9.545-3.933 1.45 1.45 0 0 1 1.795.186l1.547 1.548a1.538 1.538 0 0 0 1.106.466 1.546 1.546 0 0 0 1.106-.466l6.188-6.193a1.55 1.55 0 0 0 0-2.213l-1.547-1.549a1.546 1.546 0 0 1-.186-1.811 31.209 31.209 0 0 0 3.93-9.537 1.438 1.438 0 0 1 1.407-1.1h2.274a1.548 1.548 0 0 0 1.671-1.594Zm-35.844 13.934a18.324 18.324 0 0 1-16.947-11.315 18.348 18.348 0 0 1 3.964-19.999 18.324 18.324 0 0 1 28.209 2.774 18.356 18.356 0 0 1 3.091 10.194 18.34 18.34 0 0 1-5.365 12.962 18.313 18.313 0 0 1-12.952 5.369v.015Z"/><path fill="url(#d)" d="M650.481 140.243H184.247c-17.72 0-32.085 14.376-32.085 32.109v300.86c0 17.733 14.365 32.109 32.085 32.109h466.234c17.72 0 32.085-14.376 32.085-32.109v-300.86c0-17.733-14.365-32.109-32.085-32.109Z"/><path fill="#fff" d="M669.525 173.761v270.84a9.01 9.01 0 0 1-9.003 9.011H174.176a9.001 9.001 0 0 1-6.366-2.64 9.013 9.013 0 0 1-2.637-6.371v-270.84a21.512 21.512 0 0 1 21.519-21.52h461.361a21.493 21.493 0 0 1 15.185 6.314 21.528 21.528 0 0 1 6.287 15.206Z"/><path fill="url(#e)" d="M467.967 583.21H366.763l10.628-61.726 2.784-16.163h74.38l2.784 16.163 10.628 61.726Z"/><path fill="url(#f)" d="M457.339 521.484H377.39l2.784-16.163h74.38l2.785 16.163Z" style="mix-blend-mode:multiply"/><path fill="url(#g)" d="M501.491 569.942H333.224v13.268h168.267v-13.268Z"/><path fill="#8FABD8" d="M574.308 364.451H260.406v9.367h313.902v-9.367Z"/><path fill="#FFA49A" d="m99.395 562.14-1.346 9.088s7.627 2.353 10.643.835l2.429-8.762M155.365 558.919l.712 12.154s6.837 2.399 12.515-1.549l.217-10.016"/><path fill="#283770" d="M156.014 569.942s-2.923 4.846-.587 12.51h32.827a5.851 5.851 0 0 0-1.004-4.579 5.857 5.857 0 0 0-4.039-2.373c-6.188-1.238-14.62-6.037-14.62-6.037a16.816 16.816 0 0 1-4.409 1.114 22.105 22.105 0 0 1-8.168-.635ZM98.048 571.227a42.825 42.825 0 0 0-1.903 5.078 9.049 9.049 0 0 0-.092 6.193h18.78s1.547-4.644 0-6.719a14.718 14.718 0 0 0-3.712-2.431 18.886 18.886 0 0 1-2.367-1.672 34.841 34.841 0 0 1-10.706-.449Z"/><path fill="url(#h)" d="M139.895 397.753v40.253l9.282-6.518c.974 11.441 2.645 25.545 4.377 44.897-4.331 10.652-1.546 42.173-.727 54.559.82 12.385 2.584 33.951 2.584 33.951 8.493 1.549 13.443-.34 13.443-.34s.805-17.386 1.253-24.384c.449-6.998 3.017-47.994 5.028-59.141.882-4.892 1.717-36.259 2.228-59.001.201-8.794-1.547-26.025-1.547-26.025l-35.921 1.749Z"/><path fill="url(#i)" d="M126.606 393.263a81.564 81.564 0 0 0-6.266 29.694c0 12.665-2.97 45.858-2.97 45.858a275.146 275.146 0 0 0-9.699 33.332c-3.512 16.55-9.097 62.624-9.097 62.624s8.571 2.168 12.484.744c0 0 12.175-35.748 16.816-49.279a436.816 436.816 0 0 0 11.262-42.792c1.64-8.515 11.727-51.415 11.727-51.415l-.82-24.632-23.437-4.134Z"/><path fill="#FFA49A" d="M163.656 306.688a8.87 8.87 0 0 1-2.985-3.56 26.856 26.856 0 0 1-.511-4.645c-.123-2.338-.139-4.722-.123-5.79v-.557l1.639-1.285-17.187-7.741a30.22 30.22 0 0 1 .665 20.405 9.754 9.754 0 0 1-2.877 3.932 35.447 35.447 0 0 1-7.054 3.097s20.358 14.63 35.395-.96c.015-.14-5.507-1.688-6.962-2.896Z"/><path fill="#FF8189" d="M151.436 290.494c.278.434 1.547 7.927 8.957 10.838-.124-2.338-.294-4.985-.279-6.054l-8.678-4.784Z"/><path fill="url(#j)" d="M172.104 263.107a3.806 3.806 0 0 1 3.666 3.096c1.547 5.543-4.44 11.008-4.44 11.008l.774-14.104Z"/><path fill="#FFA49A" d="M148.016 285.943c2.599 8.283 13.459 14.104 18.054 12.478 5.801-2.074 8.09-16.736 7.564-18.857a37.275 37.275 0 0 1-1.33-12.308c.294-4.784-4.285-11.565-14.975-10.373-10.69 1.192-20.095 10.296-9.313 29.06Z"/><path fill="url(#k)" d="M134.264 265.197a5.778 5.778 0 0 1-1.547-2.245c-2.522-6.719 4.64-12.602 10.024-9.691a8.473 8.473 0 0 1 3.094 2.864 2.495 2.495 0 0 1 1.644 1.26 2.497 2.497 0 0 1 .135 2.068h-.387c.307 1.256.432 2.549.372 3.84l-4.641 4.35a16.385 16.385 0 0 1-3.435-.17l.325.789c-7.394.914-6.946-2.833-5.584-3.065Z"/><path fill="#526EEE" d="M137.513 267.612a11.217 11.217 0 0 1 9.282-10.264l-2.94 4.877-6.342 5.387Z"/><path fill="url(#l)" d="M136.321 280.307c1.176 4.645 4.533 5.388 5.353 7.741 1.547 4.645 2.831 6.627 4.919 6.843.279-3.003-.278-11.689-.278-11.689a5.647 5.647 0 0 1 0-3.715c.665-1.548 4.223-.558 4.223-.558 2.274.295 2.491-2.415 3.187-4.009a21.343 21.343 0 0 0 1.547-6.503c-.82-6.192 4.641-12.772.773-13.361-9.08-1.424-23.328 10.76-19.724 25.251Z"/><path fill="#FFA49A" d="M172.366 349.016s14.263 33.503 22.973 32.636c5.817-.589 11.046-6.363 15.47-11.395 4.425-5.032 7.998-9.475 7.998-9.475l-17.233 3.391-4.92-10.559-3.094-7.741-2.475-6.038-18.719 9.181Z"/><path fill="url(#m)" d="M195.277 347.53s-3.094 5.062-15.114 9.103c-1.794.604-3.806 1.177-6.018 1.719a60.957 60.957 0 0 0-1.423-8.67l-.959-3.608c-.897-3.344-1.888-7.137-2.785-10.605-1.825-7.09 5.399-20.916 4.811-24.956 7.627 3.142 21.488 37.017 21.488 37.017Z"/><path fill="url(#n)" d="M180.163 356.633a74.851 74.851 0 0 1-6.018 1.719 60.957 60.957 0 0 0-1.423-8.67l-.959-3.608 7.735-2.57c-.11 4.387.113 8.776.665 13.129Z" opacity=".5" style="mix-blend-mode:multiply"/><path fill="url(#o)" d="M175.925 397.521c-24.752 7.741-41.677-.558-49.319-4.258 0-.294 7.735-18.346 7.642-28.595-.201-33.41-9.081-44.386-9.282-45.981-.216-2.431 13.66-9.862 13.66-9.862a39.427 39.427 0 0 0 11.943 6.502c6.714 1.951 13.923.682 14.728-7.942a66.956 66.956 0 0 1 8.446 3.097 127.63 127.63 0 0 1 5.755 32.991c-.124 1.796-7.255 21.257-3.573 54.048Z"/><path fill="url(#p)" d="m143.793 368.985-52.844 20.131a2.571 2.571 0 0 0-1.487 3.317l13.446 35.347a2.566 2.566 0 0 0 3.313 1.488l52.844-20.131a2.57 2.57 0 0 0 1.486-3.316l-13.445-35.348a2.567 2.567 0 0 0-3.313-1.488Z"/><path fill="#FFA49A" d="M141.163 414.071a31.149 31.149 0 0 0-3.094-3.669 16.992 16.992 0 0 0-3.852-2.895 23.082 23.082 0 0 1-3.666-3.747 206.782 206.782 0 0 0-1.857-8.562 257.553 257.553 0 0 1-4.239-26.675c1.934-5.589 6.544-20.854 6.544-20.854l-16.382-6.595s-5.508 20.266-5.879 23.393l-.139 1.223c-.696 5.202 3.867 20.018 9.421 31.444a746.83 746.83 0 0 0 5.739 11.534c.294 2.307 0 7.137 1.176 8.933 1.176 1.796 2.259 3.406 3.341 3.855a3.192 3.192 0 0 0 2.739-.093c1.407 0 2.258-.403 2.506-1.053 1.547-.186 1.763-.341 2.49-1.409 1.841 0 2.646-.944 2.197-1.982-.34-.789-2.382-4.04-2.382-4.04a13.262 13.262 0 0 0 3.527 2.059c1.098.155 2.073-.139 1.81-.867Z"/><path fill="url(#q)" d="M110.502 351.803c2.785 1.935 16.213 5.604 19.925 4.644a179.04 179.04 0 0 0 6.451-19.786c3.094-12.462 1.795-27.759 1.795-27.759a36.481 36.481 0 0 0-13.766 9.349 36.515 36.515 0 0 0-8.186 14.494c-1.408 4.861-3.991 12.029-6.219 19.058Z"/><path fill="url(#r)" d="M152.116 255.211s-4.548 7.292-2.119 12.974c1.856.774 3.991 5.078 3.991 9.537 12.531.882 20.111-6.766 19.647-12.014-1.176-14.816-21.519-10.497-21.519-10.497Z"/><path fill="#FFA49A" d="M150.615 278.929s-1.113-4.009-4.083-2.662c-3.218 1.455-.929 6.27.123 8.05a1.87 1.87 0 0 0 3.481 0"/><path fill="url(#s)" d="M190.698 369.111h37.282a1.714 1.714 0 0 0 1.687-1.424l9.498-55.177a1.716 1.716 0 0 0-1.686-2.013h-37.283a1.715 1.715 0 0 0-1.686 1.424l-9.498 55.178a1.717 1.717 0 0 0 1.686 2.012Z"/><path fill="#FFA49A" d="M237.913 320.793a12.804 12.804 0 0 1 1.299 4.814c0 2.245-1.701 6.518-3.387 7.37-1.884.67-3.91.841-5.879.495a1.546 1.546 0 0 1-.975-.975 13.53 13.53 0 0 1-2.444-.341 1.21 1.21 0 0 1-.657-.736 1.213 1.213 0 0 1 .1-.982 5.464 5.464 0 0 1-2.181-.356 1.541 1.541 0 0 1-.57-1.25 1.539 1.539 0 0 1 .647-1.212 7.182 7.182 0 0 1 2.073-.975 2.76 2.76 0 0 1 1.021-1.812 16.648 16.648 0 0 1 5.353-1.316c1.779-.201 4.687-.232 5.6-2.724Z"/><path fill="#fff" d="M644.712 490.397H539.129v9.676h105.583v-9.676Z"/><path fill="#7EC4E0" d="M644.712 490.397h-23.809v9.676h23.809v-9.676Z"/><path stroke="#7EC4E0" stroke-miterlimit="10" d="M560.276 500.073v82.41M639.204 500.073v82.41M639.204 563.363h-78.928"/><path stroke="#fff" stroke-miterlimit="10" d="M627.075 563.363h-78.928M548.147 500.073v82.41M627.075 500.073v82.41"/><path fill="#FFA49A" d="m583.001 562.96-2.274 8.268s-7.611 2.353-10.643.836l1.037-9.599"/><path fill="#283770" d="M570.332 569.819s-.448 1.826-1.191 3.886a22.442 22.442 0 0 0-2.367 3.096 6.608 6.608 0 0 0 .17 5.728h17.389s1.547-4.644 0-6.719c-.743-.944-3.435-5.14-3.435-5.14a39.195 39.195 0 0 1-10.566-.851Z"/><path fill="#D99490" d="m508.869 563.363-1.377 7.137a27.561 27.561 0 0 0 10.829 1.641l2.413-7.648-11.865-1.13Z"/><path fill="#283770" d="M488.341 582.483h30.723a12.396 12.396 0 0 0-.248-12.014 29.93 29.93 0 0 1-11.045-1.425s-3.744 2.416-8.308 4.769c-4.563 2.353-11.958 4.614-11.122 8.67Z"/><path fill="url(#t)" d="M601.457 490.412h-29.918c-6.931 1.455-18.023 8.143-27.305 8.778-1.547 11.008-5.306 21.18-9.05 30.438-3.651 9.01-11.417 28.208-14.356 37.032a36.66 36.66 0 0 1-12.299-2.709c3.589-19.987 11.649-63.878 13.83-72.517 3.094-12.386 10.829-17.185 18.998-19.043 7.735-1.734 9.931-2.214 17.156-3.824l19.492-4.443 22.942-5.62s.479 2.972.897 7.029c2.707 11.781 2.321 20.296-.387 24.879Z"/><path fill="url(#u)" d="M630.247 490.412h-9.282s-3.094 6.828-20.497 8.716c-1.037 6.735-2.197 11.023-5.616 23.78-2.073 7.741-12.67 45.006-12.67 45.006-4.048.601-8.182.17-12.02-1.254 0 0 2.97-57.608 3.883-66.185.34-3.313 2.104-15.188 2.754-18.129a18.087 18.087 0 0 1 8.74-11.921s3.589-1.053 7.209-1.858l19.492-4.443 21.442-7.014a31.95 31.95 0 0 1 2.398 8.423c2.506 11.116-.093 24.415-5.833 24.879Z"/><path fill="#D99490" d="m577.185 390.012-20.591 20.467s-6.342-3.545-15.748-8.701a118.19 118.19 0 0 0-17.017-7.741l-2.46 4.939s21.658 20.668 33.121 24.632l.248.077c.371.124.727.232 1.067.31.624.135 1.254.239 1.888.309 9.869.898 29.284-19.863 29.284-19.863l-9.792-14.429Z"/><path fill="url(#v)" d="M558.142 430.575h-30.94a1.547 1.547 0 0 1-1.547-1.162l-12.376-44.386a1.556 1.556 0 0 1 .829-1.855c.225-.104.471-.153.718-.142h30.94a1.546 1.546 0 0 1 1.547 1.145l12.469 44.449a1.56 1.56 0 0 1-.308 1.406 1.554 1.554 0 0 1-1.332.545Z"/><path fill="url(#w)" d="m598.008 400.509-10.195 8.608-5.29 4.474-3.59 3.096a113.292 113.292 0 0 1-14.912-14.584c13.814-14.893 21.054-20.436 21.162-20.513 2.352-1.935 12.825 18.919 12.825 18.919Z"/><path fill="url(#x)" d="m587.813 409.039-5.291 4.475c1.269-2.988 3.218-15.157 3.218-15.157l1.547 1.548.526 9.134Z" opacity=".5" style="mix-blend-mode:multiply"/><path fill="url(#y)" d="M636.326 384.036c-.216 5.403-3.944 47.514-3.496 59.621.248 7.137 2.816 17.339 2.816 18.47 0 .805-1.037 1.641-1.454 1.857a23.876 23.876 0 0 1-7.906 1.889 203.715 203.715 0 0 1-21.967 1.007c-7.596 0-18.982-1.208-20.42-3.097-1.439-1.889-.14-4.319.51-7.834 4.873-26.04 0-69.033.805-74.498 3.094-2.013 17.017-6.503 17.233-6.565 2.027-.124 2.429-1.115 4.811-1.053 2.058 0 6.606.341 10.025.79 0-.015 12.515 3.05 19.043 9.413Z"/><path fill="url(#z)" d="M585.879 346.415s.959 11.596 4.796 12.386c3.836.789 2.892-4.15 2.892-4.15l-.525-5.496-7.163-2.74Z"/><path fill="#FFA49A" d="M604.969 384.036c-7.564-.31-4.934-6.967-2.537-9.165.123-.236.197-.494.217-.759a59.99 59.99 0 0 0-.186-8.066c0-.65-.077-1.13-.077-1.331l4.455-3.097 9.282-6.58s.418 10.141 1.161 19.6c1.191 3.097-4.61 9.723-12.315 9.398Z"/><path fill="#FF8189" d="M610.832 364.467s-2.429 7.834-8.183 9.645a59.99 59.99 0 0 0-.186-8.066l8.369-1.579Z"/><path fill="#FFA49A" d="M589.313 345.811s-1.206 24.849 7.735 26.521c0 0 7.163.96 13.088-7.029 1.717-2.307 3.867-2.818 4.641-5.605 1.145-4.505 2.769-12.834.696-17.85-3.001-7.153-25.881-13.438-26.16 3.963Z"/><path fill="url(#A)" d="M615.519 339.526c2.351-9.29-10.674-17.944-27.49-5.063-1.748-1.223-4.966-2.338-6.513-1.27-1.856 1.301-2.228 6.038-1.083 9.29 2.444 6.966 11.448 8.53 18.41 6.75 4.842-1.239 7.394-4.01 9.096-3.809-1.547 6.766 1.547 12.525 3.914 12.122.309.558 1.825-1.873 1.902-1.068.186 1.75 1.78 4.722 3.574 1.301 2.692-5.125 5.152-18.037-1.81-18.253Z"/><path fill="#FFA49A" d="M613.354 362.779c3.372.805 7.023-9.614 2.645-10.109-3.326-.387-4.641 4.892-4.641 4.892s-.758 4.567 1.996 5.217ZM653.328 428.841a.759.759 0 0 0 0-.202c-.587-3.901-1.407-7.57-1.655-8.561v-.263a112.892 112.892 0 0 0-5.755-18.579l-15.593 7.974a223.423 223.423 0 0 0 6.389 21.674s-12.593 10.481-20.637 16.628a1327.841 1327.841 0 0 1-8.911 6.765s-7.101 2.787-10.984 4.862c-1.547.82-8.276 11.766-8.075 12.292.201.527 1.021.96 2.104.465a6.418 6.418 0 0 0 1.794-1.781s-.711 1.208-.603 1.548c.108.341.727.635 1.547.295a5.253 5.253 0 0 0 2.104-2.276 8.937 8.937 0 0 0-.17.557c-.108.341.619 1.037 2.042.372 1.021-.465 2.692-3.824 3.094-4.366a3.361 3.361 0 0 1 1.547-.558l-1.826 5.884s.171.665 1.81.247c1.64-.418 3.094-4.397 3.93-6.595 5.368-.449 7.054-6.193 7.054-6.193 5.956-3.561 15.47-6.781 27.026-11.766a87.51 87.51 0 0 0 11.572-6.688l1.547-.96c.618-.325.974-1.239 1.129-2.493.163-2.77.002-5.55-.48-8.282Z"/><path fill="url(#B)" d="M623.75 399.301c1.655 6.921 7.596 21.056 7.596 21.056a35.741 35.741 0 0 0 11.927-2.555 20.18 20.18 0 0 0 8.044-5.233s-3.666-9.661-6.574-16.751c-1.996-4.877-4.641-9.522-5.894-10.683a37.574 37.574 0 0 0-13.088-7.617l-2.011 21.783Z"/><path fill="#fff" d="M618.119 474.961h-26.191v-2.57h26.191a1.28 1.28 0 0 1 1.283 1.285 1.285 1.285 0 0 1-1.283 1.285Z"/><path fill="#fff" d="m604.072 472.499-13.443-48.195a3.296 3.296 0 0 0-3.094-2.415h-63.427a1.7 1.7 0 0 0-1.161.465l-1.547 1.223 1.161.789 13.335 47.994a1.751 1.751 0 0 0 1.686 1.285h65.593a.925.925 0 0 0 .901-.731.923.923 0 0 0-.004-.415Z"/><path fill="url(#C)" d="M601.581 474.961h-65.608a1.731 1.731 0 0 1-1.67-1.285l-13.428-48.396a1.682 1.682 0 0 1 .251-1.447 1.69 1.69 0 0 1 .568-.495c.225-.119.474-.186.728-.195h63.427a3.31 3.31 0 0 1 3.094 2.415l13.366 48.196a.923.923 0 0 1-.087.77.927.927 0 0 1-.641.437Z"/><path fill="#fff" d="M559.764 459.745s-3.457-4.157-4.534-6.81c-1.076-2.653-1.157-4.853-.831-5.967.273-.903.875-1.182 1.092-1.251-.499-.263-.671-.624-.684-.979.572-.412.547-1.097.547-1.097.492.08.467-.605.453-.996-.014-.379-.277-.198-.301-.184.012-.025.172-.337-.046-1.272-.232-.97-1.023-1.198-1.708-1.173-.684.025-1.457.31-1.617 1.295-.149.948.034 1.248.047 1.272-.025-.012-.3-.173-.286.206.014.391.039 1.076.525.96 0 0 .025.684.626 1.054.014.391-.167.789-.743 1.104-.576.315-2.13.666-2.69 1.078-.572.413-.627 1.59-.277 3.131.351 1.554 2.419 8.209 10.553 9.747l-.001-.025-.125-.093Z" opacity=".5"/><path fill="#fff" d="M566.975 446.14c-.751-.462-2.721-.757-3.467-1.097-.747-.34-1.01-.82-1.027-1.309.715-.515.684-1.371.684-1.371.615.1.584-.756.566-1.245-.018-.489-.376-.231-.376-.231s.231-.375-.058-1.589c-.29-1.213-1.279-1.495-2.135-1.463-.855.031-1.821.385-2.021 1.616-.199 1.231.058 1.589.058 1.589s-.375-.231-.357.258c.018.489.049 1.344.656 1.2 0 0 .031.855.782 1.317.018.489-.208.987-.928 1.381-.72.393-2.662.832-3.377 1.348-.716.515-.784 1.987-.346 3.929.439 1.942 2.43 6.177 6.353 9.692 3.655-3.793 5.33-8.163 5.625-10.132.295-1.969.119-3.431-.632-3.893Z"/><path fill="#fff" d="M573.351 446.114c-.601-.37-2.177-.606-2.762-.878-.597-.272-.807-.656-.822-1.047.573-.413.548-1.097.548-1.097.492.08.467-.605.453-.996-.014-.379-.277-.198-.301-.185.012-.024.171-.336-.046-1.271-.232-.97-1.024-1.198-1.708-1.173-.685.025-1.457.31-1.617 1.295-.149.948.034 1.247.047 1.271-.025-.011-.3-.172-.287.207.015.391.04 1.075.525.96 0 0 .025.684.626 1.054.014.366-.144.727-.611 1.026.223.053.855.274 1.182 1.168.407 1.087.487 3.274-.392 6.012-.879 2.724-4.022 7.123-4.022 7.123l-.119.103a.193.193 0 0 1 .001.024c8-2.129 9.574-8.919 9.81-10.494.237-1.563.096-2.733-.505-3.102Z" opacity=".5"/><path fill="#D99490" d="M521.013 393.062h-.123c.433-.465-.093-1.966-1.857-2.647-2.104-.806-2.614-.976-2.614-.976l-2.305-1.13-.665-2.4a19.483 19.483 0 0 0-2.104 4.753c0 1.022 2.026 5.806 3.805 6.735a18.81 18.81 0 0 0 5.307 1.951c.711 0 .959-.744.309-1.549a8.656 8.656 0 0 0 1.547.295c.789 0 .619-1.456-.758-2.385.335.09.676.152 1.021.186.944-.031.572-2.028-1.563-2.833Z"/><path fill="#F3B2AD" d="m745.762 574.045-2.166-9.01c3.712.635 9.73-1.161 12.144-1.471l-.232 10.481a10.172 10.172 0 0 1-9.746 0ZM698.424 574.045l-.418-6.843c3.448.488 6.948.488 10.396 0l-.248 6.905a10.121 10.121 0 0 1-9.73-.062Z"/><path fill="url(#D)" d="M756.606 565.298c-2.537 1.455-9.931 2.585-13.505 1.424 0 0-15.888-72.083-17.914-80.955-2.661-11.58-7.287-25.56-10.04-38.193 0 6.549-.542 15.064-1.176 22.309-.727 8.376-1.547 15.048-1.547 15.048.557 5.295 1.655 30.964-.464 47.251-1.377 10.497-1.454 34.927-1.454 34.927-4.59.923-9.312.981-13.923.171 0 0-8.71-80.506-9.097-86.807-1.547-26.32-.448-84.779-.325-85.925 0 .418 3.094 3.097 12.376 2.524 12.81-.712 36.974-2.555 36.974-2.555 7.085 3.995 8.415 24.508 8.152 34.447-.294 4.645 2.135 36.538 3.667 54.806 4.641 10.992 4.641 29.725 5.631 43.473a3970.428 3970.428 0 0 0 2.645 38.055Z"/><path fill="#F3B2AD" d="m679.828 336.708-4.842 24.957c-5.987-4.862-15.285-12.123-21.565-15.622l-4.889 2.88a199.193 199.193 0 0 0 12.763 15.482 177.988 177.988 0 0 0 15.006 15.033c1.346 1.285 3.326 1.672 6.188.108 9.514-5.062 14.82-35.531 14.82-35.531l-17.481-7.307Z"/><path fill="url(#E)" d="M674.166 351.493a41.241 41.241 0 0 0 9.731 4.645c1.621.524 3.281.917 4.966 1.176.891.146 1.789.244 2.691.294 1.273.07 2.549.07 3.821 0l1.253-.154 3.28-13.423 2.444-9.94-16.738-19.367s-4.347 7.261-11.448 36.769Z"/><path fill="url(#F)" d="M692.111 261.172h3.094c.137.67.235 1.347.294 2.028l3.574 2.09v5.728s.464 5.187-3.419 3.979c-2.289-.712-2.707-5.171-2.676-8.701-2.274-1.532-.867-5.124-.867-5.124Z"/><path fill="#F3B2AD" d="M722.123 303.546c-.727-1.75-1.423-23.223-1.423-23.223l-9.576 8.05-4.471 3.763c-.495 2.26-1.3 5.155-1.965 7.508a10.377 10.377 0 0 0-.263 4.505 6.843 6.843 0 0 0 6.451 3.252c8.756-.635 11.247-3.855 11.247-3.855Z"/><path fill="#D76B66" d="M717.019 288.373s-3.837 8.484-12.376 11.302c.68-2.353 1.547-5.233 1.949-7.509l4.517-3.793h5.91Z" opacity=".32"/><path fill="#F3B2AD" d="M694.896 269.795s-1.918 20.127 4.641 23.842c3.62 2.028 11.247 1.254 16.197-3.375a18.803 18.803 0 0 0 4.486-7.617c1.656-4.536 4.193-12.958 2.584-18.346-2.228-7.679-25.804-12.416-27.908 5.496Z"/><path fill="url(#G)" d="M697.371 250.752c3.79-.774 4.223-3.808 8.431-3.375 4.208.434 4.858 2.679 6.838 3.468 1.98.79 4.316.078 6.915 1.626a5.414 5.414 0 0 1 2.413 3.87c7.828 1.208 7.116 6.596 5.291 12.649-1.361 4.536.712 5.93-.975 9.212-.711 1.378-2.583 3.514-2.954 5.388-.619 3.096-.898 4.242-2.336 5.588-.573-3.266-1.687-5.774-2.692-11.177 0-.387-.17-.759-.263-1.1-2.893-.278-4.78.233-5.43-1.765a34.103 34.103 0 0 1-.526-6.068c-6.745.464-8.57-2.292-9.437-2.973-7.271 1.548-10.117.913-11.834-1.626-1.717-2.539-.155-4.443-.186-5.263v-.078c-.557-3.716 2.955-7.601 6.745-8.376Z"/><path fill="url(#H)" d="M687.548 398.279c2.862 3.608 13.923 6.487 22.122 6.487 9.282 0 26.903-3.468 29.502-6.998.278-.387 1.98-2.059-.743-12.277a85.49 85.49 0 0 1-1.856-10.837c-.774-12.215 2.738-29.261 3.991-32.976 3.094-9.29 6.188-16.86 4.904-24.322a32.872 32.872 0 0 0-3.728-5.945c-3.821-4.212-17.017-10.373-20.111-10.838a13.072 13.072 0 0 1-4.336 4.323 13.065 13.065 0 0 1-5.828 1.87c-8.756.681-7.07-6.193-7.07-6.193-5.198 2.663-11.726 5.945-16.274 10.559-3.729 3.793-6.544 12.385-4.146 28.316.758 4.97 2.057 23.687 2.614 38.705.433 10.187-.185 18.687.959 20.126Z"/><path fill="#F3B2AD" d="M730.137 333.937s4.378 11.038 9.019 19.909c1.547 3.097 4.641 12.556 5.971 13.408 4.131 2.724 11.185-3.313 13.923-6.007a103.117 103.117 0 0 0-3.233-13.934c-3.404-11.333-8.509-25.375-8.509-25.375l-17.171 11.999Z"/><path fill="url(#I)" d="M727.507 313.191c2.259-2.942 9.823-7.106 14.805-.929a89.41 89.41 0 0 1 8.818 17.68 494.498 494.498 0 0 1 4.641 14.104 86.115 86.115 0 0 1-10.427 4.552c-4.456 1.548-9.607 2.678-13.521 1.734 0 0-5.26-13.934-6.513-21.52.047 0-1.872-10.357 2.197-15.621Z"/><path fill="#F3B2AD" d="M759.113 361.216s-24.752-10.838-28.249-12.912c-5.352-3.097-8.678-5.264-10.581-6.518 0 0-4.208-7.973-5.244-9.97-1.037-1.998-5.044-2.447-7.813-4.119-2.769-1.672-4.641-4.334-6.033-3.886-1.392.449.479 3.979 1.81 5.094 1.33 1.115 4.331 3.453 4.331 3.453a9.464 9.464 0 0 0-1.392 2.848c0 .774-1.222 1.657-1.268 3.097-.047 1.439-.774 2.105-.511 3.545a17.57 17.57 0 0 0 2.336 4.892c.279.356 1.098.186 1.377-.279a6.015 6.015 0 0 0 .495-1.548 11.428 11.428 0 0 0 6.668 3.917c.247.023.495.023.742 0 8.741 10.621 16.801 18.578 31.543 26.583 10.582 5.821 13.475-8.283 11.789-14.197Z"/><path fill="#283770" d="M691.864 573.519s4.641-3.793 6.296-3.793c1.222 0 1.826.743 2.955 1.161a5.902 5.902 0 0 0 1.671.356c4.037 0 5.507-1.13 5.507-1.13a15.342 15.342 0 0 1 1.547 12.509h-30.816c-.898-7.323 9.065-7.849 12.84-9.103ZM741.925 571.909a9.089 9.089 0 0 1 3.512-2.183 10.824 10.824 0 0 1 8.539.387c.543.032 1.089 0 1.625-.093a6.53 6.53 0 0 0 1.547 2.585c5.894 6.193 2.413 10.017 2.413 10.017h-16.862c-8.029-1.161-4.626-9.459-.774-10.713Z"/><path fill="#F3B2AD" d="M716.167 284.797c4.641 2.493 7.735-9.212 3.094-10.357-3.434-.883-4.223 3.963-4.223 3.963s-1.501 4.954 1.129 6.394Z"/><path fill="url(#J)" d="M715.147 447.574c0 2.508 0 5.294-.202 8.19l-7.487-25.669a42.616 42.616 0 0 0-3.898-5.28l6.946 2.71c1.067 5.697 4.641 20.049 4.641 20.049Z" opacity=".5" style="mix-blend-mode:multiply"/><path fill="url(#K)" d="M697.279 366.031h-34.251a4.958 4.958 0 0 1-2.512-.689 4.96 4.96 0 0 1-1.819-1.866l-21.426-38.705a1.923 1.923 0 0 1 .024-1.9 1.917 1.917 0 0 1 1.647-.948h34.235a4.933 4.933 0 0 1 4.331 2.554l21.442 38.705a1.926 1.926 0 0 1-.025 1.901 1.919 1.919 0 0 1-1.646.948Z"/><path fill="#F3B2AD" d="M655.308 347.127c1.547-.232 1.006-1.703-.201-2.384a10.641 10.641 0 0 0-2.073-.774c3.094.588 2.645-1.548 1.16-2.322a25.492 25.492 0 0 0-5.414-1.549l-4.394-2.461-1.949-3.546s-1.005 4.568.093 6.394a9.276 9.276 0 0 0 0 2.524c.115.185.268.343.449.464.123 1.239.355 2.524.866 2.849l.418.263a2.44 2.44 0 0 0 .758 1.75 16.58 16.58 0 0 0 3.666 1.703s2.073.278 4.641.758c2.089.387 2.228-.619 1.547-1.408 1.949.031 1.547-1.518.433-2.261Z"/><path fill="url(#L)" d="M492.564 404.952H378.581c-5.681 0-10.287 4.609-10.287 10.295v46.616c0 5.686 4.606 10.296 10.287 10.296h113.983c5.682 0 10.288-4.61 10.288-10.296v-46.616c0-5.686-4.606-10.295-10.288-10.295Z"/><path fill="#fff" d="M390.122 437.418c6.416 0 11.618-5.206 11.618-11.627 0-6.422-5.202-11.627-11.618-11.627-6.417 0-11.618 5.205-11.618 11.627 0 6.421 5.201 11.627 11.618 11.627Z"/><path fill="url(#M)" d="M390.122 425.791a3.73 3.73 0 0 0 3.728-3.731 3.73 3.73 0 0 0-3.728-3.732 3.73 3.73 0 0 0-3.728 3.732 3.73 3.73 0 0 0 3.728 3.731Z"/><path fill="url(#N)" d="M397.888 434.46a11.656 11.656 0 0 1-15.47 0 7.742 7.742 0 0 1 7.735-7.74 7.742 7.742 0 0 1 7.735 7.74Z"/><path fill="#fff" d="M450.3 422.059h-42.573a1.33 1.33 0 0 1-1.33-1.331 1.33 1.33 0 0 1 1.33-1.347H450.3a1.344 1.344 0 0 1 1.346 1.347 1.344 1.344 0 0 1-1.346 1.331ZM450.3 427.138h-42.573a1.331 1.331 0 0 1-1.33-1.347 1.317 1.317 0 0 1 1.33-1.332H450.3a1.33 1.33 0 0 1 1.346 1.332 1.35 1.35 0 0 1-1.346 1.347ZM427.003 432.2h-19.276a1.324 1.324 0 0 1-.945-.385 1.317 1.317 0 0 1-.385-.946 1.338 1.338 0 0 1 .384-.952 1.331 1.331 0 0 1 .946-.395h19.276a1.323 1.323 0 0 1 .946.395 1.327 1.327 0 0 1 .384.952 1.324 1.324 0 0 1-.385.946 1.317 1.317 0 0 1-.945.385ZM433.871 432.2h-2.491a1.328 1.328 0 0 1-1.33-1.331 1.347 1.347 0 0 1 1.33-1.347h2.491a1.347 1.347 0 0 1 1.33 1.347 1.331 1.331 0 0 1-1.33 1.331ZM482.909 462.677c6.333-1.028 10.634-7.001 9.606-13.339-1.028-6.339-6.996-10.643-13.329-9.614-6.334 1.029-10.635 7.001-9.607 13.34 1.028 6.338 6.996 10.642 13.33 9.613Z"/><path fill="url(#O)" d="M477.295 447.589a3.723 3.723 0 0 0 2.302 3.447 3.717 3.717 0 0 0 4.062-.809 3.724 3.724 0 0 0 .809-4.066 3.728 3.728 0 0 0-7.173 1.428Z"/><path fill="url(#P)" d="M473.258 459.99a11.656 11.656 0 0 0 15.47 0 7.744 7.744 0 0 0-2.266-5.474 7.733 7.733 0 0 0-13.204 5.474Z"/><path fill="#fff" d="M420.845 447.589h42.574a1.347 1.347 0 0 0 1.345-1.331 1.345 1.345 0 0 0-1.345-1.347h-42.574a1.331 1.331 0 0 0-1.33 1.347 1.331 1.331 0 0 0 1.33 1.331ZM411.656 447.589h4.362a1.347 1.347 0 0 0 1.346-1.331 1.347 1.347 0 0 0-1.346-1.347h-4.362a1.347 1.347 0 0 0-1.331 1.347 1.346 1.346 0 0 0 1.331 1.331ZM420.845 452.667h42.574a1.345 1.345 0 0 0 .95-2.294 1.325 1.325 0 0 0-.95-.384h-42.574a1.316 1.316 0 0 0-1.33 1.331 1.338 1.338 0 0 0 .384.952 1.324 1.324 0 0 0 .946.395ZM444.143 457.792h19.276a1.325 1.325 0 0 0 .95-.385 1.32 1.32 0 0 0 .396-.947c0-.357-.142-.7-.395-.952a1.342 1.342 0 0 0-.951-.395h-19.276a1.347 1.347 0 0 0-1.33 1.347 1.334 1.334 0 0 0 1.33 1.332ZM206.354 227.22H92.928a15.462 15.462 0 0 1-10.939-4.535 15.486 15.486 0 0 1 0-21.894 15.462 15.462 0 0 1 10.939-4.535h113.426c4.103 0 8.038 1.631 10.939 4.535a15.487 15.487 0 0 1 0 21.894 15.462 15.462 0 0 1-10.939 4.535Z"/><path fill="url(#Q)" d="m100.616 205.282 1.547 3.22a.875.875 0 0 0 .619.465l3.558.511a.837.837 0 0 1 .68 1.013.835.835 0 0 1-.216.396l-2.583 2.508a.829.829 0 0 0-.232.727l.603 3.561a.82.82 0 0 1-1.191.867l-3.187-1.672a.77.77 0 0 0-.773 0l-3.094 1.672a.835.835 0 0 1-1.207-.867l.619-3.561a.804.804 0 0 0-.248-.727l-2.568-2.508a.824.824 0 0 1 .035-1.224.82.82 0 0 1 .414-.185l3.558-.511a.871.871 0 0 0 .634-.465l1.547-3.22a.817.817 0 0 1 .743-.472.818.818 0 0 1 .742.472Z"/><path fill="url(#R)" d="m125.493 205.282 1.547 3.22a.866.866 0 0 0 .634.465l3.558.511a.818.818 0 0 1 .679 1.017.82.82 0 0 1-.23.392l-2.568 2.508a.81.81 0 0 0-.248.727l.619 3.561a.842.842 0 0 1-.339.802.837.837 0 0 1-.868.065l-3.187-1.672a.74.74 0 0 0-.758 0l-3.186 1.672a.819.819 0 0 1-1.144-.418.82.82 0 0 1-.048-.449l.604-3.561a.84.84 0 0 0-.232-.727l-2.584-2.508a.83.83 0 0 1-.214-.852.83.83 0 0 1 .678-.557l3.558-.511a.87.87 0 0 0 .619-.465l1.547-3.22a.823.823 0 0 1 .781-.571.817.817 0 0 1 .782.571Z"/><path fill="url(#S)" d="m150.383 205.282 1.547 3.22a.802.802 0 0 0 .619.465l3.558.511a.814.814 0 0 1 .667.563.825.825 0 0 1-.218.846l-2.568 2.508a.806.806 0 0 0-.233.727l.604 3.561a.82.82 0 0 1-1.191.867l-3.187-1.672a.774.774 0 0 0-.774 0l-3.187 1.672a.813.813 0 0 1-.865-.061.82.82 0 0 1-.326-.806l.604-3.561a.806.806 0 0 0-.232-.727l-2.584-2.508a.844.844 0 0 1-.195-.846.831.831 0 0 1 .659-.563l3.558-.511a.87.87 0 0 0 .619-.465l1.547-3.22a.825.825 0 0 1 .789-.597.82.82 0 0 1 .789.597Z"/><path fill="url(#T)" d="m175.259 205.282 1.547 3.22a.867.867 0 0 0 .619.465l3.558.511a.83.83 0 0 1 .659.563.84.84 0 0 1-.195.846l-2.584 2.508a.838.838 0 0 0-.232.727l.604 3.561a.82.82 0 0 1-1.191.867l-3.187-1.672a.774.774 0 0 0-.774 0l-3.094 1.672a.828.828 0 0 1-.867-.065.832.832 0 0 1-.339-.802l.618-3.561a.803.803 0 0 0-.247-.727l-2.568-2.508a.825.825 0 0 1 .034-1.224.822.822 0 0 1 .414-.185l3.559-.511a.876.876 0 0 0 .634-.465l1.547-3.22a.818.818 0 0 1 1.485 0Z"/><path fill="url(#U)" d="m200.135 205.282 1.547 3.22a.868.868 0 0 0 .634.465l3.559.511a.822.822 0 0 1 .448 1.409l-2.568 2.508a.808.808 0 0 0-.247.727l.618 3.561a.832.832 0 0 1-.763.956.828.828 0 0 1-.443-.089l-3.187-1.672a.745.745 0 0 0-.758 0l-3.187 1.672a.817.817 0 0 1-.866-.061.828.828 0 0 1-.325-.806l.603-3.561a.84.84 0 0 0-.232-.727l-2.583-2.508a.817.817 0 0 1 .464-1.409l3.558-.511a.87.87 0 0 0 .619-.465l1.547-3.22a.817.817 0 0 1 1.265-.413c.14.103.244.247.297.413Z"/><path fill="url(#V)" d="M316.423 81.954h-60.41c-5.912 0-10.705 4.796-10.705 10.713v76.078c0 5.917 4.793 10.713 10.705 10.713h60.41c5.912 0 10.705-4.796 10.705-10.713V92.667c0-5.917-4.793-10.713-10.705-10.713Z"/><path fill="#fff" d="M286.458 160.648c16.976 0 30.738-13.773 30.738-30.763 0-16.989-13.762-30.762-30.738-30.762-16.977 0-30.739 13.773-30.739 30.762 0 16.99 13.762 30.763 30.739 30.763Z"/><mask id="W" width="63" height="62" x="255" y="99" maskUnits="userSpaceOnUse" style="mask-type:luminance"><path fill="#fff" d="M286.458 160.663c16.976 0 30.738-13.773 30.738-30.762 0-16.99-13.762-30.763-30.738-30.763-16.977 0-30.739 13.773-30.739 30.763 0 16.989 13.762 30.762 30.739 30.762Z"/></mask><g mask="url(#W)"><path fill="url(#X)" d="M306.243 142.054c-19.585 6.193-34.761 2.028-40.036.139 1.16-4.644 2.475-8.871 2.583-11.611.217-6.193-2.088-8.174-.928-15.714.959-6.379 4.023-9.212 4.951-9.955l.17-.124h.108l.634-.464.186-.124.093-.077a19.995 19.995 0 0 1 11.339-3.407 7.377 7.377 0 0 1 5.833 2.478 8.408 8.408 0 0 1 6.296.526c.108 0 1.021.449 1.067.495l.17.124c.171.109.372.263.635.465a19.876 19.876 0 0 1 4.068 4.164 13.444 13.444 0 0 1 1.841 7.633c-.294 4.505-2.212 9.738-2.444 13.206a15.714 15.714 0 0 0 3.434 12.246Z"/><path fill="#EBEEFD" d="m308.796 151.916-2.089 15.962h-40.949l-2.088-15.962a41.87 41.87 0 0 1 12.237-3.948h.139a54.285 54.285 0 0 0 10.179-1.548 54.7 54.7 0 0 0 10.195 1.548 40.206 40.206 0 0 1 12.376 3.948Z"/><path fill="#F3D0C2" d="M296.42 147.937a6.568 6.568 0 0 1-2.815-1.331 3.881 3.881 0 0 1-1.547-2.462l-1.207-10.589h-9.561l-1.206 10.589a3.89 3.89 0 0 1-1.547 2.462 6.646 6.646 0 0 1-2.769 1.331s3.852 10.838 10.318 10.838c5.848-.031 10.334-10.838 10.334-10.838Z"/><path fill="#EEBAAD" d="M273.184 125.303a1.542 1.542 0 0 0-2.057 0c-1.176.836.093 5.604 1.439 6.332 1.345.727 1.949-.217 1.949-.217l-1.331-6.115ZM298.849 125.303a1.542 1.542 0 0 1 2.057 0c1.176.836-.092 5.604-1.438 6.332-1.346.727-1.949-.217-1.949-.217l1.33-6.115Z"/><path fill="#F3D0C2" d="M286.163 104.96s-13.722.959-13.583 15.032c0 0 .48 10.435 2.29 13.594 1.81 3.158 5.321 8.329 11.293 8.53 5.987-.201 9.467-5.357 11.293-8.53 1.825-3.174 2.289-13.594 2.289-13.594.155-14.073-13.582-15.032-13.582-15.032Z"/><path fill="#DB9C93" d="M292.057 139.995a8.419 8.419 0 0 1-1.639 1.192c-.61.352-1.252.643-1.919.867a8.563 8.563 0 0 1-2.397.403c-.415-.014-.828-.05-1.238-.109a12.678 12.678 0 0 1-1.16-.294 10.544 10.544 0 0 1-1.919-.867 8.007 8.007 0 0 1-1.624-1.192c.58.32 1.179.605 1.795.852a14.03 14.03 0 0 0 1.918.634c.34.093.712.155 1.083.217.379.05.762.076 1.145.077a11.363 11.363 0 0 0 4.145-.928 17.456 17.456 0 0 0 1.81-.852Z"/><path fill="url(#Y)" d="M301.463 112.716a55.403 55.403 0 0 0-3.728-5.883 26.989 26.989 0 0 1-2.646-1.006 25.587 25.587 0 0 0-4.114-1.44c-.48 0-2.275.155-2.491.573a.363.363 0 0 0 0 .154 8.341 8.341 0 0 0-2.522-1.254c-.572.14-6.745 2.013-6.745 2.013s-2.923 2.616-3.929 3.251c-1.006.635-2.676 4.861-2.676 4.861l-1.037 8.268a35.08 35.08 0 0 0 10.659-2.292c5.894-2.322 6.869-4.644 7.735-7.044.34.372 3.372 8.268 11.479 9.289 3.279.48.015-9.49.015-9.49Z"/></g><path fill="#fff" d="M368.077 72.293h-60.333a11.336 11.336 0 0 0-7.886 3.042 11.353 11.353 0 0 0-3.592 7.656 11.034 11.034 0 0 0 3.108 8.01 11.032 11.032 0 0 0 7.906 3.353h5.028v7.231a.96.96 0 0 0 1.64.681l7.905-7.912h45.698a11.32 11.32 0 0 0 7.885-3.032 11.335 11.335 0 0 0 3.594-7.65 11.056 11.056 0 0 0-3.081-7.999 11.032 11.032 0 0 0-7.872-3.38Z"/><path fill="url(#Z)" d="m312.463 77.603 1.238 2.493a.788.788 0 0 0 .603.449l2.754.402a.802.802 0 0 1 .667.542.81.81 0 0 1-.203.836l-1.996 1.95a.776.776 0 0 0-.232.713l.464 2.756a.804.804 0 0 1-1.176.851l-2.459-1.3a.82.82 0 0 0-.758 0l-2.476 1.3a.801.801 0 0 1-1.13-.407.795.795 0 0 1-.045-.444l.479-2.756a.81.81 0 0 0-.232-.712l-1.995-1.951a.8.8 0 0 1-.208-.83.806.806 0 0 1 .656-.548l2.754-.402a.785.785 0 0 0 .603-.45l1.238-2.492a.802.802 0 0 1 1.157-.336.802.802 0 0 1 .297.336Z"/><path fill="url(#aa)" d="m329.789 77.603 1.238 2.493a.781.781 0 0 0 .603.449l2.754.402a.804.804 0 0 1 .448 1.378l-1.98 1.95a.821.821 0 0 0-.247.713l.479 2.756a.804.804 0 0 1-1.175.851l-2.476-1.3a.785.785 0 0 0-.742 0l-2.476 1.3a.801.801 0 0 1-1.13-.407.804.804 0 0 1-.045-.444l.479-2.756a.817.817 0 0 0-.247-.712l-1.98-1.951a.807.807 0 0 1 .042-1.198.804.804 0 0 1 .406-.18l2.754-.402a.793.793 0 0 0 .603-.45l1.238-2.492a.802.802 0 0 1 1.157-.336.802.802 0 0 1 .297.336Z"/><path fill="url(#ab)" d="m347.115 77.603 1.238 2.493a.788.788 0 0 0 .603.449l2.754.402a.8.8 0 0 1 .656.548.81.81 0 0 1-.208.83l-1.995 1.95a.796.796 0 0 0-.232.713l.479 2.756a.804.804 0 0 1-1.176.851l-2.475-1.3a.82.82 0 0 0-.758 0l-2.459 1.3a.806.806 0 0 1-1.176-.851l.464-2.756a.778.778 0 0 0-.232-.712l-1.996-1.951a.807.807 0 0 1 .042-1.198.804.804 0 0 1 .407-.18l2.769-.402a.82.82 0 0 0 .603-.45l1.238-2.492a.802.802 0 0 1 1.157-.336.802.802 0 0 1 .297.336Z"/><path fill="url(#ac)" d="m364.442 77.603 1.222 2.493a.841.841 0 0 0 .619.449l2.754.402a.8.8 0 0 1 .656.548.8.8 0 0 1-.207.83l-1.996 1.95a.806.806 0 0 0-.232.713l.479 2.756a.821.821 0 0 1-1.191.851l-2.459-1.3a.827.827 0 0 0-.759 0l-2.459 1.3a.806.806 0 0 1-1.176-.851l.464-2.756a.81.81 0 0 0-.232-.712l-1.996-1.951a.8.8 0 0 1 .042-1.198.804.804 0 0 1 .407-.18l2.754-.402a.82.82 0 0 0 .619-.45l1.237-2.492a.802.802 0 0 1 1.157-.336.802.802 0 0 1 .297.336Z"/><path fill="url(#ad)" d="M256.554 485.473H235.19v97.583h21.364v-97.583Z"/><path fill="url(#ae)" d="M290.866 501.125h-21.348v81.931h21.348v-81.931Z"/><path fill="url(#af)" d="M222.551 514.486h-21.364v68.57h21.364v-68.57Z"/><path fill="url(#ag)" d="M325.194 472.499H303.83v110.557h21.364V472.499Z"/><path fill="url(#ah)" d="M211.954 506.296a5.326 5.326 0 0 0 5.306-5.31 5.094 5.094 0 0 0-.557-2.322l26.299-25.406a5.237 5.237 0 0 0 2.831.836 5.303 5.303 0 0 0 3.837-1.641l25.262 15.095a4.52 4.52 0 0 0 0 .789 5.316 5.316 0 0 0 2.036 4.23 5.297 5.297 0 0 0 4.591.961 5.308 5.308 0 0 0 3.977-5.431 5.319 5.319 0 0 0-.672-2.314l27.66-33.023a5.308 5.308 0 0 0 6.131-1.541 5.316 5.316 0 0 0-2.318-8.367 5.306 5.306 0 0 0-7.093 5 5.364 5.364 0 0 0 .851 2.864l-27.552 32.868a5.24 5.24 0 0 0-2.305-.557 5.27 5.27 0 0 0-3.821 1.641l-25.278-15.095c.055-.259.086-.524.093-.789a5.323 5.323 0 0 0-8.974-3.579 5.327 5.327 0 0 0-1.654 3.579c.001.697.143 1.387.418 2.028l-26.469 25.545a5.293 5.293 0 0 0-4.646-.213 5.307 5.307 0 0 0-1.919 1.42 5.302 5.302 0 0 0 1.688 8.188 5.263 5.263 0 0 0 2.324.544h-.046Z"/><path fill="url(#ai)" d="M664.637 254.174h-34.622a7.035 7.035 0 0 0-4.977 2.063 7.047 7.047 0 0 0-2.061 4.981v8.67c0 1.868.741 3.66 2.061 4.981a7.035 7.035 0 0 0 4.977 2.063h25.015l6.188 6.27a1.298 1.298 0 0 0 2.228-.913v-5.357h1.114a7.035 7.035 0 0 0 4.977-2.063 7.048 7.048 0 0 0 2.062-4.981v-8.716a7.048 7.048 0 0 0-2.051-4.924 7.035 7.035 0 0 0-4.911-2.074Z"/><path fill="#fff" d="M637.131 265.522a2.086 2.086 0 0 1-3.565 1.478 2.095 2.095 0 0 1-.453-2.278 2.093 2.093 0 0 1 1.929-1.29 2.087 2.087 0 0 1 2.089 2.09ZM645.315 265.522a2.091 2.091 0 0 1-2.496 2.05 2.086 2.086 0 0 1-1.522-2.85 2.087 2.087 0 0 1 1.929-1.29 2.082 2.082 0 0 1 1.481.608 2.078 2.078 0 0 1 .608 1.482ZM653.498 265.522a2.093 2.093 0 0 1-1.293 1.933 2.09 2.09 0 1 1-.78-4.023 2.072 2.072 0 0 1 2.073 2.09ZM661.697 265.522c0 .414-.122.818-.352 1.161a2.08 2.08 0 0 1-2.143.889 2.091 2.091 0 1 1 1.208-3.985 2.067 2.067 0 0 1 1.287 1.935Z"/><path fill="url(#aj)" d="M605.604 280.4h40.856c1.866 0 3.657.742 4.977 2.063a7.05 7.05 0 0 1 2.062 4.982v8.669a7.046 7.046 0 0 1-7.039 7.045h-31.25l-6.265 6.27a1.296 1.296 0 0 1-1.421.293 1.295 1.295 0 0 1-.807-1.207v-5.356h-1.113a7.039 7.039 0 0 1-7.039-7.045v-8.623a7.032 7.032 0 0 1 2.045-5.011 7.037 7.037 0 0 1 4.994-2.08Z"/><path fill="#fff" d="M639.358 291.749a2.091 2.091 0 0 0 2.502 2.048 2.083 2.083 0 0 0 1.637-1.65 2.094 2.094 0 0 0-.901-2.144 2.086 2.086 0 0 0-1.165-.345 2.08 2.08 0 0 0-1.471.614 2.081 2.081 0 0 0-.602 1.477ZM631.16 291.748c0 .414.123.818.352 1.162a2.096 2.096 0 0 0 2.144.888 2.084 2.084 0 0 0 1.641-1.642 2.087 2.087 0 0 0-.888-2.145 2.083 2.083 0 0 0-2.637.26 2.088 2.088 0 0 0-.612 1.477ZM622.977 291.749a2.088 2.088 0 1 0 3.248-1.738 2.083 2.083 0 0 0-1.16-.353 2.082 2.082 0 0 0-1.481.608 2.088 2.088 0 0 0-.453.68 2.082 2.082 0 0 0-.154.803ZM614.777 291.748a2.093 2.093 0 0 0 2.496 2.05 2.084 2.084 0 0 0 1.641-1.642 2.087 2.087 0 0 0-.888-2.145 2.083 2.083 0 0 0-2.637.26 2.088 2.088 0 0 0-.612 1.477ZM606.594 291.749a2.088 2.088 0 1 0 4.018-.8 2.088 2.088 0 0 0-1.93-1.291 2.077 2.077 0 0 0-1.933 1.288 2.065 2.065 0 0 0-.155.803Z"/><path fill="url(#ak)" d="M590.798 213.41h-6.203a3.575 3.575 0 0 0-3.574 3.576v25.406c0 1.975 1.6 3.577 3.574 3.577h6.203a3.576 3.576 0 0 0 3.574-3.577v-25.406c0-1.975-1.6-3.576-3.574-3.576Z"/><path fill="url(#al)" d="M631.33 232.917a6.712 6.712 0 0 1-4.749 5.357 2.15 2.15 0 0 1 1.98 2.802c-.65 2.555-2.877 4.908-4.888 4.908h-16.306a18.813 18.813 0 0 1-7.735-1.641l-.464-.201a2.738 2.738 0 0 1-1.655-2.539v-23.657a6.59 6.59 0 0 1 .789-3.096c1.114-2.137 3.094-6.1 3.094-8.221 0-3.003-4.641-12.618-1.392-14.615 3.248-1.997 7.131.697 9.777 5.496 2.103 3.793.603 12.014 2.103 13.516h15.795s4.286-.155 4.007 3.808a9.289 9.289 0 0 1-2.104 5.342s2.785-.202 2.692 3.452a9.092 9.092 0 0 1-2.785 5.899s2.367.325 1.841 3.39Z"/><path fill="url(#am)" d="M228.104 414.659h-4.331a2.507 2.507 0 0 0-2.506 2.508v17.804a2.506 2.506 0 0 0 2.506 2.508h4.331a2.506 2.506 0 0 0 2.506-2.508v-17.804a2.507 2.507 0 0 0-2.506-2.508Z"/><path fill="url(#an)" d="M256.477 428.376a4.638 4.638 0 0 1-3.326 3.747 1.543 1.543 0 0 1 1.428 1.282 1.55 1.55 0 0 1-.036.684c-.464 1.796-2.026 3.437-3.434 3.437h-11.417c-1.886.01-3.753-.38-5.476-1.146l-.325-.139a1.914 1.914 0 0 1-1.16-1.781v-16.627a4.766 4.766 0 0 1 .541-2.214 17.037 17.037 0 0 0 2.15-5.744c0-2.105-3.187-8.84-.974-10.249 2.212-1.409 4.996.496 6.853 3.855 1.547 2.648.433 8.407 1.547 9.46h11.076s3.002-.093 2.801 2.678a6.59 6.59 0 0 1-1.547 3.747s1.949-.14 1.887 2.415a6.379 6.379 0 0 1-1.965 4.133s1.795.264 1.377 2.462Z"/><path fill="#fff" d="M353.598 116.354h-8.834c-.564 0-1.021.458-1.021 1.022v8.84c0 .564.457 1.022 1.021 1.022h8.834c.563 0 1.021-.458 1.021-1.022v-8.84c0-.564-.458-1.022-1.021-1.022ZM368.124 116.354h-8.833c-.564 0-1.021.458-1.021 1.022v8.84c0 .564.457 1.022 1.021 1.022h8.833c.564 0 1.021-.458 1.021-1.022v-8.84c0-.564-.457-1.022-1.021-1.022ZM382.665 116.354h-8.833c-.564 0-1.021.458-1.021 1.022v8.84c0 .564.457 1.022 1.021 1.022h8.833c.564 0 1.021-.458 1.021-1.022v-8.84c0-.564-.457-1.022-1.021-1.022ZM65.376 440.808h-8.834c-.563 0-1.02.458-1.02 1.022v8.84c0 .564.457 1.022 1.02 1.022h8.834c.564 0 1.02-.458 1.02-1.022v-8.84c0-.564-.456-1.022-1.02-1.022ZM79.918 440.808h-8.834c-.563 0-1.02.458-1.02 1.022v8.84c0 .564.457 1.022 1.02 1.022h8.834c.564 0 1.02-.458 1.02-1.022v-8.84c0-.564-.456-1.022-1.02-1.022ZM94.46 440.808h-8.834c-.563 0-1.02.458-1.02 1.022v8.84c0 .564.457 1.022 1.02 1.022h8.834c.564 0 1.02-.458 1.02-1.022v-8.84c0-.564-.456-1.022-1.02-1.022ZM475.145 530.758h-5.662a.666.666 0 0 0-.666.666v5.666c0 .368.298.666.666.666h5.662a.666.666 0 0 0 .665-.666v-5.666a.666.666 0 0 0-.665-.666ZM484.504 530.758h-5.662a.666.666 0 0 0-.665.666v5.666c0 .368.298.666.665.666h5.662a.666.666 0 0 0 .665-.666v-5.666a.666.666 0 0 0-.665-.666ZM493.848 530.758h-5.662a.665.665 0 0 0-.665.666v5.666c0 .368.297.666.665.666h5.662a.666.666 0 0 0 .665-.666v-5.666a.666.666 0 0 0-.665-.666Z"/><path stroke="url(#ao)" stroke-miterlimit="10" stroke-width="1.19" d="M444.824 220.331a15.29 15.29 0 0 0 4.472 10.805 15.268 15.268 0 0 0 10.797 4.475h95.048a15.261 15.261 0 0 0 10.786-4.481 15.281 15.281 0 0 0 4.467-10.799 15.285 15.285 0 0 0-4.472-10.79 15.267 15.267 0 0 0-10.781-4.476h-95.048a15.263 15.263 0 0 0-10.791 4.47 15.29 15.29 0 0 0-4.478 10.796Z"/><path fill="url(#ap)" d="M552.526 215.113h-64a1.655 1.655 0 0 1 0-3.313h63.953a1.66 1.66 0 0 1 1.656 1.657 1.658 1.658 0 0 1-1.609 1.656Z"/><path fill="url(#aq)" d="M528.408 222.034h-39.882a1.654 1.654 0 0 1-1.17-2.828c.31-.311.731-.486 1.17-.486h39.836a1.658 1.658 0 0 1 .046 3.314Z"/><path fill="url(#ar)" d="M552.526 222.034h-17.017a1.656 1.656 0 0 1 0-3.314h17.017a1.654 1.654 0 0 1 1.17 2.828c-.31.311-.731.486-1.17.486Z"/><path fill="url(#as)" d="M518.894 228.938h-30.368a1.654 1.654 0 0 1-1.529-2.288 1.656 1.656 0 0 1 .897-.889c.201-.081.416-.122.632-.12h30.321a1.649 1.649 0 0 1 1.656 1.641 1.656 1.656 0 0 1-1.609 1.656Z"/><path fill="url(#at)" d="M467.874 219.262a8.177 8.177 0 0 0-8.168 8.175v.82a.68.68 0 0 0 .681.681h14.975a.659.659 0 0 0 .633-.418.656.656 0 0 0 .047-.263v-.82a8.163 8.163 0 0 0-2.387-5.785 8.164 8.164 0 0 0-5.781-2.39Z"/><path fill="url(#au)" d="M471.355 214.355c0 1.919-1.547 4.365-3.481 4.365-1.933 0-3.48-2.446-3.48-4.365a3.48 3.48 0 1 1 6.961 0Z"/><path fill="#fff" d="M.805 287.181c0 3.917 1.555 7.674 4.322 10.444a14.752 14.752 0 0 0 10.436 4.326h92.016a14.75 14.75 0 0 0 10.435-4.326 14.776 14.776 0 0 0 4.323-10.444 14.777 14.777 0 0 0-4.317-10.453 14.752 14.752 0 0 0-10.441-4.332H15.563a14.752 14.752 0 0 0-13.64 9.128 14.78 14.78 0 0 0-1.118 5.657Z"/><path fill="url(#av)" d="M106.417 281.948h-63.89a1.653 1.653 0 0 1-1.656-1.656 1.66 1.66 0 0 1 1.655-1.657h63.891a1.66 1.66 0 0 1 1.656 1.657 1.658 1.658 0 0 1-1.656 1.656Z"/><path fill="url(#aw)" d="M82.362 288.869H42.526a1.657 1.657 0 0 1 0-3.313h39.836a1.653 1.653 0 0 1 1.655 1.656 1.658 1.658 0 0 1-1.655 1.657Z"/><path fill="url(#ax)" d="M106.418 288.869H89.401a1.657 1.657 0 0 1 0-3.313h17.017a1.655 1.655 0 1 1 0 3.313Z"/><path fill="url(#ay)" d="M72.848 295.774H42.526a1.632 1.632 0 0 1-1.17-.475 1.65 1.65 0 0 1-.485-1.166 1.645 1.645 0 0 1 1.02-1.535c.201-.083.417-.124.635-.122h30.322a1.63 1.63 0 0 1 1.175.481 1.636 1.636 0 0 1 .48 1.176 1.64 1.64 0 0 1-1.655 1.641Z"/><path fill="url(#az)" d="M23.87 286.098a8.149 8.149 0 0 0-7.55 5.043 8.166 8.166 0 0 0-.619 3.131v.821a.666.666 0 0 0 .681.681h14.975a.68.68 0 0 0 .68-.681v-.821a8.181 8.181 0 0 0-5.042-7.552 8.158 8.158 0 0 0-3.125-.622Z"/><path fill="url(#aA)" d="M27.351 281.19c0 1.92-1.547 4.366-3.48 4.366-1.934 0-3.481-2.446-3.481-4.366a3.484 3.484 0 0 1 3.48-3.484 3.484 3.484 0 0 1 3.48 3.484Z"/><path fill="url(#aB)" d="M311.209 204.585a6.9 6.9 0 0 0-8.168-.464 3.3 3.3 0 0 1-3.295 3.298 3.296 3.296 0 0 1-3.295-3.298 6.87 6.87 0 0 0-8.153.464c-6.374 5.589 3.094 19.043 11.448 22.016 8.292-2.973 17.837-16.427 11.463-22.016Z"/><path fill="#fff" d="M96.92 308.562a5.91 5.91 0 0 0-6.993-.387 8.943 8.943 0 0 0-2.83 2.647 8.741 8.741 0 0 0-2.832-2.647 5.886 5.886 0 0 0-6.977.387c-5.476 4.815 2.708 16.333 9.808 18.888 7.101-2.555 15.285-14.073 9.824-18.888Z"/><path fill="url(#aC)" d="M233.272 106.864a3.839 3.839 0 0 0-2.233-.873 3.84 3.84 0 0 0-2.315.625 1.84 1.84 0 0 1-3.667 0 3.84 3.84 0 0 0-2.314-.625 3.842 3.842 0 0 0-2.234.873c-3.558 3.096 1.764 10.605 6.374 12.261 4.656-1.656 9.963-9.134 6.389-12.261Z"/><path fill="url(#aD)" d="M408.93 213.851c12.445-12.455 12.445-32.648 0-45.103-12.446-12.455-32.623-12.455-45.069 0-12.445 12.455-12.445 32.648 0 45.103 12.446 12.455 32.623 12.455 45.069 0Z"/><path fill="#FF8159" d="M405.44 210.359c10.518-10.526 10.518-27.593 0-38.119s-27.572-10.526-38.09 0c-10.518 10.526-10.518 27.593 0 38.119s27.572 10.526 38.09 0Z" style="mix-blend-mode:multiply"/><path fill="url(#aE)" d="M386.394 217.141c14.259 0 25.819-11.568 25.819-25.839 0-14.271-11.56-25.839-25.819-25.839-14.26 0-25.82 11.568-25.82 25.839 0 14.271 11.56 25.839 25.82 25.839Z"/><path fill="#FF8159" d="m393.665 179.83-.433-.263a11.222 11.222 0 0 0-3.651-1.332 1.885 1.885 0 0 1-1.547-1.858v-.557a1.904 1.904 0 0 0-3.806 0v1.037a1.889 1.889 0 0 1-1.238 1.781 7.201 7.201 0 0 0-5.12 6.936c0 4.366 3.527 6.363 7.333 7.849 3.094 1.27 4.393 2.57 4.393 4.474 0 1.905-1.825 3.546-4.424 3.546a10.683 10.683 0 0 1-5.755-1.719l-.634-.418a1.893 1.893 0 0 0-1.718-.159 1.893 1.893 0 0 0-1.129 1.305c-.588 1.548 1.439 2.818 1.439 2.818l.356.263a11.548 11.548 0 0 0 4.641 1.749 1.917 1.917 0 0 1 1.547 1.873v.697a1.905 1.905 0 0 0 1.902 1.904 1.903 1.903 0 0 0 1.903-1.904v-1.161a1.86 1.86 0 0 1 1.238-1.765 7.734 7.734 0 0 0 5.43-7.323c0-3.824-2.073-6.301-6.915-8.267-3.775-1.548-4.858-2.524-4.858-4.273 0-1.394 1.021-3.097 3.883-3.097a9.425 9.425 0 0 1 5.012 1.363l.604.34a1.904 1.904 0 0 0 1.745.204 1.917 1.917 0 0 0 1.178-1.303c.666-1.532-1.376-2.74-1.376-2.74Z" style="mix-blend-mode:screen"/><path fill="url(#aF)" d="M72.195 398.425c7.945-7.951 7.945-20.841 0-28.792-7.944-7.95-20.825-7.95-28.77 0-7.944 7.951-7.944 20.841 0 28.792 7.945 7.95 20.826 7.95 28.77 0Z"/><path fill="#FF8159" d="M69.963 396.192c6.712-6.718 6.712-17.608 0-24.325-6.712-6.718-17.594-6.718-24.306 0-6.712 6.717-6.712 17.607 0 24.325 6.712 6.717 17.594 6.717 24.306 0Z" style="mix-blend-mode:multiply"/><path fill="url(#aG)" d="M57.811 400.54c9.108 0 16.491-7.389 16.491-16.504 0-9.115-7.383-16.504-16.49-16.504-9.108 0-16.492 7.389-16.492 16.504 0 9.115 7.384 16.504 16.491 16.504Z"/><path fill="#FF8159" d="m62.452 376.713-.279-.17a7.188 7.188 0 0 0-2.32-.852 1.202 1.202 0 0 1-.99-1.176v-.325a1.225 1.225 0 0 0-1.215-1.361 1.211 1.211 0 0 0-.911.408 1.23 1.23 0 0 0-.303.953v.65a1.209 1.209 0 0 1-.789 1.145 4.641 4.641 0 0 0-3.28 4.428c0 2.787 2.26 4.057 4.642 5.016 1.995.805 2.8 1.549 2.8 2.849 0 1.3-1.16 2.26-2.832 2.26a6.784 6.784 0 0 1-3.666-1.099l-.402-.263a1.2 1.2 0 0 0-1.105-.101 1.197 1.197 0 0 0-.72.844c-.372 1.022.928 1.796.928 1.796l.232.155a7.36 7.36 0 0 0 2.924 1.13 1.206 1.206 0 0 1 1.036 1.192v.449a1.208 1.208 0 0 0 2.065.855c.23-.226.36-.533.364-.855v-.743a1.195 1.195 0 0 1 .789-1.13 4.936 4.936 0 0 0 3.465-4.645c0-2.446-1.33-4.025-4.409-5.279-2.413-1.006-3.094-1.548-3.094-2.725s.65-1.935 2.475-1.935a6.18 6.18 0 0 1 3.203.851l.386.233a1.223 1.223 0 0 0 1.856-.697c.45-1.099-.85-1.858-.85-1.858Z" style="mix-blend-mode:screen"/><path fill="url(#aH)" d="M798.205 404.921c14.601 0 26.438-11.846 26.438-26.458 0-14.613-11.837-26.459-26.438-26.459-14.602 0-26.438 11.846-26.438 26.459 0 14.612 11.836 26.458 26.438 26.458Z"/><path fill="#FF8159" d="M798.205 400.818c12.337 0 22.339-10.009 22.339-22.355 0-12.347-10.002-22.356-22.339-22.356-12.337 0-22.339 10.009-22.339 22.356 0 12.346 10.002 22.355 22.339 22.355Z" style="mix-blend-mode:multiply"/><path fill="url(#aI)" d="M813.348 393.607c8.367-8.374 8.367-21.95 0-30.324-8.368-8.374-21.934-8.374-30.301 0-8.367 8.374-8.367 21.95 0 30.324 8.367 8.374 21.933 8.374 30.301 0Z"/><path fill="#FF8159" d="m804.222 368.941-.356-.217a9 9 0 0 0-3.094-1.114 1.549 1.549 0 0 1-1.268-1.548v-.465a1.548 1.548 0 1 0-3.094 0v.852a1.546 1.546 0 0 1-1.037 1.548 5.97 5.97 0 0 0-4.254 5.744c0 3.638 2.924 5.279 6.08 6.517 2.599 1.053 3.651 2.137 3.651 3.716 0 1.579-1.547 2.942-3.667 2.942a8.878 8.878 0 0 1-4.78-1.425l-.51-.356a1.554 1.554 0 0 0-1.447-.155 1.553 1.553 0 0 0-.936 1.115c-.479 1.332 1.191 2.338 1.191 2.338l.31.217a9.628 9.628 0 0 0 3.805 1.455 1.548 1.548 0 0 1 1.346 1.548v.573a1.547 1.547 0 1 0 3.094 0v-1.006a1.554 1.554 0 0 1 1.021-1.549 6.38 6.38 0 0 0 4.502-6.068c0-3.097-1.702-5.218-5.724-6.859-3.094-1.3-4.037-2.09-4.037-3.545 0-1.161.85-2.508 3.217-2.508a8.064 8.064 0 0 1 4.162 1.114l.51.294a1.541 1.541 0 0 0 1.452.193 1.555 1.555 0 0 0 .962-1.106c.587-1.254-1.099-2.245-1.099-2.245Z" style="mix-blend-mode:screen"/><path stroke="#232230" stroke-linecap="round" stroke-linejoin="round" d="M15.531 583.226h803.666"/><path fill="#2348FF" d="M308.765 348.335a58.857 58.857 0 0 1-20.931-3.623 48.316 48.316 0 0 1-16.615-10.295 47.555 47.555 0 0 1-10.968-15.746 52.379 52.379 0 0 1 0-39.958 47.54 47.54 0 0 1 10.968-15.745 48.586 48.586 0 0 1 16.615-10.311 59.196 59.196 0 0 1 20.931-3.608 57.505 57.505 0 0 1 23.638 4.645 45.42 45.42 0 0 1 17.373 13.361l-17.172 15.482a33.748 33.748 0 0 0-10.148-8.314 26.285 26.285 0 0 0-12.376-2.864 29.442 29.442 0 0 0-10.829 1.904 22.926 22.926 0 0 0-8.385 5.527 25.83 25.83 0 0 0-5.445 8.654 32.53 32.53 0 0 0 0 22.372 25.82 25.82 0 0 0 5.445 8.654 22.926 22.926 0 0 0 8.385 5.527 29.442 29.442 0 0 0 10.829 1.904 26.45 26.45 0 0 0 12.376-2.864 33.76 33.76 0 0 0 10.148-8.313l17.172 15.481a46.82 46.82 0 0 1-17.373 13.299 56.779 56.779 0 0 1-23.638 4.831ZM361.766 346.415v-95.461h43.609a55.07 55.07 0 0 1 22.556 4.226 33.136 33.136 0 0 1 14.65 12.215 33.915 33.915 0 0 1 5.167 18.888 31.685 31.685 0 0 1-5.058 18.456 31.65 31.65 0 0 1-14.759 12.168 55.664 55.664 0 0 1-22.556 4.164h-28.619l11.989-11.317v36.676l-26.979-.015Zm26.979-33.812-11.989-12.386h26.98c5.631 0 9.833-1.228 12.608-3.685a12.927 12.927 0 0 0 4.161-10.218 13.155 13.155 0 0 0-4.161-10.373c-2.764-2.446-6.967-3.669-12.608-3.669h-26.98l11.989-12.385v52.716Zm32.023 33.812-23.7-34.772h28.743l23.855 34.772h-28.898ZM462.599 346.415v-95.461h22.215l39.525 64.915h-11.726l38.428-64.915h22.214l.279 95.461h-24.752l-.278-57.686h4.223l-28.805 48.304h-11.99l-29.594-48.304h5.167v57.686h-24.906Z"/><defs><linearGradient id="R" x1="98.235" x2="215.811" y1="216.414" y2="197.09" gradientUnits="userSpaceOnUse"><stop stop-color="#F7CF00"/><stop offset="1" stop-color="#FFA900"/></linearGradient><linearGradient id="a" x1="692.25" x2="692.25" y1="-31.947" y2="91.738" gradientUnits="userSpaceOnUse"><stop stop-color="#DFEDF2"/><stop offset="1" stop-color="#E8F8FF"/></linearGradient><linearGradient id="c" x1="783.879" x2="806.716" y1="553.067" y2="528.701" gradientUnits="userSpaceOnUse"><stop stop-color="#DFEDF2"/><stop offset="1" stop-color="#E8F8FF"/></linearGradient><linearGradient id="d" x1="417.364" x2="417.364" y1="509.842" y2="120.612" gradientUnits="userSpaceOnUse"><stop stop-color="#CBE1F2"/><stop offset="1" stop-color="#AED2ED"/></linearGradient><linearGradient id="e" x1="417.365" x2="417.365" y1="581.755" y2="496.62" gradientUnits="userSpaceOnUse"><stop stop-color="#CBE1F2"/><stop offset="1" stop-color="#AED2ED"/></linearGradient><linearGradient id="f" x1="377.39" x2="457.339" y1="513.418" y2="513.418" gradientUnits="userSpaceOnUse"><stop stop-color="#CBE1F2"/><stop offset="1" stop-color="#AED2ED"/></linearGradient><linearGradient id="g" x1="417.365" x2="417.365" y1="592.716" y2="554.445" gradientUnits="userSpaceOnUse"><stop stop-color="#CBE1F2"/><stop offset="1" stop-color="#AED2ED"/></linearGradient><linearGradient id="h" x1="158.613" x2="158.613" y1="561.567" y2="410.293" gradientUnits="userSpaceOnUse"><stop stop-color="#283770"/><stop offset="1" stop-color="#141A5A"/></linearGradient><linearGradient id="i" x1="124.657" x2="124.657" y1="559.244" y2="404.426" gradientUnits="userSpaceOnUse"><stop stop-color="#283770"/><stop offset="1" stop-color="#141A5A"/></linearGradient><linearGradient id="j" x1="173.682" x2="173.682" y1="290.123" y2="258.091" gradientUnits="userSpaceOnUse"><stop stop-color="#272E79"/><stop offset="1" stop-color="#0B1B38"/></linearGradient><linearGradient id="k" x1="141.689" x2="137.707" y1="244.885" y2="281.654" gradientUnits="userSpaceOnUse"><stop stop-color="#272E79"/><stop offset="1" stop-color="#0B1B38"/></linearGradient><linearGradient id="l" x1="146.64" x2="146.64" y1="250.149" y2="282.181" gradientUnits="userSpaceOnUse"><stop stop-color="#272E79"/><stop offset="1" stop-color="#0B1B38"/></linearGradient><linearGradient id="m" x1="181.973" x2="181.973" y1="306.688" y2="401.159" gradientUnits="userSpaceOnUse"><stop stop-color="#49A5F7"/><stop offset="1" stop-color="#1C6CEB"/></linearGradient><linearGradient id="n" x1="175.955" x2="175.955" y1="343.381" y2="360.937" gradientUnits="userSpaceOnUse"><stop stop-color="#49A5F7"/><stop offset="1" stop-color="#1C6CEB"/></linearGradient><linearGradient id="o" x1="152.271" x2="152.271" y1="306.689" y2="401.159" gradientUnits="userSpaceOnUse"><stop stop-color="#49A5F7"/><stop offset="1" stop-color="#1C6CEB"/></linearGradient><linearGradient id="p" x1="146.15" x2="105.188" y1="360.177" y2="435.852" gradientUnits="userSpaceOnUse"><stop stop-color="#71D2F9"/><stop offset="1" stop-color="#51B9F8"/></linearGradient><linearGradient id="q" x1="124.719" x2="124.719" y1="306.688" y2="401.159" gradientUnits="userSpaceOnUse"><stop stop-color="#49A5F7"/><stop offset="1" stop-color="#1C6CEB"/></linearGradient><linearGradient id="r" x1="161.476" x2="161.476" y1="250.149" y2="282.181" gradientUnits="userSpaceOnUse"><stop stop-color="#272E79"/><stop offset="1" stop-color="#0B1B38"/></linearGradient><linearGradient id="s" x1="214.089" x2="214.089" y1="401.592" y2="277.737" gradientUnits="userSpaceOnUse"><stop stop-color="#283770"/><stop offset="1" stop-color="#141A5A"/></linearGradient><linearGradient id="t" x1="556.053" x2="556.053" y1="582.359" y2="509.563" gradientUnits="userSpaceOnUse"><stop stop-color="#283770"/><stop offset="1" stop-color="#141A5A"/></linearGradient><linearGradient id="u" x1="603.562" x2="603.562" y1="550.76" y2="465.564" gradientUnits="userSpaceOnUse"><stop stop-color="#283770"/><stop offset="1" stop-color="#141A5A"/></linearGradient><linearGradient id="v" x1="536.437" x2="536.437" y1="382.426" y2="430.962" gradientUnits="userSpaceOnUse"><stop stop-color="#283770"/><stop offset="1" stop-color="#141A5A"/></linearGradient><linearGradient id="w" x1="581.022" x2="581.022" y1="377.394" y2="466.415" gradientUnits="userSpaceOnUse"><stop stop-color="#49A5F7"/><stop offset="1" stop-color="#1C6CEB"/></linearGradient><linearGradient id="x" x1="585.168" x2="585.168" y1="398.233" y2="416.161" gradientUnits="userSpaceOnUse"><stop stop-color="#49A5F7"/><stop offset="1" stop-color="#1C6CEB"/></linearGradient><linearGradient id="y" x1="609.795" x2="609.795" y1="377.394" y2="466.415" gradientUnits="userSpaceOnUse"><stop stop-color="#49A5F7"/><stop offset="1" stop-color="#1C6CEB"/></linearGradient><linearGradient id="z" x1="589.777" x2="589.777" y1="382.085" y2="353.428" gradientUnits="userSpaceOnUse"><stop stop-color="#162959"/><stop offset="1" stop-color="#0B1B38"/></linearGradient><linearGradient id="A" x1="599.925" x2="599.925" y1="364.111" y2="335.454" gradientUnits="userSpaceOnUse"><stop stop-color="#162959"/><stop offset="1" stop-color="#0B1B38"/></linearGradient><linearGradient id="B" x1="637.534" x2="637.534" y1="377.394" y2="466.415" gradientUnits="userSpaceOnUse"><stop stop-color="#49A5F7"/><stop offset="1" stop-color="#1C6CEB"/></linearGradient><linearGradient id="C" x1="561.654" x2="561.654" y1="416.099" y2="488.43" gradientUnits="userSpaceOnUse"><stop stop-color="#71D2F9"/><stop offset="1" stop-color="#51B9F8"/></linearGradient><linearGradient id="D" x1="721.629" x2="721.629" y1="406.903" y2="570.856" gradientUnits="userSpaceOnUse"><stop stop-color="#283770"/><stop offset="1" stop-color="#141A5A"/></linearGradient><linearGradient id="E" x1="688.306" x2="688.306" y1="376.821" y2="263.215" gradientUnits="userSpaceOnUse"><stop stop-color="#49A5F7"/><stop offset="1" stop-color="#1C6CEB"/></linearGradient><linearGradient id="F" x1="695.391" x2="695.391" y1="286.33" y2="257.131" gradientUnits="userSpaceOnUse"><stop stop-color="#162959"/><stop offset="1" stop-color="#0B1B38"/></linearGradient><linearGradient id="G" x1="709.221" x2="709.221" y1="286.593" y2="257.394" gradientUnits="userSpaceOnUse"><stop stop-color="#162959"/><stop offset="1" stop-color="#0B1B38"/></linearGradient><linearGradient id="H" x1="714.451" x2="714.451" y1="300.372" y2="407.971" gradientUnits="userSpaceOnUse"><stop stop-color="#49A5F7"/><stop offset="1" stop-color="#1C6CEB"/></linearGradient><linearGradient id="I" x1="740.363" x2="740.363" y1="300.372" y2="407.971" gradientUnits="userSpaceOnUse"><stop stop-color="#49A5F7"/><stop offset="1" stop-color="#1C6CEB"/></linearGradient><linearGradient id="J" x1="708.866" x2="709.702" y1="452.652" y2="426.658" gradientUnits="userSpaceOnUse"><stop stop-color="#283770"/><stop offset="1" stop-color="#141A5A"/></linearGradient><linearGradient id="K" x1="668.102" x2="668.102" y1="318.563" y2="362.687" gradientUnits="userSpaceOnUse"><stop stop-color="#283770"/><stop offset="1" stop-color="#141A5A"/></linearGradient><linearGradient id="L" x1="435.573" x2="435.573" y1="395.446" y2="480.612" gradientUnits="userSpaceOnUse"><stop stop-color="#71D2F9"/><stop offset="1" stop-color="#51B9F8"/></linearGradient><linearGradient id="M" x1="390.122" x2="390.122" y1="427.571" y2="408.374" gradientUnits="userSpaceOnUse"><stop stop-color="#CBE1F2"/><stop offset="1" stop-color="#AED2ED"/></linearGradient><linearGradient id="N" x1="390.122" x2="390.122" y1="447.79" y2="428.593" gradientUnits="userSpaceOnUse"><stop stop-color="#CBE1F2"/><stop offset="1" stop-color="#AED2ED"/></linearGradient><linearGradient id="O" x1="481.023" x2="481.023" y1="442.078" y2="461.291" gradientUnits="userSpaceOnUse"><stop stop-color="#CBE1F2"/><stop offset="1" stop-color="#AED2ED"/></linearGradient><linearGradient id="P" x1="481.024" x2="481.024" y1="442.078" y2="461.291" gradientUnits="userSpaceOnUse"><stop stop-color="#CBE1F2"/><stop offset="1" stop-color="#AED2ED"/></linearGradient><linearGradient id="Q" x1="97.584" x2="215.161" y1="212.435" y2="193.111" gradientUnits="userSpaceOnUse"><stop stop-color="#F7CF00"/><stop offset="1" stop-color="#FFA900"/></linearGradient><linearGradient id="b" x1="712.455" x2="747.229" y1="130.613" y2="93.514" gradientUnits="userSpaceOnUse"><stop stop-color="#DFEDF2"/><stop offset="1" stop-color="#E8F8FF"/></linearGradient><linearGradient id="S" x1="98.899" x2="216.476" y1="220.408" y2="201.084" gradientUnits="userSpaceOnUse"><stop stop-color="#F7CF00"/><stop offset="1" stop-color="#FFA900"/></linearGradient><linearGradient id="T" x1="99.549" x2="217.126" y1="224.402" y2="205.079" gradientUnits="userSpaceOnUse"><stop stop-color="#F7CF00"/><stop offset="1" stop-color="#FFA900"/></linearGradient><linearGradient id="U" x1="100.215" x2="217.791" y1="228.381" y2="209.058" gradientUnits="userSpaceOnUse"><stop stop-color="#F7CF00"/><stop offset="1" stop-color="#FFA900"/></linearGradient><linearGradient id="V" x1="286.21" x2="286.21" y1="88.642" y2="187.106" gradientUnits="userSpaceOnUse"><stop stop-color="#71D2F9"/><stop offset="1" stop-color="#51B9F8"/></linearGradient><linearGradient id="X" x1="286.225" x2="286.225" y1="106.074" y2="153.34" gradientUnits="userSpaceOnUse"><stop stop-color="#272E79"/><stop offset="1" stop-color="#0B1B38"/></linearGradient><linearGradient id="Y" x1="287.215" x2="287.215" y1="106.074" y2="153.34" gradientUnits="userSpaceOnUse"><stop stop-color="#272E79"/><stop offset="1" stop-color="#0B1B38"/></linearGradient><linearGradient id="Z" x1="308.441" x2="369.303" y1="83.78" y2="73.083" gradientUnits="userSpaceOnUse"><stop stop-color="#F7CF00"/><stop offset="1" stop-color="#FFA900"/></linearGradient><linearGradient id="aa" x1="308.967" x2="369.813" y1="86.737" y2="76.04" gradientUnits="userSpaceOnUse"><stop stop-color="#F7CF00"/><stop offset="1" stop-color="#FFA900"/></linearGradient><linearGradient id="ab" x1="309.477" x2="370.338" y1="89.694" y2="78.997" gradientUnits="userSpaceOnUse"><stop stop-color="#F7CF00"/><stop offset="1" stop-color="#FFA900"/></linearGradient><linearGradient id="ac" x1="310.004" x2="370.85" y1="92.651" y2="81.954" gradientUnits="userSpaceOnUse"><stop stop-color="#F7CF00"/><stop offset="1" stop-color="#FFA900"/></linearGradient><linearGradient id="ad" x1="245.865" x2="245.865" y1="590.518" y2="471.23" gradientUnits="userSpaceOnUse"><stop stop-color="#3949B2"/><stop offset="1" stop-color="#5CA5F7"/></linearGradient><linearGradient id="ae" x1="280.192" x2="280.192" y1="590.518" y2="471.23" gradientUnits="userSpaceOnUse"><stop stop-color="#3949B2"/><stop offset="1" stop-color="#5CA5F7"/></linearGradient><linearGradient id="af" x1="211.861" x2="211.861" y1="590.518" y2="471.23" gradientUnits="userSpaceOnUse"><stop stop-color="#3949B2"/><stop offset="1" stop-color="#5CA5F7"/></linearGradient><linearGradient id="ag" x1="314.52" x2="314.52" y1="590.518" y2="471.23" gradientUnits="userSpaceOnUse"><stop stop-color="#3949B2"/><stop offset="1" stop-color="#5CA5F7"/></linearGradient><linearGradient id="ah" x1="263.237" x2="263.237" y1="507.21" y2="449.695" gradientUnits="userSpaceOnUse"><stop stop-color="#DD5954"/><stop offset="1" stop-color="#E0483D"/></linearGradient><linearGradient id="ai" x1="647.326" x2="647.326" y1="287.243" y2="241.045" gradientUnits="userSpaceOnUse"><stop stop-color="#71D2F9"/><stop offset="1" stop-color="#51B9F8"/></linearGradient><linearGradient id="aj" x1="626.039" x2="626.039" y1="272.69" y2="361.154" gradientUnits="userSpaceOnUse"><stop stop-color="#CBE1F2"/><stop offset="1" stop-color="#AED2ED"/></linearGradient><linearGradient id="ak" x1="613.524" x2="559.832" y1="190.915" y2="271.383" gradientUnits="userSpaceOnUse"><stop stop-color="#DFEDF2"/><stop offset="1" stop-color="#E8F8FF"/></linearGradient><linearGradient id="al" x1="628.221" x2="585.633" y1="195.73" y2="259.563" gradientUnits="userSpaceOnUse"><stop stop-color="#DFEDF2"/><stop offset="1" stop-color="#E8F8FF"/></linearGradient><linearGradient id="am" x1="225.939" x2="225.939" y1="400.989" y2="434.677" gradientUnits="userSpaceOnUse"><stop stop-color="#71D2F9"/><stop offset="1" stop-color="#51B9F8"/></linearGradient><linearGradient id="an" x1="244.936" x2="244.936" y1="401.004" y2="434.693" gradientUnits="userSpaceOnUse"><stop stop-color="#71D2F9"/><stop offset="1" stop-color="#51B9F8"/></linearGradient><linearGradient id="ao" x1="443.911" x2="571.307" y1="220.331" y2="220.331" gradientUnits="userSpaceOnUse"><stop stop-color="#B6DFF6"/><stop offset="1" stop-color="#DDEAF7"/></linearGradient><linearGradient id="ap" x1="557.012" x2="465.909" y1="200.436" y2="232.904" gradientUnits="userSpaceOnUse"><stop stop-color="#B6DFF6"/><stop offset="1" stop-color="#DDEAF7"/></linearGradient><linearGradient id="aq" x1="553.454" x2="462.366" y1="204.322" y2="236.789" gradientUnits="userSpaceOnUse"><stop stop-color="#B6DFF6"/><stop offset="1" stop-color="#DDEAF7"/></linearGradient><linearGradient id="ar" x1="557.476" x2="466.373" y1="215.562" y2="248.029" gradientUnits="userSpaceOnUse"><stop stop-color="#B6DFF6"/><stop offset="1" stop-color="#DDEAF7"/></linearGradient><linearGradient id="as" x1="550.731" x2="459.644" y1="210.499" y2="242.967" gradientUnits="userSpaceOnUse"><stop stop-color="#B6DFF6"/><stop offset="1" stop-color="#DDEAF7"/></linearGradient><linearGradient id="at" x1="467.874" x2="467.874" y1="237.159" y2="220.516" gradientUnits="userSpaceOnUse"><stop stop-color="#71D2F9"/><stop offset="1" stop-color="#51B9F8"/></linearGradient><linearGradient id="au" x1="467.874" x2="467.874" y1="218.55" y2="201.907" gradientUnits="userSpaceOnUse"><stop stop-color="#71D2F9"/><stop offset="1" stop-color="#51B9F8"/></linearGradient><linearGradient id="av" x1="110.966" x2="19.878" y1="267.272" y2="299.739" gradientUnits="userSpaceOnUse"><stop stop-color="#B6DFF6"/><stop offset="1" stop-color="#DDEAF7"/></linearGradient><linearGradient id="aw" x1="107.423" x2="16.32" y1="271.157" y2="303.625" gradientUnits="userSpaceOnUse"><stop stop-color="#B6DFF6"/><stop offset="1" stop-color="#DDEAF7"/></linearGradient><linearGradient id="ax" x1="111.43" x2="20.328" y1="282.397" y2="314.864" gradientUnits="userSpaceOnUse"><stop stop-color="#B6DFF6"/><stop offset="1" stop-color="#DDEAF7"/></linearGradient><linearGradient id="ay" x1="104.7" x2="13.597" y1="277.35" y2="309.818" gradientUnits="userSpaceOnUse"><stop stop-color="#B6DFF6"/><stop offset="1" stop-color="#DDEAF7"/></linearGradient><linearGradient id="az" x1="23.87" x2="23.87" y1="278.047" y2="301.177" gradientUnits="userSpaceOnUse"><stop stop-color="#71D2F9"/><stop offset="1" stop-color="#51B9F8"/></linearGradient><linearGradient id="aA" x1="23.87" x2="23.87" y1="278.047" y2="301.177" gradientUnits="userSpaceOnUse"><stop stop-color="#71D2F9"/><stop offset="1" stop-color="#51B9F8"/></linearGradient><linearGradient id="aB" x1="298.787" x2="365.173" y1="211.97" y2="145.65" gradientUnits="userSpaceOnUse"><stop stop-color="#DFEDF2"/><stop offset="1" stop-color="#E8F8FF"/></linearGradient><linearGradient id="aC" x1="226.914" x2="226.914" y1="97.745" y2="121.603" gradientUnits="userSpaceOnUse"><stop stop-color="#DD786F"/><stop offset="1" stop-color="#DB5E55"/></linearGradient><linearGradient id="aD" x1="386.399" x2="386.399" y1="164.902" y2="224.136" gradientUnits="userSpaceOnUse"><stop stop-color="#F7CF00"/><stop offset="1" stop-color="#FFA900"/></linearGradient><linearGradient id="aE" x1="357.774" x2="410.583" y1="219.959" y2="167.191" gradientUnits="userSpaceOnUse"><stop stop-color="#FAE080"/><stop offset="1" stop-color="#F4BB58"/></linearGradient><linearGradient id="aF" x1="57.815" x2="57.815" y1="364.733" y2="403.097" gradientUnits="userSpaceOnUse"><stop stop-color="#F7CF00"/><stop offset="1" stop-color="#FFA900"/></linearGradient><linearGradient id="aG" x1="39.541" x2="73.261" y1="402.336" y2="368.642" gradientUnits="userSpaceOnUse"><stop stop-color="#FAE080"/><stop offset="1" stop-color="#F4BB58"/></linearGradient><linearGradient id="aH" x1="798.205" x2="798.205" y1="356.292" y2="401.19" gradientUnits="userSpaceOnUse"><stop stop-color="#F7CF00"/><stop offset="1" stop-color="#FFA900"/></linearGradient><linearGradient id="aI" x1="785.075" x2="829.084" y1="506.157" y2="462.197" gradientUnits="userSpaceOnUse"><stop stop-color="#FAE080"/><stop offset="1" stop-color="#F4BB58"/></linearGradient></defs></svg>