<svg xmlns="http://www.w3.org/2000/svg" width="1200" height="590" fill="none"><g clip-path="url(#a)"><path fill="#2348FF" d="M308.238 248.883H149.852a48.38 48.38 0 0 1-34.213-14.175 48.401 48.401 0 0 1 0-68.442 48.38 48.38 0 0 1 34.213-14.175h158.386a48.377 48.377 0 0 1 34.212 14.175 48.402 48.402 0 0 1 0 68.442 48.377 48.377 0 0 1-34.212 14.175Z"/><path fill="#fff" d="M301.092 234.484a32.584 32.584 0 0 1-30.103-20.118 32.601 32.601 0 0 1 7.063-35.517 32.576 32.576 0 0 1 50.131 4.938 32.6 32.6 0 0 1 5.491 18.107 32.637 32.637 0 0 1-9.555 23.033 32.621 32.621 0 0 1-23.027 9.557Zm0-58.662a26.048 26.048 0 0 0-24.07 16.087 26.066 26.066 0 0 0 5.647 28.399 26.055 26.055 0 0 0 44.476-18.427 26.104 26.104 0 0 0-7.643-18.414 26.091 26.091 0 0 0-18.41-7.645Z"/><path fill="#FFE570" d="M761.353 440.742c93.033-93.104 93.033-244.056 0-337.161-93.033-93.105-243.869-93.105-336.902 0-93.033 93.104-93.033 244.057 0 337.161 93.033 93.105 243.869 93.105 336.902 0Z"/><path fill="url(#b)" d="M247.422 177.795h-89.076v7.83h89.076v-7.83Z"/><path fill="url(#c)" d="M247.423 197.977h-75.939v7.834h75.939v-7.834Z"/><path fill="url(#d)" d="M247.422 218.162H125.316v7.83h122.106v-7.83Z"/><path fill="url(#e)" d="M386.777 33.695h-3.118v408.822h3.118V33.695Z"/><path fill="url(#f)" d="M608.583 33.695h-3.118v408.822h3.118V33.695Z"/><path fill="url(#g)" d="M830.393 33.695h-3.118v408.822h3.118V33.695Z"/><path fill="#4DA8F2" d="M445.202 0h-62.374v8.533h62.374V0ZM422.71 15.772h-39.882v8.533h39.882v-8.533ZM647.24 0h-38.653v8.533h38.653V0ZM653.638 15.772h-45.051v8.533h45.051v-8.533ZM886.693 0h-56.299v8.533h56.299V0ZM875.445 15.772h-45.051v8.533h45.051v-8.533Z" opacity=".5"/><path fill="url(#h)" d="M643.874 452.225h-35.287v11.379h35.287v-11.379Z"/><path fill="url(#i)" d="M973.78 325.543c-69.185 0-129.326-29.914-192.023-61.099-77.402-38.501-157.438-78.31-264.078-67.423-68.093 6.962-110.828 34.7-148.547 59.175-34.142 22.155-66.423 41.642-110.147 43.308-70.653 2.689-95.167-27.453-95.577-29.293v-19.33c.091.335 15.516 34.167 95.503 33.766 39.394-.199 68.466-19.069 102.144-40.914 39.121-25.389 83.461-54.166 155.123-61.491 110.915-11.338 192.916 29.447 272.212 68.887 82.973 41.269 162.149 79.974 262.27 46.394v15.905c-28.55 9.571-51.377 12.115-76.88 12.115Z" opacity=".26"/><path fill="#272A45" d="M388.667 235.109c4.313-8.397 18.287-40.872 18.287-40.872l-17.915-2.763s-7.142 16.318-10.541 27.615c-1.654 5.501-3.875 10.907-4.371 11.776-.496.869-23.361 18.2-25.85 19.441-2.49 1.241-12.067 4.592-16.645 9.241-4.578 4.649-2.349 11.019-2.349 11.019 9.71 12.488 27.641-3.751 27.641-3.751s25.697-19.934 31.743-31.706Z"/><path fill="#202338" d="M352.668 552.433s6.162 6.474 12.406 7.83c6.245 1.357 10.633 3.086 10.678 6.801.046 3.714-18.001 6.159-25.164 2.415-10.682-5.588-11.769-3.9-12.956-6.697-1.187-2.796 1.427-10.262 1.348-11.168-.091-1.079 13.688.819 13.688.819Z"/><path fill="#2F6B8C" d="M351.965 549.335s.827 3.036.695 3.098c-.133.062-14.098 1.63-13.676-.802.343-1.973.827-4.116.827-4.116l12.154 1.82Z"/><path fill="#202338" d="M283.045 554.121s4.549 6.304 10.599 7.76c5.98 1.435 9.855 4.161 10.144 7.772.29 3.611-14.093 8.339-24.204 1.998-6.642-4.17-9.123-3.93-10.459-6.577-1.335-2.647.699-10.068.567-10.928-.145-1.059 13.353-.025 13.353-.025Z"/><path fill="#2F6B8C" d="M282.863 551.006s.298 3.045.182 3.115c-.116.07-13.432 2.428-13.353.025.106-1.455.384-2.892.827-4.281l12.344 1.141Z"/><path fill="#2273B5" d="M337.868 367.226s6.476 47.027 9.118 62.927c3.09 18.589 4.136 33.947 5 43.569 1.084 12.099 1.08 74.041 1.836 77.57.757 3.528-16.492 1.774-16.492 1.774s-11.19-80.813-14.42-93.698c-3.006-11.995-11.761-63.833-14.503-60.557-2.741 3.276-11.144 61.993-13.175 71.457-2.03 9.464-10.413 84.109-10.413 84.109s-13.858 3.814-17.584.848c0 0 1.212-67.423 2.506-85.168.493-6.759-4.276-80.954 7.155-110.856 6.041-15.83 60.972 8.025 60.972 8.025Z"/><path fill="#272A45" d="M318.878 254.434s17.128 3.545 19.159 5.345c2.208 1.919 6.099 20.682 6.331 25.906.232 5.224-2.068 27.06-4.272 35.192-2.204 8.133-1.803 48.177-.413 59.445 0 0-34.485 9.799-68.391 5.377 0 0 5.682-42.129 4.325-53.273-1.737-14.27-5.922-47.155-5.922-47.155s3.003-22.907 6.021-25.464c3.019-2.556 23.824-5.377 23.824-5.377l19.338.004Z"/><path fill="#EEA886" d="M311.798 201.464s20.603-7.628 19.313 19.759c-1.291 27.387-6.117 30.171-19.668 26.345-13.552-3.826-14.689-21.096-16.455-29.422-1.766-8.327 10.074-15.487 16.81-16.682Z"/><path fill="#EEA886" d="M321.574 258.145s-4.243 2.804-20.317-4.281c0 0 .455-11.024-2.701-21.32-3.155-10.295 21.575 13.729 21.575 13.729-.261.182-.31 1.212-.161 2.648.158 1.436.423 2.859.794 4.256.889 3.441.81 1.961.81 4.968Z"/><path fill="#525252" d="M297.854 231.725s-.058-7.313 2.981-7.987c3.04-.674 4.607 3.553 4.607 3.553l2.452-.128s-2.191-7.417.708-9.1c2.899-1.684 20.263-.207 22.426-2.701 2.163-2.494 4.032-16.707-2.287-20.372-4.284-2.482-21.091-2.809-29.299 4.505 0 0-7.138.136-7.423 5.952-.286 5.816 3.358 22.312 5.835 26.278Z"/><path fill="#A77860" d="M320.763 253.177c-15.971-2.685-18.357-11.772-18.394-11.913 6.203 8.008 17.6 7.657 17.6 7.657.159 1.436.424 2.859.794 4.256Z"/><path fill="#EEA886" d="M304.284 220.632c-.91-2.416-6.05-2.11-5.525 1.716.525 3.826 4.773 9.717 6.48 8.612 1.708-1.104.286-7.003-.955-10.328Z"/><path fill="#272A45" d="M325.478 255.886s7.476 2.097 18.216-3.57c10.74-5.666-10.289 15.404-10.289 15.404l-7.927-11.834ZM366.944 258.691s-22.671 26.44-22.766 32.582c-.095 6.143-4.135-18.837-4.135-18.837l26.901-13.745Z"/><path fill="#C4B5AE" d="M294.81 255.137s16.541 11.136 28.588 14.023c.5.12 0-13.737 0-13.737s-10.136-4.058-28.588-.286Z"/><path fill="#EEA886" d="M306.352 253.404s6.554 3.14 11.645 3.607c0 0 2.638-.98 2.783-3.851l-14.428.244Z"/><path fill="#EAD8CF" d="M320.764 253.177s-.885 2.895-2.784 3.851l5.931 6.337-.513-7.942-2.634-2.246Z"/><path fill="#272A45" d="M285.133 258.782s10.732 2.957 4.826 22.655c-4.623 15.428-5.248 18.742-5.248 18.742l-24.754-6.205s7.258-33.889 19.106-35.709c-.005-.005 3.771-.542 6.07.517Z"/><path fill="#EEA886" d="M258.381 403.647s-.765-1.655-.748-2.515c0 0 .153-1.597.19-2.738a7.193 7.193 0 0 0 0-.881c-.083-.857-.521-2.702-.149-4.807.372-2.105 4.313-10.755 4.313-10.755l5.285.803 5.058.045s4.689 12.219 4.57 14.217c-.011.19-.033.379-.067.567-.264 1.683-1.17 2.825-1.41 3.694-.091.318-1.199 3.42-2.125 3.756-1.286.467-2.366.273-3.114-.29 0 0-2.556.827-4.231.132 0 0-2.332.828-4.172-.608.004-.012-2.457.55-3.4-.62Z"/><path fill="#272A45" d="M286.419 260.08c2.246.873 3.594 1.08 2.15 12.583-.579 4.621-3.002 18.916-4.52 21.592-1.517 2.677-8.709 23.297-9.193 25.886-.698 3.777-.827 32.202-.827 33.604 0 3.218.075 30.448.075 30.448l-18.196 2.631s-2.068-31.478-2.436-35.23c-.827-8.645-.93-26.588.641-36.222 1.795-10.999 8.523-32.537 9.479-34.266.955-1.729 7.977-26.775 22.827-21.026Z"/><path fill="#181A2B" d="M279.472 304.15s-5.327 15.205-5.467 17.397c-.141 2.193-.6 56.285-.6 56.285s5.699-55.834 6.067-73.682Z"/><path fill="#EAD8CF" d="M301.261 250.819s8.403 5.067 16.719 6.205l-3.06 8.397-15.528-11.094 1.869-3.508Z"/><path fill="#8F8F8F" d="M567.018 530.543h52.789V370.167h-52.789v160.376Z"/><path fill="#F0F0F0" d="M389.82 447.422H797c13.436 0 24.328-10.895 24.328-24.334V150.11c0-13.439-10.892-24.334-24.328-24.334H389.82c-13.436 0-24.328 10.895-24.328 24.334v272.978c0 13.439 10.892 24.334 24.328 24.334Z"/><path fill="#CCC" d="M712.154 524.492H474.662v12.107h237.492v-12.107Z"/><path fill="#fff" d="M383.344 397.016h420.132V91.539H383.344v305.477Z"/><path fill="url(#j)" d="M383.344 128.435h420.132V91.539H383.344v36.896Z"/><path fill="#F5F7FF" d="M453.844 116.961h-45.981a6.972 6.972 0 1 1 0-13.944h45.981a6.973 6.973 0 0 1 4.929 11.903 6.97 6.97 0 0 1-4.929 2.041Z"/><path fill="#fff" d="M803.476 91.543H383.345V397.02h420.131V91.543Z"/><path fill="url(#k)" d="M803.476 91.543H383.345v34.328h420.131V91.543Z"/><path fill="#4DA8F2" d="M438.697 106.674h364.779v22.597H445.074a6.373 6.373 0 0 1-6.373-6.374v-16.223h-.004Z"/><path fill="#fff" d="M673.624 124.196H453.013a6.918 6.918 0 0 1 0-13.837h220.611a6.907 6.907 0 0 1 4.891 2.027 6.922 6.922 0 0 1-4.891 11.81ZM789.287 124.196h-89.738a6.927 6.927 0 0 1-4.888-2.027 6.917 6.917 0 0 1 4.888-11.81h89.738a6.907 6.907 0 0 1 4.891 2.027 6.922 6.922 0 0 1-4.891 11.81Z"/><path fill="#FAFAFA" d="m408.683 120.018-.948-.947 4.049-4.054-4.28-4.281.947-.948 5.231 5.229-4.999 5.001ZM397.301 120.018l-5.227-5.233 5-4.997.947.948-4.053 4.049 4.285 4.286-.952.947ZM433.445 116.638l-2.142-3.441-2.895 2.953.773.757 1.311-1.348a5.104 5.104 0 0 1-3.592 4.196 5.098 5.098 0 0 1-6.506-4.155 5.095 5.095 0 0 1 2.294-5.025 5.096 5.096 0 0 1 2.763-.807v-1.084a6.206 6.206 0 0 0-5.681 3.621 6.213 6.213 0 0 0 .971 6.668 6.192 6.192 0 0 0 2.966 1.881 6.197 6.197 0 0 0 6.443-1.964 6.199 6.199 0 0 0 1.413-3.215l.943 1.513.939-.55ZM770.781 94.757h32.695v12.438h-32.695a5.092 5.092 0 0 1-5.094-5.096v-2.246a5.094 5.094 0 0 1 5.094-5.096Z"/><path fill="#E8E8E8" d="M779.474 100.974a3.308 3.308 0 1 1-6.615.001 3.308 3.308 0 0 1 6.615-.001ZM787.84 100.974a3.308 3.308 0 1 1-6.615.001 3.308 3.308 0 0 1 6.615-.001Z"/><path fill="#DA5E5E" d="M796.202 100.974a3.306 3.306 0 0 1-2.043 3.057 3.306 3.306 0 0 1-4.511-2.412 3.31 3.31 0 1 1 6.554-.645Z"/><path fill="#2348FF" d="M383.345 91.543h377.04v3.375a9.387 9.387 0 0 1-9.383 9.386H392.728a9.383 9.383 0 0 1-9.383-9.386v-3.375Z"/><path fill="#E6E6E6" d="M693.871 158.759h-88.158v8.716h88.158v-8.716ZM764.094 174.457H605.713v8.715h158.381v-8.715Z"/><path fill="url(#l)" d="M599.712 158.759h-6.368v24.413h6.368v-24.413Z"/><path fill="#E6E6E6" d="M718.411 211.962H605.713v8.715h112.698v-8.715ZM743.331 227.659H605.713v8.716h137.618v-8.716Z"/><path fill="#78C2FF" d="M599.712 211.962h-6.368v24.413h6.368v-24.413Z"/><path fill="#E6E6E6" d="M671.565 261.714h-65.852v8.716h65.852v-8.716ZM759.086 277.412H605.713v8.715h153.373v-8.715Z"/><path fill="#78C2FF" d="M599.712 261.714h-6.368v24.413h6.368v-24.413Z"/><path fill="#D6D6D6" d="M443.089 364.248h-17.236v2.122h17.236v-2.122ZM447.274 360.467h-25.602v2.122h25.602v-2.122Z"/><path fill="url(#m)" d="M438.961 331.309a4.45 4.45 0 0 1-2.746 4.119 4.448 4.448 0 0 1-4.855-.963 4.45 4.45 0 0 1-.968-4.855 4.446 4.446 0 0 1 1.641-2 4.45 4.45 0 0 1 6.928 3.699Z"/><path fill="url(#n)" d="M442.538 345.82v8.467a19.555 19.555 0 0 1-16.128 0v-8.467a8.07 8.07 0 0 1 8.064-7.812 8.067 8.067 0 0 1 8.064 7.812Z"/><path fill="url(#o)" d="M434.47 356.558a19.864 19.864 0 0 1-8.27-1.791 20.058 20.058 0 0 1-4.302-33.867 20.048 20.048 0 0 1 32.184 11.367 20.052 20.052 0 0 1-11.308 22.5 19.886 19.886 0 0 1-8.304 1.791Zm0-39.052a19 19 0 1 0 7.858 36.297 19 19 0 0 0-7.858-36.297Z"/><path fill="#D6D6D6" d="M500.823 364.248h-17.236v2.122h17.236v-2.122ZM505.004 360.467h-25.603v2.122h25.603v-2.122Z"/><path fill="url(#p)" d="M496.691 331.309a4.45 4.45 0 1 1-8.901.001 4.45 4.45 0 0 1 8.901-.001Z"/><path fill="url(#q)" d="M500.273 345.82v8.467a19.555 19.555 0 0 1-16.128 0v-8.467a8.06 8.06 0 0 1 2.268-5.873 8.063 8.063 0 0 1 13.322 2.706 8.097 8.097 0 0 1 .538 3.167Z"/><path fill="url(#r)" d="M492.205 356.558a19.834 19.834 0 0 1-8.271-1.791 20.058 20.058 0 0 1-4.306-33.875 20.05 20.05 0 0 1 32.191 11.37 20.064 20.064 0 0 1-11.314 22.505 19.84 19.84 0 0 1-8.3 1.791Zm0-39.052a18.995 18.995 0 0 0-18.567 14.978 18.997 18.997 0 1 0 37.135 0 18.994 18.994 0 0 0-18.568-14.978Z"/><path fill="#D6D6D6" d="M558.553 364.248h-17.237v2.122h17.237v-2.122ZM562.738 360.467h-25.602v2.122h25.602v-2.122Z"/><path fill="url(#s)" d="M554.426 331.309a4.45 4.45 0 1 1-8.901.001 4.45 4.45 0 0 1 8.901-.001Z"/><path fill="url(#t)" d="M558.003 345.82v8.467a19.551 19.551 0 0 1-16.128 0v-8.467a8.065 8.065 0 0 1 4.917-7.689 8.067 8.067 0 0 1 11.211 7.689Z"/><path fill="url(#u)" d="M549.927 356.558a19.834 19.834 0 0 1-8.271-1.791 20.06 20.06 0 0 1-4.307-33.875 20.05 20.05 0 0 1 32.192 11.37 20.064 20.064 0 0 1-11.315 22.505 19.836 19.836 0 0 1-8.299 1.791Zm0-39.052a18.992 18.992 0 0 0-18.568 14.978 19 19 0 0 0 10.71 21.319 19.017 19.017 0 0 0 15.694 0 19.004 19.004 0 0 0 4.071-32.087 18.994 18.994 0 0 0-11.928-4.21h.021Z"/><path fill="#D6D6D6" d="M616.287 364.248h-17.236v2.122h17.236v-2.122ZM620.472 360.467H594.87v2.122h25.602v-2.122Z"/><path fill="url(#v)" d="M612.161 331.309a4.45 4.45 0 0 1-5.322 4.374 4.463 4.463 0 0 1-2.282-1.219 4.459 4.459 0 0 1 .678-6.856 4.446 4.446 0 0 1 2.476-.749 4.45 4.45 0 0 1 4.45 4.45Z"/><path fill="url(#w)" d="M615.738 345.82v8.467a19.555 19.555 0 0 1-16.128 0v-8.467a8.06 8.06 0 0 1 2.268-5.873 8.048 8.048 0 0 1 2.649-1.816 8.06 8.06 0 0 1 8.942 1.816 8.065 8.065 0 0 1 2.269 5.873Z"/><path fill="url(#x)" d="M607.669 356.558a19.865 19.865 0 0 1-8.271-1.791 20.052 20.052 0 0 1-11.308-22.5 20.05 20.05 0 0 1 19.595-15.813 20.048 20.048 0 0 1 19.595 15.813 20.058 20.058 0 0 1-11.308 22.5 19.854 19.854 0 0 1-8.303 1.791Zm0-39.052a18.992 18.992 0 0 0-18.568 14.978 19 19 0 0 0 10.71 21.319 19.014 19.014 0 0 0 15.715 0 19 19 0 0 0-7.857-36.297Z"/><path fill="#C5CCD1" d="M435.261 373.244h-1.584v6.668h1.584v-6.668Z"/><path fill="#C5CCD1" d="M437.804 377.368v-1.584h-6.667v1.584h6.667ZM493.032 373.244h-1.584v6.668h1.584v-6.668Z"/><path fill="#C5CCD1" d="M495.575 377.372v-1.584h-6.67v1.584h6.67ZM550.808 373.244h-1.588v6.668h1.588v-6.668Z"/><path fill="#C5CCD1" d="M553.351 377.372v-1.584h-6.667v1.584h6.667ZM608.579 373.244h-1.584v6.668h1.584v-6.668Z"/><path fill="#C5CCD1" d="M611.122 377.372v-1.584h-6.666v1.584h6.666Z"/><g fill="#4DA8F2" opacity=".45"><path d="m1042.35 309.788-14.68-24.045a4.175 4.175 0 0 1 1.39-5.75 4.174 4.174 0 0 1 3.16-.496 4.19 4.19 0 0 1 2.59 1.886l10.38 17.001 27.6-16.339a4.158 4.158 0 0 1 3.16-.452c1.08.276 2 .967 2.57 1.922.56.955.72 2.096.45 3.17a4.214 4.214 0 0 1-1.92 2.561l-34.7 20.542Z"/><path d="M1052.2 346.85a52.778 52.778 0 0 1-48.77-32.6 52.809 52.809 0 0 1-3.01-30.512 52.867 52.867 0 0 1 14.45-27.04 52.796 52.796 0 0 1 57.54-11.447 52.763 52.763 0 0 1 23.69 19.45 52.831 52.831 0 0 1 8.9 29.339 52.882 52.882 0 0 1-15.48 37.324 52.867 52.867 0 0 1-37.32 15.486Zm0-98.074a45.232 45.232 0 0 0-25.14 7.626 45.305 45.305 0 0 0-16.67 20.313 45.371 45.371 0 0 0-2.58 26.153 45.302 45.302 0 0 0 12.39 23.178 45.247 45.247 0 0 0 77.25-32.006c-.01-12-4.78-23.505-13.26-31.991a45.326 45.326 0 0 0-31.99-13.273Z"/></g><path fill="#4DA8F2" d="M1036.66 89.466c0-1.514.1-3.026.31-4.525.2-1.438.6-2.84 1.19-4.17.61-1.39 1.46-2.661 2.51-3.76a17.227 17.227 0 0 1 4.33-3.189l3.55-1.902a36.12 36.12 0 0 0 4.32-2.73c1.38-1.005 2.61-2.2 3.66-3.55a7.262 7.262 0 0 0 1.54-4.48c0-2.263-.83-4.03-2.48-5.298a9.052 9.052 0 0 0-5.66-1.907 8.27 8.27 0 0 0-3.66.774 13.516 13.516 0 0 0-2.89 1.853c-.84.702-1.59 1.517-2.21 2.42l-1.66 2.366-10.6-7.413a20.542 20.542 0 0 1 8.49-9.778 24.955 24.955 0 0 1 13.12-3.5c2.65.005 5.28.387 7.82 1.134 2.55.725 4.93 1.95 7 3.603a18.68 18.68 0 0 1 5.04 6.382c1.3 2.606 1.96 5.762 1.96 9.468 0 3.913-.81 7.19-2.42 9.833-1.61 2.641-4 4.956-7.15 6.945-1.41.941-2.87 1.8-4.38 2.572a42.578 42.578 0 0 0-4.06 2.37 11.793 11.793 0 0 0-2.99 2.78 6.117 6.117 0 0 0-1.13 3.723l-13.55-.02Zm.31 25.232v-15.44h13.48v15.44h-13.48Z" opacity=".45"/><path fill="#EEA886" d="M769.93 350.486s-3.788-.414-5.571-.331c-1.782.083-9.701 4.55-12.368 4.413-2.668-.136-20.487-5.952-21.314-6.419-.827-.468.219-1.738.219-1.738l39.427-3.867-.393 7.942Z"/><path fill="#5080E8" d="m801.623 286.909 4.07 41.538s1.774 5.133-9.855 7.032c-11.873 1.927-30.42 5.965-30.42 5.965s.306 13.852 1.873 13.935c4.525.244 38.216-5.464 51.556-8.273 10.587-2.238 3.954-58.873 3.954-58.873l-21.178-1.324Z"/><path fill="#EEA886" d="M769.359 336.546s-3.681.985-5.463 1.154c-1.783.17-10.269-3.053-12.886-2.531-2.618.521-19.375 8.93-20.123 9.513-.749.584.475 1.688.475 1.688l39.564-2.023-1.567-7.801Z"/><path fill="#292C47" d="M813.083 556.156s-8.205 4.964-11.923 6.846c-3.717 1.882-18.249 2.552-19.668 3.938-1.418 1.385-.827 5.72 1.572 6.134 2.398.414 20.098 1.803 25.978.351 5.881-1.451 16.931.741 19.362-.119 2.432-.861.699-14.006-.281-16.96-.98-2.953-15.04-.19-15.04-.19Z"/><path fill="#3D416B" d="m812.33 550.779.753 5.377s11.07 1.932 14.395.19l-.897-5.584-14.251.017Z"/><path fill="#292C47" d="M790.491 362.444c-.311 3.723-.555 11.83-.741 20.359-.041 1.895-.078 3.81-.111 5.704-.211 11.483-.315 22.11-.315 22.11.542 14.44 2.825 45.69 7.125 52.71 5.79 9.472 12.531 88.304 12.531 88.304l21.301 2.287s1.324-52.702-1.861-66.464c-3.548-15.37-10.38-36.321-6.476-50.307 2.444-8.773 7.547-37.012 7.547-37.012s5.459-31.759-.207-56.139c-1.414-6.089-38.793 18.448-38.793 18.448ZM776.485 556.156s-8.201 4.964-11.923 6.846c-3.721 1.882-18.245 2.552-19.668 3.938-1.422 1.385-.827 5.72 1.576 6.134 2.403.414 20.098 1.803 25.978.351 5.881-1.451 16.931.741 19.363-.119 2.431-.861.698-14.006-.282-16.96-.98-2.953-15.044-.19-15.044-.19Z"/><path fill="#3D416B" d="m775.719 550.779.752 5.377s11.071 1.932 14.4.19l-.897-5.584-14.255.017Z"/><path fill="#292C47" d="M771.17 553.227h21.843s7.336-42.253 7.936-60.871a46.254 46.254 0 0 0-.058-5.146c-.318-3.95-.786-8.272-1.22-12.752a.753.753 0 0 0 0-.095c-1.286-13.324-2.233-27.958 2.179-37.865 3.722-8.322 12.882-35.515 12.882-35.515s10.041-30.609 8.006-55.564c-.508-6.23-39.319 9.435-39.319 9.435-.852 3.632-3.449 15.06-4.367 23.54-5.256 48.433-3.288 79.99-3.288 79.99 2.97 10.697-4.594 94.843-4.594 94.843Z"/><path fill="#CFBEB6" d="M786.778 251.58s-7.585 18.018-9.144 27.673c-1.559 9.654 4.835 36.073 5.124 41.533.897 16.96 1.307 35.677 1.307 35.677l36.983 16.488a337.954 337.954 0 0 0 6.563-33.472c2.638-18.416.678-34.332-.964-44.93-5.149-33.228-25.937-49.298-25.937-49.298l-13.932 6.329Z"/><path fill="#EEA886" d="M758.731 219.151s-2.564 9.927.112 10.709c2.212.645.128 10.279-.075 11.818-.202 1.538 4.103 1.559 5.182 2.254 1.079.695 6.377 11.168 9.801 10.697 3.424-.472 17.174-9.431 20.218-14.697 3.044-5.266 1.654-25.34-3.064-32.781-4.719-7.441-27.592-5.357-32.174 12Z"/><path fill="#EEA886" d="M779.594 243.597s.264.972.649 2.482c.161.629.343 1.352.533 2.138.145.6.298 1.241.451 1.882.054.236.112.472.166.712.252 1.1.504 2.25.732 3.379.595 2.929 1.033 5.75.959 7.367-.203 4.43 15.603-16.516 15.603-16.516a213.851 213.851 0 0 1-5.302-29.783c-1.608-15.966-13.791 28.339-13.791 28.339Z"/><path fill="#292C47" d="M758.256 221.281s-7.154-8.273-.124-17.447c7.03-9.175 26.214-.828 28.149-.828 1.936 0 12.241-1.82 11.691 17.609-.488 17.294-1.34 16.546-1.34 16.546s-5.33-7.256-7.559-8.166c-3.486-1.418-9.847.695-9.847.695s1.071-8.963-4.044-8.938c-5.115.024-12.489-2.507-16.926.529Z"/><path fill="#EEA886" d="M783.213 223.73c.149-1.241.335-6.408 5.181-4.592 4.847 1.816.364 12.596-.33 12.889-.695.294-6.1 2.056-4.851-8.297Z"/><path fill="#23263D" d="M781.707 362.477s1.696-7.983 2.026-9.179l49.882 8.306-.513 6.453s-35.937-2.143-51.395-5.58Z"/><path fill="#2348FF" d="M833.78 322.553s-2.667 34.725 14.978 72.039c2.155 4.55-33.037 4.319-33.037 4.319l18.059-76.358Z"/><path fill="#2348FF" d="M782.369 291.658c.653 3.834 1.22 7.702 1.708 11.582.967 7.714 1.633 15.457 2.067 23.006.046.79.087 1.572.124 2.354.066 1.27.124 2.536.178 3.789.066 1.654.128 3.334.174 4.964 1.001 34.332 13.696 61.4 13.696 61.4s25.226 1.729 31.723-1.803c0 0 4.524-38.671 2.481-76.908-.157-2.95-.355-5.899-.599-8.827-2.564-30.961-14.669-60.905-33.195-65.968-.455.418-21.79 26.266-18.357 46.411Z"/><path fill="#807066" d="m700.9 352.696 65.84-2.657-.243-6.03-65.84 2.657.243 6.03Z"/><path fill="#807066" d="m678.678 290.795 22.266 62.033 5.679-2.04-22.267-62.032-5.678 2.039Z"/><path fill="#191B2B" d="M790.884 454.678c1.853 11.995 9.871 37.12 10.049 37.678a46.254 46.254 0 0 0-.058-5.146c-.318-3.95-.786-8.272-1.22-12.752a.753.753 0 0 0 0-.095c-.413-3.897-3.209-11.073-5.062-15.954-1.852-4.881-3.697-24.43-3.697-24.43s-1.89 8.55-.012 20.699Z"/><path fill="#A77860" d="M781.393 250.807c.252 1.1.504 2.25.732 3.379 4.648-3.193 9.986-11.681 10.317-12.211-1.894 2.743-10.909 8.737-11.049 8.832Z"/><path fill="#304E8C" d="M786.261 324.29c.045.769.086 1.534.128 2.3.062 1.241.124 2.481.174 3.698 5.665-1.159 16.417-4.046 19.651-9.779 4.408-7.814-6.588-26.059-6.828-26.473.104.488 4.706 22.974 0 25.207-3.052 1.452-9.387 3.434-13.125 5.047Z"/><path fill="#282B45" d="M782.46 266.93s-3.85 19.218-.463 42.192c2.829 19.201 3.924 32.987 3.924 32.987l-1.418 5.419-2.585-4.161s-4.458-24.599-5.289-34.833c-.827-10.312-1.72-24.165 4.247-41.695l1.584.091Z"/><path fill="#282B45" d="M782.712 266.947c-.33.384-.759.67-1.241.827-.765.232-2.068-.852 1.133-6.738l.108 5.911Z"/><path fill="#EDDAD3" d="M798.137 242.844s-9.743 12.409-16.128 15.768l.248 10.436 18.464-23.796-2.584-2.408Z"/><path fill="#2348FF" d="M819.29 276.874c-.749-4.74-6.278-24.901-17.667-21.923-11.389 2.978-8.179 16.678-5.694 27.015 2.597 10.813 11.906 36.93 10.285 38.556-1.621 1.625-14.805 7.606-17.679 8.595-2.874.989-21.14 6.792-22.551 7.396-1.41.604 7.068 15.536 7.068 15.536s45.526-15.528 53.251-20.549c7.725-5.022-7.013-54.626-7.013-54.626ZM854.362 302.259h104.236c5.384 0 9.748-4.365 9.748-9.749V153.58c0-5.384-4.364-9.749-9.748-9.749H854.362c-5.384 0-9.747 4.365-9.747 9.749v138.93c0 5.384 4.363 9.749 9.747 9.749Z"/><path fill="#fff" d="M921.748 160.616h31.822v-3.627h-31.822v3.627ZM930.201 168.592h23.365v-3.628h-23.365v3.628ZM896.125 176.562h57.445v-3.627h-57.445v3.627ZM898.619 195.867h-39.415v3.628h39.415v-3.628ZM912.576 203.838h-53.372v3.627h53.372v-3.627ZM930.354 211.813h-71.15v3.627h71.15v-3.627ZM902.609 234.762h-43.405v3.627h43.405v-3.627ZM919.258 242.732h-60.054v3.628h60.054v-3.628ZM916.88 250.707h-57.676v3.628h57.676v-3.628Z"/><path fill="#1D3B54" d="M671.747 408.321s-.521-8.968-2.895-10.341c-2.374-1.373-1.001 1.381-1.001 1.381s1.336 6.511 1.629 9.146c.009.108 2.267-.186 2.267-.186Z"/><path fill="#434343" d="M608.575 219.751s22.29-1.858 21.682 21.6c-.608 23.457-4.33 26.982 0 43.552s-21.732-9.41-21.732-9.41l.05-55.742Z"/><path fill="#EEA987" d="M589.825 283.124s-31.574 19.706-34.245 17.609c-3.722-2.928-13.879-27.929-13.879-27.929l-7.948 3.781s9.474 43.229 22.244 40.048c12.77-3.181 42.082-21.319 42.082-21.319l-8.254-12.19ZM632.862 364.674s8.209 10.465 11.103 17.372c2.895 6.908 7.729 22.093 7.084 33.844-.645 11.752-4.507 33.807-3.378 38.8 1.129 4.993 2.249 15.305 3.457 18.837 1.207 3.533 6.038 13.845 6.521 24.467.484 10.622-6.761 57.314-6.438 61.657.322 4.343-8.209 1.775-8.209 1.775s-2.895-42.192-4.508-49.426c-1.613-7.235-3.54-31.875-4.987-33.646-1.447-1.77-5.409-20.123-4.797-23.019.612-2.895-15.806-46.365-16.773-55.059-.968-8.695-25.172-35.619-25.172-35.619s21.148-8.066 46.097.017Z"/><path fill="#EEA987" d="M593.687 364.674s-.413 4.388-.901 5.997c-.488 1.609-11.579 42.663-12.717 58.439-1.137 15.777-4.023 29.158-4.503 32.529-.48 3.371.48 14.639 1.447 17.538.968 2.9-4.83 71.316-5.314 72.925-.484 1.609 3.867 2.093 6.923 1.613 3.056-.479 18.51-50.228 17.542-58.6-.967-8.372-1.931-26.221.827-33.476 2.759-7.255 27.36-59.738 27.521-62.956.162-3.218 10.637-58.671-30.825-34.009ZM643.155 556.317s-.794 5.555-1.654 7.073c-.861 1.519-3.247 9.237-4.33 10.681-1.084 1.443-3.462 12.272 0 13.571 3.461 1.299 11.62 3.462 14.362-.868a17.826 17.826 0 0 0 2.671-11.996c-.413-3.309-3.721-18.56-3.68-20.066.041-1.505-7.369 1.605-7.369 1.605Z"/><path fill="#fff" d="M638.548 571.08s-.372 8.414 5.976 8.414c6.347 0 9.164-7.657 9.164-7.657s2.166 3.76 0 11.772c-2.167 8.012-11.166 6.35-13.205 6.06-2.039-.289-11.595-2.829-1.935-18.589ZM572.386 548.744s-4.487 8.032-7.154 9.658c-3.308 2.027-9.768 8.533-12.022 8.835-2.254.302-10.338 1.738-8.783 6.308 1.282 3.744 20.59 3.206 22.769 1.328 2.179-1.878 8.684-8.612 11.319-8.463 2.634.149 1.654 9.716 1.654 9.716h2.853s.997-9.306 1.117-10.907c.355-4.74-3.023-8.223-3.172-10.929-.149-2.705-.306-4.719-.306-4.719l-8.275-.827Z"/><path fill="#EEA987" d="M553.859 567.03s6.365 2.201 11.261-.616c4.896-2.817 14.3-7.09 17.625-7.119 0 0-1.811-5.546-1.853-6.167l-.235-3.541-8.217-1.319s-5.335 7.83-7.684 9.671c-2.349 1.84-8.366 6.444-10.897 9.091Z"/><path fill="#E81B65" d="M586.628 363.958s-2.291 9.539-3.139 12.314c-.847 2.776-6.269 45.86-7.6 72.801 0 0 32.467 12.314 77.133 10.262 0 0 1.084-49.504-3.019-63.51-4.102-14.006-11.533-27.11-17.141-31.151-4.987-3.587-46.234-.716-46.234-.716Z"/><path fill="#EEA987" d="M660.755 388.131a65.54 65.54 0 0 1-1.882 7.896c-1.216 3.876-2.34 5.113-1.848 7.334.368 1.655 2.262 2.933 2.741 2.395.48-.537.712-7.032 3.412-7.032 2.701 0-.827 8.071.798 7.483 1.625-.587 7.795-3.983 7.407-7.268-.389-3.284-2.866-5.658-2.705-10.568.141-4.451-1.24-6.308-1.24-6.308l-6.683 6.068Z"/><path fill="#EEA886" d="M531.611 274.661s3.768 4.898 6.088 5.419c2.32.521 4.85-5.017 4.85-5.017l-1.368-4.964-9.57 4.562Z"/><path fill="#EEA886" d="M540.911 273.023s1.807-5.65 2.068-6.519c.261-.868-.637-3.429-2.237-5.865a52.514 52.514 0 0 0-4.198-5.655c-.359-.351-.554-.752-1.728-.219a4.895 4.895 0 0 0-1.882 1.626s-1.753-.029-2.518 1.386a2.585 2.585 0 0 0-2.258 1.799s-1.613.091-1.948 1.398c0 0 .782 2.416.827 3.392.046.976 1.993 5.882 4.603 10.295-.029 0 3.846 3.343 9.271-1.638Z"/><path fill="#CF8C6C" d="M536.776 265.689s-1.943 2.255-2.171 3.165c-.227.91-5.901-2.482-5.901-2.482s5.264-2.974 8.072-.683Z"/><path fill="#DB9C7C" d="M536.826 255.559s3.143 6.656 2.068 7.231a1.879 1.879 0 0 1-1.787.145l-.165 3.338s-1.357 2.146-3.308.041c0 0-1.063 2.139-2.693-.12 0 0-1.327 1.1-2.27.186-.943-.914-2.506-5.406-2.506-5.406s.07-1.175 1.923-1.477c0 0 .442-1.745 2.221-1.832 0 0 1.153-1.754 3.072-1.833 0 0 1.018-1.456 3.118-.827.125.175.234.361.327.554Z"/><path fill="#EEA886" d="M542.896 266.277s-3.809-3.347-6.691-4.261c-.653-.207-1.323-.289-1.762.24-.438.53-.227 1.833 1.348 3.367 1.576 1.535 2.895 4.236 2.895 4.236s2.105 1.104 4.21-3.582Z"/><path fill="#EEA886" d="M533.414 255.832s3.805 7.032 3.759 7.86c-.045.827 2.548-.571 2.539-1.266-.008-.695-2.82-6.854-3.18-7.446-.36-.591-2.419-1.092-3.118.852Z"/><path fill="#EEA886" d="M537.326 256.321s-6.203-11.582-7.105-11.14c-1.327.612-.972 3.814 4.251 12.442 5.082 8.389 2.854-1.302 2.854-1.302Z"/><path fill="#323657" d="m588.129 307.086-12.749-16.922s22.794-17.658 29.828-6.428c0 0 .501 18.498-17.079 23.35Z"/><path fill="#323657" d="M580.474 306.487c.36 5.675 3.259 10.382 3.743 12.434.484 2.051 0 6.763.6 11.47.599 4.707 2.415 27.168 1.811 33.567-.604 6.399 43.914 3.508 47.292 1.576 0 0-7.497-13.41-7.696-18.961-.07-1.911-1.207-7.86 1.931-12.195 1.655-2.295 4.727-9.596 7.796-14.936 1.191-2.068 2.435-4.136 3.308-5.675a21.54 21.54 0 0 0 1.766-4.381s1.981-24.632-3.453-27.412c-5.434-2.779-8.329-3.259-13.647-3.499a38.746 38.746 0 0 1-8.813-1.328l-12.435 1.328s-7.965 2.776-11.103 3.015c-3.139.24-7.121 7.007-6.762 11.351.36 4.343-4.697 7.971-4.338 13.646Z"/><path fill="#1D3B54" d="M662.914 398.46s-3.594.918-3.383 13.083l4.074-.678s-.075-6.726 1.141-10.391c0 0-.207-2.378-1.832-2.014Z"/><path fill="#1D3B54" d="m647.985 414.29 31.706-8.997-.095 39.056-31.549 18.912-.062-48.971Z"/><path fill="#1D3B54" d="m648.047 463.261 3.97.736 30.689-19.09-.381-39.436-2.634-.178-31.644 57.968Z"/><path fill="#EEA886" d="M632.283 279.716s9.875-.033 14.341 8.658c4.466 8.69 4.963 17.869 6.034 21.128 1.071 3.26 3.924 22.444 5.012 25.232 1.087 2.788 7.543 21.63 9.098 32.264a212.153 212.153 0 0 1 1.902 21.402l-7.924-.248s-7.857-28.909-10.57-35.788c-2.315-5.882-3.205-16.157-4.549-19.776-1.344-3.62-9.536-29.1-11.227-30.912-1.692-1.812-10.541-20.355-2.117-21.96Z"/><path fill="#323657" d="m635.529 314.946 20.119-6.337s-6.166-29.687-23.353-28.893c-13.799.637 3.234 35.23 3.234 35.23Z"/><path fill="#EEA886" d="M610.754 222.125c-5.525-.906-18.167.48-21.748 14.99.008 2.429.207 4.854.595 7.251.608 3.231-3.238 12.112-2.56 12.645.679.534 3.623 1.465 3.623 1.465s2.093 10.415 5.628 10.754c3.536.339 17.204-.91 24.92-12.694 7.717-11.785 11.836-30.759-10.458-34.411Z"/><path fill="#EEA886" d="M601.581 265.172s.273 1.456.526 3.603a61.66 61.66 0 0 1 .335 3.723c.223 3.723.107 8.07-1.167 10.813 0 0 6.923 4.293 14.342-6.027 0 0-.724-12.873 3.54-19.681 4.263-6.809-17.576 7.569-17.576 7.569Z"/><path fill="#434343" d="M589.006 237.115s8.316 7.185 17.124 9.448c8.809 2.262 13.47 12.165 13.47 12.165s15.586-15.549 6.178-30.638c-9.408-15.09-36.76-8.36-36.772 9.025Z"/><path fill="#A77860" d="M602.107 268.775c.133 1.096.257 2.375.335 3.723 7.771-3.768 12.051-8.935 12.051-8.935-4.566 3.268-12.386 5.212-12.386 5.212Z"/><path fill="#434343" d="M607.748 247.08s9.011 24.235 7.932 30.067c0 0 4.768-.827 13.262 1.775 0 0-4.106-43.234-21.194-31.842Z"/><path fill="#EEA886" d="M618.69 277.929s-2.969 18.171-13.953 16.132c-10.983-2.039-2.655-15.371-2.655-15.371s4.293-3.863 16.608-.761Z"/><path fill="#2348FF" d="M480.788 261.399s-13.817-17.911-17.911-29.17c-4.094-11.258-4.094-20.47-2.559-25.076 1.279-3.735 3.838-4.81 4.759-5.066-2.047-1.177-2.712-2.712-2.712-4.196 2.456-1.638 2.456-4.504 2.456-4.504 2.047.41 2.047-2.456 2.047-4.094 0-1.586-1.125-.87-1.228-.819.051-.102.768-1.381 0-5.322-.819-4.094-4.094-5.169-6.96-5.169-2.866 0-6.141 1.075-6.96 5.169-.767 3.941-.051 5.22 0 5.322-.102-.051-1.228-.767-1.228.819 0 1.638 0 4.504 2.047 4.094 0 0 0 2.866 2.457 4.504 0 1.637-.819 3.275-3.276 4.503-2.456 1.228-9.006 2.456-11.412 4.094-2.456 1.638-2.866 6.55-1.637 13.05 1.228 6.55 8.853 34.697 42.629 42.373v-.102l-.512-.41Z" opacity=".5"/><path fill="#2348FF" d="M513.028 205.618c-3.07-2.047-11.258-3.582-14.329-5.117-3.07-1.536-4.094-3.583-4.094-5.63 3.071-2.047 3.071-5.629 3.071-5.629 2.558.512 2.558-3.071 2.558-5.118s-1.535-1.023-1.535-1.023 1.024-1.535 0-6.653c-1.023-5.117-5.117-6.448-8.7-6.448-3.582 0-7.676 1.331-8.7 6.448-1.023 5.118 0 6.653 0 6.653s-1.535-1.024-1.535 1.023c0 2.047 0 5.63 2.559 5.118 0 0 0 3.582 3.071 5.629 0 2.047-1.024 4.094-4.095 5.63-3.07 1.535-11.258 3.07-14.329 5.117-3.07 2.047-3.582 8.188-2.047 16.376 1.536 8.188 9.212 26.202 25.076 41.504 15.865-15.302 23.541-33.316 25.076-41.504 1.536-8.188 1.024-14.329-2.047-16.376Z"/><path fill="#2348FF" d="M539.692 206.488c-2.457-1.638-9.007-2.866-11.412-4.094-2.457-1.228-3.276-2.866-3.276-4.503 2.457-1.638 2.457-4.504 2.457-4.504 2.047.41 2.047-2.456 2.047-4.094 0-1.586-1.126-.87-1.228-.819.051-.102.767-1.381 0-5.322-.819-4.094-4.094-5.169-6.96-5.169-2.866 0-6.141 1.075-6.96 5.169-.768 3.941-.051 5.22 0 5.322-.102-.051-1.228-.767-1.228.819 0 1.638 0 4.504 2.047 4.094 0 0 0 2.866 2.456 4.504 0 1.535-.716 3.019-2.712 4.196.921.256 3.531 1.279 4.759 5.066 1.535 4.606 1.535 13.767-2.559 25.076-4.094 11.259-17.911 29.17-17.911 29.17l-.512.41v.102c33.776-7.676 41.401-35.823 42.629-42.373 1.229-6.5.819-11.412-1.637-13.05Z" opacity=".5"/><path fill="#FFE570" d="M170.713 416.761c11.545-11.554 11.545-30.287 0-41.841-11.545-11.554-30.264-11.554-41.809 0-11.545 11.554-11.545 30.287 0 41.841 11.545 11.554 30.264 11.554 41.809 0Z"/><path fill="#E81B65" d="M961.956 428.703c12.648.868 23.613-8.681 24.491-21.328.878-12.648-8.664-23.604-21.312-24.472-12.648-.869-23.613 8.68-24.491 21.328-.878 12.647 8.663 23.604 21.312 24.472Z"/><path fill="#2348FF" d="M980.717 465.147c6.361.437 11.876-4.366 12.317-10.726.442-6.361-4.357-11.872-10.718-12.308-6.361-.437-11.876 4.365-12.318 10.726-.441 6.361 4.358 11.872 10.719 12.308Z"/><path fill="#FF8159" d="M289.402 31.5c1.155-2 4.041-2 5.196 0l31.177 54c1.155 2-.289 4.5-2.598 4.5h-62.354c-2.309 0-3.753-2.5-2.598-4.5l31.177-54Z"/><path stroke="#FF8159" stroke-linecap="round" stroke-width="8" d="m126 465.886.071-.077c2.901-3.122 7.854-3.087 10.71.077v0c2.842 3.148 7.784 3.148 10.626 0v0c2.843-3.149 7.785-3.149 10.627 0v0c2.843 3.148 7.784 3.148 10.627 0v0c2.855-3.164 7.809-3.199 10.71-.077l.07.077"/></g><defs><linearGradient id="n" x1="434.47" x2="434.47" y1="319.587" y2="367.238" gradientUnits="userSpaceOnUse"><stop stop-color="#40D5E6"/><stop offset="1" stop-color="#57F"/></linearGradient><linearGradient id="b" x1="158.346" x2="247.422" y1="181.708" y2="181.708" gradientUnits="userSpaceOnUse"><stop stop-color="#D5E4FF"/><stop offset="1" stop-color="#EDFFFE"/></linearGradient><linearGradient id="d" x1="125.316" x2="247.422" y1="222.075" y2="222.075" gradientUnits="userSpaceOnUse"><stop stop-color="#D5E4FF"/><stop offset="1" stop-color="#EDFFFE"/></linearGradient><linearGradient id="e" x1="385.218" x2="385.218" y1="418.133" y2="-19.131" gradientUnits="userSpaceOnUse"><stop stop-color="#78C5F1"/><stop offset="1" stop-color="#EDFFFE"/></linearGradient><linearGradient id="f" x1="607.024" x2="607.024" y1="418.133" y2="-19.131" gradientUnits="userSpaceOnUse"><stop stop-color="#78C5F1"/><stop offset="1" stop-color="#EDFFFE"/></linearGradient><linearGradient id="g" x1="828.834" x2="828.834" y1="418.133" y2="-19.131" gradientUnits="userSpaceOnUse"><stop stop-color="#78C5F1"/><stop offset="1" stop-color="#EDFFFE"/></linearGradient><linearGradient id="h" x1="608.587" x2="643.874" y1="457.912" y2="457.912" gradientUnits="userSpaceOnUse"><stop stop-color="#D5E4FF"/><stop offset="1" stop-color="#EDFFFE"/></linearGradient><linearGradient id="i" x1="1280.49" x2="-189.945" y1="247.423" y2="263.084" gradientUnits="userSpaceOnUse"><stop stop-color="#D5E4FF"/><stop offset="1" stop-color="#EDFFFE"/></linearGradient><linearGradient id="j" x1="383.344" x2="803.476" y1="109.991" y2="109.991" gradientUnits="userSpaceOnUse"><stop stop-color="#FF9F55"/><stop offset="1" stop-color="#FFD255"/></linearGradient><linearGradient id="k" x1="593.41" x2="593.41" y1="68.764" y2="158.461" gradientUnits="userSpaceOnUse"><stop stop-color="#8EC3F9"/><stop offset="1" stop-color="#B8EBFF"/></linearGradient><linearGradient id="l" x1="597.202" x2="596.085" y1="140.948" y2="190.572" gradientUnits="userSpaceOnUse"><stop stop-color="#FF9340"/><stop offset="1" stop-color="#FFCE45"/></linearGradient><linearGradient id="m" x1="434.508" x2="434.508" y1="319.587" y2="367.238" gradientUnits="userSpaceOnUse"><stop stop-color="#40D5E6"/><stop offset="1" stop-color="#57F"/></linearGradient><linearGradient id="c" x1="171.484" x2="247.423" y1="201.894" y2="201.894" gradientUnits="userSpaceOnUse"><stop stop-color="#D5E4FF"/><stop offset="1" stop-color="#EDFFFE"/></linearGradient><linearGradient id="o" x1="434.47" x2="434.47" y1="322.668" y2="364.397" gradientUnits="userSpaceOnUse"><stop stop-color="#D3DAE0"/><stop offset="1" stop-color="#fff"/></linearGradient><linearGradient id="p" x1="492.242" x2="492.242" y1="319.587" y2="367.238" gradientUnits="userSpaceOnUse"><stop stop-color="#40D5E6"/><stop offset="1" stop-color="#57F"/></linearGradient><linearGradient id="q" x1="492.205" x2="492.205" y1="319.587" y2="367.238" gradientUnits="userSpaceOnUse"><stop stop-color="#40D5E6"/><stop offset="1" stop-color="#57F"/></linearGradient><linearGradient id="r" x1="492.205" x2="492.205" y1="322.668" y2="364.396" gradientUnits="userSpaceOnUse"><stop stop-color="#D3DAE0"/><stop offset="1" stop-color="#fff"/></linearGradient><linearGradient id="s" x1="549.976" x2="549.976" y1="319.587" y2="367.238" gradientUnits="userSpaceOnUse"><stop stop-color="#40D5E6"/><stop offset="1" stop-color="#57F"/></linearGradient><linearGradient id="t" x1="549.939" x2="549.939" y1="319.587" y2="367.238" gradientUnits="userSpaceOnUse"><stop stop-color="#40D5E6"/><stop offset="1" stop-color="#57F"/></linearGradient><linearGradient id="u" x1="549.935" x2="549.935" y1="322.668" y2="364.396" gradientUnits="userSpaceOnUse"><stop stop-color="#D3DAE0"/><stop offset="1" stop-color="#fff"/></linearGradient><linearGradient id="v" x1="607.711" x2="607.711" y1="319.587" y2="367.238" gradientUnits="userSpaceOnUse"><stop stop-color="#40D5E6"/><stop offset="1" stop-color="#57F"/></linearGradient><linearGradient id="w" x1="607.669" x2="607.669" y1="319.587" y2="367.238" gradientUnits="userSpaceOnUse"><stop stop-color="#40D5E6"/><stop offset="1" stop-color="#57F"/></linearGradient><linearGradient id="x" x1="607.669" x2="607.669" y1="322.668" y2="364.397" gradientUnits="userSpaceOnUse"><stop stop-color="#D3DAE0"/><stop offset="1" stop-color="#fff"/></linearGradient><clipPath id="a"><path fill="#fff" d="M0 0h1200v590H0z"/></clipPath></defs></svg>