<svg width="146" height="37" fill="none" xmlns="http://www.w3.org/2000/svg"><path d="M46.893 16.135v2.982h4.809v2.772h-4.809v3.234h5.439V28h-9.03V13.258h9.03v2.877h-5.439Zm14.91.021c1.372 0 2.464.448 3.276 1.344.826.882 1.24 2.1 1.24 3.654V28h-3.57v-6.363c0-.784-.204-1.393-.61-1.827-.406-.434-.952-.651-1.638-.651-.686 0-1.232.217-1.638.651-.406.434-.609 1.043-.609 1.827V28h-3.59V16.282h3.59v1.554a3.706 3.706 0 0 1 1.47-1.218c.616-.308 1.31-.462 2.08-.462Zm12.89 3.108h-1.931V28H69.17v-8.736h-1.302v-2.982h1.302v-.336c0-1.442.413-2.534 1.239-3.276.826-.756 2.037-1.134 3.633-1.134.266 0 .462.007.588.021v3.045c-.686-.042-1.17.056-1.45.294s-.42.665-.42 1.281v.105h1.933v2.982Zm5.28-6.804V28H76.38V12.46h3.591Zm1.888 9.66c0-1.204.224-2.261.671-3.171.463-.91 1.086-1.61 1.87-2.1a4.852 4.852 0 0 1 2.624-.735c.827 0 1.547.168 2.163.504.63.336 1.114.777 1.45 1.323v-1.659h3.59V28h-3.59v-1.659c-.35.546-.84.987-1.47 1.323-.617.336-1.337.504-2.163.504-.953 0-1.82-.245-2.605-.735-.783-.504-1.406-1.211-1.868-2.121-.448-.924-.672-1.988-.672-3.192Zm8.777.021c0-.896-.252-1.603-.756-2.121a2.389 2.389 0 0 0-1.806-.777c-.713 0-1.322.259-1.826.777-.49.504-.736 1.204-.736 2.1 0 .896.246 1.61.736 2.142a2.456 2.456 0 0 0 1.826.777c.715 0 1.317-.259 1.806-.777.504-.518.756-1.225.756-2.121Zm21.141-5.985c1.456 0 2.611.441 3.465 1.323.868.882 1.302 2.107 1.302 3.675V28h-3.57v-6.363c0-.756-.203-1.337-.609-1.743-.392-.42-.938-.63-1.638-.63s-1.253.21-1.659.63c-.392.406-.588.987-.588 1.743V28h-3.57v-6.363c0-.756-.203-1.337-.609-1.743-.392-.42-.938-.63-1.638-.63s-1.253.21-1.659.63c-.392.406-.588.987-.588 1.743V28h-3.59V16.282h3.59v1.47c.364-.49.84-.875 1.428-1.155.588-.294 1.253-.441 1.995-.441.882 0 1.666.189 2.352.567.7.378 1.246.917 1.638 1.617a4.72 4.72 0 0 1 1.659-1.575 4.482 4.482 0 0 1 2.289-.609Zm18.325 5.796c0 .336-.021.686-.063 1.05h-8.127c.056.728.287 1.288.693 1.68.42.378.931.567 1.533.567.896 0 1.519-.378 1.869-1.134h3.822a5.177 5.177 0 0 1-1.071 2.079 5.213 5.213 0 0 1-1.911 1.449c-.77.35-1.631.525-2.583.525-1.148 0-2.17-.245-3.066-.735a5.228 5.228 0 0 1-2.1-2.1c-.504-.91-.756-1.974-.756-3.192 0-1.218.245-2.282.735-3.192a5.228 5.228 0 0 1 2.1-2.1c.896-.49 1.925-.735 3.087-.735 1.134 0 2.142.238 3.024.714a5.059 5.059 0 0 1 2.058 2.037c.504.882.756 1.911.756 3.087Zm-3.675-.945c0-.616-.21-1.106-.63-1.47-.42-.364-.945-.546-1.575-.546-.602 0-1.113.175-1.533.525-.406.35-.658.847-.756 1.491h4.494ZM141.028 28l-3.003-4.515L135.379 28h-4.074l4.725-7.497-4.83-7.245h4.179l2.961 4.452 2.604-4.452h4.074l-4.683 7.434L145.207 28h-4.179Z" fill="#234"/><path opacity=".5" d="M14.644 31.282s-4.729-6.13-6.13-9.984c-1.401-3.853-1.401-7.006-.876-8.582.438-1.279 1.314-1.646 1.63-1.734-.701-.403-.929-.928-.929-1.436.84-.56.84-1.542.84-1.542.701.14.701-.84.701-1.4 0-.544-.385-.299-.42-.281.017-.035.263-.473 0-1.822-.28-1.4-1.401-1.769-2.382-1.769-.98 0-2.102.368-2.382 1.77-.263 1.348-.018 1.786 0 1.82-.035-.017-.42-.262-.42.281 0 .56 0 1.541.7 1.401 0 0 0 .981.84 1.542 0 .56-.28 1.12-1.12 1.541-.84.42-3.083.84-3.906 1.401-.84.56-.98 2.242-.56 4.467.42 2.242 3.03 11.875 14.59 14.502v-.035l-.176-.14Z" fill="#2348FF"/><path d="M25.679 12.19c-1.051-.7-3.853-1.226-4.904-1.751-1.051-.525-1.401-1.226-1.401-1.927 1.05-.7 1.05-1.926 1.05-1.926.876.175.876-1.051.876-1.752 0-.7-.525-.35-.525-.35s.35-.526 0-2.277C20.425.455 19.023 0 17.797 0c-1.226 0-2.627.455-2.977 2.207-.35 1.751 0 2.277 0 2.277s-.526-.35-.526.35 0 1.927.876 1.752c0 0 0 1.226 1.05 1.926 0 .7-.35 1.402-1.4 1.927-1.051.525-3.854 1.05-4.905 1.752-1.05.7-1.226 2.802-.7 5.604.525 2.803 3.152 8.968 8.582 14.205 5.43-5.237 8.057-11.402 8.582-14.205.526-2.802.35-4.904-.7-5.605Z" fill="#2348FF"/><path opacity=".5" d="M34.804 12.488c-.84-.56-3.082-.98-3.906-1.401-.84-.42-1.12-.98-1.12-1.541.84-.56.84-1.542.84-1.542.7.14.7-.84.7-1.4 0-.544-.385-.299-.42-.281.018-.035.263-.473 0-1.822-.28-1.4-1.4-1.769-2.382-1.769-.98 0-2.101.368-2.382 1.77-.262 1.348-.017 1.786 0 1.82-.035-.017-.42-.262-.42.281 0 .56 0 1.541.7 1.401 0 0 0 .981.841 1.542 0 .525-.245 1.033-.928 1.436.315.088 1.209.438 1.629 1.734.525 1.576.525 4.711-.876 8.582-1.401 3.854-6.13 9.984-6.13 9.984l-.175.14v.035c11.56-2.627 14.17-12.26 14.59-14.502.42-2.225.28-3.906-.56-4.467Z" fill="#2348FF"/></svg>