<svg width="60" height="60" fill="none" xmlns="http://www.w3.org/2000/svg"><path opacity=".4" d="M35.273 44.18a1.758 1.758 0 1 1-3.515 0 1.758 1.758 0 0 1 3.515 0ZM52.852 51.21a1.758 1.758 0 1 1-3.516.001 1.758 1.758 0 0 1 3.516 0Z" fill="#1F1BE8"/><path d="M58.242 0H1.758C.787 0 0 .787 0 1.758v56.484C0 59.213.787 60 1.758 60h56.484c.971 0 1.758-.787 1.758-1.758V1.758C60 .787 59.213 0 58.242 0Zm-1.758 14.063H45.82V3.515h10.664v10.546ZM42.304 3.515v10.546H3.517V3.517h38.789ZM3.517 56.484V17.578h52.968v38.906H3.516Z" fill="#1F1BE8"/><path opacity=".4" d="M8.906 10.547h3.516a1.758 1.758 0 1 0 0-3.516H8.906a1.758 1.758 0 1 0 0 3.516Z" fill="#1F1BE8"/><path d="M19.453 10.547h3.516a1.758 1.758 0 1 0 0-3.516h-3.516a1.758 1.758 0 1 0 0 3.516ZM30 10.547h3.516a1.758 1.758 0 1 0 0-3.516H30a1.758 1.758 0 1 0 0 3.516ZM33.516 35.39h1.757v1.758a1.758 1.758 0 1 0 3.516 0v-1.757h1.758a1.758 1.758 0 1 0 0-3.516h-1.758v-8.79a1.758 1.758 0 1 0-3.516 0v8.79h-1.757a1.758 1.758 0 1 0 0 3.516ZM51.094 24.844h-1.758v-1.758a1.758 1.758 0 1 0-3.516 0v1.758h-1.758a1.758 1.758 0 1 0 0 3.515h1.758v8.79a1.758 1.758 0 1 0 3.516 0v-8.79h1.758a1.758 1.758 0 1 0 0-3.515Z" fill="#1F1BE8"/><path opacity=".4" d="m15.938 29.088 2.272 2.272c.686.687 1.8.687 2.486 0l7.031-7.031a1.757 1.757 0 1 0-2.486-2.486l-5.788 5.788-2.273-2.272a1.757 1.757 0 0 0-2.485 0l-4.03 4.03v-6.303a1.758 1.758 0 1 0-3.517 0v14.062c0 .971.787 1.758 1.758 1.758h17.578a1.758 1.758 0 1 0 0-3.515h-15.82v-1.03l5.274-5.273Z" fill="#1F1BE8"/><path d="M26.484 42.422H8.906c-.97 0-1.758.787-1.758 1.758v7.03c0 .972.787 1.759 1.758 1.759h17.578c.971 0 1.758-.787 1.758-1.758V44.18c0-.971-.787-1.758-1.758-1.758Zm-1.757 7.031H10.664v-3.516h14.063v3.516Z" fill="#1F1BE8"/><path opacity=".4" d="M51.094 42.422H40.547a1.758 1.758 0 1 0 0 3.516h10.547a1.758 1.758 0 1 0 0-3.516ZM44.063 49.453H33.516a1.758 1.758 0 1 0 0 3.516h10.547a1.758 1.758 0 1 0 0-3.516Z" fill="#1F1BE8"/></svg>