<svg width="60" height="60" fill="none" xmlns="http://www.w3.org/2000/svg"><path opacity=".4" d="m7.47 18.928 3.516 6.09c.486.84 1.56 1.128 2.401.643l1.542-.89c.543.373 1.114.703 1.712.986v1.782c0 .97.787 1.758 1.758 1.758h7.03c.972 0 1.759-.787 1.759-1.758v-1.782c.597-.283 1.169-.613 1.71-.987l1.543.89c.84.486 1.916.198 2.401-.643l3.516-6.089a1.757 1.757 0 0 0-.644-2.401l-1.538-.888a11.655 11.655 0 0 0 0-1.98l1.538-.889a1.759 1.759 0 0 0 .644-2.401l-3.516-6.09a1.758 1.758 0 0 0-2.401-.643l-1.542.89a12.191 12.191 0 0 0-1.712-.986V1.758C27.188.787 26.4 0 25.43 0h-7.032c-.97 0-1.757.787-1.757 1.758V3.54c-.598.283-1.17.612-1.712.987l-1.542-.89a1.758 1.758 0 0 0-2.401.643L7.47 10.369a1.758 1.758 0 0 0 .644 2.4l1.538.889a11.636 11.636 0 0 0 0 1.98l-1.538.889a1.758 1.758 0 0 0-.644 2.401Zm5.81-2.675a8.773 8.773 0 0 1-.155-1.605c0-.517.05-1.042.154-1.604a1.758 1.758 0 0 0-.85-1.842l-1.035-.598 1.758-3.044 1.036.598a1.758 1.758 0 0 0 2.021-.186 8.738 8.738 0 0 1 2.776-1.6 1.758 1.758 0 0 0 1.171-1.658V3.516h3.516v1.198c0 .745.47 1.409 1.171 1.657a8.742 8.742 0 0 1 2.776 1.6 1.758 1.758 0 0 0 2.021.187l1.037-.598 1.757 3.044-1.035.598a1.758 1.758 0 0 0-.85 1.842c.104.562.154 1.087.154 1.604 0 .518-.05 1.043-.154 1.605-.135.732.205 1.47.85 1.841l1.035.599-1.757 3.044-1.037-.598a1.757 1.757 0 0 0-2.021.186 8.735 8.735 0 0 1-2.776 1.6 1.758 1.758 0 0 0-1.171 1.657v1.2h-3.516v-1.2c0-.744-.469-1.408-1.17-1.657a8.74 8.74 0 0 1-2.776-1.6 1.758 1.758 0 0 0-2.022-.186l-1.036.598-1.758-3.044 1.036-.599c.644-.372.984-1.11.85-1.84Z" fill="#1F1BE8"/><path opacity=".4" d="M21.914 16.406h3.516a1.758 1.758 0 0 0 0-3.515h-1.758v-1.758a1.758 1.758 0 0 0-3.516 0v3.515c0 .971.787 1.758 1.758 1.758Z" fill="#1F1BE8"/><path d="M58.242 32.813h-7.031c-.97 0-1.758.786-1.758 1.757v21.914h-3.516V39.258c0-.971-.786-1.758-1.757-1.758h-7.032c-.97 0-1.757.787-1.757 1.758v17.226h-3.516V43.945c0-.97-.787-1.758-1.758-1.758h-7.031c-.97 0-1.758.788-1.758 1.758v12.54h-3.515v-7.852c0-.971-.787-1.758-1.758-1.758H9.023c-.97 0-1.757.787-1.757 1.758v7.851h-3.75V1.758a1.758 1.758 0 0 0-3.516 0v56.484C0 59.213.787 60 1.758 60h56.484c.971 0 1.758-.787 1.758-1.758V34.57c0-.97-.787-1.758-1.758-1.758ZM14.297 56.483H10.78v-6.093h3.516v6.093Zm14.062 0h-3.515v-10.78h3.515v10.78Zm14.063 0h-3.516V41.016h3.516v15.468Zm14.062 0H52.97V36.328h3.515v20.156Z" fill="#1F1BE8"/><path opacity=".4" d="M9.023 36.328a1.758 1.758 0 0 0 0 3.516c18.716 0 35.99-9.49 46.053-25.032l.27 1.353a1.758 1.758 0 0 0 3.448-.69l-1.172-5.859a1.758 1.758 0 0 0-2.068-1.379l-5.86 1.172a1.758 1.758 0 0 0 .69 3.447l2.028-.405A51.31 51.31 0 0 1 9.023 36.328Z" fill="#1F1BE8"/></svg>