<svg width="60" height="60" fill="none" xmlns="http://www.w3.org/2000/svg"><path opacity=".4" d="M54.477 15.063a5.53 5.53 0 0 0-5.524 5.523v32.008c0 .347.103.686.295.975l3.766 5.648a1.758 1.758 0 0 0 2.925 0l3.766-5.648c.192-.289.295-.628.295-.975V20.586c0-3.12-2.542-5.523-5.523-5.523Zm2.007 36.998-2.008 3.012-2.007-3.011V26.109h4.015v25.953Zm0-29.467H52.47v-2.008c0-1.107.9-2.008 2.008-2.008 1.095 0 2.007.881 2.007 2.008v2.008Z" fill="#1F1BE8"/><path d="M52.469 9.29V5.523C52.469 2.403 49.926 0 46.945 0H5.524C2.536 0 0 2.409 0 5.524v52.718C0 59.213.787 60 1.758 60H43.18c.97 0 1.758-.787 1.758-1.758V11.047h5.773c.97 0 1.758-.787 1.758-1.758ZM41.422 5.521v50.962H3.516V5.524c0-1.124.91-2.008 2.008-2.008h36.275a5.49 5.49 0 0 0-.377 2.006Zm7.531 2.01h-4.016V5.523c0-1.108.901-2.008 2.008-2.008 1.095 0 2.008.88 2.008 2.008V7.53Z" fill="#1F1BE8"/><path d="M14.938 12.93H30a1.758 1.758 0 0 0 0-3.516H14.937a1.758 1.758 0 0 0 0 3.516Z" fill="#1F1BE8"/><path opacity=".4" d="M9.29 22.344h26.358a1.758 1.758 0 0 0 0-3.516H9.29a1.758 1.758 0 0 0 0 3.516ZM9.29 29.875H30a1.758 1.758 0 0 0 0-3.516H9.29a1.758 1.758 0 0 0 0 3.516ZM9.29 37.406h26.358a1.758 1.758 0 0 0 0-3.515H9.29a1.758 1.758 0 0 0 0 3.515Z" fill="#1F1BE8"/><path d="M9.29 48.703h7.53a1.758 1.758 0 0 0 0-3.516H9.29a1.758 1.758 0 0 0 0 3.516Z" fill="#1F1BE8"/><path opacity=".4" d="M31.883 41.422a5.53 5.53 0 0 0-5.524 5.523 5.53 5.53 0 0 0 5.524 5.524 5.53 5.53 0 0 0 5.523-5.524 5.53 5.53 0 0 0-5.523-5.523Zm0 7.531a2.01 2.01 0 0 1-2.008-2.008c0-1.107.9-2.008 2.008-2.008 1.107 0 2.008.901 2.008 2.008a2.01 2.01 0 0 1-2.008 2.008Z" fill="#1F1BE8"/></svg>