<svg width="60" height="60" fill="none" xmlns="http://www.w3.org/2000/svg"><path opacity=".4" fill-rule="evenodd" clip-rule="evenodd" d="M55.898 35.39h-4.101v-5.273c0-.97-.787-1.758-1.758-1.758h-9.375c-.97 0-1.758.787-1.758 1.758v5.274h-4.101a4.106 4.106 0 0 0-4.102 4.101v16.406A4.102 4.102 0 0 0 34.805 60h21.093A4.106 4.106 0 0 0 60 55.898V39.492a4.106 4.106 0 0 0-4.102-4.101Zm-7.617 0v-3.515h-5.86v3.516h5.86Zm7.617 21.094a.587.587 0 0 0 .586-.586v-9.96h-2.93v1.757a1.758 1.758 0 0 1-3.515 0v-1.758h-9.375v1.758a1.758 1.758 0 0 1-3.516 0v-1.758h-2.93v9.961c0 .323.264.586.587.586h21.093Zm-21.68-14.062h22.266v-2.93a.587.587 0 0 0-.586-.586H34.805a.587.587 0 0 0-.586.586v2.93Z" fill="#1F1BE8"/><path fill-rule="evenodd" clip-rule="evenodd" d="M1.758 60h33.047a4.102 4.102 0 0 1-4.06-3.516H3.515V5.274c0-.97.79-1.758 1.758-1.758H42.49a5.25 5.25 0 0 0-.303 1.757V28.36h3.516V11.72h5.274c.97 0 1.757-.787 1.757-1.758V5.273A5.28 5.28 0 0 0 47.461 0H5.273A5.28 5.28 0 0 0 0 5.273v52.97C0 59.212.787 60 1.758 60ZM45.703 5.273c0-.969.789-1.757 1.758-1.757.97 0 1.758.788 1.758 1.757v2.93h-3.516v-2.93Z" fill="#1F1BE8"/><path opacity=".4" d="M35.156 30v-1.172c0-4.228-2.649-7.847-6.374-9.29a7.579 7.579 0 0 0 1.687-4.772c0-4.2-3.417-7.618-7.617-7.618s-7.618 3.418-7.618 7.618a7.58 7.58 0 0 0 1.687 4.772c-3.725 1.443-6.374 5.062-6.374 9.29V30c0 .97.787 1.758 1.758 1.758h21.093c.971 0 1.758-.787 1.758-1.758ZM22.852 10.664a4.106 4.106 0 0 1 4.101 4.102 4.106 4.106 0 0 1-4.101 4.101 4.106 4.106 0 0 1-4.102-4.101 4.106 4.106 0 0 1 4.102-4.102Zm-8.763 17.578a6.454 6.454 0 0 1 6.419-5.86h4.687a6.454 6.454 0 0 1 6.42 5.86H14.088Z" fill="#1F1BE8"/><path d="M11.133 35.273H8.789a1.758 1.758 0 0 0 0 3.516h2.344a1.758 1.758 0 0 0 0-3.516ZM25.195 35.273h-7.03a1.758 1.758 0 0 0 0 3.516h7.03a1.758 1.758 0 0 0 0-3.516ZM11.133 42.305H8.789a1.758 1.758 0 0 0 0 3.515h2.344a1.758 1.758 0 0 0 0-3.515ZM25.195 42.305h-7.03a1.758 1.758 0 1 0 0 3.515h7.03a1.758 1.758 0 0 0 0-3.515ZM11.133 49.336H8.789a1.758 1.758 0 0 0 0 3.516h2.344a1.758 1.758 0 0 0 0-3.516ZM25.195 49.336h-7.03a1.758 1.758 0 0 0 0 3.516h7.03a1.758 1.758 0 0 0 0-3.516Z" fill="#1F1BE8"/></svg>