<svg width="60" height="60" fill="none" xmlns="http://www.w3.org/2000/svg"><path opacity=".4" d="M24.155 20.184c.368.246.587.67.587 1.135v6.274a3.327 3.327 0 0 0 3.323 3.324h3.883a3.327 3.327 0 0 0 3.323-3.324V21.32c0-.462.234-.896.626-1.162a10.513 10.513 0 0 0 4.626-8.713c0-5.75-4.611-10.437-10.372-10.515A10.486 10.486 0 0 0 19.49 11.455a10.51 10.51 0 0 0 4.665 8.729Zm7.527 7.144h-3.351v-2.436h3.351v2.436Zm-1.58-22.81c3.768.05 6.833 3.158 6.833 6.926a6.929 6.929 0 0 1-3.05 5.742 4.99 4.99 0 0 0-2.202 4.118H28.33a4.938 4.938 0 0 0-2.177-4.101 6.925 6.925 0 0 1-3.075-5.752 6.9 6.9 0 0 1 7.024-6.934ZM45.607 5.954l2.796-2.795A1.794 1.794 0 1 0 45.865.62L43.07 3.416a1.795 1.795 0 0 0 2.537 2.538ZM46.102 22.064a1.794 1.794 0 1 0 2.538-2.537l-3.033-3.033a1.795 1.795 0 0 0-2.537 2.538l3.032 3.032ZM45.577 11.476c0 .99.803 1.794 1.794 1.794h3.32a1.794 1.794 0 0 0 0-3.589h-3.32c-.99 0-1.794.803-1.794 1.795ZM14.406 16.732l-2.795 2.795a1.795 1.795 0 0 0 2.537 2.538l2.795-2.795a1.794 1.794 0 1 0-2.537-2.538ZM14.406 6.19a1.795 1.795 0 0 0 2.538-2.536L13.91.62a1.794 1.794 0 1 0-2.537 2.538l3.032 3.032ZM9.322 13.005h3.32a1.794 1.794 0 1 0 0-3.59h-3.32a1.794 1.794 0 0 0 0 3.59Z" fill="#1F1BE8"/><path d="M56.287 21.519a4.193 4.193 0 0 0-4.636 3.572l-1.326 5.746a.558.558 0 0 1-.202.316l-8.253 6.391a.273.273 0 0 1-.38-.046c-.092-.117-.08-.28.056-.389l2.774-2.24a3.963 3.963 0 0 0-4.952-6.19c-7.455 5.906-8.134 6.243-9.362 8.088-1.19-1.79-1.599-1.939-9.36-8.088a3.963 3.963 0 0 0-4.952 6.19l2.773 2.24c.14.113.144.277.057.387l-.002.002a.267.267 0 0 1-.373.05L9.89 31.152a.558.558 0 0 1-.202-.315l-1.326-5.746a4.191 4.191 0 0 0-4.954-3.523c-2.355.454-3.724 2.775-3.346 4.736l1.305 6.735a10.26 10.26 0 0 0 3.738 6.12c3.43 2.691 11.93 9.294 11.93 9.294.252.2.52.566.6 1.752v7.905c0 .991.804 1.795 1.794 1.795h21.155c.991 0 1.794-.804 1.794-1.795v-7.904c.081-1.188.349-1.553.601-1.753 0 0 8.501-6.604 11.93-9.295a10.258 10.258 0 0 0 3.737-6.119l1.305-6.735a4.193 4.193 0 0 0-3.664-4.785ZM28.212 56.316h-6.988c0-6.585.002-6.192-.004-6.28-.079-1.284-.369-3.137-1.957-4.395-.319-.253-1.342-1.048-2.759-2.148a2415.801 2415.801 0 0 1-9.184-7.158 6.671 6.671 0 0 1-2.43-3.978L3.603 25.71a.606.606 0 0 1 1.209-.094c.017.145-.074-.267 1.38 6.028a4.158 4.158 0 0 0 1.5 2.346l8.721 6.754c1.827 1.438 3.865.485 5.11-1.275a3.855 3.855 0 0 0-.806-5.156l-2.768-2.236a.375.375 0 0 1 .468-.585l2.912 2.307.025.02 4.139 3.278a7.16 7.16 0 0 1 2.719 5.438v13.781Zm26.911-23.96a6.671 6.671 0 0 1-2.43 3.98 4767.43 4767.43 0 0 1-11.942 9.304c-1.589 1.259-1.878 3.112-1.958 4.397-.005.087-.004-.306-.004 6.28h-6.988V42.534a7.164 7.164 0 0 1 2.72-5.438l7.075-5.605a.374.374 0 0 1 .468.585l-2.768 2.236a3.861 3.861 0 0 0-.806 5.156c1.39 1.632 3.599 2.438 5.11 1.275l8.721-6.754a4.157 4.157 0 0 0 1.501-2.346c1.456-6.308 1.363-5.885 1.38-6.028a.606.606 0 0 1 1.208.094l-1.287 6.647Z" fill="#1F1BE8"/></svg>