<svg width="1249" height="780" fill="none" xmlns="http://www.w3.org/2000/svg"><circle cx="979" cy="372" r="270" fill="#FFE570"/><path d="m482.139 68.39-1.65 2.145 284.85 218.635-168.038 320.052-436.085-360.378 204.313-19.233 1.24.902 1.592-2.184-.965-.709-.085-.895-1.015.097L138.983 61l-1.596 2.188 224.842 164.014-207.78 19.558 443.7 366.672 170.118-324.014.531-1.007L482.139 68.39Z" fill="url(#a)"/><path d="M780 288.998a13.003 13.003 0 0 1-8.024 12.012 12.996 12.996 0 0 1-14.168-2.817A13.002 13.002 0 0 1 767 276a12.998 12.998 0 0 1 13 12.998Z" fill="#fff"/><path d="M420.041 251.694c21.825-21.822 21.825-57.203 0-79.026-21.825-21.822-57.21-21.822-79.035 0-21.825 21.823-21.825 57.204 0 79.026 21.825 21.822 57.21 21.822 79.035 0Z" fill="url(#b)"/><path d="M598.03 630.497c10.64-.134 19.157-8.867 19.023-19.505-.133-10.639-8.867-19.154-19.507-19.021-10.64.134-19.156 8.867-19.023 19.505.134 10.639 8.868 19.154 19.507 19.021Z" fill="#E81B65"/><path d="M185.158 247.802a27.322 27.322 0 0 1-16.867 25.247 27.325 27.325 0 1 1 8.862-44.565 27.32 27.32 0 0 1 8.005 19.318Z" fill="#2348FF"/><path d="M244.518 342.822a55.78 55.78 0 0 0 12.531 9.295l-.523 10.984 11.585 2.909 11.582 2.912 4.733-9.922a56.001 56.001 0 0 0 15.444-2.27l7.386 8.133 10.254-6.131 10.253-6.13-3.669-10.357a55.914 55.914 0 0 0 9.297-12.529l10.985.523 2.909-11.584 2.913-11.58-9.924-4.733a55.837 55.837 0 0 0-2.27-15.442l8.134-7.386-6.131-10.252-6.132-10.247-10.358 3.667a55.859 55.859 0 0 0-12.53-9.295l.523-10.984-11.586-2.912-11.582-2.909-4.737 9.938a55.844 55.844 0 0 0-15.443 2.27l-7.387-8.133-10.249 6.13-10.253 6.131 3.668 10.353a55.956 55.956 0 0 0-9.296 12.533l-10.985-.523-2.909 11.58-2.917 11.557 9.924 4.733a55.837 55.837 0 0 0 2.27 15.442l-8.135 7.386 6.132 10.248 6.132 10.251 10.361-3.656Zm18.012-75.984a41.858 41.858 0 0 1 46.445 2.324 41.848 41.848 0 0 1 15.628 43.793 41.846 41.846 0 0 1-34.484 31.197 41.861 41.861 0 0 1-42.022-19.916 41.846 41.846 0 0 1 14.433-57.398Z" fill="url(#c)"/><path d="M483.638 442.06h-56.603v4.365h56.603v-4.365ZM469.391 451.336h-42.356v4.365h42.356v-4.365Z" fill="#BDC1C9"/><path d="M644.483 398.88h.027c-.112.05-.132.054-.027 0Z" fill="#323657"/><path d="M541.869 441.921h-31.213v4.364h31.213v-4.364ZM556.987 451.196h-46.331v4.365h46.331v-4.365Z" fill="#BDC1C9"/><path opacity=".32" d="M671.146 187.05H389.585a6.585 6.585 0 0 0-6.585 6.585v256.682a6.585 6.585 0 0 0 6.585 6.584h281.561a6.585 6.585 0 0 0 6.585-6.584V193.635a6.585 6.585 0 0 0-6.585-6.585Z" fill="url(#d)"/><path d="m642.615 281.397-.251-1.557-37.972 6.216-12.31 26.235-40.938 2.777-13.259 19.559-31.297-.778-.039 1.576 32.157.802 13.313-19.637 41.098-2.792 12.352-26.321 37.146-6.08Z" fill="#4AAFFF"/><path d="M592.604 237.454h48.139c.589 0 1.066-.477 1.066-1.065v-7.224c0-.588-.477-1.065-1.066-1.065h-48.139c-.588 0-1.065.477-1.065 1.065v7.224c0 .588.477 1.065 1.065 1.065Z" fill="#1487E3"/><path d="M592.604 253.771h48.139c.589 0 1.066-.477 1.066-1.066v-7.223c0-.588-.477-1.065-1.066-1.065h-48.139c-.588 0-1.065.477-1.065 1.065v7.223c0 .589.477 1.066 1.065 1.066ZM592.604 270.087h48.139c.589 0 1.066-.476 1.066-1.065v-7.223c0-.588-.477-1.065-1.066-1.065h-48.139c-.588 0-1.065.477-1.065 1.065v7.223c0 .589.477 1.065 1.065 1.065Z" fill="#fff"/><path d="M562.654 228.1h-153.04c-.982 0-1.778.796-1.778 1.778v18.904c0 .982.796 1.778 1.778 1.778h153.04c.982 0 1.778-.796 1.778-1.778v-18.904c0-.982-.796-1.778-1.778-1.778Z" fill="#1487E3"/><path d="M562.654 260.324h-153.04c-.982 0-1.778.796-1.778 1.777v18.904c0 .982.796 1.778 1.778 1.778h153.04c.982 0 1.778-.796 1.778-1.778v-18.904c0-.981-.796-1.777-1.778-1.777ZM651.652 375.646a39.415 39.415 0 0 0-25.794-15.851 39.401 39.401 0 0 0-44.383 48.437 39.392 39.392 0 0 0 6.594 13.956 41.559 41.559 0 0 0 1.627 2.079 39.402 39.402 0 0 0 69.413-19.886 39.396 39.396 0 0 0-7.438-28.735h-.019Zm-14.332 47.103a29.522 29.522 0 0 1-40.067-4.825 35.807 35.807 0 0 1-1.22-1.55 29.537 29.537 0 0 1-1.425-32.789 29.538 29.538 0 0 1 29.753-13.861 29.54 29.54 0 0 1 24.192 22.182 29.535 29.535 0 0 1-11.241 30.835l.008.008Z" fill="#fff"/><path opacity=".18" d="M600.478 373.822h-50.757v8.063h50.757v-8.063Z" fill="url(#e)"/><path opacity=".18" d="M611.192 358.775h-61.471v8.064h61.471v-8.064Z" fill="url(#f)"/><path d="M638.492 490.883H404.361l-5.81-5.806h-14.506v-1.297h15.041l5.81 5.809h233.596v1.294Z" fill="url(#g)"/><path opacity=".18" d="M414.939 165.648h34.276v-6.208h-34.276v6.208Z" fill="url(#h)"/><path opacity=".18" d="M414.939 157.709h34.276v-1.17h-34.276v1.17Z" fill="url(#i)"/><path d="M413.068 618.56h41.422V492.761h-41.422V618.56Z" fill="#4DA8F2"/><path d="M259.56 553.362h348.444a4.617 4.617 0 0 0 4.617-4.617V305.684a4.617 4.617 0 0 0-4.617-4.617H259.56a4.617 4.617 0 0 0-4.617 4.617v243.061a4.617 4.617 0 0 0 4.617 4.617Z" fill="#4DA8F2"/><path d="M599.341 313.422H267.588v194.076h331.753V313.422Z" fill="url(#j)"/><path d="M526.955 613.816H340.604v9.496h186.351v-9.496Z" fill="#4DA8F2"/><path d="M281.939 486.77c.056.027.063.031 0 0Z" fill="#323657"/><path d="m234.575 93.537 112.965.267-.194 81.871-.039 17.247-17.205-17.285-95.721-.229.194-81.871Z" fill="#1487E3"/><path d="M282.332 137.875a8.622 8.622 0 0 0 10.304 8.464 8.624 8.624 0 0 0-1.67-17.085 8.605 8.605 0 0 0-3.303.653 8.592 8.592 0 0 0-2.801 1.868 8.61 8.61 0 0 0-2.53 6.1ZM253.992 137.848a8.632 8.632 0 0 0 10.304 8.477 8.629 8.629 0 1 0-4.969-16.442 8.627 8.627 0 0 0-5.335 7.965ZM310.016 137.898a8.622 8.622 0 0 0 5.317 7.98 8.633 8.633 0 0 0 11.775-6.276 8.622 8.622 0 0 0-3.661-8.862 8.63 8.63 0 0 0-13.431 7.158Z" fill="#fff"/><path d="M564.535 641.817H301.221l-18.832 70.377h300.978l-18.832-70.377Z" fill="#FFE570"/><path d="M303.294 660.508h17.229c.72 0 1.263.562 1.127 1.162l-1.666 7.495a1.119 1.119 0 0 1-1.131.794H301.33c-.736 0-1.282-.581-1.12-1.193l1.964-7.495a1.127 1.127 0 0 1 1.12-.763ZM328.425 660.508h13.022l-1.731 9.454h-13.275l1.984-9.454ZM347.963 660.508h13.022l-1.363 9.454-13.274.012 1.615-9.466ZM367.497 660.508h13.027l-.992 9.454h-13.27l1.235-9.454ZM387.034 660.508h13.026l-.62 9.454h-13.274l.868-9.454ZM406.572 660.508h13.026l-.248 9.454-13.274.012.496-9.466ZM562.913 660.508h-19.538l2.103 9.454h19.91l-2.475-9.454ZM536.862 660.508h-13.026l1.735 9.454h13.271l-1.98-9.454ZM517.325 660.508h-13.026l1.363 9.454 13.275.012-1.612-9.466ZM497.788 660.508h-13.026l.991 9.454h13.275l-1.24-9.454ZM478.251 660.508h-13.022l.619 9.454h13.271l-.868-9.454ZM458.712 660.508h-13.023l.248 9.454 13.271.012-.496-9.466ZM426.109 660.508h13.023l.217 9.454h-13.24v-9.454ZM297.565 677.007h27.214l-1.549 9.749h-27.734l2.069-9.749ZM567.16 677.007h-33.644l1.917 9.749h34.28l-2.553-9.749ZM526.788 677.007h-13.456l1.534 9.749h13.712l-1.79-9.749ZM506.605 677.007h-13.457l1.151 9.749h13.712l-1.406-9.749ZM486.419 677.007h-13.456l.767 9.749h13.712l-1.023-9.749ZM466.236 677.007h-13.457l.384 9.749h13.712l-.639-9.749ZM293.498 694.389h27.827l-2.034 9.687h-28.33l2.537-9.687ZM328.283 694.389h13.909l-1.65 9.687h-14.165l1.906-9.687ZM349.147 694.389h104.336l.387 9.687H347.625l1.522-9.687ZM460.443 694.389h13.914l.763 9.687h-14.169l-.508-9.687ZM481.314 694.389h13.914l1.139 9.687h-14.166l-.887-9.687ZM502.18 694.389h13.913l1.522 9.687H503.45l-1.27-9.687ZM523.051 694.389h13.913l1.902 9.687h-14.165l-1.65-9.687ZM543.916 694.389h27.827l2.537 9.687h-28.33l-2.034-9.687ZM446.076 677.007h-13.347v9.749h13.603l-.256-9.749ZM425.893 677.007h-13.457l-.383 9.749h13.712l.128-9.749ZM405.708 677.007h-13.457l-.767 9.749h13.712l.512-9.749ZM385.523 677.007h-13.457l-1.15 9.749h13.712l.895-9.749ZM365.336 677.007H351.88l-1.53 9.749h13.712l1.274-9.749ZM345.151 677.007h-13.456l-1.914 9.749h13.712l1.658-9.749ZM303.934 654.567l2.207-8.439h6.326l-2.065 8.439h-6.468ZM318.792 646.128h12.647l-1.771 8.439h-12.867l1.991-8.439ZM337.763 646.128h12.647l-1.437 8.439h-12.871l1.661-8.439ZM356.733 646.128h12.651l-1.108 8.439h-12.868l1.325-8.439ZM375.704 646.128h12.651l-.774 8.439h-12.868l.991-8.439ZM394.676 646.128h12.647l-.442 8.439h-12.867l.662-8.439ZM413.65 646.128h12.646l-.108 8.439H413.32l.33-8.439ZM432.621 646.128h12.647l.221 8.439h-12.868v-8.439ZM451.594 646.128h12.647l.553 8.439h-12.867l-.333-8.439ZM470.564 646.128h12.647l.887 8.439h-12.871l-.663-8.439ZM489.537 646.128h12.647l1.216 8.439h-12.867l-.996-8.439ZM508.51 646.128h12.647l1.549 8.439h-12.872l-1.324-8.439ZM527.479 646.128h12.65l1.879 8.439H529.14l-1.661-8.439ZM546.449 646.128H559.1l2.212 8.439H548.44l-1.991-8.439Z" fill="#fff"/><path d="M583.367 712.193H282.389v4.152h300.978v-4.152Z" fill="#FF8159"/><path d="M428.702 143.909s-55.991-4.647-54.461 54.222c1.53 58.87 10.869 67.754-.031 109.373-10.9 41.62 54.593-23.625 54.593-23.625l-.101-139.97Z" fill="#434343"/><path d="M475.803 303.066s79.313 49.481 86.025 44.218c9.382-7.359 34.861-70.14 34.861-70.14l19.964 9.5s-23.806 108.549-55.882 100.559c-32.076-7.99-105.707-53.54-105.707-53.54l20.739-30.597Z" fill="#EEA987"/><path d="M622.041 281.803s-9.467 12.301-15.3 13.602c-5.834 1.302-11.915-14.245-11.915-14.245l3.176-10.844 24.039 11.487Z" fill="#EEA886"/><path d="M598.668 277.69s-4.532-14.187-5.156-16.375c-.623-2.188 1.596-8.61 5.617-14.717 3.908-5.941 8.827-12.487 10.547-14.195.895-.891 1.391-1.894 4.342-.561 2.952 1.332 4.718 4.082 4.718 4.082s4.416-.07 6.333 3.485a6.518 6.518 0 0 1 5.675 4.516s4.051.233 4.884 3.517c0 0-1.936 6.057-2.029 8.521-.093 2.463-5.013 14.775-11.559 25.863 0-.023-9.734 8.362-23.372-4.136Z" fill="#EEA886"/><path d="M609.064 259.266s4.885 5.67 5.45 7.955c.566 2.285 14.824-6.196 14.824-6.196s-13.224-7.506-20.274-1.759Z" fill="#CF8C6C"/><path d="M608.93 233.832s-7.89 16.712-5.245 18.153c2.646 1.441 4.493.387 4.493.387l.415 8.378s3.404 5.391 8.285.104c0 0 2.661 5.368 6.759-.298 0 0 3.339 2.758 5.702.469s6.29-13.575 6.29-13.575.02-3.18-4.628-3.939c0 0-1.255-4.082-5.721-4.307 0 0-2.89-4.574-7.716-4.771 0 0-2.607-3.556-7.887-2.022a8.95 8.95 0 0 0-.747 1.421Z" fill="#DB9C7C"/><path d="M593.668 260.75s9.567-8.405 16.811-10.705c1.634-.519 3.315-.721 4.419.6 1.104 1.321.578 4.601-3.385 8.455-3.963 3.853-7.313 10.647-7.313 10.647s-5.225 2.769-10.532-8.997Z" fill="#EEA886"/><path d="M617.563 234.417s-9.614 17.758-9.506 19.795c.109 2.037-6.395-1.433-6.367-3.184.027-1.75 7.076-17.203 7.987-18.633.91-1.429 6.131-2.858 7.886 2.022Z" fill="#EEA886"/><path d="M607.673 235.742s15.564-29.048 17.857-27.971c3.327 1.549 2.44 9.574-10.691 31.243-12.763 21.062-7.166-3.272-7.166-3.272Z" fill="#EEA886"/><path d="m480.058 363.225 32.03-42.494s-57.257-44.338-74.928-16.143c0 0-1.259 46.449 42.898 58.637Z" fill="#E81B65"/><path d="M499.294 361.719c-.907 14.248-8.185 26.073-9.405 31.224-1.22 5.151 0 16.983-1.511 28.803-1.51 11.82-6.069 68.215-4.547 84.292.05.495-.015.994-.19 1.46H366.392c4.338-8.044 17.562-33.47 17.976-45.12.175-4.799 3.037-19.706-4.849-30.624-4.164-5.763-11.884-24.102-19.584-37.506-2.99-5.205-6.12-10.388-8.309-14.245a47.945 47.945 0 0 1-3.284-7.397c-.752-2.115-1.163-3.61-1.163-3.61s-2.835-35.299 1.658-55.574c1.453-6.557 3.676-11.553 7.011-13.257 13.646-6.971 20.917-8.184 34.261-8.788 13.344-.604 22.137-3.338 22.137-3.338l31.239 3.338s20.01 6.972 27.889 7.58c4.85.387 10.493 6.929 13.944 14.465 2.135 4.729 3.405 9.826 3.06 14.036-.91 10.906 11.822 20.008 10.916 34.261Z" fill="#E81B65"/><path d="M377.73 313.422c-2.015 14.865-11.392 33.378-13.995 36.162-4.261 4.555-24.86 68.525-28.195 77.615-3.335 9.09-5.566 34.892-11.384 49.664-2.247 5.712-5.911 17.463-9.8 30.635h-30.829c5.187-27.223 19.317-68.413 21.843-74.877 2.711-6.971 9.861-55.139 12.592-63.323 2.731-8.184 3.94-31.236 15.161-53.06a35.35 35.35 0 0 1 1.6-2.82c11.806-19.004 34.415-18.927 34.415-18.927 8.204 1.569 9.881 9.52 8.592 18.931Z" fill="#EEA886"/><path d="m361.021 382.958-50.541-15.914s15.494-74.544 58.664-72.549c34.64 1.6-8.123 88.463-8.123 88.463Z" fill="#E81B65"/><path d="M423.223 149.877c13.883-2.269 45.637 1.209 54.639 37.646 0 0 .023 10.097-1.503 18.203-1.526 8.106 8.135 30.403 6.438 31.759-1.697 1.355-9.107 3.671-9.107 3.671s-5.252 26.162-14.138 26.96c-8.885.798-43.212-2.293-62.598-31.879-19.387-29.585-29.772-77.184 26.269-86.36Z" fill="#EEA886"/><path d="M446.291 257.969s-.686 3.664-1.325 9.051a165.5 165.5 0 0 0-.844 9.353c-.554 9.388-.267 20.256 2.94 27.15 0 0-17.392 10.775-36.023-15.132 0 0 1.816-32.332-8.909-49.427-10.726-17.095 44.161 19.005 44.161 19.005Z" fill="#EEA886"/><path d="M477.862 187.523s-20.889 18.033-43.018 23.726c-22.129 5.693-33.839 30.535-33.839 30.535s-39.156-39.029-15.528-76.934c23.628-37.905 92.347-20.991 92.385 22.673Z" fill="#434343"/><path d="M444.946 267.02c-.326 2.754-.64 5.957-.845 9.353-19.51-9.469-30.267-22.463-30.267-22.463 11.469 8.23 31.112 13.11 31.112 13.11Z" fill="#A77860"/><path d="M430.774 212.543s-22.633 60.852-19.917 75.496c0 0-11.981-2.061-33.312 4.461 0 0 10.311-108.563 53.229-79.957Z" fill="#434343"/><path d="M403.295 290.002s7.456 45.64 35.047 40.485c27.59-5.155 6.666-38.595 6.666-38.595s-10.776-9.674-41.713-1.89Z" fill="#EEA886"/><path d="M613.886 690.861c-.387 2.649-16.307 13.803-19.444 16.034-2.518 1.79-4.706 2.607-8.522 4.04-8.649 2.273-62.912 18.462-62.912 18.462a6.672 6.672 0 0 0-.539-1.65c-2.026.81-4.11 1.333-5.423 1.747-2.018.628-18.054 1.135-21.338 1.766-3.285.632-9.847 1.642-12.5-.883-2.653-2.525 1.642-7.955 5.303-9.341 3.66-1.387 17.043-1.77 19.444-2.022 2.402-.252 5.559-1.135 7.073-.631.477.158 2.596-.461 5.264-1.387a41.19 41.19 0 0 1-.081-1.603l14.247-4.106-2.638-25.225s6.197-23.354 30.964-5.538c0 0 5.527 1.627 7.422 2.13.209.033.422.033.631 0 3.777-.286 20.014-5.193 25.882-5.193 6.314 0 8.332-.388 10.606.755 2.274 1.142 6.941 9.992 6.561 12.645Z" fill="#1E3A5E"/><path d="M588.517 730.377c-2.654 2.525-9.219 1.515-12.5.883-3.281-.631-19.317-1.138-21.339-1.766-2.022-.627-5.81-1.518-8.459-3.284a8.445 8.445 0 0 0-1.418-.624l-4.013 2.893-55.762-17.742c-3.343-.914-5.992-2.324-7.747-3.842-2.901-2.525-19.065-13.385-19.445-16.034-.379-2.649 4.296-11.487 6.566-12.626 2.27-1.139 4.295-.755 10.609-.755s24.62 5.682 26.514 5.174c.86-.228 2.642-1.138 4.334-2.06 2.022-1.104 3.912-2.231 3.912-2.231 27.115-12.103 30.136 7.699 30.136 7.699l-1.604 24.451s2.259 1.123 5.198 2.517l13.441 3.8-1.758 1.27c.775.244 1.297.356 1.518.283 1.515-.504 4.672.387 7.069.631 2.398.244 15.785.631 19.445 2.022 3.66 1.39 7.944 6.816 5.303 9.341Z" fill="#1E3A5E"/><path d="M505.856 680.594c1.867.131 14.502 7.448 17.5 9.198-4.555-2.378-21.835-7.138-21.835-7.138.86-.228 2.642-1.138 4.335-2.06ZM570.833 682.674s-21.765 5.278-25.751 7.49c.182-.132 11.473-8.707 17.4-9.853 0 0 5.81 1.84 7.719 2.343.21.033.423.033.632 0v.02Z" fill="#1E3A5E"/><path d="M588.516 730.377c-2.653 2.525-9.218 1.515-12.499.883-3.281-.631-19.317-1.138-21.339-1.766-.581-.182-1.305-.387-2.111-.623-1.995-.589-4.458-1.402-6.349-2.661a8.435 8.435 0 0 0-1.417-.624l10.071-7.281.29-.205c.775.244 1.298.356 1.519.283 1.514-.504 4.671.387 7.069.631 2.397.244 15.784.631 19.444 2.022 3.661 1.39 7.964 6.816 5.322 9.341Z" fill="#EEA886"/><path d="M588.516 730.377c-2.653 2.525-9.219 1.515-12.5.883-3.281-.631-19.317-1.138-21.339-1.766-.581-.182-1.305-.387-2.111-.623 0 0 4.416-4.369 2.324-10.566l.291-.205c.775.244 1.298.356 1.518.283 1.515-.504 4.672.387 7.069.631 2.398.244 15.785.631 19.445 2.022 3.661 1.39 7.945 6.816 5.303 9.341Z" fill="#C5CDDB"/><path d="M511.392 686.167c.014.024.02.052.015.08a.115.115 0 0 1-.039.071c-.252.175-.209.105.024-.151Z" fill="#E55353"/><path d="M584.364 656.647c-.213-.426-11.713-18.517-14.828-26.762-3.114-8.246-10.605-12.038-14.142-13.215-1.262-.422-3.509-1.162-5.88-1.936-4.26-1.379-8.936-2.878-8.936-2.878h-14.719s-5.101 1.712-10.52 3.61c-4.993 1.75-10.253 3.663-12.031 4.55-3.703 1.852-9.931 15.066-11.194 16.581-1.263 1.514-10.974 19.512-12.372 26.429-1.088 5.372 30.798 21.104 31.669 23.122 1.008-1.12 5.652-5.574 5.652-5.574s-1.488-.933-3.583-2.323c8.545.387 29.415-.345 32.409-.194.646.028 1.293.014 1.937-.043.925.674 6.902 5.953 6.902 5.953s14.719-6.115 21.506-12.963c9.594-9.686 9.187-12.211 8.13-14.357Zm-83.76 11.972c-3.153-3.788-7.499-6.081-6.406-7.746 1.092-1.666 10.353-17.677 10.353-17.677s4.8 10.523 6.148 15.992c1.348 5.468 1.239 7.974.67 9.682-.508 1.526-.918 2.564-1.375 7.111-3.777-2.599-7.925-5.627-9.39-7.362Zm65.133-1.809c-1.24 1.406-6.136 4.52-10.54 7.08-.337-3.052-.841-7.855-.899-9.582-.081-2.611 1.011-10.101 2.359-12.963 1.348-2.862 2.274-10.69 2.274-10.69s11.151 15.152 12.918 16.751c1.766 1.6-1.929 4.655-6.112 9.404Z" fill="#2348FF"/><path d="M534.97 571.391s11.519 1.812 9.765 19.834c-1.755 18.021-11.923 16.545-12.601 16.529-.677-.015-10.206.326-10.95-21.688 0 .011-.325-16.259 13.786-14.675Z" fill="#EEA886"/><path d="M544.912 586.135s1.263-1.348 1.723 0c.461 1.348-1.719 7.448-1.797 7.746 0 0-.232.527-.534.237-.302-.291.608-7.983.608-7.983ZM521.494 585.907s-1.235-1.371-1.723 0 1.549 7.479 1.65 7.765c0 0 .221.535.527.248.306-.287-.454-8.013-.454-8.013Z" fill="#EEA886"/><path d="m544.909 588.893-1.65 2.204s.047-4.834-.217-5.593c-.263-.759-.67-3.071-.89-3.617-.221-.546-9.893-3.258-18.438.774 0 0 .387 3.486-.442 3.784-.829.298-.418 5.663-.418 5.663l-1.356-1.55s-2.076-13.865-1.549-15.31c.527-1.444 2.146-10.131 19.669-4.976 0 0 5.466-1.162 6.562 2.614s-1.271 16.007-1.271 16.007Z" fill="#434343"/><path d="M518.02 704.142s-17.632-10.566-25.336-12.227c-7.279-1.573-9.932-4.296-9.932-4.296s11.574 0 19.274 5.473c5.229 3.714 15.994 11.05 15.994 11.05ZM533.688 711.508s30.669-16.104 43.192-19.593c7.174-2.003 9.932-4.296 9.932-4.296s-18.98 1.852-30.492 8.796c-5.496 3.311-22.632 15.093-22.632 15.093Z" fill="#112136"/><path d="M522.477 727.747c-2.026.81-4.11 1.333-5.423 1.747-2.018.628-18.054 1.135-21.339 1.766-3.284.632-9.846 1.642-12.499-.883-2.654-2.525 1.642-7.955 5.302-9.341 3.661-1.387 17.044-1.77 19.445-2.022 2.402-.252 5.559-1.135 7.073-.631.477.158 2.595-.461 5.264-1.387.07 1.603 2.177 10.751 2.177 10.751Z" fill="#EEA886"/><path d="m533.688 726.222 30.15-8.908-5.961-1.821s-24.097 8.718-24.189 10.729Z" fill="#1E3A5E"/><path d="m533.688 726.222 14.11-4.307-9.784 5.681-4.326-1.374Z" fill="#112136"/><path d="m523.993 690.164-.636-.387c.22.115.433.244.636.387Z" fill="#525252"/><path d="M517.042 729.483c-2.018.627-18.054 1.134-21.338 1.766-3.285.631-9.847 1.642-12.5-.883-2.653-2.526 1.642-7.956 5.303-9.342 3.66-1.387 17.043-1.77 19.444-2.022 2.402-.252 5.559-1.135 7.073-.631 0 .012-4.047 6.197 2.018 11.112Z" fill="#C5CDDB"/><path d="m507.076 687.619-4.648-26.425 60.073-1.39-3.873 26.007s-19.174 7.018-25.685 11.111c.008 0-16.439-6.758-25.867-9.303Z" fill="#494F80"/><path d="m542.008 611.546-1.476-.728c-.717-1.603-.186-8.373-.186-8.373s-14.673-3.734-14.254-.88c.418 2.855-1.263 9.489-1.263 9.489l-7.526 3.738s8.018 21.53 17.237 18.753c9.218-2.777 12.697-19.528 12.697-19.528l-5.229-2.471Z" fill="#EEA886"/><path d="M526.246 604.675s2.421 3.099 6.527 3.099c2.711 0 4.621-.744 7.309-3.366 0 0-1.162 4.965-7.294 5.422 0 .024-4.508.527-6.542-5.155Z" fill="#A77860"/><path d="m861.128 599.945-.48.033 2.754 40.697.479-.032-2.753-40.698ZM850.198 529.584l-.479.029 6.675 110.384.479-.029-6.675-110.384ZM859.894 513.571h-.48V642.34h.48V513.571Z" fill="#81A358"/><path d="m865.47 564.233-1.763 77.099.48.011 1.764-77.099-.481-.011Z" fill="#81A358"/><path d="M859.375 539.911s-13.387-11.414-9.416-22.808c3.97-11.394 23.589-5.225 17.357 15.326a14.16 14.16 0 0 1-7.941 7.482Z" fill="#71A334"/><path d="m863.461 534.167-.477-.042 1.038-12.219.636-1.817-1.197 14.078ZM856.877 534.458l-.481-.008.392-19.318.418 3.079-.329 16.247ZM854.396 531.309l-2.332-13.253.845 2.033 1.96 11.139-.473.081Z" fill="#60892C"/><path d="M850.911 558.645s-11.62-15.016-5.562-25.624c6.058-10.608 44.908-1.84 27.338 36.453-17.57 38.292-31.15 12.537-31.15 12.537l9.374-23.366Z" fill="#86BC44"/><path d="m861.074 585.992-.461-.124 10.54-39.655 1.259-2.859-11.338 42.638ZM857.744 582.22l-.48-.024 2.029-44.694.593-2.521-2.142 47.239ZM853.057 567.56l-1.991-31.96.647 2.681 1.825 29.248-.481.031Z" fill="#7BA840"/><path d="M859.653 572.146s-1.747-25.763-16.528-16.267c-14.781 9.497-18.437 46.693 16.528 57.999v-41.732Z" fill="#70A333"/><path d="m861.97 596.91-14.967-36.166-.747-3.056 16.16 39.036-.446.186Z" fill="#699331"/><path d="M864.409 599.462c-1.34-.05-3.552-1.719-6.759-5.108-2.498-2.642-5.574-6.309-9.141-10.899-6.074-7.808-9.8-13.214-9.854-13.296l-1.348-2.75c.054.078 5.515 7.956 11.581 15.756 10.071 12.974 14.018 15.763 15.537 15.817l-.016.48ZM866.648 604.319c-3.099 0-9.385-3.424-18.736-10.174-6.941-5.012-13.069-10.07-13.127-10.14l1.937.945c2.324 1.894 22.807 18.893 29.945 18.893l-.019.476ZM845.744 602.673c.368.201 2.603.569 8.371 1.549 3.214.554 11.054 1.852 14.42 1.937v.48c-3.443-.085-11.438-1.414-14.719-1.979a287.115 287.115 0 0 1-7.402-1.375c-3.265-.659-3.381-.775-3.459-.86l2.789.248Z" fill="#699331"/><path d="M864.399 628.665s-12.213-12.866-9.354-32.638c2.858-19.772 25.111-19.752 24.953-.542-.159 19.21-4.184 24.547-15.599 33.18Z" fill="#B1D045"/><path d="m865.36 627.104-.426-.112 6.096-40.423.868-2.715-6.093 40.597 11.717-33.366.089 1.228-12.251 34.791ZM864.274 627.41l-6.542-31.279-.058-2.409 6.492 30.787-1.739-38.982.708 3.986 1.581 37.769-.442.128Z" fill="#9EB24E"/><path d="m876.027 639.989-7.731 24.636h-17.279l-7.732-24.636h32.742Z" fill="url(#k)"/><path d="M876.023 639.993s-17.019 2.684-17.019 24.632h-7.988l-7.746-24.632h32.753Z" fill="url(#l)"/><path d="M757.064 543.676a31.98 31.98 0 0 0 3.63.534c1.162.035 6.608-2.428 8.343-2.192 1.735.236 13.077 5.035 13.592 5.422.515.388-.24 1.123-.24 1.123l-26.03.31.705-5.197Z" fill="#EEA886"/><path d="M700.098 596.422h-4.35v54.896h4.35v-54.896Z" fill="#918783"/><path d="M752.521 644.846c.076 1.776.354 3.538.829 5.252.577 2.072 1.739 10.093 3.219 11.232 1.48 1.138 6.259 4.097 5.558 7.153-.701 3.056-1.297 5.186-6.453 3.377-5.155-1.809-8.607-2.847-9.598-7.359-.992-4.512-3.812-8.648-3.812-8.648l-3.726 9.272-1.968-.775s2.975-10.015 2.712-10.906c-.264-.891 1.359-8.85 7.599-10.821 6.241-1.971 5.64 2.223 5.64 2.223ZM786.972 647.762a23.474 23.474 0 0 0 2.711 4.563c1.31 1.708 5.377 8.718 7.17 9.206 1.794.488 7.333 1.468 7.825 4.562.492 3.095.732 5.298-4.726 5.542-5.458.244-9.048.57-11.655-3.261-2.607-3.83-6.763-6.584-6.763-6.584v9.985h-2.119s-.976-10.399-1.549-11.131c-.574-.732-2.038-8.718 3.017-12.874 5.055-4.156 6.089-.008 6.089-.008Z" fill="#1D3B54"/><path d="M731.453 511.991s1.216-4.303 1.333-4.865c.116-.561 1.266-1.673 2.711-2.839 1.445-1.165 3.873-2.095 4.187-2.002a1.595 1.595 0 0 1 1.162.693c.313.431.509.935.57 1.464.281.149.521.366.696.632.174.267.279.573.303.89a1.64 1.64 0 0 1 .732 1.673s.875.531.674 1.36a12.51 12.51 0 0 0-1.456 1.654c-.306.538-2.855 2.711-5.621 4.399-.019 0-3.548 2.603-5.291-3.059Z" fill="#EEA886"/><path d="M688.916 519.392c1.716-2.777 4.002-4.028 11.272.995 7.27 5.024 5.558 4.044 7.298 5.636 1.739 1.591 9.366 5.577 9.366 5.577s4.45-4.427 6.584-7.572c2.41-3.544 7.434-13.017 7.434-13.017l7.045 5.248s-13.688 24.818-16.547 26.65c-2.859 1.832-11.477-1.232-15.963-3.122-4.485-1.89-9.23-4.334-11.279-4.845-2.049-.511-9.684-8.307-5.21-15.55Z" fill="#1D3B54"/><path d="M722.788 534.466s1.433-5.186-.252-9.203c0 0 .639 4.156-1.162 7.111-1.336 2.142 1.414 2.092 1.414 2.092Z" fill="#152C3D"/><path d="m777.241 592.135-11.14 25.054-2.138 4.822c-.744 1.673-1.364 3.059-1.79 4.016-2.951 6.642-10.214 21.127-10.214 21.127s-5.466.209-5.783-4.43c0 0 5.244-10.07 5.244-17.115 0-7.045.949-27.886 7.697-32.375 8.231-5.484 13.576-6.522 18.124-1.099Z" fill="#EEA886"/><path d="M717.149 564.346s1.371 1.371 2.529 1.685c1.158.313 20.564 1.793 29.527 4.748 8.963 2.955 20.878 4.849 23.094 7.378 2.215 2.529 5.907 16.449 5.81 19.086-.097 2.638 7.875 47.057 8.87 50.527.527 1.836-7.22 1.131-7.22 1.131s-11.004-26.247-13.356-31.096c-4.322-8.908-4.535-19.822-6.116-21.511-1.58-1.688-19.193-5.484-29.318-5.484s-32.796.844-35.221-.527c-2.425-1.371-17.613-11.386-11.284-24.787 6.33-13.4 32.685-1.15 32.685-1.15Z" fill="#EEA886"/><path d="m760.845 574.144-15.97 30.69s-4.838-11.464-13.278-13.439c-8.44-1.975-42.124-.914-42.124-.914s-15.459-19.551-2.219-29.822c13.239-10.271 28.694 1.611 28.694 1.611s3.192 3.462 4.737 3.54c1.546.077 13.867-.085 40.16 8.334Z" fill="#4794F2"/><path d="M796.873 661.539s-4.889 1.223-6.763 0c-1.875-1.224-8.247-12.007-10.358-12.638 0 0 2.045-4.148 7.22-1.131 0-.008 8.514 11.975 9.901 13.769ZM756.554 661.318s-4.993-.69-6.275-2.521c-1.282-1.832-3.176-14.203-4.896-15.589 0 0 3.447-3.099 7.123 1.642.016-.004 3.447 14.283 4.048 16.468ZM708.473 497.49s-.302.98-.643 2.429c-.175.743-.36 1.607-.523 2.525-.446 2.544-.705 5.519-.047 7.502 0 0-5.422 1.874-9.683-5.775 0 0 1.84-8.245-.546-13.242-2.386-4.996 11.442 6.561 11.442 6.561Z" fill="#EEA886"/><path d="M707.953 499.582c-.174.739-.484 1.959-.647 2.877-5.035-3.191-6.72-8.563-6.72-8.563a86.588 86.588 0 0 0 7.367 5.686Z" fill="#A77860"/><path d="M722.505 529.175c-1.142 5.279-4.14 5.558-3.958 9.458.182 3.9 1.348 4.233-.67 10.384a30.042 30.042 0 0 0-.922 3.644c-.027.151-.058.302-.082.449a44.377 44.377 0 0 0-.34 2.134 52.627 52.627 0 0 0-.388 3.742c-.24 3.036 1.999 5.379 1.999 5.379s-19.755 11.824-33.292 10.167c0 0 3.509-14.745 5.422-19.811 1.914-5.065 1.348-28.47-.073-33.489-2.096-7.413 2.091-18.525 7.824-19.973l8.882 4.117s8.948 10.681 10.954 12.296c2.007 1.616 5.799 6.155 4.644 11.503Z" fill="#1D3B54"/><path d="M693.141 507.537c2.51-2.088 6.139-5.663 11.434 1.41 5.295 7.072 9.149 11.618 10.292 13.691 1.143 2.072 11.097 16.433 11.097 16.433s9.746 1.042 13.526 1.452c4.772.519 21.692 2.161 21.692 2.161l.472 7.185s-29.825.155-33.118.987c-3.292.833-12.515-7.467-16.168-10.685-3.652-3.219-13.905-14.927-15.683-16.058-1.778-1.131-10.087-11.131-3.544-16.576Z" fill="#1D3B54"/><path d="m766.102 617.189-2.138 4.822c-2.394-7.684-2.196-20.527-2.196-20.527a73.007 73.007 0 0 0 4.334 15.705Z" fill="#A77860"/><path d="M731.6 590.477h-68.412v7.529H731.6v-7.529Z" fill="url(#m)"/><path d="M698.785 566.468s-1.723 6.972 6.396 8.56c8.118 1.587 18.108 3.609 18.108 16.134h-28.164l3.66-24.694Z" fill="url(#n)"/><path d="M663.204 598.006 639.27 497.49s43.239-6.754 48.391 12.661c5.151 19.415 13.622 77.073 23.926 80.647 10.303 3.575-48.383 7.208-48.383 7.208Z" fill="url(#o)"/><path d="M718.8 545.662s-.438 1.844-.911 3.37l-10.528-13.641 11.439 10.271Z" fill="#152C3D"/><path d="M707.426 505.984v-2.177l-9.23-4.493-3.192 3.688 12.422 2.982Z" fill="#1D3B54"/><path d="M740.15 665.489a3.574 3.574 0 0 1-2.206 3.309 3.583 3.583 0 0 1-4.883-2.605 3.582 3.582 0 0 1 1.521-3.675 3.577 3.577 0 0 1 5.568 2.971Z" fill="#BFB2AC"/><path d="m659.613 661.945.903 2.549 38.269-11.856-1.832-5.158-37.34 14.465Z" fill="#918783"/><path d="m736.575 661.945-.907 2.549-38.27-11.856 1.682-5.484 37.495 14.791Z" fill="#918783"/><path d="M709.608 664.223v2.962l-12.21-14.547 1.682-5.484 10.528 17.069Z" fill="#918783"/><path d="M709.914 665.489a3.582 3.582 0 0 1-2.207 3.309 3.58 3.58 0 1 1 2.207-3.309ZM663.203 665.489a3.574 3.574 0 0 1-2.207 3.309 3.58 3.58 0 1 1 2.207-3.309Z" fill="#BFB2AC"/><path d="m743.09 496.882 2.231 9.373 1.372 5.759-6.578 2.63-2.974-5.116-4.846-8.327 10.795-4.319Z" fill="#FFD1A1"/><path d="m745.321 506.255 1.372 5.759-6.578 2.63-2.974-5.117 8.18-3.272ZM741.818 494.905l-9.992 3.994.787 1.967 9.991-3.994-.786-1.967ZM744.112 499.23l-11.243 4.472.621 1.56 11.243-4.472-.621-1.56Z" fill="#B37952"/><path d="M732.836 507.173s2.378-2.15 4.195-2.758c.411-.135.833-.193 1.115.136.283.329.163 1.162-.821 2.141a11.743 11.743 0 0 0-1.801 2.712s-1.309.716-2.688-2.231Z" fill="#EEA886"/><path d="M702.906 467.788c-4.075.907-1.646 11.135-4.377 25.434-2.731 14.299-11.349 16.538-11.349 16.538s3.827-6.344 3.408-12.971c-.325-5.182-6.585-19.314-.387-28.555 4.795-7.138 13.239-.655 13.239-.655l-.534.209Z" fill="#323657"/><path d="M709.684 468.621c3.665.244 11.539 3.009 11.671 12.816a30.475 30.475 0 0 1-1.46 4.547c-.872 1.971.267 8.218-.248 8.458-.515.24-2.533.387-2.533.387s-2.89 6.348-5.198 6.023c-2.309-.325-10.846-3.145-14.038-11.82-3.192-8.676-3.006-21.403 11.806-20.411Z" fill="#EEA886"/><path d="M721.351 481.437s-6.387 3.35-12.352 3.485c-5.965.136-10.846 9.702-10.846 9.702s-7.228-16.212 1.05-24.435c8.277-8.222 24.724.144 22.148 11.248Z" fill="#323657"/><path d="M707.601 484.868c.1-1.142-.969-2.994-3.01-1.658-2.041 1.337-.163 7.038 1.425 6.681 1.589-.356 1.484-3.845 1.585-5.023Z" fill="#EEA886"/><path d="M761.461 552.27v2.258h107.701v-2.258c0-2.103-1.418-3.811-3.164-3.811H764.622c-1.747 0-3.161 1.704-3.161 3.811Z" fill="#D6985E"/><path d="M863.055 664.687h-32.537v-4.411a.774.774 0 0 1 .774-.775h31.763v5.206-.02Z" fill="#807066"/><path d="M856.691 664.691h4.299V554.532h-4.299v110.159ZM848.048 664.691h4.3V554.532h-4.3v110.159Z" fill="#807066"/><path d="M820.059 485.097h-2.534v56.1h2.534v-56.1Z" fill="#6E6760"/><path d="M823.731 548.459h18.941v-1.162h-18.941c-.984 0-1.697-.232-2.111-.697a1.837 1.837 0 0 1-.419-1.317v-24.539h-1.162v24.446a3.02 3.02 0 0 0 .698 2.161c.654.74 1.665 1.108 2.994 1.108Z" fill="#918880"/><path d="M817.912 548.459h-21.304v-1.549a.457.457 0 0 1 .457-.457h20.863v2.01l-.016-.004Z" fill="#6E6760"/><path d="M807.156 554.528h62.007v-2.258c0-2.103-1.461-3.811-3.254-3.811h-49.042l-9.711 6.069Z" fill="#BC8551"/><path d="M186.2 477.769s2.712-4.725-1.58-17.394c-4.145-12.254-18.488-11.142-23.047-3.292-4.559 7.851-3.017 12.723 3.691 21.588 6.709 8.866 18.151 3.149 20.936-.902ZM152.888 695.729s-.713 5.202-.798 5.984c-.085.783-7.898-.461-7.898-.461l-.631-6.196s8.347-.043 9.327.673Z" fill="#EEA886"/><path d="M152.171 701.051s2.475 3.137 4.865 4.504c2.39 1.367 6.151 1.906 7.565 3.319 1.023 1.023 3.722 5.423-6.198 5.33-9.919-.093-14.719.619-15.792-1.065-1.073-1.685 1.55-12.441 1.55-12.441s2.405.686 8.01.353Z" fill="#152B3D"/><path d="M206.939 695.729s-.709 5.202-.798 5.984c-.089.783-7.894-.461-7.894-.461l-.632-6.196s8.351-.043 9.324.673Z" fill="#EEA886"/><path d="M206.226 701.051s2.471 3.137 4.865 4.504c2.394 1.367 11.195 2.487 12.612 3.9 1.019 1.023 2.712 5.132-11.264 4.749-9.931-.275-14.719.619-15.788-1.065-1.069-1.685 1.549-12.441 1.549-12.441 2.658.379 5.346.497 8.026.353Z" fill="#152B3D"/><path d="M155.514 566.182s-4.001 12.44-3.486 23.156c.515 10.717-2.068 22.464-3.13 33.641-1.185 12.483-6.027 42.034-6.197 48.711-.171 6.677.751 27.994.751 27.994l9.684.236s8.134-51.662 10.253-56.933c2.119-5.271 12.581-42.862 12.922-47.065.341-4.202-20.797-29.74-20.797-29.74Z" fill="#1D3B54"/><path d="M195.712 564.88s5.884 32.886 6.585 39.443c.701 6.557 1.162 31.758 1.526 35.844.364 4.086 2.324 53.653 4.215 59.745h-10.811s-11.101-36.019-11.101-53.06c0-17.041-7.36-37.053-12.093-48.3-4.734-11.247-15.607-11.51-18.523-32.374.004.004 36.251-7.909 40.202-1.298Z" fill="#1D3B54"/><path d="M182.279 481.115s-1.22 3.548 0 6.081c1.22 2.533-15.579 1.011-15.579 1.011s.775-5.233-1.437-9.536 17.016 2.444 17.016 2.444Z" fill="#EEA886"/><path d="M154.736 568.893s6.043 6.197 41.516-.968l-.538-3.037-40.319 1.518-.659 2.487Z" fill="#1D3B54"/><path d="M184.833 488.017s6.197.635 7.979.972c1.782.337 13.704-2.134 16.152-2.39 2.448-.255 12.887-7.401 13.224-8.245.337-.845 6.353-16.069 6.69-19.365.337-3.296 5.856-1.592 5.384.678-.887 4.26-2.022 14.543-2.646 17.529-.674 3.222-2.475 10.523-3.486 11.421-1.011.899-10.412 8.048-19.611 11.089a78.14 78.14 0 0 0-16.129 7.509h-45.362s-17.64-25.209-18.02-29.008c-.379-3.8 12.322-29.048 14.851-32.208 2.53-3.161 6.198 1.034 6.198 1.034s-7.588 22.262-8.603 25.426c-1.015 3.164 8.827 17.072 11.527 17.115 2.7.042 9.641-.844 12.721-.968 3.079-.124 6.333-1.48 6.333-1.48l12.798.891Z" fill="#EEA886"/><path d="M204.366 504.849s-5.551 3.691-6.059 10.019c-.507 6.329-2.533 16.333-3.544 19.753-1.011 3.42.883 28.234 1.139 30.004.256 1.77-35.093 5.983-40.52 1.774 0 0-1.519-23.169-2.154-29.753s-3.672-22.537-4.683-24.69c-1.011-2.153-13.293-19.365-13.801-21.646 0 0 6.353-10.132 10.912-10.256 0 0 7.239 8.482 9.602 8.861 2.363.38 16.826-2.269 16.83-2.292.004-.024 1.577 2.149 9.974-.388 0 0 9.998 1.127 11.621 1.336 1.967.252 15.66-1.719 15.66-1.719s5.492 9.276 4.528 13.943l-9.505 5.054Z" fill="url(#p)"/><path d="M228.549 460.972s1.24-5.868-.252-7.553c-.852-.956-2.893-3.485-3.079-3.873-.186-.387-2.378-1.634-2.378-2.238 0-.604 2.146-1.356 4.009.387 1.863 1.743 3.033 2.099 3.78 1.913.748-.185 1.817-6.39 1.91-7.928.093-1.537.689-5.596 1.65-5.317.961.279.918 2.052.918 2.052s1.119-3.098 1.863-2.474c.744.623.655 2.099.655 2.099s1.398-1.724 1.774-.465c.22.777.22 1.601 0 2.378 0 0 1.445-.775 1.549 1.162.105 1.936-.418 7.696-1.445 9.748-1.026 2.053-4.869 7.417-5.326 9.516-.457 2.099-5.628.593-5.628.593ZM148.809 450.67s4.218-7.092 5.651-7.746c1.433-.655 3.463-.992 5.237-2.258 1.774-1.267 4.114-2.324 3.99-2.742-.124-.419-2.22-.252-4.455.716s-3.218.504-3.432 0c-.213-.503 1.193-4.082 1.871-4.926.678-.845 5.485-5.682 4.683-6.402-.801-.721-3.923 1.936-4.431 2.49 0 0 2.491-5.233 1.518-5.484-.972-.252-2.785 1.603-2.785 1.603s.213-4.473-4.601 2.785c0 0 1.015-2.405-.465-1.604-1.48.802-2.909 5.318-3.374 7.595-.465 2.278-2.572 9.54-4.369 11.29-1.797 1.751 4.962 4.683 4.962 4.683Z" fill="#EEA886"/><path d="M165.264 478.671s2.227.194 6.952-1.437c4.726-1.63 5.078-9.895 6.101-8.907 2.088 1.998 4.056.619 4.846-.562 0 0-2.324-3.04-1.24-4.5a11.335 11.335 0 0 1 2.812-2.533s-3.327-16.023-18.457-8.722c-17.728 8.54-1.014 26.661-1.014 26.661Z" fill="#353A3D"/><path d="m182.28 487.196-.534-2.324s-9.657-.198-14.925.565l-.553 2.77s6.743 3.086 16.012-1.011Z" fill="url(#q)"/><path d="M179.898 466.289c-.875-1.456-4.121-2.44-4.501 1.689-.294 3.199 5.81 6.696 5.853 3.714.042-2.982-.767-4.411-1.352-5.403Z" fill="#EEA886"/><path d="M228.777 459.639s3.487.086 5.175 1.616a3.443 3.443 0 0 1-.282 1.731s-3.018-1.41-5.334-1.673c0 0 .039-1.267.441-1.674Z" fill="#E55353"/><path d="M232.886 460.507a1.501 1.501 0 0 1-1.079 2.051 1.5 1.5 0 1 1 1.079-2.051Z" fill="#353A3D"/><path d="M437.353 211.9c-.05 7.784-5.112 14.062-11.302 14.024-6.19-.039-11.167-6.387-11.117-14.172.05-7.784 5.113-14.062 11.303-14.024 6.189.039 11.167 6.387 11.116 14.172Z" fill="#807066"/><path d="M456.861 248.399c-25.511-10.581-33.85-34.931-34.191-35.965l2.758-.918c.081.24 8.297 24.141 32.537 34.195l-1.104 2.688Z" fill="#807066"/><path d="M462.426 249.499a4.374 4.374 0 0 1-6.059 3.013 4.378 4.378 0 0 1 .239-8.084 4.375 4.375 0 0 1 5.264 1.769c.616.983.816 2.171.556 3.302Z" fill="#807066"/><path d="M52.902 554.5c1.155-2 4.041-2 5.196 0l29.878 51.75c1.155 2-.289 4.5-2.598 4.5H25.622c-2.31 0-3.753-2.5-2.598-4.5l29.878-51.75Z" fill="#FF8159"/><path d="M398.699 140.499a1 1 0 0 0-1.732 0l-16.31 28.239a1 1 0 0 0 .866 1.501h32.62a1 1 0 0 0 .865-1.501l-16.309-28.239Z" fill="#2348FF"/><circle cx="755" cy="432" r="22" fill="#2348FF"/><path d="M745.637 56.498c1.155-2 4.041-2 5.196 0l46.968 81.322c1.155 2-.289 4.5-2.598 4.5h-93.936c-2.31 0-3.753-2.5-2.598-4.5l46.968-81.322Z" fill="#E81B65"/><path d="m722 178.312.071.077c2.901 3.122 7.854 3.087 10.71-.077v0c2.842-3.148 7.784-3.148 10.626 0v0c2.843 3.149 7.785 3.149 10.627 0v0c2.843-3.148 7.784-3.148 10.627 0v0c2.855 3.164 7.809 3.199 10.71.077l.07-.077" stroke="#FF8159" stroke-width="8" stroke-linecap="round"/><defs><linearGradient id="i" x1="414.935" y1="157.124" x2="449.211" y2="157.124" gradientUnits="userSpaceOnUse"><stop stop-color="#D5E4FF"/><stop offset="1" stop-color="#EDFFFE"/></linearGradient><linearGradient id="a" x1="612.93" y1="606.84" x2="331.304" y2="-24.753" gradientUnits="userSpaceOnUse"><stop stop-color="#D9D9D9"/><stop offset="1" stop-color="#fff"/></linearGradient><linearGradient id="c" x1="222.868" y1="328.421" x2="345.092" y2="277.138" gradientUnits="userSpaceOnUse"><stop stop-color="#40D5E6"/><stop offset="1" stop-color="#57F"/></linearGradient><linearGradient id="d" x1="530.365" y1="373.915" x2="530.365" y2="828.151" gradientUnits="userSpaceOnUse"><stop stop-color="#40A9E6"/><stop offset="1" stop-color="#1FA9FF"/></linearGradient><linearGradient id="e" x1="549.721" y1="377.853" x2="600.478" y2="377.853" gradientUnits="userSpaceOnUse"><stop stop-color="#D5E4FF"/><stop offset="1" stop-color="#EDFFFE"/></linearGradient><linearGradient id="f" x1="549.721" y1="362.807" x2="611.192" y2="362.807" gradientUnits="userSpaceOnUse"><stop stop-color="#D5E4FF"/><stop offset="1" stop-color="#EDFFFE"/></linearGradient><linearGradient id="g" x1="384.045" y1="487.331" x2="638.492" y2="487.331" gradientUnits="userSpaceOnUse"><stop stop-color="#D5E4FF"/><stop offset=".82" stop-color="#E9FAFE"/><stop offset="1" stop-color="#EDFFFE"/></linearGradient><linearGradient id="h" x1="414.935" y1="162.546" x2="449.211" y2="162.546" gradientUnits="userSpaceOnUse"><stop stop-color="#D5E4FF"/><stop offset="1" stop-color="#EDFFFE"/></linearGradient><linearGradient id="b" x1="404.556" y1="277.648" x2="374.175" y2="194.876" gradientUnits="userSpaceOnUse"><stop stop-color="#D9D9D9"/><stop offset="1" stop-color="#fff"/></linearGradient><linearGradient id="j" x1="267.588" y1="410.46" x2="599.341" y2="410.46" gradientUnits="userSpaceOnUse"><stop stop-color="#404B61"/><stop offset=".49" stop-color="#3C4860"/><stop offset="1" stop-color="#2F3E5C"/></linearGradient><linearGradient id="k" x1="843.285" y1="652.309" x2="876.027" y2="652.309" gradientUnits="userSpaceOnUse"><stop stop-color="#BAD0DE"/><stop offset="1" stop-color="#F5F2FF"/></linearGradient><linearGradient id="l" x1="843.285" y1="652.309" x2="876.023" y2="652.309" gradientUnits="userSpaceOnUse"><stop stop-color="#9FA0AD"/><stop offset=".99" stop-color="#55B5FF"/></linearGradient><linearGradient id="m" x1="694.806" y1="609.641" x2="715.993" y2="483.542" gradientUnits="userSpaceOnUse"><stop stop-color="#C4E4FF"/><stop offset="1" stop-color="#CDC9FF"/></linearGradient><linearGradient id="n" x1="705.548" y1="611.445" x2="726.739" y2="485.351" gradientUnits="userSpaceOnUse"><stop stop-color="#C4E4FF"/><stop offset="1" stop-color="#CDC9FF"/></linearGradient><linearGradient id="o" x1="665.919" y1="604.788" x2="687.11" y2="478.69" gradientUnits="userSpaceOnUse"><stop stop-color="#C4E4FF"/><stop offset="1" stop-color="#CDC9FF"/></linearGradient><linearGradient id="p" x1="134.744" y1="524.14" x2="213.987" y2="524.14" gradientUnits="userSpaceOnUse"><stop stop-color="#FFE9D9"/><stop offset="1" stop-color="#D9D3CA"/></linearGradient><linearGradient id="q" x1="166.268" y1="487.087" x2="182.28" y2="487.087" gradientUnits="userSpaceOnUse"><stop stop-color="#FFE9D9"/><stop offset="1" stop-color="#D9D3CA"/></linearGradient></defs></svg>