<svg width="730" height="662" fill="none" xmlns="http://www.w3.org/2000/svg"><g clip-path="url(#a)"><path d="M112.964 232.105a10.818 10.818 0 0 1-2.789-.377l-15.828-4.331a10.487 10.487 0 0 1-7.33-12.864l5.276-19.323a88.146 88.146 0 0 1-25.476-19.7l-17.41 9.925a10.499 10.499 0 0 1-14.284-3.898l-8.14-14.257a10.49 10.49 0 0 1 .805-11.681 10.488 10.488 0 0 1 3.114-2.689l17.411-9.926a88.019 88.019 0 0 1-4.05-32.017l-19.334-5.141a10.486 10.486 0 0 1-7.33-12.863l4.334-15.82a10.492 10.492 0 0 1 4.922-6.32 10.5 10.5 0 0 1 7.948-1.007l19.333 5.292a87.939 87.939 0 0 1 19.766-25.482l-9.93-17.402a10.373 10.373 0 0 1-1.017-7.947 10.49 10.49 0 0 1 4.955-6.404l14.227-8.098a10.481 10.481 0 0 1 14.283 3.898l9.93 17.402a87.68 87.68 0 0 1 32.033-4.03l5.295-19.323A10.474 10.474 0 0 1 156.473.358l15.828 4.332a10.476 10.476 0 0 1 7.636 8.786c.173 1.365.076 2.75-.287 4.077l-5.276 19.323a87.989 87.989 0 0 1 25.438 19.757l17.411-9.926a10.481 10.481 0 0 1 14.283 3.918l8.121 14.238a10.484 10.484 0 0 1-3.9 14.276l-17.411 9.925a88.488 88.488 0 0 1 4.032 32.017l19.333 5.292a10.495 10.495 0 0 1 6.334 4.914 10.483 10.483 0 0 1 1.015 7.95l-4.334 15.82a10.495 10.495 0 0 1-12.851 7.27l-19.333-5.293a87.94 87.94 0 0 1-19.766 25.482l9.93 17.402a10.468 10.468 0 0 1-3.919 14.276l-14.246 8.117a10.43 10.43 0 0 1-7.952 1.02 10.438 10.438 0 0 1-6.331-4.918l-9.93-17.402a87.736 87.736 0 0 1-32.033 4.03l-5.22 19.436a10.472 10.472 0 0 1-10.081 7.703v-.075ZM68.061 168.24l1.526 1.884a82.467 82.467 0 0 0 27.285 21.15l2.11 1.017-6.576 23.73a4.82 4.82 0 0 0 .471 3.767 4.727 4.727 0 0 0 2.902 2.26l15.828 4.332a4.841 4.841 0 0 0 5.936-3.39l6.52-23.825 2.336.207a82.646 82.646 0 0 0 34.257-4.332l2.223-.772 12.23 21.452a4.742 4.742 0 0 0 2.92 2.26 4.671 4.671 0 0 0 3.656-.452l14.264-8.136a4.793 4.793 0 0 0 2.316-2.883 4.79 4.79 0 0 0-.432-3.671l-12.229-21.471 1.79-1.506a82.662 82.662 0 0 0 21.161-27.271l1.018-2.11 23.836 6.517a4.825 4.825 0 0 0 5.917-3.372l4.334-15.82a4.806 4.806 0 0 0-.449-3.669 4.81 4.81 0 0 0-2.924-2.263l-23.837-6.517.189-2.335a82.544 82.544 0 0 0-4.315-34.24l-.773-2.222 21.462-12.223a4.84 4.84 0 0 0 1.885-6.573l-8.141-14.257a4.817 4.817 0 0 0-2.92-2.26 4.77 4.77 0 0 0-3.656.471L198.719 63.94l-1.507-1.79A83.095 83.095 0 0 0 169.927 41l-2.148-1.092 6.519-23.824a4.668 4.668 0 0 0-.452-3.654 4.751 4.751 0 0 0-2.921-2.26l-15.828-4.332a4.806 4.806 0 0 0-5.916 3.372l-6.52 23.824-2.337-.207a82.625 82.625 0 0 0-34.256 4.332l-2.224.772-12.248-21.452a4.766 4.766 0 0 0-2.902-2.26 4.902 4.902 0 0 0-3.768.452L70.68 22.807a4.841 4.841 0 0 0-1.884 6.573l12.248 21.452-1.884 1.507a82.553 82.553 0 0 0-21.161 27.27l-1.037 2.129-23.836-6.536a4.826 4.826 0 0 0-5.917 3.39l-4.334 15.82a4.763 4.763 0 0 0 .471 3.654 4.823 4.823 0 0 0 2.921 2.26l23.837 6.517-.208 2.335a82.247 82.247 0 0 0 4.504 34.315l.754 2.222-21.444 12.242a4.826 4.826 0 0 0-2.464 4.776c.073.632.27 1.242.58 1.797l8.14 14.238a4.72 4.72 0 0 0 2.902 2.26 4.843 4.843 0 0 0 3.655-.452l21.538-12.336Zm65.348-4.991a47.58 47.58 0 0 1-12.531-1.695 46.955 46.955 0 0 1-27.536-20.723 46.913 46.913 0 0 1-5.96-33.933 46.93 46.93 0 0 1 18.829-28.858 46.975 46.975 0 0 1 63.548 8.596 46.915 46.915 0 0 1-4.293 63.951 46.967 46.967 0 0 1-32.057 12.662Zm-.132-88.762a41.673 41.673 0 0 0-28.461 11.218 41.623 41.623 0 0 0-3.826 56.756 41.677 41.677 0 0 0 56.402 7.613 41.626 41.626 0 0 0 11.373-55.738 41.66 41.66 0 0 0-35.488-19.85Z" fill="#fff" opacity=".73"/><g opacity=".69" fill="#fff"><path d="m571.171 181.16-106.614 1.883c-3.071 0-5.653-1.883-5.653-4.331l-1.281-70.758c0-2.448 2.412-4.482 5.502-4.539l106.596-1.883c3.09 0 5.652 1.883 5.652 4.35l1.282 70.739c.019 2.411-2.393 4.539-5.484 4.539Zm-108.027-76.389c-2.355 0-4.24 1.488-4.202 3.202l1.281 70.758c0 1.713 1.885 3.069 4.315 3.032l106.615-1.884c2.355 0 4.239-1.469 4.202-3.182l-1.282-70.871c0-1.714-1.978-3.089-4.315-3.051l-106.614 1.996Z"/><path d="m574.208 115.869-115.753 2.1.024 1.318 115.753-2.1-.024-1.318ZM466.8 114.376a2.507 2.507 0 0 1-2.524-2.944 2.504 2.504 0 0 1 3.387-1.89 2.501 2.501 0 0 1 1.586 2.292 2.506 2.506 0 0 1-2.449 2.542Zm0-3.653a1.145 1.145 0 0 0-1.056.739 1.14 1.14 0 0 0-.075.447 1.155 1.155 0 0 0 .356.82 1.163 1.163 0 0 0 .831.329 1.186 1.186 0 0 0 1.15-1.187 1.17 1.17 0 0 0-1.282-1.148h.076ZM473.677 114.244a2.488 2.488 0 0 1-2.334-1.486 2.488 2.488 0 0 1 .486-2.723 2.488 2.488 0 0 1 3.584 3.448 2.482 2.482 0 0 1-1.736.761Zm0-3.653a1.163 1.163 0 0 0-1.067.738c-.085.215-.104.45-.056.676a1.173 1.173 0 0 0 .933.902 1.171 1.171 0 0 0 1.191-.516 1.166 1.166 0 0 0 .084-1.115 1.182 1.182 0 0 0-.688-.627 1.183 1.183 0 0 0-.472-.058h.075ZM480.404 114.131a2.496 2.496 0 0 1-1.403-.392 2.499 2.499 0 0 1-.458-3.849 2.502 2.502 0 0 1 3.866.312 2.507 2.507 0 0 1-2.005 3.929Zm0-3.653a1.128 1.128 0 0 0-1.149 1.186 1.16 1.16 0 0 0 .355.82 1.161 1.161 0 0 0 1.654-.038 1.188 1.188 0 0 0 .226-1.295 1.143 1.143 0 0 0-.678-.616 1.142 1.142 0 0 0-.464-.057h.056Z"/></g><g opacity=".69" fill="#fff"><path d="m213.361 604.011-106.596 1.884c-3.09 0-5.653-1.884-5.653-4.332l-1.28-70.758c0-2.448 2.43-4.482 5.501-4.539l106.614-1.883c3.072 0 5.653 1.883 5.653 4.351l1.301 70.738c.018 2.449-2.45 4.483-5.54 4.539Zm-108.028-76.313c-2.336 0-4.239 1.488-4.202 3.202l1.282 70.738c0 1.733 1.884 3.089 4.333 3.051l106.596-1.883c2.355 0 4.239-1.469 4.202-3.183l-1.282-70.758c0-1.713-1.884-3.088-4.315-3.051l-106.614 1.884Z"/><path d="m216.409 538.738-115.753 2.1.024 1.318 115.753-2.1-.024-1.318ZM108.989 537.265a2.504 2.504 0 1 1 .863-4.834 2.509 2.509 0 0 1 1.417 3.252 2.484 2.484 0 0 1-2.28 1.582Zm0-3.672a1.188 1.188 0 0 0-.825 2.039 1.187 1.187 0 1 0 .769-2.039h.056ZM115.867 537.115a2.507 2.507 0 0 1-2.152-3.851 2.501 2.501 0 0 1 2.554-1.12 2.511 2.511 0 0 1 2.008 1.933 2.502 2.502 0 0 1-2.41 3.038Zm0-3.654a1.168 1.168 0 1 0 0 2.336 1.168 1.168 0 0 0 0-2.336ZM122.556 537.115a2.509 2.509 0 0 1-2.544-2.932 2.504 2.504 0 0 1 3.383-1.904 2.503 2.503 0 0 1 .898 4.062 2.509 2.509 0 0 1-1.737.774Zm0-3.673a1.19 1.19 0 0 0-1.15 1.205 1.168 1.168 0 1 0 2.337 0 1.173 1.173 0 0 0-.298-.919 1.169 1.169 0 0 0-.889-.38v.094Z"/></g><g opacity=".55" fill="#fff"><path d="m656.343 403.848-11.024-8.833a54.332 54.332 0 0 0 6.294-21.658l14.057-1.545a4.858 4.858 0 0 0 4.277-5.33l-1.149-10.32a4.816 4.816 0 0 0-3.456-4.098 4.856 4.856 0 0 0-1.877-.159l-14.038 1.545a54.313 54.313 0 0 0-10.872-19.776l8.837-11.017a4.84 4.84 0 0 0-.735-6.799l-8.102-6.479a4.82 4.82 0 0 0-3.549-1.036 4.803 4.803 0 0 0-3.235 1.789l-8.856 11.018a54.283 54.283 0 0 0-21.745-6.272l-1.545-14.031a4.82 4.82 0 0 0-5.333-4.275l-10.307 1.13a4.844 4.844 0 0 0-4.277 5.33l1.545 14.05a53.983 53.983 0 0 0-19.653 10.829l-11.042-8.851a4.847 4.847 0 0 0-6.784.753l-6.482 8.098a4.827 4.827 0 0 0-.474 5.338 4.81 4.81 0 0 0 1.209 1.442l11.042 8.833a54.054 54.054 0 0 0-6.312 21.659l-14.039 1.544a4.844 4.844 0 0 0-4.277 5.33l1.131 10.321a4.816 4.816 0 0 0 3.456 4.097c.609.176 1.246.23 1.876.159l14.038-1.544a54.614 54.614 0 0 0 10.873 19.775l-8.838 11.018a4.818 4.818 0 0 0 .754 6.799l8.084 6.479a4.814 4.814 0 0 0 3.558 1.037 4.826 4.826 0 0 0 3.244-1.791l8.838-11.017a54.453 54.453 0 0 0 21.669 6.309l1.545 14.031a4.814 4.814 0 0 0 1.778 3.245 4.837 4.837 0 0 0 3.555 1.03l10.307-1.13a4.83 4.83 0 0 0 3.246-1.777 4.809 4.809 0 0 0 1.031-3.553l-1.545-14.05a54.053 54.053 0 0 0 19.785-10.867l11.024 8.852a4.863 4.863 0 0 0 6.802-.753l6.482-8.099a4.82 4.82 0 0 0-.791-6.78Zm-76.729-12.694a28.035 28.035 0 0 1-.511-43.352 28.065 28.065 0 0 1 42.641 7.958 28.034 28.034 0 0 1-2.692 31.044 28.082 28.082 0 0 1-39.438 4.35Z"/><path d="M599.417 442.947a5.804 5.804 0 0 1-5.652-5.142l-1.451-13.277a55.051 55.051 0 0 1-20.577-5.971l-8.348 10.415a5.756 5.756 0 0 1-3.876 2.128 5.764 5.764 0 0 1-4.245-1.243l-8.084-6.478a5.78 5.78 0 0 1-.904-8.118l8.347-10.415a54.929 54.929 0 0 1-10.307-18.833l-13.284 1.45a5.77 5.77 0 0 1-4.244-1.231 5.78 5.78 0 0 1-2.125-3.873l-1.131-10.302a5.783 5.783 0 0 1 5.107-6.366l13.19-1.469a54.599 54.599 0 0 1 5.973-20.547l-10.42-8.362a5.75 5.75 0 0 1-2.129-3.875 5.754 5.754 0 0 1 1.243-4.242l6.482-8.08a5.655 5.655 0 0 1 3.863-2.128 5.78 5.78 0 0 1 4.259 1.224l10.42 8.362a55.168 55.168 0 0 1 18.843-10.321l-1.451-13.183a5.772 5.772 0 0 1 1.232-4.242 5.768 5.768 0 0 1 3.875-2.124l10.307-1.149a5.804 5.804 0 0 1 6.369 5.104l1.47 13.278a54.947 54.947 0 0 1 20.557 5.97l8.367-10.415a5.73 5.73 0 0 1 3.867-2.126 5.739 5.739 0 0 1 4.235 1.241l8.103 6.479a5.76 5.76 0 0 1 .885 8.117l-8.404 10.509a54.908 54.908 0 0 1 10.307 18.834l13.285-1.451a5.767 5.767 0 0 1 6.369 5.104l1.13 10.302a5.765 5.765 0 0 1-2.957 5.69 5.776 5.776 0 0 1-2.149.676l-13.19 1.469a54.91 54.91 0 0 1-5.992 20.548l10.42 8.362a5.779 5.779 0 0 1 .904 8.117l-6.482 8.079a5.8 5.8 0 0 1-8.121.904l-10.42-8.362a55.246 55.246 0 0 1-18.843 10.321l1.469 13.184a5.64 5.64 0 0 1-1.243 4.237 5.65 5.65 0 0 1-3.863 2.128l-10.307 1.149-.679-.056Zm-28.264-26.8.697.376a53.085 53.085 0 0 0 21.293 6.197h.772l1.64 14.822a3.767 3.767 0 0 0 1.432 2.599 3.772 3.772 0 0 0 2.864.828l10.307-1.13a3.766 3.766 0 0 0 2.6-1.431 3.758 3.758 0 0 0 .829-2.863l-1.62-14.822.754-.226a52.778 52.778 0 0 0 19.427-10.678l.584-.509 11.645 9.417a3.94 3.94 0 0 0 5.483-.603l6.482-8.098a3.916 3.916 0 0 0 .829-2.863 3.756 3.756 0 0 0-1.432-2.599l-11.645-9.323.377-.697a53.076 53.076 0 0 0 6.181-21.281v-.773l14.81-1.638a3.894 3.894 0 0 0 1.453-.453 3.882 3.882 0 0 0 1.996-3.841l-1.131-10.302a3.895 3.895 0 0 0-.453-1.452 3.888 3.888 0 0 0-3.843-1.995l-14.83 1.639-.226-.754a52.73 52.73 0 0 0-10.684-19.417l-.508-.603 9.327-11.639a3.774 3.774 0 0 0 .829-2.844 3.894 3.894 0 0 0-1.432-2.617l-8.084-6.479a3.92 3.92 0 0 0-5.483.602l-9.233 11.715-.679-.377a53.18 53.18 0 0 0-21.292-6.196h-.792l-1.62-14.822a3.92 3.92 0 0 0-4.296-3.428l-10.308 1.13a3.879 3.879 0 0 0-3.319 2.779 3.879 3.879 0 0 0-.129 1.515l1.621 14.822-.735.226a53.293 53.293 0 0 0-19.446 10.66l-.585.528-11.645-9.417a3.917 3.917 0 0 0-2.864-.829 3.771 3.771 0 0 0-2.6 1.431l-6.501 8.099a3.914 3.914 0 0 0-.829 2.863 3.759 3.759 0 0 0 1.451 2.599l11.626 9.322-.358.697a52.698 52.698 0 0 0-6.199 21.282v.772l-14.83 1.639a3.916 3.916 0 0 0-3.448 4.294l1.149 10.302a3.883 3.883 0 0 0 4.278 3.446l14.829-1.638.226.753a53.076 53.076 0 0 0 10.684 19.417l.509.603-9.384 11.696a3.898 3.898 0 0 0 .603 5.462l8.103 6.478a3.778 3.778 0 0 0 2.845.829 3.899 3.899 0 0 0 2.619-1.431l9.309-11.771Zm25.966-17.949a29.008 29.008 0 0 1-18.092-6.325 28.972 28.972 0 0 1-8.034-35.259 29.011 29.011 0 0 1 48.827-5.425 28.975 28.975 0 0 1-.09 36.161 28.891 28.891 0 0 1-22.593 10.886l-.018-.038Zm0-56.067a27.006 27.006 0 0 0-20.866 9.866 26.978 26.978 0 0 0 3.165 37.497 27.008 27.008 0 0 0 37.589-2.113 26.981 26.981 0 0 0-1.062-37.615 27.007 27.007 0 0 0-18.826-7.635Z"/></g><g opacity=".38" fill="#fff"><path d="M726.645 487.563H620.012a3.77 3.77 0 0 1-3.335-3.992V444.34a3.767 3.767 0 0 1 3.335-3.973h106.69a3.766 3.766 0 0 1 3.354 3.973v39.231a3.766 3.766 0 0 1-3.411 3.992ZM620.012 442.25c-.791 0-1.45.96-1.45 2.09v39.231c0 1.149.659 2.109 1.45 2.109h106.69c.791 0 1.47-.96 1.47-2.109V444.34c0-1.13-.679-2.09-1.47-2.09h-106.69Z"/><path d="M710.817 455.546h-72.225v1.884h72.225v-1.884Z"/><path d="M710.798 458.353h-72.225a1.888 1.888 0 0 1-1.885-1.884 1.883 1.883 0 0 1 1.885-1.883h72.225a1.884 1.884 0 1 1 0 3.767ZM670.87 464.116h-32.278v1.883h32.278v-1.883Z"/><path d="M670.889 466.922h-32.316a1.888 1.888 0 0 1-1.885-1.883 1.884 1.884 0 0 1 1.885-1.884h32.316a1.886 1.886 0 0 1 1.884 1.884 1.883 1.883 0 0 1-1.884 1.883ZM710.817 464.116h-32.278v1.883h32.278v-1.883Z"/><path d="M710.799 466.922H678.54a1.888 1.888 0 0 1-1.885-1.883 1.884 1.884 0 0 1 1.885-1.884h32.259a1.884 1.884 0 0 1 0 3.767ZM710.817 473.062h-72.225v1.883h72.225v-1.883Z"/><path d="M710.798 475.887h-72.225a1.888 1.888 0 0 1-1.885-1.884 1.883 1.883 0 0 1 1.885-1.883h72.225a1.884 1.884 0 1 1 0 3.767Z"/></g><path d="M429.585 662a6.571 6.571 0 0 1-6.501-5.838l-1.338-12.054a53.391 53.391 0 0 1-18.73-5.443l-7.537 9.417a6.56 6.56 0 0 1-9.214 1.017l-7.82-6.272a6.424 6.424 0 0 1-2.412-4.388 6.518 6.518 0 0 1 1.394-4.821l7.537-9.417a53.973 53.973 0 0 1-9.421-17.101l-12.06 1.337a6.578 6.578 0 0 1-7.236-5.8l-1.092-9.963a6.552 6.552 0 0 1 5.803-7.232l12.041-1.319a53.969 53.969 0 0 1 5.464-18.739l-9.421-7.534a6.553 6.553 0 0 1-1.018-9.209l6.275-7.816a6.49 6.49 0 0 1 4.391-2.43 6.577 6.577 0 0 1 4.823 1.413l9.422 7.533a54.172 54.172 0 0 1 17.091-9.417l-1.319-12.034a6.524 6.524 0 0 1 1.396-4.823 6.543 6.543 0 0 1 4.407-2.409l9.968-1.093a6.572 6.572 0 0 1 7.236 5.782l1.319 12.054a53.59 53.59 0 0 1 18.843 5.443l7.537-9.417a6.56 6.56 0 0 1 9.215-1.017l7.82 6.271a6.551 6.551 0 0 1 1.017 9.21l-7.537 9.417a54.012 54.012 0 0 1 9.421 17.101l12.041-1.337a6.573 6.573 0 0 1 7.236 5.8l1.093 9.963a6.553 6.553 0 0 1-5.804 7.232l-12.041 1.338a54.344 54.344 0 0 1-5.445 18.72l9.421 7.534a6.51 6.51 0 0 1 2.412 4.407 6.415 6.415 0 0 1-1.413 4.802l-6.275 7.948a6.529 6.529 0 0 1-4.409 2.411 6.436 6.436 0 0 1-4.824-1.413l-9.421-7.533a53.912 53.912 0 0 1-17.11 9.416l1.319 12.035a6.552 6.552 0 0 1-5.785 7.232l-9.968 1.111-.791-.075Zm-27.568-28.118 1.376.753a50.623 50.623 0 0 0 20.2 5.857l1.564.132 1.658 15.067a2.81 2.81 0 0 0 3.09 2.486l9.968-1.111a2.729 2.729 0 0 0 1.884-1.017 2.759 2.759 0 0 0 .603-2.053l-1.677-15.067 1.508-.452a50.387 50.387 0 0 0 18.428-10.133l1.187-1.017 11.89 9.511a2.733 2.733 0 0 0 2.035.603 2.808 2.808 0 0 0 1.885-1.017l6.256-7.835a2.74 2.74 0 0 0 .603-2.034 2.807 2.807 0 0 0-1.018-1.883l-11.871-9.511.735-1.394a50.198 50.198 0 0 0 5.841-20.152l.113-1.563 15.075-1.676a2.788 2.788 0 0 0 2.468-3.07l-1.093-9.963a2.807 2.807 0 0 0-3.071-2.467l-15.075 1.676-.452-1.507a50.298 50.298 0 0 0-10.119-18.419l-1.036-1.186 9.535-11.884c.231-.285.404-.614.508-.966.103-.353.135-.722.095-1.087a2.825 2.825 0 0 0-1.037-1.884l-7.838-6.271a2.793 2.793 0 0 0-3.92.433l-9.534 11.884-1.376-.734a50.34 50.34 0 0 0-20.2-5.933h-1.507l-1.658-15.067a2.823 2.823 0 0 0-1.037-1.883 2.755 2.755 0 0 0-2.035-.603L415 522.556a2.734 2.734 0 0 0-2.38 1.986c-.101.352-.131.72-.088 1.084l1.658 15.067-1.489.452a50.584 50.584 0 0 0-18.447 10.132l-1.187 1.017-11.871-9.416a2.771 2.771 0 0 0-2.054-.603 2.712 2.712 0 0 0-1.884 1.036l-6.275 7.816a2.753 2.753 0 0 0-.603 2.053 2.824 2.824 0 0 0 1.036 1.883l11.871 9.511-.735 1.394a50.229 50.229 0 0 0-5.879 20.189l-.113 1.545-15.074 1.676a2.789 2.789 0 0 0-2.469 3.07l1.093 9.963a2.808 2.808 0 0 0 3.091 2.467l15.074-1.658.452 1.488a50.014 50.014 0 0 0 10.119 18.42l1.036 1.186-9.534 11.884a2.803 2.803 0 0 0 .433 3.917l7.82 6.272a2.79 2.79 0 0 0 3.919-.433l9.497-12.072Zm25.363-15.067a28.99 28.99 0 0 1-18.076-6.326 28.966 28.966 0 0 1-10.182-16.213 28.947 28.947 0 0 1 2.16-19.02 28.97 28.97 0 0 1 13.557-13.521 28.996 28.996 0 0 1 35.234 8.097 28.964 28.964 0 0 1 6.288 18.081 28.964 28.964 0 0 1-6.369 18.054 28.933 28.933 0 0 1-22.612 10.772v.076Zm0-54.203a27.69 27.69 0 0 0-2.807.15 25.256 25.256 0 0 0-21.479 18.031 25.224 25.224 0 0 0 8.439 26.737 25.301 25.301 0 0 0 35.482-3.918 25.23 25.23 0 0 0-6.224-37.094 25.25 25.25 0 0 0-13.411-3.906Z" fill="#fff" opacity=".55"/><g opacity=".61"><path opacity=".74" d="M178.789 202.279 6.406 204.387a6.462 6.462 0 0 0-6.384 6.539l3.5 286.776a6.461 6.461 0 0 0 6.542 6.38l172.382-2.108a6.462 6.462 0 0 0 6.384-6.539l-3.5-286.776a6.46 6.46 0 0 0-6.541-6.38Z" fill="#6D6CD4"/><path d="m185.943 208.563.208 16.95L.829 227.867l-.207-17.364a6.2 6.2 0 0 1 6.105-6.272l172.621-2.09a6.531 6.531 0 0 1 6.595 6.422Z" fill="#3E479B"/><path d="M13.378 219.373a3.77 3.77 0 0 1-3.696-4.501 3.766 3.766 0 0 1 5.138-2.745 3.77 3.77 0 0 1 2.327 3.48 3.764 3.764 0 0 1-3.769 3.766Zm0-6.102a2.321 2.321 0 0 0-2.28 2.317 2.297 2.297 0 0 0 2.318 2.26 2.262 2.262 0 0 0 2.26-2.298 2.296 2.296 0 0 0-2.411-2.279h.113ZM26.135 219.279a3.77 3.77 0 0 1-3.696-4.501 3.767 3.767 0 0 1 5.138-2.745 3.763 3.763 0 0 1 1.223 6.143 3.77 3.77 0 0 1-2.665 1.103Zm0-6.102a2.3 2.3 0 0 0-2.261 2.317 2.252 2.252 0 0 0 .675 1.611 2.264 2.264 0 0 0 1.623.649 2.302 2.302 0 0 0 2.168-2.298 2.316 2.316 0 0 0-2.262-2.279h.057ZM38.515 219.185a3.77 3.77 0 0 1-3.697-4.502 3.767 3.767 0 0 1 5.139-2.745 3.766 3.766 0 0 1-1.442 7.247Zm0-6.102a2.316 2.316 0 0 0-2.28 2.316 2.299 2.299 0 0 0 2.317 2.261 2.262 2.262 0 0 0 2.262-2.298 2.295 2.295 0 0 0-2.337-2.185l.038-.094ZM102.337 254.329l-85.623.64a1.527 1.527 0 0 1-1.526-1.526 1.524 1.524 0 0 1 1.526-1.525l85.642-.64a1.496 1.496 0 0 1 1.09.427 1.506 1.506 0 0 1 .455 1.079 1.544 1.544 0 0 1-1.564 1.545Z" fill="#fff"/><path d="m130.884 254.103-17.769.131a1.482 1.482 0 0 1-1.084-.428 1.5 1.5 0 0 1-.442-1.078 1.526 1.526 0 0 1 1.507-1.545l17.769-.131a1.542 1.542 0 0 1 1.546 1.525 1.526 1.526 0 0 1-1.527 1.526Z" fill="#3E479B"/><path d="m102.883 325.388-85.642.64a1.485 1.485 0 0 1-1.415-.923 1.487 1.487 0 0 1-.111-.584 1.525 1.525 0 0 1 1.507-1.544l85.642-.64a1.486 1.486 0 0 1 1.527 1.506 1.538 1.538 0 0 1-.434 1.084 1.52 1.52 0 0 1-1.074.461Z" fill="#fff"/><path d="m131.43 325.162-17.769.131a1.514 1.514 0 0 1-1.09-.427 1.506 1.506 0 0 1-.455-1.079 1.547 1.547 0 0 1 1.508-1.545l17.788-.131a1.527 1.527 0 0 1 1.526 1.525 1.521 1.521 0 0 1-.926 1.409 1.508 1.508 0 0 1-.582.117ZM102.601 288.229l-85.567.659a1.527 1.527 0 0 1-1.526-1.525 1.508 1.508 0 0 1 1.507-1.526l85.642-.659a1.526 1.526 0 0 1 1.526 1.525c.006.207-.031.413-.11.604a1.475 1.475 0 0 1-1.472.922Z" fill="#599AF2"/><path d="m131.148 288.022-17.769.132a1.542 1.542 0 0 1-1.085-.434 1.537 1.537 0 0 1-.46-1.073 1.547 1.547 0 0 1 1.526-1.544l17.769-.132a1.526 1.526 0 1 1 0 3.051h.019Z" fill="#fff"/><path d="m160.411 287.796-17.769.132a1.531 1.531 0 0 1-1.545-1.507 1.542 1.542 0 0 1 1.526-1.544l17.769-.132a1.525 1.525 0 0 1 1.526 1.525 1.491 1.491 0 0 1-.434 1.078 1.519 1.519 0 0 1-1.073.448ZM73.922 271.222l-57.095.433a1.498 1.498 0 0 1-1.41-.925 1.509 1.509 0 0 1-.116-.581 1.53 1.53 0 0 1 .434-1.085 1.53 1.53 0 0 1 1.073-.46l57.095-.433a1.544 1.544 0 0 1 1.545 1.526 1.524 1.524 0 0 1-1.526 1.525Z" fill="#3E479B"/><path d="m109.478 270.959-25.042.188a1.527 1.527 0 0 1-1.527-1.526 1.524 1.524 0 0 1 1.526-1.525l25.062-.188a1.525 1.525 0 1 1 0 3.051h-.019Z" fill="#F7A9B4"/><path d="m109.742 306.705-57.094.433a1.527 1.527 0 0 1-1.526-1.526 1.485 1.485 0 0 1 1.507-1.525l57.095-.433a1.513 1.513 0 0 1 1.421.924c.079.184.121.382.124.582a1.543 1.543 0 0 1-1.527 1.545Z" fill="#3E479B"/><path d="m42.152 307.213-25.118.132a1.527 1.527 0 0 1-1.08-2.604 1.527 1.527 0 0 1 1.08-.447l25.061-.188a1.492 1.492 0 0 1 1.078.434 1.506 1.506 0 0 1 .449 1.072 1.523 1.523 0 0 1-1.47 1.601ZM103.072 349.344l-85.642.64a1.517 1.517 0 0 1-1.422-.924 1.522 1.522 0 0 1-.123-.582 1.544 1.544 0 0 1 1.526-1.545l85.623-.64a1.496 1.496 0 0 1 1.09.428 1.503 1.503 0 0 1 .455 1.079 1.545 1.545 0 0 1-1.507 1.544Z" fill="#F7A9B4"/><path d="m131.619 349.118-17.788.132a1.514 1.514 0 0 1-1.41-.926 1.503 1.503 0 0 1-.116-.581 1.529 1.529 0 0 1 1.507-1.544l17.769-.132a1.53 1.53 0 0 1 1.527 1.525 1.526 1.526 0 0 1-1.527 1.526h.038Z" fill="#3E479B"/><path d="m103.599 420.346-85.642.641a1.518 1.518 0 0 1-1.41-.926 1.505 1.505 0 0 1-.116-.581 1.525 1.525 0 0 1 1.507-1.544l85.642-.641c.2-.002.399.035.586.109a1.542 1.542 0 0 1 .836.816c.079.184.121.382.123.582a1.542 1.542 0 0 1-1.526 1.544Z" fill="#fff"/><path d="m132.146 420.177-17.769.132a1.531 1.531 0 0 1-1.187-.379 1.518 1.518 0 0 1-.375-1.76 1.513 1.513 0 0 1 .928-.83c.205-.066.421-.087.634-.063l17.769-.151a1.543 1.543 0 0 1 1.545 1.525 1.53 1.53 0 0 1-.955 1.415 1.527 1.527 0 0 1-.59.111ZM103.317 383.263l-85.642.64a1.526 1.526 0 1 1 0-3.051l85.642-.64a1.515 1.515 0 0 1 1.421.924c.079.185.121.382.124.583a1.545 1.545 0 0 1-1.545 1.544Z" fill="#599AF2"/><path d="m131.864 383.037-17.769.132a1.528 1.528 0 0 1-1.545-1.507 1.542 1.542 0 0 1 1.526-1.544l17.769-.132a1.543 1.543 0 0 1 1.545 1.526 1.525 1.525 0 0 1-1.526 1.525Z" fill="#fff"/><path d="m161.127 382.811-17.769.132a1.528 1.528 0 0 1-1.563-2.139 1.529 1.529 0 0 1 1.563-.893l17.769-.151a1.545 1.545 0 0 1 1.545 1.526 1.524 1.524 0 0 1-1.545 1.525ZM74.637 366.238l-57.075.433a1.499 1.499 0 0 1-1.09-.428 1.497 1.497 0 0 1-.455-1.079 1.545 1.545 0 0 1 1.507-1.544l57.095-.433a1.543 1.543 0 0 1 1.545 1.525 1.525 1.525 0 0 1-1.527 1.526Z" fill="#3E479B"/><path d="m110.194 365.974-25.043.188a1.523 1.523 0 0 1-1.526-1.525 1.525 1.525 0 0 1 1.526-1.526l25.043-.188a1.525 1.525 0 0 1 1.526 1.507 1.517 1.517 0 0 1-.434 1.096 1.515 1.515 0 0 1-1.092.448Z" fill="#F7A9B4"/><path d="m110.458 401.72-57.094.433a1.527 1.527 0 0 1-1.527-1.525 1.49 1.49 0 0 1 1.508-1.526l57.094-.433a1.543 1.543 0 0 1 1.085.433 1.52 1.52 0 0 1 .461 1.074 1.547 1.547 0 0 1-1.527 1.544Z" fill="#3E479B"/><path d="m42.868 402.229-25.043.188a1.544 1.544 0 0 1-1.545-1.526 1.524 1.524 0 0 1 1.527-1.525l25.042-.188a1.484 1.484 0 0 1 1.526 1.506 1.521 1.521 0 0 1-.925 1.421 1.537 1.537 0 0 1-.582.124ZM103.713 442.382l-85.586.565a1.527 1.527 0 0 1-1.526-1.507 1.503 1.503 0 0 1 .922-1.426 1.51 1.51 0 0 1 .585-.118l85.642-.641a1.502 1.502 0 0 1 1.084.429 1.486 1.486 0 0 1 .443 1.078 1.533 1.533 0 0 1-.425 1.154 1.542 1.542 0 0 1-1.139.466Z" fill="#F7A9B4"/><path d="m132.316 442.156-17.769.132a1.515 1.515 0 0 1-1.427-.922 1.544 1.544 0 0 1 1.389-2.129l17.788-.132a1.527 1.527 0 0 1 1.527 1.506 1.521 1.521 0 0 1-.922 1.427 1.514 1.514 0 0 1-.586.118Z" fill="#3E479B"/><path d="m132.655 487.017-17.769.151a1.543 1.543 0 0 1-1.545-1.526 1.525 1.525 0 0 1 1.526-1.525l17.769-.151a1.526 1.526 0 0 1 1.526 1.526c.006.2-.03.399-.104.585a1.48 1.48 0 0 1-1.403.94Z" fill="#fff"/><path d="m161.919 486.81-17.769.132a1.543 1.543 0 0 1-1.546-1.526 1.526 1.526 0 0 1 1.527-1.525l17.769-.132a1.482 1.482 0 0 1 1.084.429 1.5 1.5 0 0 1 .442 1.078 1.515 1.515 0 0 1-.925 1.421 1.515 1.515 0 0 1-.582.123ZM75.448 459.275l-57.095.434a1.527 1.527 0 0 1-1.079-2.605 1.526 1.526 0 0 1 1.08-.446l57.094-.434a1.527 1.527 0 0 1 1.526 1.526 1.509 1.509 0 0 1-1.526 1.525Z" fill="#3E479B"/><path d="m110.891 459.012-25.042.188a1.527 1.527 0 0 1-1.527-1.525 1.525 1.525 0 0 1 1.527-1.526l25.042-.188a1.513 1.513 0 0 1 1.085.433 1.537 1.537 0 0 1 .46 1.073 1.545 1.545 0 0 1-1.545 1.545Z" fill="#F7A9B4"/></g><path d="M160.958 62.509v151.968l.15 205.869V560.016a27.056 27.056 0 0 0 7.944 19.056 27.084 27.084 0 0 0 19.077 7.914h19.22l211.834-.094a26.997 26.997 0 0 0 19.087-7.906 26.978 26.978 0 0 0 7.897-19.083l-.208-497.583a27.02 27.02 0 0 0-7.926-19.06 27.047 27.047 0 0 0-19.076-7.91H187.865a27.01 27.01 0 0 0-24.91 16.8 26.965 26.965 0 0 0-1.997 10.359Z" fill="#4C65BA"/><path d="M162.937 71.925V553.33a26.09 26.09 0 0 0 4.782 14.971 26.116 26.116 0 0 0 12.515 9.513 26.858 26.858 0 0 0 9.328 1.676h18.975l208.913-.094a26.898 26.898 0 0 0 15.075-4.577 25.98 25.98 0 0 0 11.569-21.545l-.226-481.386a25.79 25.79 0 0 0-9.516-19.983 26.745 26.745 0 0 0-17.109-6.12l-227.888.112a26.389 26.389 0 0 0-18.56 7.59 26.361 26.361 0 0 0-7.858 18.438Z" fill="#2348FF"/><path d="m431.148 111.193.189 399.894a6.455 6.455 0 0 1-4.003 5.973 6.47 6.47 0 0 1-2.479.487l-242.323.113a6.483 6.483 0 0 1-6.482-6.46l-.169-399.894a6.455 6.455 0 0 1 3.985-5.985 6.467 6.467 0 0 1 2.478-.493l242.341-.095a6.451 6.451 0 0 1 5.976 3.985c.324.785.49 1.626.487 2.475Z" fill="#fff"/><path d="M431.148 111.024v25.934l-255.286.113v-26.254a6.197 6.197 0 0 1 6.181-6.197l242.567-.094a6.507 6.507 0 0 1 6.04 4.003 6.49 6.49 0 0 1 .498 2.495Z" fill="#599AF2"/><path d="M399.643 117.126a.94.94 0 1 1 0-1.883h19.145a.944.944 0 0 1 .942.941.939.939 0 0 1-.942.942h-19.145ZM399.643 122.004a.94.94 0 0 1-.666-1.608.945.945 0 0 1 .666-.276h19.145a.945.945 0 0 1 .942.942.94.94 0 0 1-.942.942h-19.145ZM399.643 126.901a.945.945 0 0 1-.942-.942.94.94 0 0 1 .942-.942h19.145a.94.94 0 0 1 .666 1.608.945.945 0 0 1-.666.276h-19.145ZM198.7 130.008a.885.885 0 0 1-.659-.282l-6.972-6.931a1.582 1.582 0 0 1 0-2.185l6.689-6.686a.947.947 0 0 1 1.338 1.337l-6.444 6.442 6.708 6.704a.913.913 0 0 1 .285.659.91.91 0 0 1-.285.66.89.89 0 0 1-.66.282ZM303.732 80.796a6.917 6.917 0 0 1-6.916-6.912 6.918 6.918 0 0 1 11.806-4.888 6.91 6.91 0 0 1 0 9.776 6.917 6.917 0 0 1-4.89 2.024Zm0-10.886a3.975 3.975 0 1 0 0 7.948 3.997 3.997 0 0 0 3.995-3.974 3.878 3.878 0 0 0-1.169-2.806 3.95 3.95 0 0 0-2.826-1.168ZM297.156 567.248a4.427 4.427 0 0 1-4.428-4.426v-13.089a4.425 4.425 0 0 1 4.428-4.426h13.19a4.429 4.429 0 0 1 4.428 4.426v13.184a4.442 4.442 0 0 1-4.428 4.425l-13.19-.094Zm13.19-20.076h-13.19a2.517 2.517 0 0 0-1.805.739 2.516 2.516 0 0 0-.739 1.803v13.09a2.544 2.544 0 0 0 2.544 2.542h13.19a2.562 2.562 0 0 0 2.544-2.542V549.62a2.547 2.547 0 0 0-2.638-2.411l.094-.037ZM218.26 549.356a.958.958 0 0 1-.943-.941.945.945 0 0 1 .943-.942h12.624a.962.962 0 0 1 .943.942c0 .25-.1.489-.276.666a.946.946 0 0 1-.667.275H218.26ZM218.278 556.155a.944.944 0 0 1-.942-.941.939.939 0 0 1 .942-.942h12.606a.939.939 0 0 1 .942.942.942.942 0 0 1-.942.941h-12.606ZM218.278 563.048a.944.944 0 0 1-.942-.941.939.939 0 0 1 .942-.942h12.606a.939.939 0 0 1 .942.942.942.942 0 0 1-.942.941h-12.606ZM392.351 567.248a.886.886 0 0 1-.66-.282l-9.93-9.888 9.666-9.661a.913.913 0 0 1 .66-.286.906.906 0 0 1 .659.286.926.926 0 0 1 .279.668.95.95 0 0 1-.279.669l-8.272 8.324 8.574 8.569a.913.913 0 0 1 .285.66.909.909 0 0 1-.285.659.885.885 0 0 1-.697.282Z" fill="#fff"/><path opacity=".36" d="M431.186 137.41h-254.89v83.432h254.89V137.41Z" fill="#599AF2"/><path opacity=".43" d="M291.333 154.285h-91.521a2.656 2.656 0 0 0-2.657 2.655v15.368a2.657 2.657 0 0 0 2.657 2.656h91.521a2.657 2.657 0 0 0 2.657-2.656V156.94a2.656 2.656 0 0 0-2.657-2.655ZM341.606 186.547H199.812a2.656 2.656 0 0 0-2.657 2.655v5.029a2.656 2.656 0 0 0 2.657 2.655h141.794a2.656 2.656 0 0 0 2.657-2.655v-5.029a2.655 2.655 0 0 0-2.657-2.655ZM399.794 195.135a19.583 19.583 0 0 1-13.844-5.732 19.564 19.564 0 0 1 0-27.673 19.583 19.583 0 0 1 13.844-5.732 19.604 19.604 0 0 1 13.818 5.717 19.585 19.585 0 0 1 5.76 13.795 19.583 19.583 0 0 1-5.74 13.831 19.6 19.6 0 0 1-13.838 5.737v.057Zm0-35.37a15.815 15.815 0 0 0-11.179 4.628 15.8 15.8 0 0 0 0 22.347 15.815 15.815 0 0 0 11.179 4.628 15.83 15.83 0 0 0 11.173-4.634 15.813 15.813 0 0 0 4.636-11.167 15.814 15.814 0 0 0-4.636-11.168 15.834 15.834 0 0 0-11.173-4.634Z" fill="#fff"/><path d="M249.596 251.127h-42.152c-4.745 0-8.592 3.845-8.592 8.588v42.131c0 4.743 3.847 8.588 8.592 8.588h42.152c4.745 0 8.592-3.845 8.592-8.588v-42.131c0-4.743-3.847-8.588-8.592-8.588Z" fill="#4C65BA"/><path d="M241.267 280.978a12.802 12.802 0 0 1-7.901 11.847 12.82 12.82 0 0 1-13.972-2.772 12.804 12.804 0 0 1 9.079-21.863c3.393 0 6.647 1.347 9.047 3.746a12.784 12.784 0 0 1 3.747 9.042Z" fill="#599AF2" opacity=".36"/><g opacity=".26" fill="#3E479B"><path d="M304.014 260.355h-33.352a2.148 2.148 0 0 0-2.148 2.147v6.347c0 1.186.961 2.147 2.148 2.147h33.352a2.148 2.148 0 0 0 2.148-2.147v-6.347a2.148 2.148 0 0 0-2.148-2.147ZM268.533 287.325a1.884 1.884 0 1 1 0-3.767h64.255a1.886 1.886 0 0 1 1.884 1.884 1.883 1.883 0 0 1-1.884 1.883h-64.255ZM268.533 300.772a1.884 1.884 0 1 1 0-3.767h104.786a1.883 1.883 0 1 1 0 3.767H268.533ZM347.108 287.287a1.883 1.883 0 1 1 0-3.766h64.274a1.885 1.885 0 0 1 1.332 3.215 1.885 1.885 0 0 1-1.332.551h-64.274Z"/></g><path d="M249.69 423.661h-42.152c-4.746 0-8.593 3.845-8.593 8.588v42.131c0 4.743 3.847 8.588 8.593 8.588h42.152c4.745 0 8.592-3.845 8.592-8.588v-42.131c0-4.743-3.847-8.588-8.592-8.588Z" fill="#599AF2"/><path d="M241.399 453.588a12.81 12.81 0 0 1-15.308 12.58 12.809 12.809 0 0 1-9.34-17.471 12.817 12.817 0 0 1 20.895-4.146 12.805 12.805 0 0 1 3.753 9.037Z" fill="#3E479B" opacity=".57"/><g opacity=".26" fill="#3E479B"><path d="M304.089 432.871h-33.352a2.148 2.148 0 0 0-2.148 2.147v6.347c0 1.185.962 2.147 2.148 2.147h33.352a2.148 2.148 0 0 0 2.148-2.147v-6.347a2.147 2.147 0 0 0-2.148-2.147ZM268.608 459.897a1.884 1.884 0 0 1 0-3.767h64.255a1.884 1.884 0 0 1 0 3.767h-64.255ZM268.608 473.306a1.883 1.883 0 1 1 0-3.766h104.786a1.887 1.887 0 0 1 1.885 1.883 1.884 1.884 0 0 1-1.885 1.883H268.608ZM347.184 459.897a1.884 1.884 0 0 1 0-3.767h64.274a1.884 1.884 0 0 1 0 3.767h-64.274Z"/></g><path d="M249.652 337.196H207.5c-4.746 0-8.593 3.845-8.593 8.588v42.131c0 4.743 3.847 8.588 8.593 8.588h42.152c4.745 0 8.592-3.845 8.592-8.588v-42.131c0-4.743-3.847-8.588-8.592-8.588Z" fill="#F7A9B4"/><path opacity=".43" d="M228.566 379.949c7.077 0 12.814-5.734 12.814-12.807s-5.737-12.807-12.814-12.807c-7.076 0-12.813 5.734-12.813 12.807s5.737 12.807 12.813 12.807Z" fill="#fff"/><g opacity=".26" fill="#3E479B"><path d="M304.052 346.406H270.7a2.147 2.147 0 0 0-2.148 2.147v6.347c0 1.186.961 2.147 2.148 2.147h33.352a2.148 2.148 0 0 0 2.148-2.147v-6.347a2.148 2.148 0 0 0-2.148-2.147ZM268.571 373.394a1.883 1.883 0 1 1 0-3.766h29.715a1.887 1.887 0 0 1 1.885 1.883 1.884 1.884 0 0 1-1.885 1.883h-29.715ZM268.571 386.842a1.883 1.883 0 1 1 0-3.767h60.995a1.883 1.883 0 1 1 0 3.767h-60.995ZM310.723 373.376a1.884 1.884 0 0 1 0-3.767h59.356a1.883 1.883 0 1 1 0 3.767h-59.356ZM381.121 373.263a1.888 1.888 0 0 1-1.885-1.884 1.887 1.887 0 0 1 1.885-1.883h29.734a1.883 1.883 0 1 1 0 3.767h-29.734Z"/></g><path opacity=".39" d="m617.107 392.647-120.539 1.205a6.462 6.462 0 0 0-6.399 6.524l2.03 202.913a6.463 6.463 0 0 0 6.528 6.396l120.539-1.205a6.462 6.462 0 0 0 6.399-6.525l-2.03-202.913a6.463 6.463 0 0 0-6.528-6.395Z" fill="#fff"/><path opacity=".39" d="m617.107 392.647-120.539 1.205a6.462 6.462 0 0 0-6.399 6.524l2.03 202.913a6.463 6.463 0 0 0 6.528 6.396l120.539-1.205a6.462 6.462 0 0 0 6.399-6.525l-2.03-202.913a6.463 6.463 0 0 0-6.528-6.395Z" fill="#F7A9B4"/><path d="m625.195 397.313.131 10.453-133.465 1.619-.113-10.773a6.169 6.169 0 0 1 1.75-4.402 6.182 6.182 0 0 1 4.355-1.869l120.746-1.469a6.526 6.526 0 0 1 6.071 3.953 6.53 6.53 0 0 1 .525 2.488Z" fill="#F7A9B4"/><path d="M500.906 403.264a2.75 2.75 0 1 1 2.732-2.749 2.718 2.718 0 0 1-.788 1.949 2.714 2.714 0 0 1-1.944.8Zm0-4.388a1.673 1.673 0 0 0-1.285.415 1.657 1.657 0 0 0 1.285 2.881 1.654 1.654 0 0 0 1.691-2.323 1.668 1.668 0 0 0-1.691-.973ZM510.082 403.208a2.748 2.748 0 0 1-2.553-1.68 2.751 2.751 0 1 1 2.553 1.68Zm0-4.407a1.638 1.638 0 0 0-1.639 1.676 1.658 1.658 0 0 0 3.298 0 1.674 1.674 0 0 0-1.678-1.676h.019ZM519.014 403.133a2.747 2.747 0 0 1-1.977-4.681 2.752 2.752 0 0 1 4.709 1.912 2.741 2.741 0 0 1-.792 1.95 2.748 2.748 0 0 1-1.94.819Zm0-4.389a1.657 1.657 0 1 0 1.658 1.639 1.616 1.616 0 0 0-1.696-1.639h.038ZM564.972 428.445l-61.673.452a1.093 1.093 0 1 1 0-2.185l61.673-.471a1.096 1.096 0 0 1 .786 1.878 1.095 1.095 0 0 1-.786.326ZM585.53 428.275l-12.794.095a1.074 1.074 0 0 1-1.112-1.074 1.1 1.1 0 0 1 .314-.785 1.094 1.094 0 0 1 .779-.326l12.795-.094a1.092 1.092 0 0 1 0 2.184h.018ZM565.368 479.616l-61.673.471a1.114 1.114 0 0 1-1.112-1.093 1.1 1.1 0 0 1 .314-.784 1.082 1.082 0 0 1 .779-.327l61.692-.471a1.111 1.111 0 0 1 0 2.204ZM585.926 479.465l-12.795.094a1.1 1.1 0 0 1-.878-.266 1.127 1.127 0 0 1-.378-.836 1.113 1.113 0 0 1 1.256-1.101h12.795a1.113 1.113 0 0 1 1.111 1.092 1.126 1.126 0 0 1-1.111 1.017ZM565.161 452.853l-61.673.471a1.11 1.11 0 0 1-1.112-1.092 1.093 1.093 0 0 1 1.093-1.093l61.673-.47a1.093 1.093 0 1 1 0 2.184h.019ZM585.718 452.703l-12.794.094a1.093 1.093 0 1 1 0-2.185l12.794-.094a1.07 1.07 0 0 1 1.027.654c.056.132.085.275.085.419a1.086 1.086 0 0 1-.683 1.032 1.104 1.104 0 0 1-.429.08ZM606.823 452.552h-12.814a1.133 1.133 0 0 1-1.112-1.093 1.114 1.114 0 0 1 1.093-1.111l12.814-.094a1.112 1.112 0 0 1 0 2.204l.019.094ZM544.508 440.611l-41.115.302a1.093 1.093 0 1 1 0-2.185l41.115-.32a1.111 1.111 0 0 1 0 2.203ZM570.116 440.423l-18.033.132a1.1 1.1 0 0 1-.785-.313 1.098 1.098 0 0 1-.326-.779 1.11 1.11 0 0 1 1.093-1.112l18.032-.132a1.113 1.113 0 0 1 0 2.204h.019ZM570.305 466.15l-41.116.32a1.131 1.131 0 0 1-1.112-1.092 1.114 1.114 0 0 1 1.093-1.112l41.116-.301a1.066 1.066 0 0 1 .784.301 1.074 1.074 0 0 1 .327.773 1.072 1.072 0 0 1-.313.784 1.086 1.086 0 0 1-.779.327ZM521.633 466.526l-18.033.132a1.099 1.099 0 0 1-.785-.313 1.101 1.101 0 0 1-.327-.779 1.112 1.112 0 0 1 1.093-1.111l18.033-.132a1.133 1.133 0 0 1 1.112 1.092 1.112 1.112 0 0 1-1.093 1.111ZM565.5 496.867l-61.673.471a1.11 1.11 0 0 1-1.034-1.516 1.11 1.11 0 0 1 .235-.361 1.097 1.097 0 0 1 .78-.326l61.673-.471a1.127 1.127 0 0 1 1.112 1.092 1.108 1.108 0 0 1-1.093 1.111ZM586.095 496.717l-12.813.094a1.109 1.109 0 0 1-.968-1.102 1.112 1.112 0 0 1 .968-1.102l12.794-.094a1.109 1.109 0 0 1 .968 1.102 1.112 1.112 0 0 1-.968 1.102h.019ZM565.877 548.038l-61.673.471a1.111 1.111 0 0 1 0-2.204l61.654-.47a1.113 1.113 0 0 1 .968 1.101 1.112 1.112 0 0 1-.968 1.102h.019ZM586.435 547.887H573.64a1.13 1.13 0 0 1-1.112-1.092 1.114 1.114 0 0 1 1.093-1.111l12.795-.094a1.099 1.099 0 0 1 .785.313 1.098 1.098 0 0 1 .326.779 1.11 1.11 0 0 1-1.092 1.205ZM565.689 521.294l-61.674.452a1.083 1.083 0 0 1-.784-.3 1.08 1.08 0 0 1-.328-.773 1.1 1.1 0 0 1 .314-.785 1.098 1.098 0 0 1 .779-.326l61.674-.471a1.112 1.112 0 0 1 0 2.203h.019ZM586.246 521.125l-12.814.113a1.092 1.092 0 0 1-1.092-1.092 1.052 1.052 0 0 1 .07-.423 1.073 1.073 0 0 1 1.004-.689h12.813a1.093 1.093 0 1 1 0 2.185l.019-.094ZM607.312 520.974l-12.794.094a1.113 1.113 0 0 1-1.112-1.092 1.133 1.133 0 0 1 1.093-1.111l12.795-.094a1.112 1.112 0 0 1 0 2.203h.018ZM545.036 509.034l-41.116.32a1.1 1.1 0 0 1-.785-.313 1.098 1.098 0 0 1-.326-.779 1.11 1.11 0 0 1 1.093-1.112l41.115-.32c.29.005.568.121.775.324.206.204.327.479.337.769a1.091 1.091 0 0 1-1.093 1.111ZM570.625 508.864l-18.033.132a1.123 1.123 0 0 1-.878-.266 1.127 1.127 0 0 1-.378-.836 1.113 1.113 0 0 1 1.256-1.101l18.033-.132a1.099 1.099 0 0 1 .785.313 1.101 1.101 0 0 1 .327.779 1.11 1.11 0 0 1-1.112 1.111ZM570.833 534.572l-41.116.32a1.099 1.099 0 0 1-.785-.313 1.09 1.09 0 0 1-.327-.779 1.13 1.13 0 0 1 1.093-1.111l41.116-.302a1.082 1.082 0 0 1 .778.315 1.072 1.072 0 0 1 .315.778 1.075 1.075 0 0 1-1.074 1.092ZM522.142 534.949l-18.033.132a1.114 1.114 0 0 1-1.112-1.093 1.092 1.092 0 0 1 1.093-1.092l18.033-.151a1.1 1.1 0 0 1 1.027.67 1.114 1.114 0 0 1-1.008 1.534ZM566.009 563.858l-61.674.471a1.11 1.11 0 0 1-1.111-1.092 1.127 1.127 0 0 1 1.093-1.111l61.673-.452a1.093 1.093 0 1 1 0 2.184h.019ZM586.567 563.708l-12.814.094a1.112 1.112 0 0 1 0-2.204l12.795-.094a1.133 1.133 0 0 1 1.112 1.092 1.11 1.11 0 0 1-1.093 1.112ZM586.812 596.026l-12.813.094a1.111 1.111 0 0 1 0-2.203l12.794-.094a1.113 1.113 0 0 1 .967 1.101 1.11 1.11 0 0 1-.967 1.102h.019ZM607.878 595.857l-12.795.094a1.093 1.093 0 1 1 0-2.185l12.795-.113a1.11 1.11 0 0 1 1.032 1.521 1.103 1.103 0 0 1-.604.603 1.103 1.103 0 0 1-.428.08ZM545.545 576.044l-41.116.301a1.1 1.1 0 0 1-1.027-.67 1.093 1.093 0 0 1-.085-.422 1.13 1.13 0 0 1 1.093-1.112l41.116-.301a1.112 1.112 0 0 1 0 2.204h.019ZM571.134 575.836l-18.033.151a1.11 1.11 0 0 1-1.034-1.516 1.096 1.096 0 0 1 1.015-.687l18.033-.132a1.073 1.073 0 0 1 1.112 1.092 1.093 1.093 0 0 1-1.093 1.092Z" fill="#fff"/><path opacity=".22" d="M655.812 81.517 510.69 83.011a6.461 6.461 0 0 0-6.396 6.526l2.5 242.677a6.463 6.463 0 0 0 6.53 6.393l145.122-1.494a6.461 6.461 0 0 0 6.396-6.526L662.341 87.91a6.461 6.461 0 0 0-6.529-6.393Z" fill="#3E479B"/><path d="m647.161 70.27-145.122 1.493a6.461 6.461 0 0 0-6.396 6.526l2.5 242.676a6.463 6.463 0 0 0 6.529 6.394l145.122-1.494a6.462 6.462 0 0 0 6.396-6.526l-2.5-242.677a6.462 6.462 0 0 0-6.529-6.393Z" fill="#fff"/><path d="m654.194 76.634.151 13.579-158.056 1.62-.132-13.9a6.196 6.196 0 0 1 6.124-6.252l145.337-1.488a6.52 6.52 0 0 1 6.576 6.44Z" fill="#599AF2"/><path d="M634.692 78.48a.942.942 0 0 1 0-1.884l11.852-.113a.945.945 0 0 1 .943.942.944.944 0 0 1-.943.942l-11.852.112ZM634.729 81.512a.942.942 0 0 1 0-1.884l11.871-.132a1.036 1.036 0 0 1 .943.942.938.938 0 0 1-.264.665.926.926 0 0 1-.66.277l-11.871.132h-.019ZM634.767 84.544a.945.945 0 0 1-.943-.942.937.937 0 0 1 .264-.665.928.928 0 0 1 .66-.276l11.852-.132a.963.963 0 0 1 .942.941.94.94 0 0 1-.942.942l-11.852.132h.019ZM510.365 87.69a.942.942 0 0 1-.659-.283l-4.353-4.181a1.325 1.325 0 0 1-.396-.942 1.317 1.317 0 0 1 .396-.942l4.108-4.18a.935.935 0 0 1 .677-.334.944.944 0 0 1 .894 1.345.946.946 0 0 1-.233.306l-3.769 3.767 3.938 3.861a.938.938 0 0 1 .219 1.033.945.945 0 0 1-.878.587l.056-.038Z" fill="#fff"/><path opacity=".36" d="m649.408 326.348-145.601.829a6.343 6.343 0 0 1-4.508-1.839 6.34 6.34 0 0 1-1.88-4.489l-.282-50.418 158.282-.904.395 50.437a6.34 6.34 0 0 1-.483 2.45 6.362 6.362 0 0 1-5.923 3.934Z" fill="#599AF2"/><path d="m607.217 115.127-63.595.355a2.109 2.109 0 0 0-2.098 2.121l.038 6.949a2.111 2.111 0 0 0 2.123 2.098l63.594-.355a2.11 2.11 0 0 0 2.099-2.121l-.039-6.95a2.11 2.11 0 0 0-2.122-2.097Z" fill="#4C65BA"/><path opacity=".32" d="m627.433 151.776-103.654.579c-4.922.027-8.891 4.038-8.863 8.958l.012 2.203c.028 4.92 4.04 8.886 8.963 8.859l103.654-.579c4.922-.028 8.89-4.038 8.863-8.958l-.013-2.204c-.027-4.919-4.04-8.885-8.962-8.858Z" fill="#599AF2"/><path opacity=".43" d="M531.582 162.327a6.163 6.163 0 1 1-11.869-2.285 6.167 6.167 0 0 1 5.67-3.836 6.18 6.18 0 0 1 6.199 6.121Z" fill="#fff"/><path d="M527.682 160.613a2.222 2.222 0 0 1-2.205 2.241 2.224 2.224 0 0 1-1.572-3.794 2.224 2.224 0 0 1 1.572-.651 2.226 2.226 0 0 1 2.205 2.204Z" fill="#fff"/><path d="M528.737 166.357h-6.595v-.81a3.441 3.441 0 0 1 .99-2.455 3.44 3.44 0 0 1 2.439-1.029 3.12 3.12 0 0 1 2.218.902 3.13 3.13 0 0 1 .929 2.205l.019 1.187Z" fill="#fff"/><path opacity=".32" d="m627.634 184.375-103.654.579c-4.922.028-8.89 4.038-8.863 8.958l.012 2.203c.028 4.92 4.041 8.886 8.963 8.859l103.654-.579c4.922-.027 8.89-4.038 8.863-8.958l-.012-2.203c-.028-4.92-4.04-8.886-8.963-8.859Z" fill="#599AF2"/><path opacity=".43" d="M531.752 194.965a6.157 6.157 0 0 1-3.773 5.715 6.168 6.168 0 0 1-6.726-1.303 6.155 6.155 0 0 1 .896-9.483 6.166 6.166 0 0 1 7.778.734 6.155 6.155 0 0 1 1.825 4.337Z" fill="#fff"/><path d="m527.669 193.993-4.145.023a.603.603 0 0 0-.6.606l.021 3.691a.602.602 0 0 0 .606.599l4.146-.023a.602.602 0 0 0 .599-.606l-.02-3.691a.603.603 0 0 0-.607-.599Z" fill="#fff"/><path d="M523.442 194.438v-1.526a1.48 1.48 0 0 1 .433-1.073 1.542 1.542 0 0 1 1.074-.452h1.413a1.356 1.356 0 0 1 1.338 1.337v1.62h-.471v-1.658a.958.958 0 0 0-.245-.64.965.965 0 0 0-.622-.245h-1.413a1.018 1.018 0 0 0-.735.32 1.046 1.046 0 0 0-.301.735v1.506l-.471.076Z" fill="#fff"/><path d="m600.473 240.768-44.715.245a9.8 9.8 0 0 1-9.087-5.993 9.811 9.811 0 0 1-.768-3.744 9.82 9.82 0 0 1 9.742-9.85l44.715-.245a9.808 9.808 0 0 1 9.087 5.994 9.784 9.784 0 0 1-2.062 10.685 9.798 9.798 0 0 1-6.912 2.908Z" fill="#F7A9B4"/><path d="M533.127 291.223a1.885 1.885 0 0 1-1.332-3.215 1.885 1.885 0 0 1 1.332-.551l86.528-.49c.5 0 .979.198 1.332.552a1.88 1.88 0 0 1 0 2.663 1.884 1.884 0 0 1-1.332.552l-86.528.489ZM550.746 304.219a1.888 1.888 0 0 1-1.885-1.884 1.883 1.883 0 0 1 1.885-1.883l51.441-.283a1.888 1.888 0 0 1 1.885 1.884 1.887 1.887 0 0 1-1.885 1.883l-51.441.283Z" fill="#fff"/><path opacity=".22" d="m545.304 246.253-145.121 1.494a6.462 6.462 0 0 0-6.397 6.526l2.501 242.677a6.462 6.462 0 0 0 6.529 6.393l145.122-1.494a6.462 6.462 0 0 0 6.396-6.526l-2.5-242.677a6.462 6.462 0 0 0-6.53-6.393Z" fill="#3E479B"/><path d="m536.595 235.223-145.13 1.45a6.462 6.462 0 0 0-6.398 6.525l2.428 242.689a6.462 6.462 0 0 0 6.528 6.396l145.129-1.451a6.463 6.463 0 0 0 6.399-6.524l-2.429-242.69a6.46 6.46 0 0 0-6.527-6.395Z" fill="#fff"/><path opacity=".42" d="m536.595 235.223-145.13 1.45a6.462 6.462 0 0 0-6.398 6.525l2.428 242.689a6.462 6.462 0 0 0 6.528 6.396l145.129-1.451a6.463 6.463 0 0 0 6.399-6.524l-2.429-242.69a6.46 6.46 0 0 0-6.527-6.395Z" fill="#599AF2"/><path d="m543.699 241.428.132 13.579-158.056 1.619-.132-13.899a6.203 6.203 0 0 1 6.124-6.253l145.355-1.487a6.538 6.538 0 0 1 6.577 6.441Z" fill="#599AF2"/><path d="M524.196 243.311a.94.94 0 1 1 0-1.883l11.852-.113a1.011 1.011 0 0 1 .961.922.961.961 0 0 1-.942.961l-11.852.113h-.019ZM524.215 246.249a.962.962 0 0 1-.943-.942c0-.25.1-.489.276-.666a.946.946 0 0 1 .667-.275l11.852-.113a.917.917 0 0 1 .87.565.915.915 0 0 1 .072.357.932.932 0 0 1-.262.672.944.944 0 0 1-.661.289l-11.853.113h-.018ZM524.253 249.281a.939.939 0 0 1-.942-.942.938.938 0 0 1 .942-.941l11.852-.132a.939.939 0 0 1 .942.942.942.942 0 0 1-.942.941l-11.852.132ZM399.87 252.426a.87.87 0 0 1-.66-.282l-4.353-4.257a1.307 1.307 0 0 1-.299-1.454c.07-.161.172-.307.299-.429l4.108-4.181a.944.944 0 1 1 1.357 1.318l-3.769 3.767 3.938 3.767a.936.936 0 0 1 0 1.337.935.935 0 0 1-.621.414Z" fill="#fff"/><g opacity=".36" fill="#fff"><path d="m538.988 491.085-145.601.829a6.36 6.36 0 0 1-4.508-1.839 6.346 6.346 0 0 1-1.88-4.489l-.282-50.417 158.282-.904.282 50.436a6.343 6.343 0 0 1-6.293 6.384Z"/><path d="M393.256 492.856a7.316 7.316 0 0 1-5.138-2.127 7.305 7.305 0 0 1-2.155-5.124l-.282-51.378 160.166-.904.301 51.378a7.307 7.307 0 0 1-7.254 7.326l-145.601.829h-.037Zm-5.653-56.765.282 49.495a5.39 5.39 0 0 0 1.602 3.767 5.465 5.465 0 0 0 3.769 1.563l145.6-.829a5.425 5.425 0 0 0 5.389-5.443l-.282-49.476-156.36.923Z"/></g><path d="m409.124 278.809-.014 11.375a3.673 3.673 0 0 0 3.67 3.677l114.132.139a3.672 3.672 0 0 0 3.679-3.668l.014-11.375a3.673 3.673 0 0 0-3.67-3.677l-114.132-.14a3.673 3.673 0 0 0-3.679 3.669ZM527.475 308.513l-115.282-.132a3.097 3.097 0 0 1-2.861-1.92 3.079 3.079 0 0 1-.229-1.188 3.106 3.106 0 0 1 3.109-3.107l115.263.151a3.109 3.109 0 0 1 2.872 4.293 3.099 3.099 0 0 1-1.684 1.673 3.102 3.102 0 0 1-1.188.23ZM527.455 322.826l-115.282-.132a3.085 3.085 0 0 1-2.86-1.919 3.102 3.102 0 0 1-.23-1.188 3.11 3.11 0 0 1 3.109-3.108l115.263.151a3.11 3.11 0 0 1 3.109 3.108 3.077 3.077 0 0 1-.911 2.19 3.084 3.084 0 0 1-2.198.898Z" fill="#fff"/><path d="M424.686 343.807a7.816 7.816 0 0 1-9.353 7.664 7.82 7.82 0 0 1-6.139-6.151 7.81 7.81 0 0 1 3.341-8.021 7.82 7.82 0 0 1 12.151 6.508ZM424.629 379.214a7.813 7.813 0 0 1-4.832 7.223 7.822 7.822 0 0 1-10.66-5.71 7.815 7.815 0 0 1 7.691-9.329 7.807 7.807 0 0 1 5.523 2.29 7.804 7.804 0 0 1 2.278 5.526ZM424.591 413.585a7.81 7.81 0 0 1-4.832 7.223 7.823 7.823 0 0 1-10.66-5.71 7.815 7.815 0 0 1 7.691-9.329 7.808 7.808 0 0 1 7.213 4.827c.39.948.59 1.964.588 2.989Z" fill="#F7A9B4"/><path d="m503.883 341.038-74.769-.094a.94.94 0 1 1 0-1.883h74.769a.943.943 0 0 1 .943.941.955.955 0 0 1-.241.728.937.937 0 0 1-.702.308ZM466.499 348.929h-37.385a.944.944 0 0 1-.942-.941.94.94 0 0 1 .942-.942h37.385a.966.966 0 0 1 .661.281.966.966 0 0 1 .281.661.94.94 0 0 1-.942.941ZM503.845 377.613l-74.769-.094a.938.938 0 0 1-.673-.283.93.93 0 0 1-.269-.678.915.915 0 0 1 .277-.659.917.917 0 0 1 .665-.263l74.769.094a.943.943 0 0 1 .943.941.96.96 0 0 1-.943.942ZM466.442 385.504h-37.385a.946.946 0 0 1-.666-.275.943.943 0 0 1 .666-1.608h37.385a.939.939 0 0 1 .942.942.942.942 0 0 1-.942.941ZM503.789 410.93h-74.77a.964.964 0 0 1-.942-.961.945.945 0 0 1 .942-.923l74.77.094a.933.933 0 0 1 .659.277.924.924 0 0 1 .264.665.945.945 0 0 1-.923.848ZM466.404 418.896h-37.385a.94.94 0 1 1 0-1.883h37.385a.94.94 0 1 1 0 1.883ZM422.631 455.961a1.886 1.886 0 0 1-1.884-1.884 1.883 1.883 0 0 1 1.884-1.883l86.528-.49a1.884 1.884 0 0 1 0 3.767l-86.528.49ZM440.231 468.956a1.884 1.884 0 0 1 0-3.767l51.442-.282a1.885 1.885 0 0 1 1.332 3.215 1.885 1.885 0 0 1-1.332.551l-51.442.283Z" fill="#fff"/><path d="M209.366 155.678H74.28a3.033 3.033 0 0 0-3.034 3.033v39.249a3.033 3.033 0 0 0 3.034 3.032h135.086a3.034 3.034 0 0 0 3.034-3.032v-39.249a3.034 3.034 0 0 0-3.034-3.033Z" fill="#599AF2"/><path d="M94.97 192.065a14.607 14.607 0 0 1-13.492-9.011 14.588 14.588 0 0 1 3.166-15.906 14.6 14.6 0 0 1 15.914-3.164 14.592 14.592 0 0 1 0 26.97 14.619 14.619 0 0 1-5.588 1.111Z" fill="#F7A9B4"/><path d="m93.688 183.043-5.464-7.533a1.45 1.45 0 0 1 .566-2.159c.258-.12.546-.162.828-.12a1.359 1.359 0 0 1 .942.584l3.486 4.803 17.355-17.346a1.37 1.37 0 0 1 1.017-.433 1.406 1.406 0 0 1 1.018.433 1.435 1.435 0 0 1 .314 1.568c-.073.174-.18.333-.314.466l-19.748 19.737Z" fill="#fff"/><path opacity=".38" d="M194.159 171.743h-72.226a.944.944 0 0 1-.942-.941.939.939 0 0 1 .942-.942h72.226a.94.94 0 0 1 .942.942.962.962 0 0 1-.942.941ZM154.193 180.35h-32.26a.94.94 0 1 1 0-1.883h32.26a.94.94 0 1 1 0 1.883ZM194.159 180.35h-32.278a.943.943 0 0 1-.667-1.607.943.943 0 0 1 .667-.276h32.278a.962.962 0 0 1 .942.942.938.938 0 0 1-.942.941ZM194.159 189.315h-72.226a.94.94 0 1 1 0-1.883h72.226a.944.944 0 0 1 .942.941.939.939 0 0 1-.942.942Z" fill="#fff"/><path d="M726.024 363.902H590.938a3.034 3.034 0 0 0-3.034 3.032v39.25a3.034 3.034 0 0 0 3.034 3.032h135.086a3.033 3.033 0 0 0 3.034-3.032v-39.25a3.033 3.033 0 0 0-3.034-3.032Z" fill="#599AF2"/><path d="M611.628 400.27a14.604 14.604 0 0 1-13.494-9.015 14.588 14.588 0 0 1 3.174-15.909 14.612 14.612 0 0 1 15.921-3.152 14.608 14.608 0 0 1 6.55 5.384 14.586 14.586 0 0 1-1.832 18.423 14.603 14.603 0 0 1-10.319 4.269Z" fill="#F7A9B4"/><path d="m610.346 391.173-5.464-7.533a1.468 1.468 0 0 1-.264-1.074c.073-.374.281-.709.584-.941a1.337 1.337 0 0 1 1.074-.245 1.41 1.41 0 0 1 .942.584l3.467 4.783 17.374-17.345a1.45 1.45 0 0 1 2.035 0 1.47 1.47 0 0 1 0 2.034l-19.748 19.737Z" fill="#fff"/><path opacity=".38" d="M710.799 380.005h-72.226a.94.94 0 1 1 0-1.883h72.226c.249 0 .489.099.666.275a.943.943 0 0 1-.666 1.608ZM670.889 388.574h-32.316a.962.962 0 0 1-.942-.941.939.939 0 0 1 .942-.942h32.316a.94.94 0 1 1 0 1.883ZM710.799 388.574H678.54a.939.939 0 0 1-.942-.941.939.939 0 0 1 .942-.942h32.259a.939.939 0 0 1 .942.942.938.938 0 0 1-.942.941ZM710.799 397.539h-72.226a.96.96 0 0 1-.942-.942.942.942 0 0 1 .942-.941h72.226c.249 0 .489.099.666.275a.943.943 0 0 1-.666 1.608Z" fill="#fff"/></g><defs><clipPath id="a"><path fill="#fff" d="M0 0h730v662H0z"/></clipPath></defs></svg>