<svg width="759" height="690" fill="none" xmlns="http://www.w3.org/2000/svg"><path d="M630.9 644.26H194.775a31.013 31.013 0 0 1-21.879-9.073 30.975 30.975 0 0 1-9.08-21.864V286.044a30.973 30.973 0 0 1 9.08-21.863 31.014 31.014 0 0 1 21.879-9.074H630.9a31.013 31.013 0 0 1 21.878 9.074 30.973 30.973 0 0 1 9.08 21.863v327.279a30.975 30.975 0 0 1-9.08 21.864 31.012 31.012 0 0 1-21.878 9.073ZM194.775 257.026a29.069 29.069 0 0 0-20.513 8.513 29.031 29.031 0 0 0-8.504 20.505v327.279a29.03 29.03 0 0 0 8.504 20.505 29.065 29.065 0 0 0 20.513 8.513H630.9a29.067 29.067 0 0 0 20.513-8.513 29.028 29.028 0 0 0 8.503-20.505V286.044a29.03 29.03 0 0 0-8.503-20.505 29.07 29.07 0 0 0-20.513-8.513H194.775Z" fill="#B3DCFF"/><path d="M727.358 298.261s7.958 3.582 11.521 4.84c3.564 1.258 16.557-.17 18.008.96 1.451 1.13 1.515 5.33-.598 6.055-2.112.725-17.623 4.584-23.042 4.029-5.419-.554-14.935 3.113-17.239 2.644-2.305-.469-2.475-13.262-2.006-16.204.469-2.942 13.356-2.324 13.356-2.324Z" fill="#484E7D"/><path d="m725.438 293.144 1.835 5.117s-9.58 3.412-13.356 2.324l-1.259-5.223 12.78-2.218Z" fill="#EEA886"/><path d="M705.917 302.803s7.51 4.584 10.881 6.268c3.371 1.684 16.472 1.962 17.794 3.241 1.323 1.279.896 5.501-1.258 5.97-2.155.469-18.008 2.281-23.342 1.066-5.334-1.216-15.191 1.172-17.41.426-2.219-.746-.981-13.475-.192-16.353.79-2.878 13.527-.618 13.527-.618Z" fill="#5B639E"/><path d="m704.786 297.494 1.131 5.309s-9.9 2.132-13.527.618l-.661-5.33 13.057-.597Z" fill="#EEA886"/><path d="M629.577 201.677s34.137.298 38.404.895c4.545.64 22.36 1.215 24.515 4.477 21.699 32.92 35.844 86.799 35.844 86.799l-17.068 3.368s-16.6-32.109-23.47-48.804c-6.251-14.924-11.585-18.826-24.685-18.506-13.1.32-54.982-2.538-79.135-5.544l45.595-22.685Z" fill="#292C47"/><path d="M625.95 122.405s10.156 21.854 9.345 29.849c-.811 7.996-9.559 30.703-10.135 35.137-.576 4.435 3.798 13.454 3.798 13.454l-45.722 21.151a126.747 126.747 0 0 1 0-28.784c1.856-15.394 3.2-31.982 5.248-40.659 6.806-29.594 25.219-41.918 25.219-41.918l12.247 11.77Z" fill="#FF7E55"/><path d="M628.916 200.93s34.137.299 38.404.896c4.566.639 22.765.938 24.515 4.477 12.417 25.074 15.212 92.065 15.212 92.065l-15.98 1.919s-6.806-34.114-10.327-50.169c-1.877-8.528-8.961-18.784-18.647-18.208-13.079.746-64.413 13.432-78.943-9.829l45.766-21.151Z" fill="#323657"/><path d="M599.365 143.043c0-4.264 2.56-22.472 12.801-21.321 10.242 1.152 9.111 13.603 8.151 22.921-1.003 9.743-6.06 33.644-4.459 34.86 1.6 1.215 13.846 4.903 16.471 5.436 2.624.533 18.455 4.393 19.778 4.755 1.323.363-1.28 6.524-1.28 6.524s-43.888-1.279-51.206-4.754c-7.318-3.476-.256-48.421-.256-48.421Z" fill="#EEA886"/><path d="M652.171 189.779c1.587.415 3.197.735 4.822.96 1.579.128 9.003-2.836 11.329-2.409a168.883 168.883 0 0 1 17.858 8.123c.683.49-.384 1.492-.384 1.492l-34.905-1.279 1.28-6.887Z" fill="#EEA886"/><path d="m695.882 198.043-58.05-2.34-.214 5.305 58.05 2.34.214-5.305Z" fill="#807066"/><path d="m710.253 146.944-19.632 54.642 5 1.794 19.632-54.642-5-1.794Z" fill="#807066"/><path d="M652.576 88.035s1.088 8.955-1.344 9.339c-2.006.298-1.28 8.954-1.28 10.319 0 1.365-3.777.896-4.801 1.386-1.024.49-6.87 9.019-9.814 8.209-2.945-.811-13.911-10.235-15.981-15.181-2.069-4.947 1.472-22.323 6.401-28.293 4.928-5.97 24.835-1.557 26.819 14.221Z" fill="#EEA886"/><path d="M629.684 110.934s-.299.789-.726 2.004c-.427 1.215-.725 2.132-1.131 3.262a46.477 46.477 0 0 0-2.432 9.36c-.171 3.71-11.692-14.925-11.692-14.925a177.757 177.757 0 0 0 6.721-24.306c2.603-13.112 9.26 24.605 9.26 24.605Z" fill="#EEA886"/><path d="M652.748 89.933a12.213 12.213 0 0 0 2.133-15.224c-5.099-8.827-22.829-3.752-24.536-3.966-1.707-.213-10.54-3.006-12.247 14.03-1.707 17.035-.64 14.477-.64 14.477s4.267-7.313 7.446-6.12a44.57 44.57 0 0 0 8.535 1.749s.106-7.974 4.565-7.356c4.46.618 11.202-.725 14.744 2.41Z" fill="#D88A51"/><path d="m598.576 143.832 23.47.853s3.648-24.455-9.879-23.986c-13.527.469-13.591 23.133-13.591 23.133Z" fill="#FF7E55"/><path d="M630.644 89.186c0-1.087.449-5.629-4.011-4.605-4.459 1.023-1.771 10.959-1.194 11.3.576.341 5.099 2.495 5.205-6.695ZM613.703 110.635s20.184 36.459 19.672 31.278c-.427-4.029-9.153-23.453-9.153-23.453l-10.519-7.825Z" fill="#EEA886"/><path d="M628.958 112.938c-.32.895-.726 2.132-1.131 3.262a66.025 66.025 0 0 1-7.723-12.558c1.664 3.006 8.854 9.296 8.854 9.296Z" fill="#A77860"/><path d="m628.916 200.909-44.955 27.142-.768-5.992 45.723-21.15Z" fill="#D6C5BF"/><path d="M506.15 183.959s5.932 45.606-27.054 80.636c-32.985 35.031-107.319 22.515-107.319 22.515s12.29-41.384 39.237-58.441c26.947-17.057 79.924-22.92 95.136-44.71Z" fill="#869135"/><path d="M467.787 97.48s27.224 51.128 3.755 106.968-116.536 74.07-116.536 74.07-3.841-54.241 20.376-86.265c24.216-32.025 84.127-62.429 92.405-94.773Z" fill="#48753A"/><path d="M244.722 306.448H68.852v2.133h175.87v-2.133Z" fill="#78C2FF"/><path d="m45.296 396.317-35.183-54.923 17.858 8.081 17.325 46.842Z" fill="#D6D6D6"/><path d="m45.296 396.317-2.154-33.112-12.78-7.27 14.934 40.382Z" fill="#E8E8E8"/><path d="m18.2 354.016-4.395 5.799 31.491 36.502L18.2 354.016Z" fill="#C2C2C2"/><path d="M652.172 228.115H216.068c-16.567 0-29.998 13.421-29.998 29.977v327.279c0 16.557 13.431 29.978 29.998 29.978h436.104c16.568 0 29.998-13.421 29.998-29.978V258.092c0-16.556-13.43-29.977-29.998-29.977Z" fill="#E3F2FF"/><path d="M682.192 258.092v8.529h-496.1v-8.529c0-7.95 3.16-15.575 8.786-21.197a30.009 30.009 0 0 1 21.212-8.78h436.103a30.028 30.028 0 0 1 21.206 8.786 29.988 29.988 0 0 1 8.793 21.191Z" fill="#4DA8F2"/><path d="M382.444 318.154H242.439c-6.399 0-11.585 5.183-11.585 11.577v36.673c0 6.394 5.186 11.577 11.585 11.577h140.005c6.399 0 11.586-5.183 11.586-11.577v-36.673c0-6.394-5.187-11.577-11.586-11.577ZM382.443 458.404H242.438a12.57 12.57 0 0 1-8.872-3.685 12.556 12.556 0 0 1-3.673-8.873v-36.715c0-3.327 1.321-6.518 3.673-8.872a12.57 12.57 0 0 1 8.872-3.686h140.005a12.57 12.57 0 0 1 8.873 3.686 12.552 12.552 0 0 1 3.673 8.872v36.651a12.57 12.57 0 0 1-.936 4.821 12.57 12.57 0 0 1-11.61 7.801Zm-140.005-59.827a10.668 10.668 0 0 0-10.668 10.661v36.651c0 2.827 1.124 5.539 3.125 7.538a10.67 10.67 0 0 0 7.543 3.122h140.005a10.659 10.659 0 0 0 10.668-10.66v-36.758a10.659 10.659 0 0 0-10.668-10.66l-140.005.106ZM560.64 477.039H433.735a3.007 3.007 0 0 0-3.008 3.006v3.646a3.007 3.007 0 0 0 3.008 3.006H560.64a3.007 3.007 0 0 0 3.009-3.006v-3.646a3.007 3.007 0 0 0-3.009-3.006ZM433.735 512.091h126.884a3.01 3.01 0 0 1 3.008 3.006v3.625a3.028 3.028 0 0 1-3.029 3.027H433.735a3.007 3.007 0 0 1-3.008-3.006v-3.625a3.022 3.022 0 0 1 .222-1.157 3.014 3.014 0 0 1 2.786-1.87ZM621.342 458.404H447.22a17.482 17.482 0 0 1-12.342-5.122 17.456 17.456 0 0 1-5.11-12.34V334.656a17.474 17.474 0 0 1 5.116-12.333 17.505 17.505 0 0 1 12.336-5.129h174.122a17.506 17.506 0 0 1 12.336 5.129 17.474 17.474 0 0 1 5.116 12.333v106.286c0 4.628-1.838 9.066-5.11 12.34a17.484 17.484 0 0 1-12.342 5.122ZM447.22 319.135a15.557 15.557 0 0 0-10.977 4.552 15.537 15.537 0 0 0-4.555 10.969v106.286c0 4.117 1.636 8.065 4.549 10.976a15.538 15.538 0 0 0 10.983 4.546h174.122a15.562 15.562 0 0 0 10.977-4.553 15.54 15.54 0 0 0 4.555-10.969V334.656a15.541 15.541 0 0 0-4.555-10.969 15.557 15.557 0 0 0-10.977-4.552H447.22Z" fill="#B3DCFF"/><path d="m613.874 489.746-11.03-9.616a2.166 2.166 0 0 1 1.286-3.794 2.17 2.17 0 0 1 1.573.532l7.809 6.802 11.116-12.409a2.178 2.178 0 0 1 3.794 1.329 2.178 2.178 0 0 1-.551 1.571l-13.997 15.585ZM613.874 526.973l-11.03-9.616a2.168 2.168 0 1 1 2.859-3.262l7.809 6.801 11.116-12.409a2.176 2.176 0 0 1 3.243 2.9l-13.997 15.586Z" fill="#4DA8F2"/><path d="M560.64 549.339H433.735a3.007 3.007 0 0 0-3.008 3.006v3.625a3.007 3.007 0 0 0 3.008 3.006H560.64a3.007 3.007 0 0 0 3.009-3.006v-3.625a3.007 3.007 0 0 0-3.009-3.006Z" fill="#B3DCFF"/><path d="m613.874 564.2-11.03-9.616a2.168 2.168 0 1 1 2.859-3.262l7.809 6.801 11.116-12.409a2.172 2.172 0 0 1 3.072-.17c.43.384.689.924.722 1.499a2.178 2.178 0 0 1-.551 1.571L613.874 564.2Z" fill="#4DA8F2"/><path d="M366.784 78.803H105.207c-13.633 0-24.685 11.044-24.685 24.668v151.871c0 13.624 11.052 24.668 24.685 24.668h261.577c13.633 0 24.685-11.044 24.685-24.668V103.471c0-13.624-11.052-24.668-24.685-24.668Z" fill="#E0F1FF" opacity=".83"/><path d="M138.703 195.749a46.83 46.83 0 0 0 42.088-6.091 46.76 46.76 0 0 0 19.786-37.617v-3.134a46 46 0 0 0-2.731-13.433 46.783 46.783 0 0 0-13.214-19.237 46.841 46.841 0 0 0-44.201-9.555 46.806 46.806 0 0 0-31.662 32.268 46.746 46.746 0 0 0 10.428 43.975 46.818 46.818 0 0 0 19.506 12.824Zm-20.077-44.774a35.041 35.041 0 0 1 8.402-22.383 35.096 35.096 0 0 1 44.343-7.515 35.061 35.061 0 0 1 15.317 18.363 35.056 35.056 0 0 1 2.133 10.064v2.345a35.04 35.04 0 0 1-10.59 24.654 35.089 35.089 0 0 1-24.934 9.95 35.084 35.084 0 0 1-24.671-10.583 35.04 35.04 0 0 1-9.957-24.916l-.043.021Z" fill="#78C2FF"/><path d="m181.526 172.914 9.26 7.164a46.941 46.941 0 0 1-23.538 16.142 46.967 46.967 0 0 1-28.543-.471l3.755-11.087a35.181 35.181 0 0 0 38.981-11.748h.085Z" fill="#1A598C"/><path d="m197.783 135.474-11.009 3.988a35.112 35.112 0 0 1-5.249 33.431l9.26 7.164a46.876 46.876 0 0 0 6.998-44.604v.021Z" fill="#2273B5"/><path d="M125.646 114.089a46.846 46.846 0 0 1 41.442-7.493 46.816 46.816 0 0 1 18.773 10.763 46.768 46.768 0 0 1 11.922 18.051l-11.009 4.009a35.077 35.077 0 0 0-23.114-21.68 35.093 35.093 0 0 0-31.165 5.796l-6.849-9.446Z" fill="#4DA8F2"/><path d="M279.52 348.302V347.15a17.008 17.008 0 0 0-1.024-5.01 17.371 17.371 0 0 0-4.914-7.152 17.394 17.394 0 0 0-16.435-3.539 17.376 17.376 0 0 0-11.898 20.691 17.372 17.372 0 0 0 11.335 12.408 17.434 17.434 0 0 0 11.415 0 17.378 17.378 0 0 0 11.479-14.775c.042-.533.042-1.002.042-1.471Zm-30.425-.384a13.05 13.05 0 0 1 10.884-12.612 13.068 13.068 0 0 1 8.716 1.576 13.05 13.05 0 0 1 5.705 6.772c.435 1.206.687 2.471.746 3.752v.874a13.067 13.067 0 0 1-3.861 9.083 13.02 13.02 0 0 1-9.345 3.774 13.362 13.362 0 0 1-2.795-.362 14.13 14.13 0 0 1-1.216-.32 13.056 13.056 0 0 1-8.855-12.537h.021Z" fill="#E3F2FF"/><path d="M341.65 104.665h-89.077c-11.995 0-21.719 9.718-21.719 21.705V231.1c0 11.987 9.724 21.705 21.719 21.705h89.077c11.996 0 21.72-9.718 21.72-21.705V126.37c0-11.987-9.724-21.705-21.72-21.705Z" fill="#2348FF"/><path d="M200.193 218.669h-86.794a4.927 4.927 0 0 0-4.928 4.926v.639a4.926 4.926 0 0 0 4.928 4.925h86.794a4.927 4.927 0 0 0 4.929-4.925v-.639a4.928 4.928 0 0 0-4.929-4.926ZM200.193 242.315h-86.794a4.926 4.926 0 0 0-4.928 4.925v.64a4.926 4.926 0 0 0 4.928 4.925h86.794a4.927 4.927 0 0 0 4.929-4.925v-.64a4.927 4.927 0 0 0-4.929-4.925Z" fill="#B3DCFF"/><path d="M725.374 312.141H551.252c-9.108 0-16.492 7.379-16.492 16.481v106.307c0 9.103 7.384 16.482 16.492 16.482h174.122c9.108 0 16.492-7.379 16.492-16.482V328.622c0-9.102-7.384-16.481-16.492-16.481Z" fill="#2348FF" opacity=".78"/><path d="M618.973 328.793h-57.116a6.228 6.228 0 0 0-6.23 6.226v46.544a6.228 6.228 0 0 0 6.23 6.226h57.116a6.228 6.228 0 0 0 6.23-6.226v-46.544a6.228 6.228 0 0 0-6.23-6.226ZM722.771 328.793h-82.25a3.647 3.647 0 0 0-3.648 3.646v8.443a3.647 3.647 0 0 0 3.648 3.646h82.25a3.647 3.647 0 0 0 3.648-3.646v-8.443a3.647 3.647 0 0 0-3.648-3.646ZM722.771 353.398h-82.25a3.647 3.647 0 0 0-3.648 3.646v8.443a3.647 3.647 0 0 0 3.648 3.646h82.25a3.647 3.647 0 0 0 3.648-3.646v-8.443a3.647 3.647 0 0 0-3.648-3.646ZM723.092 424.226h-31.726a3.306 3.306 0 0 0-3.307 3.305v1.514a3.306 3.306 0 0 0 3.307 3.305h31.726a3.306 3.306 0 0 0 3.307-3.305v-1.514a3.306 3.306 0 0 0-3.307-3.305Z" fill="#E3F2FF"/><path d="M297.399 405.293H157.394c-6.398 0-11.585 5.184-11.585 11.578v36.672c0 6.394 5.187 11.577 11.585 11.577h140.005c6.399 0 11.586-5.183 11.586-11.577v-36.672c0-6.394-5.187-11.578-11.586-11.578Z" fill="#4DA8F2" style="mix-blend-mode:multiply" opacity=".78"/><path d="m570.435 92.875-.427-1.876a44.616 44.616 0 0 0 5.184-1.493l.726 1.791a46.354 46.354 0 0 1-5.483 1.578ZM13.484 321.586c-1.194-3.326-2.325-6.865-3.392-10.511l1.856-.533c1.046 3.603 2.134 7.1 3.35 10.383l-1.814.661Zm-6.187-21.193a223.56 223.56 0 0 1-2.283-10.788l1.899-.363c.683 3.625 1.45 7.228 2.262 10.661l-1.878.49Zm-4.118-21.641a299.722 299.722 0 0 1-1.408-10.938l1.92-.213a342.26 342.26 0 0 0 1.387 10.853l-1.899.298ZM.79 256.855c-.255-3.646-.469-7.334-.597-11.001h1.942c.128 3.624.32 7.313.576 10.916l-1.92.085Zm1.153-22.024H.022c0-3.646 0-7.356.213-11.002h1.92c-.15 3.71-.213 7.398-.213 11.023v-.021Zm.79-21.855-1.921-.149c.256-3.667.597-7.356 1.003-10.98l1.92.234c-.405 3.604-.726 7.271-1.003 10.895Zm2.431-21.747-1.92-.299A296.129 296.129 0 0 1 5.1 180.057l1.9.383c-.577 3.561-1.302 7.186-1.836 10.81v-.021Zm4.118-21.513-1.877-.427c.832-3.582 1.77-7.185 2.752-10.66l1.856.512a240.749 240.749 0 0 0-2.73 10.596v-.021Zm5.91-21.044-1.835-.618a258.806 258.806 0 0 1 3.713-10.384l1.813.704a227.145 227.145 0 0 0-3.69 10.319v-.021Zm7.852-20.426-1.771-.767a214.109 214.109 0 0 1 4.715-9.979l1.728.875a208.49 208.49 0 0 0-4.672 9.893v-.022Zm9.836-19.509-1.665-.959a173.339 173.339 0 0 1 5.74-9.424l1.621 1.066a217.631 217.631 0 0 0-5.696 9.339v-.022Zm515.472-13.41v-1.94c3.734 0 7.404-.257 10.882-.64l.192 1.918c-3.478.384-7.191.597-11.074.661Zm-11.052-.299a154.761 154.761 0 0 1-10.988-1.109l.256-1.897c3.649.49 7.319.852 10.86 1.087l-.128 1.919Zm-21.89-2.9c-3.542-.703-7.148-1.513-10.668-2.452l.469-1.855c3.585.917 7.169 1.727 10.668 2.41l-.469 1.897ZM44.827 90.444l-1.558-1.151c2.134-2.964 4.46-5.885 6.785-8.7l1.493 1.237c-2.346 2.772-4.587 5.672-6.72 8.614Zm449.331-3.774a223.268 223.268 0 0 1-10.454-3.518l.661-1.812a247.823 247.823 0 0 0 10.369 3.496l-.576 1.834Zm-20.717-7.484a316.375 316.375 0 0 1-10.113-4.392l.811-1.77c3.35 1.536 6.721 3.007 10.028 4.265l-.726 1.897ZM58.695 73.622l-1.408-1.365a191.922 191.922 0 0 1 7.766-7.825l1.323 1.386a240.674 240.674 0 0 0-7.681 7.804Zm394.712-3.604a305.737 305.737 0 0 1-9.75-5.117l.917-1.705c3.222 1.77 6.401 3.475 9.686 5.095l-.853 1.727Zm-19.33-10.66c-1.259-.746-2.539-1.493-3.819-2.282-1.793-1.066-3.691-2.132-5.633-3.304l.96-1.685a366.89 366.89 0 0 1 5.675 3.348l3.798 2.26-.981 1.663Zm-359.508-.874-1.26-1.472c1.942-1.62 3.927-3.24 5.91-4.776l2.732-2.132 1.173 1.535-2.71 2.133c-2.026 1.62-3.99 3.22-5.888 4.818l.043-.106Zm340.434-9.979c-3.158-1.663-6.401-3.347-9.772-4.968l.853-1.727c3.35 1.62 6.657 3.305 9.836 4.99l-.917 1.705ZM91.957 45.392l-1.088-1.577c3.009-2.133 6.124-4.115 9.217-6.056l1.024 1.642a281.24 281.24 0 0 0-9.153 5.991Zm303.331-6.396a539.827 539.827 0 0 0-10.028-4.435l.769-1.77a478.793 478.793 0 0 1 10.07 4.457l-.811 1.748Zm-284.79-5.117-.939-1.684c3.179-1.791 6.401-3.54 9.708-5.203l.875 1.727a150.64 150.64 0 0 0-9.644 5.16Zm264.564-3.497a422.261 422.261 0 0 0-10.241-3.923l.661-1.812a425.93 425.93 0 0 1 10.284 3.944l-.704 1.791Zm-245.106-6.396-.789-1.748a175.982 175.982 0 0 1 10.156-4.265l.704 1.791c-3.307 1.322-6.7 2.687-10.007 4.18l-.064.042Zm224.538-1.215a371.343 371.343 0 0 0-10.433-3.412l.576-1.833c3.478 1.087 6.998 2.132 10.476 3.411l-.619 1.834Zm-20.93-6.546a340.623 340.623 0 0 0-10.668-2.857l.469-1.876c3.521.895 7.105 1.876 10.668 2.878l-.469 1.855Zm-183.275-.298-.64-1.813a251.985 251.985 0 0 1 10.519-3.368l.533 1.854c-3.413.981-6.934 2.09-10.348 3.284l-.064.043Zm162.024-5.117a436.684 436.684 0 0 0-10.667-2.282l.362-1.897c3.563.703 7.19 1.47 10.668 2.28l-.363 1.899Zm-141.05-1.088-.47-1.855a254.588 254.588 0 0 1 10.668-2.43l.384 1.897a269.939 269.939 0 0 0-10.518 2.346l-.064.042Zm119.48-3.134c-3.606-.618-7.254-1.151-10.817-1.642l.256-1.919a407.72 407.72 0 0 1 10.881 1.642l-.32 1.919Zm-98.145-1.194-.298-1.919c3.584-.576 7.254-1.066 10.902-1.514l.235 1.92c-3.457.383-7.126.895-10.668 1.47l-.171.043Zm76.404-1.727a323.77 323.77 0 0 0-10.924-.938l.128-1.92c3.627.235 7.318.555 10.988.94l-.192 1.918Zm-54.684-.832-.149-1.918c3.627-.299 7.339-.512 11.009-.64v1.919c-3.414.106-7.083.32-10.689.597l-.171.042Zm32.815-.682c-3.499 0-7.041-.17-10.498-.17h-.448V.043h.662c3.477 0 7.041 0 10.668.191l-.384 1.92ZM19.991 336.852c-.81-1.599-1.643-3.283-2.41-5.031l1.749-.789a119.94 119.94 0 0 0 2.368 4.946l-1.707.874Z" fill="#C2BEBC"/><path d="M234.203 506.888h-14.849v53.9h14.849v-53.9ZM255.326 501.451h-14.849v59.337h14.849v-59.337ZM276.746 512.752h-14.85v48.058h14.85v-48.058ZM298.147 490.471h-14.85v70.317h14.85v-70.317ZM320.635 497.486h-14.85v63.324h14.85v-63.324ZM343.4 506.888h-14.849v53.9H343.4v-53.9ZM364.522 501.451h-14.85v59.337h14.85v-59.337ZM385.943 512.752h-14.849v48.058h14.849v-48.058Z" fill="#78C2FF"/><path d="M196.46 433.309v-.234a17.727 17.727 0 0 0-1.002-5.011 17.4 17.4 0 0 0-6.284-8.224 17.418 17.418 0 0 0-9.846-3.204 17.417 17.417 0 0 0-12.329 4.899 17.394 17.394 0 0 0-5.295 12.158 17.393 17.393 0 0 0 11.821 16.694c1.724.59 3.532.899 5.355.917a17.414 17.414 0 0 0 11.825-4.435 17.393 17.393 0 0 0 5.713-11.257v-1.471c.031-.276.046-.554.042-.832Zm-30.403.533a13.052 13.052 0 0 1 10.884-12.611 13.058 13.058 0 0 1 14.42 8.347c.432 1.209.69 2.472.768 3.753v.874a12.758 12.758 0 0 1-.554 3.624 13.424 13.424 0 0 1-2.134 4.265c-.361.446-.746.873-1.152 1.279a13.035 13.035 0 0 1-9.345 3.774 15.017 15.017 0 0 1-2.795-.341l-1.216-.342a13.051 13.051 0 0 1-8.876-12.622Z" fill="#E3F2FF"/><path d="M580.398 575.457H464.139c-8.19 0-14.828 6.634-14.828 14.818v84.347c0 8.183 6.638 14.818 14.828 14.818h116.259c8.189 0 14.828-6.635 14.828-14.818v-84.347c0-8.184-6.639-14.818-14.828-14.818Z" fill="#4DA8F2" opacity=".74"/><path d="M577.432 587.12h-52.081c-5.008 0-9.068 4.057-9.068 9.061v70.445c0 5.005 4.06 9.062 9.068 9.062h52.081c5.008 0 9.067-4.057 9.067-9.062v-70.445c0-5.004-4.059-9.061-9.067-9.061ZM469.878 587.12h26.669a5.579 5.579 0 0 1 3.938 1.63 5.571 5.571 0 0 1 1.631 3.935v1.514a5.547 5.547 0 0 1-5.547 5.543h-26.67a5.55 5.55 0 0 1-3.923-1.624 5.54 5.54 0 0 1-1.624-3.919v-1.472a5.564 5.564 0 0 1 5.526-5.607ZM496.57 610.701h-26.691a5.546 5.546 0 0 0-5.547 5.543v1.536a5.546 5.546 0 0 0 5.547 5.543h26.691a5.546 5.546 0 0 0 5.548-5.543v-1.536a5.546 5.546 0 0 0-5.548-5.543Z" fill="#E3F2FF"/><path opacity=".5" d="M290.68 211.671s-10.23-13.261-13.262-21.597c-3.031-8.336-3.031-15.156-1.894-18.566.947-2.766 2.842-3.562 3.524-3.751-1.516-.872-2.008-2.008-2.008-3.107 1.818-1.213 1.818-3.335 1.818-3.335 1.516.304 1.516-1.818 1.516-3.031 0-1.174-.834-.644-.91-.606.038-.076.569-1.023 0-3.94-.606-3.032-3.031-3.827-5.153-3.827-2.121 0-4.546.795-5.153 3.827-.568 2.917-.037 3.864 0 3.94-.075-.038-.909-.568-.909.606 0 1.213 0 3.335 1.516 3.031 0 0 0 2.122 1.818 3.335 0 1.212-.606 2.425-2.425 3.334-1.818.909-6.668 1.819-8.449 3.031-1.819 1.213-2.122 4.85-1.212 9.662.909 4.85 6.554 25.689 31.562 31.373v-.076l-.379-.303Z" fill="#fff"/><path d="M314.551 170.371c-2.274-1.515-8.336-2.652-10.61-3.789-2.273-1.136-3.031-2.652-3.031-4.168 2.274-1.515 2.274-4.167 2.274-4.167 1.894.378 1.894-2.274 1.894-3.789 0-1.516-1.137-.758-1.137-.758s.758-1.137 0-4.926c-.757-3.789-3.789-4.774-6.441-4.774-2.652 0-5.683.985-6.441 4.774s0 4.926 0 4.926-1.137-.758-1.137.758c0 1.515 0 4.167 1.895 3.789 0 0 0 2.652 2.273 4.167 0 1.516-.758 3.032-3.031 4.168-2.273 1.137-8.336 2.274-10.609 3.789-2.274 1.516-2.653 6.063-1.516 12.125s6.82 19.4 18.566 30.729c11.746-11.329 17.429-24.667 18.566-30.729 1.137-6.062.758-10.609-1.515-12.125Z" fill="#fff"/><path opacity=".5" d="M334.29 171.015c-1.819-1.212-6.668-2.122-8.449-3.031-1.819-.909-2.425-2.122-2.425-3.334 1.818-1.213 1.818-3.335 1.818-3.335 1.516.304 1.516-1.818 1.516-3.031 0-1.174-.834-.644-.909-.606.038-.076.568-1.023 0-3.94-.607-3.032-3.031-3.827-5.153-3.827-2.122 0-4.547.795-5.153 3.827-.569 2.917-.038 3.864 0 3.94-.076-.038-.91-.568-.91.606 0 1.213 0 3.335 1.516 3.031 0 0 0 2.122 1.819 3.335 0 1.136-.531 2.235-2.009 3.107.683.189 2.615.947 3.524 3.751 1.137 3.41 1.137 10.192-1.894 18.566-3.031 8.336-13.262 21.597-13.262 21.597l-.379.303v.076c25.008-5.684 30.653-26.523 31.563-31.373.909-4.812.606-8.449-1.213-9.662Z" fill="#fff"/></svg>