<svg width="943" height="780" fill="none" xmlns="http://www.w3.org/2000/svg"><path d="M428.704 701.212c216.389 0 391.807-29.277 391.807-65.392 0-36.115-175.418-65.392-391.807-65.392S36.897 599.705 36.897 635.82c0 36.115 175.418 65.392 391.807 65.392Z" fill="#000" opacity=".1"/><path d="M138.054 638.123a107.052 107.052 0 0 1-44.75-9.914c-18.222-8.789-33.45-24.153-40.297-43.155-14.471-40.536 9.876-81.055 13.96-121.098 4.736-46.601-24.981-86.276-23.678-132.173 1.232-43.419 19.488-84.957 48.676-116.932 32.203-35.025 76.307-56.831 123.725-61.173 64.362-5.572 124.851 13.113 181.098-28.372 32.604-24.03 62.214-53.807 100.346-67.589 30.544-11.04 65.489-10.547 94.871 3.34 29.382 13.887 52.444 41.221 59.168 72.951 10.44 49.307-16.829 105.259 8.398 148.907 27.393 47.462 97.423 47.848 137.861 84.816 30.35 27.739 39.346 74.269 27.516 113.61-14.084 46.776-52.919 81.792-96.121 102.131-40.244 18.949-84.713 26.948-128.812 32.907a1594.504 1594.504 0 0 1-266.146 13.939c-28.167-.914-57.232-8.912-85.223-6.943-35.368 2.443-73.887 15.416-110.592 14.748Z" fill="#FFE570"/><path d="M771.87 501.978c-8.802-.246-17.375 2.144-26.125 1.986-8.749-.158-18.414-3.832-21.618-11.953-3.68-9.282 2.623-19.336 9.101-26.965 9.7-11.374 20.686-21.886 28.168-34.859 7.481-12.973 10.879-29.408 4.365-42.856-10.316-21.34-41.335-25.014-62.056-13.5-20.72 11.514-33.325 33.241-44.416 54.194-11.091 20.954-22.41 43.015-41.899 56.515-19.488 13.5-49.944 14.573-64.221-4.342-14.594-19.336-5.563-46.53-5.598-70.736 0-41.731-33.449-80.966-74.608-87.892-10.563-1.758-22.323-1.301-30.65 5.414-13.767 11.092-11.196 33.276-2.165 48.464 9.031 15.188 22.886 27.317 30.139 43.436 10.122 22.694 3.662 52.138-16.196 67.08S402.65 498.181 387 478.933c-16.39-20.11-22.64-46.162-20.862-71.949 1.778-25.788 7.5-62.949-11.619-80.369-20.438-18.616-54.574-17.965-71.597 9.422-11.443 18.352-7.834 53.931-9.155 75.588-1.32 21.656 0 43.436-4.049 64.671-1.848 9.685-5.017 19.494-11.689 26.754-6.672 7.26-17.605 11.391-26.759 7.84-8.802-3.375-14.084-12.727-15.844-21.973-1.761-9.246-1.162-18.791-2.06-28.125-2.13-22.185-15.193-44.474-36.195-52.033-21.002-7.559-48.553 4.869-52.162 26.86-2.165 13.254 3.996 26.368 10.316 38.181 6.32 11.812 13.204 24.311 12.588 37.723-.617 13.412-12.324 27.264-25.527 24.61-11.232-2.25-17.253-14.291-26.407-21.217-15.597-11.813-40.332-5.959-51.722 9.932-11.39 15.89-10.37 38.549-.616 55.512 9.753 16.964 26.882 28.671 45.173 35.65 18.291 6.978 37.885 9.685 57.285 12.304 0 0 224.493-48.059 351.316-32.977 74.186 8.789 145.308 43.454 219.881 39.2 24.506-1.406 49.399-7.365 69.274-21.727 19.876-14.361 33.906-38.198 32.076-62.632-1.831-24.434-22.253-47.515-46.776-48.2Z" fill="#67B2F5"/><path d="m785.689 617.785-387.687-39.78-310.298 56.321v3.305l311.636 54.458 386.349-70.999v-3.305Z" fill="#005875"/><path d="m113.671 630.775-25.967 3.586V577.53h25.967v53.245Z" fill="#005875"/><path d="m399.34 683.194 374.308-66.059v-53.914L399.34 629.264v53.93Z" fill="#E9F2FF"/><path d="m748.474 569.429-349.33 66.162.334 1.761 349.331-66.161-.335-1.762ZM748.474 602.634l-349.33 66.161.334 1.761 349.331-66.161-.335-1.761ZM756.837 582.757 399.16 648.628l.326 1.764 357.677-65.872-.326-1.763ZM748.464 609.285l-349.33 66.161.334 1.762 349.331-66.162-.335-1.761Z" fill="#90D4F6" opacity=".25"/><path d="M399.34 683.194 99.746 632.27v-53.914l299.594 50.908v53.93Z" fill="#fff"/><path d="m124.899 584.55-.328 1.762 274.636 50.925.328-1.763-274.636-50.924ZM124.904 617.736l-.328 1.763 274.636 50.924.328-1.763-274.636-50.924ZM116.648 597.841l-.319 1.765 282.921 50.932.319-1.765-282.921-50.932ZM124.915 624.398l-.328 1.763 274.636 50.925.328-1.763-274.636-50.925Z" fill="#90D4F6" opacity=".25"/><path d="m785.689 561.288-387.687-39.78-310.298 52.735v3.287l310.298 55.46 387.687-68.398v-3.304Z" fill="#2348FF"/><path d="M282.921 326.615a36.589 36.589 0 0 0-17.557-17.129 36.668 36.668 0 0 0-24.447-2.207 42.734 42.734 0 0 0-11.315-26.479 42.881 42.881 0 0 0-53.784-7.443 42.78 42.78 0 0 0-18.1 22.408 74.742 74.742 0 0 0-13.696-1.266c-25.58 0-47.937 12.885-59.997 32.046l198.896.07ZM488.736 271.208a35.942 35.942 0 0 1 17.266-16.809 36.014 36.014 0 0 1 24.017-2.141 42.023 42.023 0 0 1 11.139-25.996 42.16 42.16 0 0 1 52.832-7.313 42.058 42.058 0 0 1 17.802 21.988 73.831 73.831 0 0 1 13.468-1.23c25.157 0 47.127 12.656 58.992 31.501H488.736ZM341.052 187.552a35.936 35.936 0 0 1 17.265-16.809 36.014 36.014 0 0 1 24.017-2.141 42.02 42.02 0 0 1 11.128-26.023 42.158 42.158 0 0 1 52.866-7.317 42.06 42.06 0 0 1 17.797 22.019 73.831 73.831 0 0 1 13.468-1.23c25.156 0 47.127 12.656 58.992 31.501H341.052Z" fill="#fff"/><path d="m466.75 671.964-11.91 2.558 2.817 13.078 11.91-2.558-2.817-13.078Z" fill="#FCD4CB"/><path d="m489.247 683.827 1.021 4.711-21.936 4.711-1.179-1.845v2.091l-7.852 1.758-1.637-7.611 11.918-2.567 19.665-1.248Z" fill="#00688A"/><path d="m452.964 679.802 17.991-3.868-13.942-67.677-20.14-3.129 16.091 74.674Z" fill="#FE6A3C"/><path d="m422.032 587.427-.792 7.19-44.099-1.249.897-12.498 43.994 6.557Z" fill="#FC957E"/><path d="m452.428 705.801-12.182.07.077 13.377 12.182-.07-.077-13.377Z" fill="#FCD4CB"/><path d="M472.011 722.008v4.816l-22.445.141-.757-2.057-.423 2.057h-8.028v-7.787h12.183l19.47 2.83Z" fill="#005875"/><path d="m457.593 643.608.881-1.864a11.483 11.483 0 0 0 .445-8.783 11.503 11.503 0 0 0-5.903-6.527l-62.073-31.308c-5.739-2.724-2.113 6.504-4.842 12.305l-.898 1.864a11.483 11.483 0 0 0-.445 8.783 11.503 11.503 0 0 0 5.903 6.527l51.581 24.505a11.541 11.541 0 0 0 15.351-5.502Z" fill="#D14A1F"/><path d="m436.486 708.173 18.397.37 4.7-70.982-23.502-4.782.405 75.394Z" fill="#D14A1F"/><path d="M359.343 613.004h50.754v-60.383c0-6.011-4.595-9.299-9.736-11.25-2.658-1.002-5.439-1.635-8.168-2.408-1.356-.387-6.391-2.865-7.464-2.479l-4.331 1.565c-3.75 1.353-7.5 2.461-11.337 3.516-5.282 1.494-9.718 5.045-9.718 11.021v60.418Z" fill="#24C8D1"/><path d="M397.404 632.006h-25.368a12.711 12.711 0 0 1-8.976-3.712 12.682 12.682 0 0 1-3.717-8.962v-6.328h50.754v6.328c0 3.361-1.338 6.585-3.718 8.962a12.701 12.701 0 0 1-8.975 3.712Z" fill="#FE6A3C"/><path d="m457.488 611.562-.229-2.039a11.508 11.508 0 0 0-4.28-7.646 11.54 11.54 0 0 0-8.43-2.426l-85.206 13.64s17.604-.966 18.256 5.274l.211 2.022c.704 6.31 15.246 12.199 21.566 11.496l47.937-7.612a11.54 11.54 0 0 0 4.287-1.355 11.527 11.527 0 0 0 3.44-2.893 11.481 11.481 0 0 0 2.448-8.461Z" fill="#FE6A3C"/><path d="M385.486 543.903a5.03 5.03 0 0 0 5.51-4.536l1.109-11.514-10.052-.966-1.109 11.513a5.016 5.016 0 0 0 1.125 3.695 5.033 5.033 0 0 0 3.417 1.808Z" fill="#FCD4CB"/><path d="m382.316 524.109 10.053.967-1.233 12.885c-4.419-1.178-8.45-4.939-8.908-9.369a19.771 19.771 0 0 1 0-3.059l.088-1.424Z" fill="#FC957E"/><path d="M393.637 535.096a6.332 6.332 0 0 0 2.359-.879 10.913 10.913 0 0 0 4.207-7.032c.299-1.388 2.113-21.094 2.13-21.094l-19.981-1.898c-.329 3.586-.675 7.184-1.038 10.793a54.6 54.6 0 0 0-.828 10.424c.687 5.906 7.412 10.565 13.151 9.686Z" fill="#FCD4CB"/><path d="M395.379 524.601a.227.227 0 0 1-.211-.228v-1.108a.26.26 0 0 1 .026-.097.236.236 0 0 1 .062-.078.266.266 0 0 1 .176 0l1.602.246-1.76-5.08a.215.215 0 0 1 .007-.173.217.217 0 0 1 .133-.109.225.225 0 0 1 .169.015.226.226 0 0 1 .113.126l1.761 5.414a.21.21 0 0 1 .033.114.211.211 0 0 1-.033.115.23.23 0 0 1-.106.025.23.23 0 0 1-.106-.025l-1.76-.264v.844a.247.247 0 0 1-.211.246l.105.017Z" fill="#FC957E"/><path d="M398.478 525.129a3.907 3.907 0 0 1-4.013 2.458 3.906 3.906 0 0 1-3.469-3.179l7.482.721Z" fill="#fff"/><path d="m354.185 590.89-1.127-.405c-3.521-1.212-3.521-4.517-2.218-7.998l9.207-31.782a6.688 6.688 0 0 1 8.538-4.078l1.127.387a6.7 6.7 0 0 1 3.805 3.421 6.682 6.682 0 0 1 .279 5.104l-12.833 30.499c-1.25 3.481-3.292 6.082-6.778 4.852Z" fill="#FCD4CB"/><path d="m399.974 585.194-.775 7.19-44.117-1.266.898-12.498 43.994 6.574Z" fill="#FCD4CB"/><path d="M397.017 588.534c-.264.229.827 2.778.985 3.094a10.048 10.048 0 0 0 3.31 3.867 21.142 21.142 0 0 0 6.602 3.217c1.769.518 3.621.697 5.457.528a1.155 1.155 0 0 0 .871-.598 1.132 1.132 0 0 0 .009-1.055c-.176-.334-.299-.633-.352-.721-.669-1.142-1.285-2.267-2.042-3.339-2.271-3.182-7.605-7.577-11.865-8.333-2.606 1.952-.388 1.354-2.975 3.34Z" fill="#FCD4CB"/><path d="M373.831 545.696a21.346 21.346 0 0 1 .863 16.242 63.266 63.266 0 0 1-7.623 14.819c-5.281-.914-10.668-1.758-16.055-2.285a265.29 265.29 0 0 1 7.306-20.936 20.514 20.514 0 0 1 4.101-7.032c2.905-2.883 7.658-2.426 11.408-.808Z" fill="#24C8D1"/><path d="m399.64 602.826 17.411.843 3.961-4.201-21.372.861v2.497Z" fill="#E9F2FF"/><path d="M420.695 601.191H399.64v-.862l21.055-1.687v2.549Z" fill="#E9F2FF"/><path d="m417.051 603.669 47.673-5.168 8.609-34.647h-46.388l-9.894 39.815Z" fill="#fff"/><path d="M409.691 507.234c-.704-5.133-5.087-7.032-9.224-9.123-5.282-2.584-15.845-7.19-17.288 2.338a4.633 4.633 0 0 0-5.898 0c-2.2 1.916.229 7.576-.246 10.758-.317 2.179-1.761 4.148-1.391 6.433a4.325 4.325 0 0 0 4.463 3.702 4.327 4.327 0 0 0 4.146-4.053c.105-1.424-.476-2.953.176-4.219.651-1.266 1.76-1.529 2.447-2.408 0 0 2.693 2.179 3.926 3.058a15.85 15.85 0 0 0 11.936 2.743 8.224 8.224 0 0 0 5.376-3.187 8.195 8.195 0 0 0 1.577-6.042Z" fill="#00688A"/><path d="m590.296 686.675-8.115-45.405 142.702-24.399 8.116 45.387-142.703 24.417Z" fill="#FFBF00"/><path d="m590.22 686.642-8.106-45.393-17.747 3.16 8.106 45.393 17.747-3.16Z" fill="#00688A"/><path d="m572.481 689.809-8.106-45.392-33.518 5.968 8.105 45.392 33.519-5.968Z" fill="#A3CFD1"/><path d="M563.749 644.574c9.26-1.652 17.358 43.736 8.098 45.388-9.243 1.653-17.358-43.753-8.098-45.388Z" fill="#A3CFD1"/><path d="M582.023 641.235c9.26-1.653 17.375 43.752 8.115 45.405-9.26 1.635-17.375-43.753-8.115-45.405Z" fill="#00688A"/><path d="m732.999 662.258-8.116-45.387 43.729 17.016-35.613 28.371Z" fill="#FCD4CB"/><path d="M723.634 617.275c9.26-1.652 17.305 43.349 8.045 45.001-9.26 1.635-17.305-43.366-8.045-45.001Z" fill="#FFBF00"/><path d="M753.578 628.033a80.09 80.09 0 0 1 2.852 15.575l12.2-9.721-15.052-5.854Z" fill="#005875"/><path d="m724.901 616.871-142.72 24.416-17.746 3.164-33.448 5.96s-3.363 0-4.085 8.613c.1 5.117.5 10.223 1.197 15.293l238.172-41.379-41.37-16.067Z" fill="#000" opacity=".1"/><path d="M530.916 650.428c9.26-1.652 17.376 43.753 8.116 45.388-9.26 1.635-17.376-43.753-8.116-45.388Z" fill="#00688A"/><path d="M672.44 561.446c0 3.867-21.126 7.031-47.321 7.031-26.196 0-47.321-3.146-47.321-7.031s21.125-7.032 47.321-7.032c26.195 0 47.321 3.147 47.321 7.032Z" fill="#000" opacity=".1"/><path d="M594.804 337.197v1.178c.176 3.691 3.345 4.606 7.042 4.447l33.114.493a6.724 6.724 0 0 0 4.658-2.19 6.684 6.684 0 0 0 1.732-4.842v-1.178a6.682 6.682 0 0 0-2.187-4.663 6.701 6.701 0 0 0-4.855-1.735l-32.955 3.392c-3.644.159-6.708 1.407-6.549 5.098Z" fill="#FC957E"/><path d="M643.832 331.555c-3.944-3.938-7.834-9.44-13.415-9.423 0 0-12.939 5.379-18.326 6.856 0 0-.845 6.75-2.465 15.996 7.235 0 14.964-.281 22.182-.896a19.949 19.949 0 0 0 7.975-1.863c3.573-1.952 4.489-6.627 4.049-10.67Z" fill="#D14A1F"/><path d="m606.343 307.401-187.925-9.342-7.542 151.269 187.925 9.341 7.542-151.268Z" fill="#2348FF"/><path d="m594.773 319.199-166.034-8.254-6.31 126.567 166.034 8.253 6.31-126.566Z" fill="#fff"/><path d="m590.543 403.767-38.888-69.611-52.814 75.728-31.389-56.163-44.011 63.107-1.021 20.707 166.028 8.262 2.095-42.03Z" fill="#A3CFD1"/><path d="m658.396 540.677-12.094 1.461 1.609 13.281 12.094-1.462-1.609-13.28Z" fill="#FCD4CB"/><path d="m628.938 560.778.581 4.799 22.27-2.707c.176-.703.335-1.407.511-2.11.229.651.44 1.319.669 1.969l7.975-.949-.951-7.735-12.094 1.459-18.961 5.274Z" fill="#24C8D1"/><path d="m606.836 541.126-2.022 13.224 12.043 1.836 2.022-13.224-12.043-1.836Z" fill="#FCD4CB"/><path d="m585.227 554.432-.722 4.764 22.182 3.34 1.056-1.916.123 2.092 7.922 1.212 1.18-7.699-12.042-1.846-19.699.053ZM621.368 479.917l-2.042-.246a11.517 11.517 0 0 1-7.675-4.313 11.48 11.48 0 0 1-2.377-8.467l7.799-69.153c.757-6.294 5.545 1.757 11.865 2.443l2.042.246c3.03.365 5.79 1.916 7.675 4.313a11.485 11.485 0 0 1 2.378 8.467l-6.796 56.637a11.477 11.477 0 0 1-4.333 7.714 11.523 11.523 0 0 1-8.536 2.359Z" fill="#1EA8B0"/><path d="m621.791 545.045-18.273-2.197 5.756-75.992 23.344 3.568-10.827 74.621Z" fill="#1EA8B0"/><path d="m667.669 395.294-50.754-.932s1.109-60.294 1.109-60.382c.106-6.011 4.771-9.211 9.947-11.057 2.676-.966 5.457-1.546 8.203-2.267 1.356-.369 6.444-2.76 7.518-2.338l4.295 1.635c3.732 1.424 7.447 2.601 11.267 3.762 5.281 1.599 9.63 5.273 9.524 11.197l-1.109 60.382Z" fill="#FE6A3C"/><path d="m647.265 375.993 1.162.316c3.521.967 5.405-1.758 6.373-5.273l10.563-31.36a6.67 6.67 0 0 0-.647-5.071 6.655 6.655 0 0 0-4.054-3.121l-1.162-.316a6.704 6.704 0 0 0-5.094.588 6.694 6.694 0 0 0-3.18 4.017l-6.76 32.38c-.986 3.586-.757 6.891 2.799 7.84Z" fill="#FCD4CB"/><path d="m607.972 385.503 3.133 6.521 39.628-15.627-3.415-11.637-39.346 20.743Z" fill="#FCD4CB"/><path d="M611.88 391.69c.159.317-1.883 2.198-2.148 2.426a9.86 9.86 0 0 1-4.612 2.198 20.614 20.614 0 0 1-7.341.263 17.195 17.195 0 0 1-3.521-.931 30.464 30.464 0 0 1-1.76-.809 1.158 1.158 0 0 1-.124-1.881c.3-.246.546-.457.634-.51 1.056-.773 2.077-1.547 3.204-2.215 3.38-1.986 7.799-5.923 12.006-4.869 1.62 2.866 2.095 3.463 3.662 6.328Z" fill="#FCD4CB"/><path d="M656.754 327.652a21.415 21.415 0 0 0-9.929 12.885 62.714 62.714 0 0 0-2.148 16.524c4.912 2.25 9.824 4.553 14.524 7.207 2.201-6.873 4.26-14.326 5.862-21.375a19.749 19.749 0 0 0 .652-8.157c-.775-3.99-4.965-6.293-8.961-7.084Z" fill="#FE6A3C"/><path d="m651.226 416.757-24.999-4.359c-3.908-.686-10.985-4.729-9.313-18.036l50.754.932-1.76 11.162a12.674 12.674 0 0 1-5.206 8.186 12.708 12.708 0 0 1-9.476 2.115Z" fill="#24C8D1"/><path d="m640.944 480.638-2.024-.352a11.529 11.529 0 0 1-7.438-4.72 11.502 11.502 0 0 1-1.928-8.587l9.841-56.251a11.463 11.463 0 0 1 8.821-9.236c1.475-.328 3-.361 4.488-.098l2.025.351c6.267 1.09 12.323-1.599 11.179 4.659L652 472.077c-1.091 6.311-4.806 9.598-11.056 8.561Z" fill="#24C8D1"/><path d="m661.912 545.133-18.273 2.215-14.207-77.398 22.569 2.18 9.911 73.003Z" fill="#24C8D1"/><path d="M642.776 325.718a5.039 5.039 0 0 1-3.354-1.926 5.032 5.032 0 0 1-.995-3.734l1.497-11.479 10.017 1.319-1.497 11.479a4.993 4.993 0 0 1-.63 1.866 5.047 5.047 0 0 1-5.038 2.475Z" fill="#FCD4CB"/><path d="m650.311 307.138-10.017-1.301-1.761 12.815c4.577-.141 9.348-2.918 10.792-7.137a17.22 17.22 0 0 0 .722-2.953l.264-1.424Z" fill="#FC957E"/><path d="M636.825 315.312a6.113 6.113 0 0 1-2.112-1.389 10.975 10.975 0 0 1-2.536-7.787c0-1.424 2.659-20.989 2.641-20.989l19.893 2.584c-.457 3.586-.927 7.172-1.408 10.758a52.092 52.092 0 0 1-1.514 10.354c-1.919 5.572-9.577 8.614-14.964 6.469Z" fill="#FCD4CB"/><path d="M637.512 304.695a.204.204 0 0 1-.078-.035.213.213 0 0 1-.087-.144.223.223 0 0 1 .007-.085l.211-.826-1.761-.123a.209.209 0 0 1-.104-.038.212.212 0 0 1-.072-.085.23.23 0 0 1-.025-.106c0-.037.008-.073.025-.105l3.028-4.87a.211.211 0 0 1 .069-.045.206.206 0 0 1 .162 0 .211.211 0 0 1 .115.114c.01.026.016.053.016.081a.225.225 0 0 1-.016.081.227.227 0 0 1-.046.068l-2.817 4.553 1.602.123a.26.26 0 0 1 .176.106.19.19 0 0 1 0 .175l-.282 1.073a.233.233 0 0 1-.123.088Z" fill="#FC957E"/><path d="M634.325 304.519a3.908 3.908 0 0 0 5.809 2.826 3.904 3.904 0 0 0 1.656-1.859l-7.465-.967Z" fill="#fff"/><path d="M652.951 308.562a3.15 3.15 0 0 1-3.521-2.127 6.16 6.16 0 0 1 .458-4.43 9.449 9.449 0 0 0 .915-2.426 2.159 2.159 0 0 0-.933-2.267c-.387-.194-.845-.211-1.214-.422a2.267 2.267 0 0 1-.845-2.233c.18-.819.256-1.658.228-2.496a3.973 3.973 0 0 0-4.189-2.812 29.98 29.98 0 0 0-5.37 1.195 7.728 7.728 0 0 1-6.056-.897 4.372 4.372 0 0 1-1.514-5.537 5.545 5.545 0 0 1 5.405-2.039c1.989.421 3.998.737 6.021.949a22.374 22.374 0 0 0 7.041-1.863 10.173 10.173 0 0 1 7.218-.369 6.001 6.001 0 0 1 2.819 2.746 5.986 5.986 0 0 1 .509 3.899c-.476 1.986-2.007 3.99-1.18 5.853.528 1.195 1.866 1.864 2.5 3.006 2.148 3.938-2.887 3.516-4.613 4.887-2.2 1.687-.193 6.469-3.679 7.383Z" fill="#00688A"/><path d="M561.496 310.39c1.62-.088 2.658-1.758 3.398-3.164.493-.949.985-2.145.352-3.006a2.558 2.558 0 0 0-1.514-.879c-1.954-.545-6.461-1.406-6.901 1.441-.335 2.127 2.5 5.696 4.665 5.608Z" fill="#FCD4CB"/><path d="m346.069 471.637-5.387-.509a1.635 1.635 0 0 1-1.479-1.758l.529-5.467 3.274.316-.37 3.815 3.838.369-.405 3.234ZM343.974 453.18l-3.275-.316 1.056-10.969 3.275.316-1.056 10.969Zm2.112-21.956-3.274-.316 1.056-10.969 3.292.317-1.074 10.968Zm2.13-21.955-3.292-.316 1.057-10.969 3.292.298-1.057 10.987Zm2.113-21.956-3.292-.316 1.056-10.969 3.292.299-1.056 10.986Zm2.112-21.955-3.292-.316 1.057-10.987 3.292.316-1.057 10.987Zm2.113-21.956-3.274-.316 1.056-10.987 3.274.317-1.056 10.986Zm2.113-21.955-3.275-.317 1.056-10.986 3.275.316-1.056 10.987Zm2.112-21.956-3.274-.316 1.056-10.987 3.292.317-1.074 10.986Zm2.13-21.955-3.292-.317 1.056-10.986 3.293.316-1.057 10.987Zm2.113-21.956-3.292-.316 1.056-10.987 3.292.317-1.056 10.986Zm2.112-21.955-3.292-.317 1.057-10.986 3.292.316-1.057 10.987ZM367.247 211.669l-3.274-.316.51-5.467a1.655 1.655 0 0 1 1.761-1.494l5.475.527-.317 3.287-3.838-.369-.317 3.832ZM701.803 239.935l-11.002-1.054.316-3.27 11.003 1.055-.317 3.269Zm-22.023-2.109-11.003-1.055.317-3.287 11.003 1.055-.317 3.287Zm-22.023-2.109-11.003-1.055.317-3.287 11.003 1.054-.317 3.288Zm-22.023-2.127-11.003-1.055.317-3.27 11.002 1.055-.316 3.27Zm-22.024-2.11-11.003-1.054.317-3.288 11.003 1.055-.317 3.287Zm-22.023-2.109-11.003-1.073.317-3.269 11.003 1.055-.317 3.287Zm-22.023-2.127-11.003-1.055.317-3.287 11.003 1.072-.317 3.27Zm-22.024-2.11-11.002-1.054.316-3.287 11.003 1.054-.317 3.287Zm-22.023-2.127-11.003-1.054.317-3.27 11.003 1.055-.317 3.269Zm-22.023-2.109-11.003-1.055.299-3.287 11.021 1.072-.317 3.27Zm-22.076-2.109-11.003-1.055.44-3.252 11.003 1.055-.44 3.252Zm-22.024-2.127-11.02-1.055.317-3.27 11.02 1.055-.317 3.27Zm-21.988-2.18-11.02-1.055.317-3.287 11.02 1.055-.317 3.287Zm-22.023-2.11-11.02-1.072.317-3.269 11.02 1.054-.317 3.287Zm-21.988-2.056-11.02-1.055.316-3.27 11.021 1.055-.317 3.27ZM719.567 245.508l-3.275-.317.37-3.814-3.838-.369.317-3.287 5.475.527a1.653 1.653 0 0 1 1.479 1.758l-.528 5.502ZM696.294 487.036l-3.274-.316 1.056-10.987 3.274.317-1.056 10.986Zm2.13-21.955-3.292-.317 1.056-10.986 3.292.316-1.056 10.987Zm2.113-21.956-3.292-.316 1.056-10.987 3.292.317-1.056 10.986Zm2.112-21.955-3.292-.317 1.056-10.986 3.293.316-1.057 10.987Zm2.113-21.974-3.292-.298 1.056-10.987 3.292.317-1.056 10.968Zm2.112-21.955-3.274-.299 1.056-10.986 3.275.316-1.057 10.969Zm2.113-21.956-3.275-.316L706.769 344l3.292.316-1.074 10.969Zm2.13-21.955-3.292-.316 1.056-10.969 3.292.316-1.056 10.969Zm2.113-21.956-3.293-.316 1.057-10.969 3.292.316-1.056 10.969Zm2.112-21.955-3.292-.317 1.056-10.969 3.292.317-1.056 10.969Zm2.113-21.956-3.292-.316 1.056-10.969 3.292.316-1.056 10.969ZM693.073 504.966h-.159l-5.422-.439.317-3.287 3.838.369.37-3.832 3.274.316-.528 5.467a1.639 1.639 0 0 1-1.69 1.406ZM676.418 503.367l-11.003-1.055.317-3.27 11.003 1.055-.317 3.27Zm-22.024-2.11-11.002-1.055.316-3.287 11.003 1.055-.317 3.287Zm-22.023-2.109-11.003-1.055.317-3.287 11.003 1.055-.317 3.287Zm-22.023-2.127-11.003-1.055.317-3.287 11.003 1.072-.317 3.27Zm-22.023-2.11-11.003-1.054.317-3.288 11.002 1.055-.316 3.287Zm-22.024-2.109-11.003-1.072.317-3.27 11.003 1.055-.317 3.287Zm-22.023-2.127-11.003-1.055.317-3.287 11.003 1.072-.317 3.27Zm-22.023-2.109-11.003-1.055.317-3.287 11.003 1.054-.317 3.288Zm-22.024-2.11-11.002-1.072.316-3.27 11.003 1.055-.317 3.287Zm-22.023-2.127-11.003-1.055.317-3.287 11.003 1.055-.317 3.287Zm-22.023-2.109-11.003-1.055.317-3.287 11.003 1.055-.317 3.287Zm-22.023-2.127-11.003-1.055.317-3.27 11.003 1.055-.317 3.27Zm-22.024-2.11-11.002-1.054.316-3.288 11.003 1.055-.317 3.287Zm-22.023-2.109-11.003-1.055.299-3.287 11.021 1.055-.317 3.287Zm-22.023-2.127-11.021-1.055.317-3.287 11.021 1.072-.317 3.27Z" fill="#005875"/><path d="m723.987 246.681 1.206-12.511-12.529-1.204-1.206 12.51 12.529 1.205ZM346.323 476.274l1.206-12.511L335 462.558l-1.206 12.511 12.529 1.205ZM371.707 212.838l1.206-12.511-12.529-1.205-1.207 12.511 12.53 1.205ZM698.602 510.117l1.207-12.511-12.53-1.204-1.206 12.51 12.529 1.205ZM246.374 306.347c-2.394-4.869-6.584-9.949-4.665-15.047 1.057-2.813 3.838-4.799 4.56-7.735 3.767-15.223-32.551-14.977-37.85-4.781-1.426 2.76-1.76 6.258-4.243 8.191-4.119 3.235-11.143-.351-15.016 3.165-3.521 3.164-1.514 9.369-4.314 13.148-4.207 5.678-15.157 1.494-19.153 7.331-2.359 3.515-1.145 9.281-4.894 11.197-2.201 1.107-5.158.141-7.13 1.635-1.972 1.494-1.338 5.59 1.039 7.031a10.983 10.983 0 0 0 8.168.686c9.683-2.039 19.365-7.594 28.872-4.711 5.844 1.758 11.284 6.68 17.199 5.185 4.19-1.054 7.447-5.273 11.778-5.097 3.292.123 5.879 2.724 8.802 4.043 5.88 2.549 13.256-.457 16.601-5.924a19.318 19.318 0 0 0 .246-18.317Z" fill="#005875"/><path d="m265.44 351.365-11.144 7.788c-.334.228-16.953-24.891-6.267-30.059l17.411 22.271Z" fill="#00689E"/><path d="M195.832 574.067c0 3.516 14.084 6.346 31.6 6.346 17.517 0 31.688-2.848 31.688-6.346s-14.083-6.363-31.688-6.363c-17.604 0-31.6 2.848-31.6 6.363Z" fill="#000" opacity=".2"/><path d="m182.804 555.504-3.873 2.901-8.802-11.76c.387-.615 1.937-10.547 2.342-11.11-.634.299-6.215 4.817-6.849 5.116l-2.13-2.848 12.675-11.549 7.306 9.738-4.049 10.881 3.38 8.631Z" fill="#D14A1F"/><path d="m183.473 535.992-4.049 10.899-3.257-20.637 7.306 9.738Z" fill="#FC957E"/><path d="M174.548 528.521c2.781 3.024 6.126 4.465 8.925 7.489 1.602-1.424 4.824-4.412 8.486-7.963-2.852-2.866-5.282-5.52-8.151-8.438a100.689 100.689 0 0 0-9.26 8.912Z" fill="#FC957E"/><path d="M227.431 546.117h-12.182v13.378h12.182v-13.378Z" fill="#FCD4CB"/><path d="M242.642 571.729v4.87h-14.63c-.246-.686-7.235-7.841-7.499-8.526-.141.685.158 7.84 0 8.526h-3.521l-1.673-17.052h12.183l6.32 9.756 8.82 2.426Z" fill="#FE6A3C"/><path d="m227.379 559.495 6.32 9.756-18.503-9.756h12.183Z" fill="#FCD4CB"/><path d="M217.591 481.675c.387.615 1.337.51 1.901.65 7.042 1.758 9.63-2.601 12.499-8.947 7.693-16.999 18.485-55.759 22.886-70.015a71.51 71.51 0 0 1-8.556-9.458c-.387-.509-1.479-.263-2.024-.351-6.813-.985-11.549 1.476-14.383 8.385-3.521 17.473-9.806 49.483-14.471 62.983-4.665 13.501-2.676 9.264 2.148 16.753Z" fill="#D14A1F"/><path d="M180.48 522.492c2.8 2.936 5.387 5.818 8.134 8.789 22.886-21.92 29.734-27.668 43.307-57.692-5.528-2.602-11.408-4.588-17.076-6.909-10.352 27.388-18.52 38.48-34.365 55.812Z" fill="#D14A1F"/><path d="m214.176 397.474 38.994-4.149s-.986-61.067-.986-61.155c-.634-5.977-5.281-8.262-10.563-9.651-2.746-.721-5.58-1.072-8.38-1.547-1.39-.228-6.654-2.162-7.693-1.67l-4.137 2.022c-3.521 1.758-7.2 3.252-10.897 4.728-5.158 2.057-9.119 6.065-8.485 11.989l12.147 59.433Z" fill="#0086CC"/><path d="m226.974 354.178 21.284-2.268a7.636 7.636 0 0 0 6.721-6.27 7.618 7.618 0 0 0-.137-3.257l-2.659-10.125-27.251 2.918 2.042 19.002Z" fill="#0086CC"/><path d="m223.365 425.529 31.477-22.219-1.76-15.118-39.998 1.582c-1.478 0-6.038 17.227-6.003 19.161.229 6.961 9.049 16.594 16.284 16.594Z" fill="#FE6A3C"/><path d="M220.443 486.28h2.059c6.356 0 8.169-5.379 8.169-11.742l3.345-56.796c0-3.049-1.213-5.973-3.372-8.129a11.523 11.523 0 0 0-8.142-3.367h-2.059c-6.355 0-13.239-1.213-13.239 5.132l5.07 63.16c0 6.363 1.814 11.742 8.169 11.742Z" fill="#FE6A3C"/><path d="M215.232 550.916h12.2l3.239-76.378h-18.397l2.958 76.378Z" fill="#FE6A3C"/><path d="M226.71 326.211a5.287 5.287 0 0 0 3.458-1.918 5.269 5.269 0 0 0 1.154-3.778l-1.267-11.813-10.317 1.09 1.268 11.813a5.163 5.163 0 0 0 3.687 4.425 5.187 5.187 0 0 0 2.017.181Z" fill="#FCD4CB"/><path d="m219.439 306.962 10.334-1.072 1.409 13.201c-4.683-.263-9.507-3.216-10.898-7.594a17.654 17.654 0 0 1-.669-3.041l-.176-1.494Z" fill="#FC957E"/><path d="M233.083 315.664a6.313 6.313 0 0 0 2.183-1.354 11.22 11.22 0 0 0 2.799-7.945c0-1.459-2.235-21.604-2.218-21.604l-20.474 2.179c.405 3.692.792 7.383 1.197 11.075.08 3.591.516 7.165 1.303 10.67 1.831 5.748 9.63 9.053 15.21 6.979Z" fill="#FCD4CB"/><path d="M232.625 304.747a.228.228 0 0 1-.211-.175l-.265-1.108a.192.192 0 0 1-.025-.097c0-.033.008-.067.025-.096a.208.208 0 0 1 .159-.088h1.655l-2.782-4.746a.231.231 0 0 1-.046-.069.22.22 0 0 1 0-.162.227.227 0 0 1 .046-.068.227.227 0 0 1 .317 0l2.993 5.08a.23.23 0 0 1 0 .211.211.211 0 0 1-.194.123h-1.76l.211.844a.227.227 0 0 1-.158.281l.035.07Z" fill="#FC957E"/><path d="M235.899 304.642a3.993 3.993 0 0 1-3.52 3.353 3.993 3.993 0 0 1-4.155-2.527l7.675-.826Z" fill="#fff"/><path d="M215.513 302.374a3.41 3.41 0 0 0 1.25 2.285 3.42 3.42 0 0 0 2.5.739l-.722-6.786a3.396 3.396 0 0 0-2.916 2.433 3.391 3.391 0 0 0-.112 1.329Z" fill="#FCD4CB"/><path d="M211.851 311.163a10.763 10.763 0 0 1-.352-1.142c-1.549-6.276-3.028-13.237 0-18.915a20.4 20.4 0 0 1 6.62-6.75 45.036 45.036 0 0 1 9.964-5.168 8.064 8.064 0 0 1 6.39-.334c1.761.879 2.905 3.27 3.521 6.047a6.672 6.672 0 0 0-5.616 4.641c-.862 2.461-.528 5.449-2.482 7.436-1.954 1.986-5.281 1.564-7.816 2.619-4.419 1.758-4.384 7.031-7.588 9.967a8.42 8.42 0 0 1-2.641 1.599Z" fill="#005875"/><path d="m112.545 472.428-14.102-87.417 272.272-43.823 12.271 76.062-270.441 55.178Z" fill="#A3CFD1"/><path d="m382.955 416.526-14.116-87.414-277.386 44.662 14.117 87.413 277.385-44.661Z" fill="#fff"/><path d="M354.484 360.032a11 11 0 0 1-11.094-5.075 10.953 10.953 0 0 1 .446-12.177 10.98 10.98 0 0 1 5.072-3.858 11.001 11.001 0 0 1 11.875 2.806 10.962 10.962 0 0 1 2.803 5.718 10.973 10.973 0 0 1-1.944 8.173 11.007 11.007 0 0 1-7.158 4.413Z" fill="#00688A"/><path d="M352.706 363.038a13.855 13.855 0 0 1-9.574-3.875 13.81 13.81 0 0 1-4.218-9.417 13.807 13.807 0 0 1 3.49-9.709 13.85 13.85 0 0 1 19.108-1.503 13.809 13.809 0 0 1 2.279 19.004 13.845 13.845 0 0 1-11.085 5.5Zm0-21.974a8.368 8.368 0 0 0-1.303.106 8.159 8.159 0 0 0-4.247 2.063 8.136 8.136 0 0 0 .727 12.545 8.069 8.069 0 0 0 6.056 1.424 8.107 8.107 0 0 0 5.299-3.253 8.08 8.08 0 0 0 1.425-6.047 8.12 8.12 0 0 0-2.745-4.889 8.142 8.142 0 0 0-5.265-1.949h.053Z" fill="#005875"/><path d="m334.632 418.181-12.191-75.491-44.51 7.167 12.191 75.491 44.51-7.167Z" fill="#FE6A3C"/><path d="M280.157 400.04a1.475 1.475 0 0 1-1.461-1.23l-7.358-45.599a1.485 1.485 0 0 1 .243-1.139 1.508 1.508 0 0 1 .989-.619 1.482 1.482 0 0 1 1.76 1.231l7.359 45.598a1.484 1.484 0 0 1-1.232 1.758h-.3Z" fill="#A3CFD1"/><path d="m277.533 427.368-12.191-75.492-44.511 7.167 12.191 75.491 44.511-7.166Z" fill="#0086CC"/><path d="M223.083 409.234a1.48 1.48 0 0 1-1.461-1.248l-7.359-45.599a1.47 1.47 0 0 1 .26-1.101 1.478 1.478 0 0 1 2.067-.336c.157.114.291.257.394.422.102.165.17.349.202.541l7.306 45.598a1.501 1.501 0 0 1-1.233 1.758l-.176-.035Z" fill="#A3CFD1"/><path d="m220.469 436.551-12.191-75.491-44.51 7.167 12.191 75.491 44.51-7.167Z" fill="#FFBF00"/><path d="M166.01 418.392a1.473 1.473 0 0 1-.956-.348 1.472 1.472 0 0 1-.505-.882l-7.359-45.599a1.475 1.475 0 0 1 1.224-1.696 1.494 1.494 0 0 1 1.102.259 1.481 1.481 0 0 1 .596.963l7.359 45.545a1.482 1.482 0 0 1-.237 1.144 1.476 1.476 0 0 1-.995.614h-.229Z" fill="#A3CFD1"/><path d="m163.387 445.738-12.191-75.491-44.51 7.166 12.191 75.492 44.51-7.167Z" fill="#24C8D1"/><path d="M108.935 427.603a1.479 1.479 0 0 1-1.461-1.248l-7.359-45.598a1.463 1.463 0 0 1 1.215-1.758 1.494 1.494 0 0 1 1.76 1.213l7.359 45.616a1.46 1.46 0 0 1-.237 1.144 1.473 1.473 0 0 1-.995.614l-.282.017Z" fill="#A3CFD1"/><path d="m187.523 368.891-.969-.685c-3.01-2.145-2.059-5.274 0-8.297l17.605-28.02a6.697 6.697 0 0 1 9.33-1.547l.986.685a6.675 6.675 0 0 1 1.549 9.317l-20.773 25.77c-2.06 3.059-4.736 4.922-7.728 2.777Z" fill="#FCD4CB"/><path d="m205.074 405.261-7.042 1.705-13.027-40.501 11.179-4.728 8.89 43.524Z" fill="#FCD4CB"/><path d="M197.804 406.175c-.335 0-.493 2.848-.511 3.199a9.893 9.893 0 0 0 1.233 4.94 20.566 20.566 0 0 0 4.454 5.836 15.818 15.818 0 0 0 2.939 2.109c.566.315 1.154.585 1.761.809a1.143 1.143 0 0 0 1.514-1.09v-.808c0-1.319-.141-2.602-.335-3.903-.598-3.867-.352-9.756-3.837-12.305-3.24.598-3.997.598-7.218 1.213Z" fill="#FCD4CB"/><path d="M218.911 330.904a21.353 21.353 0 0 1-3.662 15.821 63.744 63.744 0 0 1-11.425 12.129c-4.876-2.356-9.753-4.711-14.805-6.645 3.925-6.064 8.397-12.305 12.833-18.088a20.08 20.08 0 0 1 5.898-5.66c3.591-1.899 8.028-.141 11.161 2.443Z" fill="#0086CC"/><path d="M278.521 346.76c3.732-.949 2.992-3.516 1.197-4.412-2.887-1.442-7.782-1.266-8.609 2.443-.334 1.529 6.197 2.285 7.412 1.969Z" fill="#FCD4CB"/><path d="m408.934 95.212-211.342 14.836 9.665 137.306 79.942-5.626 2.2 31.202 45.614-34.541 83.586-5.872-9.665-137.305Z" fill="#FFBF00"/><path opacity=".5" d="M301.664 207.427s-11.865-13.402-15.699-22.071c-3.834-8.669-4.326-15.941-3.36-19.659.81-3.018 2.773-4.003 3.486-4.254-1.679-.82-2.286-1.996-2.365-3.168 1.851-1.424 1.698-3.687 1.698-3.687 1.638.214 1.485-2.048 1.397-3.341-.085-1.252-.935-.627-1.013-.581.035-.083.532-1.132-.285-4.201-.865-3.189-3.508-3.862-5.77-3.709-2.263.153-4.791 1.177-5.218 4.453-.396 3.152.238 4.123.284 4.201-.083-.035-1.011-.54-.926.712.088 1.293.241 3.556 1.835 3.123 0 0 .153 2.262 2.18 3.424.088 1.293-.471 2.629-2.345 3.73-1.873 1.101-6.979 2.421-8.79 3.842-1.852 1.424-1.913 5.325-.596 10.39 1.32 5.105 8.844 26.918 35.919 31.172l-.006-.08-.426-.296Z" fill="#fff"/><path d="M324.135 161.667c-2.534-1.452-9.08-2.226-11.586-3.274-2.506-1.048-3.423-2.609-3.533-4.225 2.315-1.78 2.123-4.608 2.123-4.608 2.048.267 1.856-2.561 1.747-4.177-.11-1.616-1.267-.726-1.267-.726s.726-1.267-.356-5.252c-1.081-3.985-4.384-4.817-7.212-4.625-2.828.191-5.989 1.46-6.524 5.555-.534 4.095.356 5.252.356 5.252s-1.267-.726-1.157.89c.109 1.616.301 4.444 2.293 3.903 0 0 .192 2.828 2.725 4.28.11 1.616-.589 3.287-2.931 4.663-2.342 1.376-8.724 3.026-11.038 4.806-2.315 1.78-2.391 6.656-.741 13.038 1.65 6.382 8.673 20.192 22.014 31.424 11.707-12.928 16.804-27.559 17.578-34.105.774-6.546.042-11.367-2.491-12.819Z" fill="#fff"/><path opacity=".5" d="M345.231 160.929c-2.027-1.162-7.264-1.781-9.228-2.622-2.005-.839-2.739-2.088-2.827-3.38 1.852-1.424 1.699-3.687 1.699-3.687 1.638.214 1.485-2.049 1.397-3.341-.085-1.253-.935-.627-1.013-.581.035-.084.532-1.132-.285-4.202-.865-3.188-3.508-3.861-5.77-3.708-2.263.153-4.791 1.177-5.219 4.452-.395 3.152.239 4.124.285 4.202-.084-.035-1.011-.54-.926.712.088 1.293.241 3.555 1.835 3.123 0 0 .153 2.262 2.18 3.424.082 1.212-.404 2.421-1.917 3.457.741.153 2.856.822 4.028 3.746 1.458 3.553 1.948 10.785-.68 19.932-2.63 9.107-12.58 23.986-12.58 23.986l-.383.35.006.081c26.254-7.865 30.769-30.493 31.388-35.73.622-5.196.037-9.053-1.99-10.214Z" fill="#fff"/><path d="M55.373 30.498c1.154-2 4.04-2 5.195 0l45.007 77.926c1.155 2-.288 4.501-2.598 4.501H12.964c-2.31 0-3.753-2.501-2.598-4.501l45.007-77.926Z" fill="#FF8159"/><path d="M57.104 182.052a1 1 0 0 0 1.732 0l16.31-28.239a1 1 0 0 0-.867-1.501H41.66a1 1 0 0 0-.866 1.501l16.31 28.239Z" fill="#2348FF"/><ellipse cx="345.322" cy="38.318" rx="11.322" ry="11.318" fill="#E81B65"/><circle cx="46" cy="453" r="42" fill="#FFE570"/><path d="m770.059 85.885.07-.076c2.901-3.122 7.855-3.087 10.71.076v0c2.843 3.15 7.785 3.15 10.627 0v0c2.843-3.148 7.784-3.148 10.627 0v0c2.842 3.15 7.784 3.15 10.626 0v0c2.856-3.163 7.809-3.198 10.71-.076l.071.076" stroke="#FF8159" stroke-width="8" stroke-linecap="round"/><ellipse cx="797.232" cy="147.457" rx="36.231" ry="36.671" fill="#2348FF"/><path d="M845.637 350.057c1.155 2 4.041 2 5.196 0l46.968-81.321c1.155-2-.289-4.501-2.598-4.501h-93.936c-2.31 0-3.753 2.501-2.598 4.501l46.968 81.321Z" fill="#E81B65"/></svg>